<svg xmlns="http://www.w3.org/2000/svg" xmlns:xlink="http://www.w3.org/1999/xlink" width="400" zoomAndPan="magnify" viewBox="0 0 300 299.999988" height="400" preserveAspectRatio="xMidYMid meet" version="1.0"><defs><clipPath id="a3b95fa69e"><path d="M 47 117.03125 L 67 117.03125 L 67 143 L 47 143 Z M 47 117.03125 " clip-rule="nonzero"/></clipPath><clipPath id="2063d1d873"><path d="M 50 117.03125 L 86 117.03125 L 86 152 L 50 152 Z M 50 117.03125 " clip-rule="nonzero"/></clipPath><clipPath id="cf98008515"><path d="M 47 117.03125 L 88 117.03125 L 88 156 L 47 156 Z M 47 117.03125 " clip-rule="nonzero"/></clipPath><clipPath id="de008c10d8"><path d="M 49 117.03125 L 90 117.03125 L 90 156 L 49 156 Z M 49 117.03125 " clip-rule="nonzero"/></clipPath><clipPath id="d2165b6856"><path d="M 46 117.03125 L 89 117.03125 L 89 158 L 46 158 Z M 46 117.03125 " clip-rule="nonzero"/></clipPath><clipPath id="641fbb1d6a"><path d="M 237 129 L 253.75 129 L 253.75 152 L 237 152 Z M 237 129 " clip-rule="nonzero"/></clipPath><clipPath id="97ee038617"><path d="M 173 156 L 178 156 L 178 162.78125 L 173 162.78125 Z M 173 156 " clip-rule="nonzero"/></clipPath></defs><path fill="#6ba43a" d="M 62.246094 118.230469 C 62.246094 118.230469 45.78125 121.570312 47.164062 139.378906 C 48.550781 157.191406 71.484375 162.382812 82.179688 151.699219 C 82.179688 151.699219 63.632812 160.972656 54.015625 147.097656 C 44.394531 133.222656 54.476562 120.828125 62.246094 118.230469 Z M 62.246094 118.230469 " fill-opacity="1" fill-rule="nonzero"/><path fill="#c89211" d="M 80.882812 120.847656 C 89.941406 126.980469 91.671875 139.664062 84.875 148.023438 C 78.226562 156.492188 65.058594 158.105469 56.605469 151.21875 C 65.15625 157.253906 77.726562 155.644531 84.109375 147.453125 C 90.703125 139.351562 89.121094 127.335938 80.882812 120.847656 Z M 80.882812 120.847656 " fill-opacity="1" fill-rule="nonzero"/><g clip-path="url(#a3b95fa69e)"><path fill="#4a8b2c" d="M 48.519531 142.066406 C 45.644531 133.710938 50.042969 123.875 57.914062 119.589844 C 60.519531 118.132812 63.457031 117.25 66.394531 117.128906 C 63.605469 118.015625 61.023438 119.226562 58.738281 120.820312 C 51.714844 125.609375 48 133.8125 48.519531 142.066406 Z M 48.519531 142.066406 " fill-opacity="1" fill-rule="nonzero"/></g><g clip-path="url(#2063d1d873)"><path fill="#6ba43a" d="M 85.335938 133.988281 C 85.496094 140.714844 81.027344 147.214844 74.558594 149.753906 C 64.414062 153.960938 52.414062 147.789062 50.394531 137.320312 C 48.15625 126.9375 56.78125 116.84375 67.78125 117.0625 C 64.34375 117.105469 60.925781 118.113281 58.085938 119.988281 C 49.046875 125.820312 47.761719 138.453125 55.507812 145.820312 C 66.570312 156.339844 85.070312 148.921875 85.335938 133.988281 Z M 85.335938 133.988281 " fill-opacity="1" fill-rule="nonzero"/></g><g clip-path="url(#cf98008515)"><path fill="#4a8b2c" d="M 86.757812 130.933594 C 88.835938 137.226562 87.050781 144.53125 82.347656 149.347656 C 68.933594 162.953125 45.59375 152.378906 47.847656 133.75 C 48.785156 126.1875 54.792969 119.550781 62.46875 117.765625 C 55.03125 119.910156 49.394531 126.394531 48.59375 133.835938 C 47.386719 144.34375 55.484375 153.785156 66.429688 154.566406 C 79.816406 155.476562 90.046875 143.4375 86.757812 130.933594 Z M 86.757812 130.933594 " fill-opacity="1" fill-rule="nonzero"/></g><g clip-path="url(#de008c10d8)"><path fill="#00783f" d="M 89.105469 135.75 C 89.515625 142.355469 85.863281 148.875 80.050781 152.351562 C 75.007812 155.441406 68.511719 156.113281 62.882812 154.195312 C 50.824219 150.101562 45.714844 136.269531 52.507812 125.796875 C 56.113281 120.1875 62.875 116.664062 69.730469 117.0625 C 63.132812 117.378906 56.964844 120.933594 53.703125 126.488281 C 47.394531 137.117188 53.664062 150.722656 66.125 153.210938 C 77.726562 155.546875 88.539062 147.082031 89.105469 135.75 Z M 89.105469 135.75 " fill-opacity="1" fill-rule="nonzero"/></g><path fill="#6ba43a" d="M 85.152344 127.265625 C 88.484375 133.730469 87.300781 141.871094 82.261719 147.214844 C 70.949219 159.238281 50.3125 152.175781 49.394531 135.964844 C 49.042969 129.699219 52.328125 123.429688 57.789062 120.019531 C 58.558594 119.53125 59.367188 119.109375 60.195312 118.726562 C 58.550781 119.507812 57.011719 120.503906 55.664062 121.710938 C 49.445312 127.210938 47.851562 136.359375 51.90625 143.5 C 57.917969 154.332031 73.511719 156.148438 82.042969 147.023438 C 87.058594 141.8125 88.332031 133.683594 85.152344 127.265625 Z M 85.152344 127.265625 " fill-opacity="1" fill-rule="nonzero"/><path fill="#4a8b2c" d="M 80.882812 120.847656 C 87.261719 125.4375 90.191406 133.667969 88.082031 141.074219 C 83.367188 157.691406 60.320312 160.566406 51.371094 145.65625 C 47.914062 139.890625 47.894531 132.433594 51.363281 126.675781 C 51.847656 125.855469 52.402344 125.078125 52.992188 124.332031 C 51.824219 125.835938 50.863281 127.492188 50.191406 129.257812 C 47.039062 137.363281 50.085938 146.742188 57.492188 151.640625 C 68.59375 159.117188 84.269531 153.605469 87.796875 141 C 89.945312 133.722656 87.105469 125.460938 80.882812 120.847656 Z M 80.882812 120.847656 " fill-opacity="1" fill-rule="nonzero"/><g clip-path="url(#d2165b6856)"><path fill="#c89211" d="M 88.695312 137.226562 C 89.0625 149.925781 76.515625 159.90625 63.632812 157.347656 C 45.070312 153.71875 40.269531 130.429688 56.058594 120.308594 C 59.535156 118.128906 63.671875 116.972656 67.78125 117.0625 C 65.734375 117.113281 63.691406 117.425781 61.742188 118.023438 C 50.535156 121.457031 44.453125 133.226562 48.441406 143.898438 C 50.804688 150.34375 56.8125 155.351562 63.773438 156.65625 C 76.554688 159.144531 88.464844 149.765625 88.695312 137.226562 Z M 88.695312 137.226562 " fill-opacity="1" fill-rule="nonzero"/></g><path fill="#c89211" d="M 84.457031 126.746094 C 88.054688 133.113281 87.199219 141.335938 82.355469 146.886719 C 74.925781 155.722656 60.429688 155.6875 53.085938 146.769531 C 46.980469 139.636719 47.585938 128.738281 54.488281 122.3125 C 55.8125 121.054688 57.332031 120.007812 58.96875 119.171875 C 57.34375 120.019531 55.832031 121.082031 54.523438 122.34375 C 47.726562 128.792969 47.109375 139.589844 53.210938 146.671875 C 60.511719 155.464844 74.871094 155.546875 82.257812 146.808594 C 87.074219 141.328125 87.972656 133.078125 84.457031 126.746094 Z M 84.457031 126.746094 " fill-opacity="1" fill-rule="nonzero"/><path fill="#6ba43a" d="M 81.316406 146.152344 C 81.886719 146.152344 82.347656 145.707031 82.347656 145.15625 C 82.347656 144.605469 81.886719 144.160156 81.316406 144.160156 C 80.746094 144.160156 80.28125 144.605469 80.28125 145.15625 C 80.28125 145.707031 80.746094 146.152344 81.316406 146.152344 Z M 81.316406 146.152344 " fill-opacity="1" fill-rule="nonzero"/><path fill="#c89211" d="M 47.054688 127.546875 C 47.625 127.546875 48.085938 127.101562 48.085938 126.550781 C 48.085938 126 47.625 125.554688 47.054688 125.554688 C 46.484375 125.554688 46.019531 126 46.019531 126.550781 C 46.019531 127.101562 46.484375 127.546875 47.054688 127.546875 Z M 47.054688 127.546875 " fill-opacity="1" fill-rule="nonzero"/><path fill="#00783f" d="M 60.777344 157.539062 C 61.398438 157.539062 61.902344 157.054688 61.902344 156.453125 C 61.902344 155.855469 61.398438 155.367188 60.777344 155.367188 C 60.152344 155.367188 59.648438 155.855469 59.648438 156.453125 C 59.648438 157.054688 60.152344 157.539062 60.777344 157.539062 Z M 60.777344 157.539062 " fill-opacity="1" fill-rule="nonzero"/><path fill="#c89211" d="M 78.601562 127.410156 C 78.097656 127.410156 77.691406 127.800781 77.691406 128.289062 C 77.691406 128.316406 77.695312 128.347656 77.695312 128.375 C 77.523438 128.675781 77.382812 128.988281 77.277344 129.3125 C 77.75 129.234375 78.253906 129.175781 78.792969 129.140625 C 79.199219 129.058594 79.503906 128.707031 79.503906 128.289062 C 79.503906 127.800781 79.097656 127.410156 78.601562 127.410156 Z M 77.792969 126.527344 C 77.792969 126.042969 77.386719 125.652344 76.882812 125.652344 C 76.382812 125.652344 75.980469 126.042969 75.980469 126.527344 C 75.980469 126.644531 76.003906 126.757812 76.046875 126.859375 C 75.519531 128.125 74.785156 129.308594 73.855469 130.355469 C 74.425781 130.09375 75.09375 129.832031 75.878906 129.617188 C 76.355469 128.910156 76.753906 128.15625 77.085938 127.378906 C 77.492188 127.289062 77.792969 126.945312 77.792969 126.527344 Z M 74.941406 124.363281 C 74.941406 123.878906 74.535156 123.488281 74.03125 123.488281 C 73.53125 123.488281 73.125 123.878906 73.125 124.363281 C 73.125 124.460938 73.144531 124.554688 73.175781 124.640625 C 73.078125 124.769531 72.96875 124.886719 72.835938 124.988281 C 72.605469 125.175781 72.335938 125.304688 72.050781 125.367188 C 72.144531 125.035156 72.222656 124.695312 72.296875 124.355469 C 72.613281 124.21875 72.835938 123.910156 72.835938 123.554688 C 72.835938 123.074219 72.429688 122.679688 71.925781 122.679688 C 71.425781 122.679688 71.019531 123.074219 71.019531 123.554688 C 71.019531 123.734375 71.078125 123.898438 71.175781 124.039062 C 70.820312 125.785156 70.144531 127.449219 69.167969 128.96875 L 69.167969 123.738281 C 69.359375 123.578125 69.480469 123.34375 69.480469 123.082031 C 69.480469 122.597656 69.074219 122.207031 68.570312 122.207031 C 68.070312 122.207031 67.664062 122.597656 67.664062 123.082031 C 67.664062 123.355469 67.796875 123.601562 68 123.761719 L 68 131.175781 C 66.941406 130.472656 65.820312 129.894531 64.648438 129.441406 C 64.644531 128.992188 64.578125 128.558594 64.453125 128.140625 C 65.949219 127.261719 66.835938 125.664062 66.78125 123.992188 C 66.894531 123.847656 66.960938 123.667969 66.960938 123.472656 C 66.960938 122.988281 66.554688 122.597656 66.054688 122.597656 C 65.554688 122.597656 65.148438 122.988281 65.148438 123.472656 C 65.148438 123.804688 65.339844 124.089844 65.621094 124.238281 C 65.585938 125.371094 64.988281 126.4375 64.011719 127.082031 C 63.65625 126.449219 63.160156 125.898438 62.566406 125.460938 C 62.546875 124.996094 62.152344 124.625 61.664062 124.625 C 61.160156 124.625 60.753906 125.015625 60.753906 125.5 C 60.753906 125.980469 61.160156 126.375 61.664062 126.375 C 61.730469 126.375 61.796875 126.367188 61.859375 126.351562 C 62.730469 126.988281 63.320312 127.949219 63.453125 129.027344 C 62.175781 128.632812 60.851562 128.386719 59.488281 128.285156 C 59.328125 128.03125 59.039062 127.859375 58.710938 127.859375 C 58.207031 127.859375 57.800781 128.25 57.800781 128.730469 C 57.800781 129.21875 58.207031 129.609375 58.710938 129.609375 C 58.933594 129.609375 59.136719 129.527344 59.292969 129.398438 C 59.613281 129.421875 59.925781 129.449219 60.238281 129.488281 C 59.71875 130.058594 59.03125 130.445312 58.28125 130.609375 C 58.113281 130.417969 57.867188 130.296875 57.589844 130.296875 C 57.085938 130.296875 56.679688 130.691406 56.679688 131.171875 C 56.679688 131.65625 57.085938 132.046875 57.589844 132.046875 C 57.855469 132.046875 58.09375 131.933594 58.261719 131.757812 C 59.570312 131.542969 60.769531 130.824219 61.53125 129.699219 C 63.191406 130.035156 64.777344 130.621094 66.253906 131.441406 C 65.601562 131.597656 64.925781 131.683594 64.242188 131.683594 L 64.242188 132.804688 C 65.375 132.804688 66.480469 132.613281 67.53125 132.230469 C 67.691406 132.339844 67.847656 132.449219 68 132.558594 L 68 135.445312 C 68.5625 134.785156 69.113281 134.113281 69.714844 133.460938 C 69.535156 133.550781 69.351562 133.632812 69.164062 133.710938 L 69.164062 130.941406 C 70.246094 129.589844 71.085938 128.105469 71.667969 126.535156 C 72.367188 126.527344 73.035156 126.292969 73.582031 125.855469 C 73.8125 125.671875 74.007812 125.457031 74.167969 125.226562 C 74.609375 125.160156 74.941406 124.796875 74.941406 124.363281 Z M 72.632812 129.027344 C 72.632812 128.582031 72.261719 128.222656 71.800781 128.222656 C 71.339844 128.222656 70.96875 128.582031 70.96875 129.027344 C 70.96875 129.222656 71.039062 129.398438 71.160156 129.539062 C 71.179688 130.304688 71.300781 131.058594 71.515625 131.785156 C 71.832031 131.539062 72.167969 131.300781 72.53125 131.078125 C 72.417969 130.609375 72.351562 130.132812 72.328125 129.648438 C 72.515625 129.5 72.632812 129.273438 72.632812 129.027344 Z M 65.132812 133.960938 C 64.671875 133.960938 64.300781 134.320312 64.300781 134.765625 C 64.300781 135.210938 64.671875 135.566406 65.132812 135.566406 C 65.265625 135.566406 65.386719 135.539062 65.496094 135.484375 C 66.070312 135.75 66.605469 136.074219 67.097656 136.460938 C 67.359375 136.179688 67.609375 135.894531 67.859375 135.605469 C 67.253906 135.132812 66.59375 134.738281 65.886719 134.421875 C 65.753906 134.152344 65.464844 133.960938 65.132812 133.960938 Z M 62.9375 136.226562 C 63.222656 136.027344 63.453125 135.765625 63.617188 135.457031 C 63.878906 134.949219 63.925781 134.371094 63.738281 133.832031 L 62.632812 134.183594 C 62.71875 134.441406 62.695312 134.710938 62.570312 134.953125 C 62.492188 135.105469 62.378906 135.230469 62.242188 135.324219 C 61.550781 134.136719 61.425781 132.660156 62.050781 131.324219 L 60.984375 130.867188 C 60.03125 132.921875 60.484375 135.242188 61.9375 136.832031 C 60.550781 136.433594 59.273438 135.6875 58.253906 134.636719 C 58.257812 134.613281 58.257812 134.59375 58.257812 134.570312 C 58.257812 134.566406 58.257812 134.566406 58.257812 134.566406 C 58.257812 134.152344 57.957031 133.804688 57.554688 133.714844 C 57.488281 133.703125 57.421875 133.695312 57.351562 133.695312 C 57.328125 133.695312 57.300781 133.699219 57.277344 133.699219 C 56.8125 133.738281 56.445312 134.113281 56.445312 134.570312 C 56.445312 135.054688 56.851562 135.445312 57.351562 135.445312 C 57.359375 135.445312 57.367188 135.445312 57.371094 135.441406 C 57.390625 135.441406 57.414062 135.441406 57.433594 135.4375 C 58.550781 136.585938 59.96875 137.4375 61.574219 137.902344 C 62.476562 138.164062 63.398438 138.296875 64.3125 138.296875 C 64.566406 138.296875 64.820312 138.285156 65.070312 138.265625 C 65.707031 137.816406 66.257812 137.324219 66.769531 136.804688 C 65.960938 137.046875 65.128906 137.167969 64.308594 137.167969 C 63.777344 136.929688 63.320312 136.605469 62.9375 136.226562 Z M 62.9375 136.226562 " fill-opacity="1" fill-rule="nonzero"/><path fill="#00783f" d="M 78.195312 134.832031 C 78.867188 134.832031 79.53125 134.722656 80.164062 134.515625 C 80.300781 134.601562 80.46875 134.652344 80.648438 134.652344 C 81.148438 134.652344 81.554688 134.261719 81.554688 133.777344 C 81.554688 133.292969 81.148438 132.902344 80.648438 132.902344 C 80.269531 132.902344 79.945312 133.125 79.808594 133.445312 C 79.332031 133.605469 78.832031 133.695312 78.324219 133.707031 C 78.738281 133.207031 79.117188 132.675781 79.457031 132.117188 C 79.519531 132.015625 79.578125 131.910156 79.640625 131.804688 C 79.660156 131.800781 79.679688 131.800781 79.699219 131.796875 C 80.125 131.726562 80.449219 131.367188 80.449219 130.9375 C 80.449219 130.453125 80.042969 130.0625 79.542969 130.0625 C 79.4375 130.0625 79.335938 130.082031 79.238281 130.117188 C 79.195312 130.128906 79.144531 130.148438 79.101562 130.171875 C 78.824219 130.320312 78.632812 130.609375 78.632812 130.9375 C 78.632812 130.988281 78.636719 131.035156 78.644531 131.082031 C 78.648438 131.109375 78.660156 131.136719 78.664062 131.164062 C 78.550781 131.371094 78.429688 131.578125 78.296875 131.78125 C 78.089844 130.90625 78.1875 129.980469 78.585938 129.164062 L 78.597656 129.164062 C 78.664062 129.164062 78.730469 129.160156 78.792969 129.144531 C 78.253906 129.179688 77.75 129.238281 77.277344 129.316406 C 76.890625 130.492188 76.949219 131.78125 77.472656 132.925781 C 76.46875 134.171875 75.21875 135.242188 73.769531 136.0625 C 73.199219 136.121094 72.640625 136.21875 72.089844 136.347656 C 72.183594 136.214844 72.300781 136.089844 72.433594 135.984375 C 72.820312 135.671875 73.3125 135.527344 73.816406 135.570312 L 73.921875 134.453125 C 73.109375 134.382812 72.3125 134.617188 71.6875 135.125 C 71.152344 135.554688 70.792969 136.128906 70.652344 136.773438 C 70.144531 136.953125 69.644531 137.164062 69.164062 137.402344 L 69.164062 134.925781 C 70.636719 134.367188 71.996094 133.578125 73.203125 132.574219 C 73.5625 132.277344 73.902344 131.960938 74.226562 131.636719 C 74.734375 131.753906 75.25 131.8125 75.773438 131.8125 C 75.925781 131.8125 76.078125 131.808594 76.234375 131.796875 L 76.15625 130.675781 C 75.804688 130.699219 75.457031 130.691406 75.113281 130.648438 C 75.382812 130.316406 75.640625 129.972656 75.875 129.617188 C 75.089844 129.832031 74.421875 130.09375 73.851562 130.355469 C 73.480469 130.773438 73.082031 131.171875 72.652344 131.542969 C 72.605469 131.386719 72.558594 131.234375 72.523438 131.078125 C 72.164062 131.300781 71.824219 131.539062 71.511719 131.785156 C 71.5625 131.960938 71.621094 132.136719 71.683594 132.304688 C 71.0625 132.75 70.402344 133.136719 69.710938 133.460938 C 69.109375 134.113281 68.554688 134.785156 67.992188 135.445312 L 67.992188 135.71875 C 67.949219 135.683594 67.902344 135.644531 67.851562 135.609375 C 67.605469 135.894531 67.351562 136.179688 67.089844 136.460938 C 67.164062 136.515625 67.230469 136.570312 67.296875 136.625 C 67.117188 136.691406 66.9375 136.753906 66.757812 136.808594 C 66.25 137.324219 65.695312 137.820312 65.0625 138.269531 C 66.0625 138.191406 67.050781 137.957031 67.992188 137.566406 L 67.992188 140.46875 L 63.386719 140.46875 L 63.386719 144.101562 C 62.738281 144.324219 62.273438 144.914062 62.273438 145.613281 C 62.273438 146.496094 63.015625 147.214844 63.9375 147.214844 C 64.851562 147.214844 65.597656 146.496094 65.597656 145.613281 C 65.597656 144.9375 65.160156 144.359375 64.550781 144.125 L 64.550781 141.589844 L 68.003906 141.589844 L 68.003906 145.230469 C 67.363281 145.453125 66.902344 146.042969 66.902344 146.738281 C 66.902344 147.621094 67.644531 148.339844 68.5625 148.339844 C 69.480469 148.339844 70.226562 147.621094 70.226562 146.738281 C 70.226562 146.058594 69.785156 145.480469 69.167969 145.246094 L 69.167969 141.589844 L 72.621094 141.589844 L 72.621094 144.125 C 72.007812 144.363281 71.574219 144.9375 71.574219 145.613281 C 71.574219 146.496094 72.316406 147.214844 73.234375 147.214844 C 74.152344 147.214844 74.898438 146.496094 74.898438 145.613281 C 74.898438 144.914062 74.429688 144.320312 73.785156 144.101562 L 73.785156 140.46875 L 69.167969 140.46875 L 69.167969 138.683594 C 72.296875 136.9375 76.046875 136.664062 79.367188 137.804688 C 79.480469 138.167969 79.824219 138.433594 80.234375 138.433594 C 80.738281 138.433594 81.144531 138.042969 81.144531 137.558594 C 81.144531 137.074219 80.738281 136.683594 80.234375 136.683594 C 80.097656 136.683594 79.964844 136.714844 79.851562 136.765625 C 78.601562 136.324219 77.285156 136.0625 75.933594 136 C 76.433594 135.621094 76.902344 135.210938 77.347656 134.777344 C 77.628906 134.808594 77.914062 134.832031 78.195312 134.832031 Z M 64.992188 145.609375 C 64.992188 146.171875 64.519531 146.628906 63.933594 146.628906 C 63.347656 146.628906 62.875 146.167969 62.875 145.609375 C 62.875 145.042969 63.347656 144.585938 63.933594 144.585938 C 64.519531 144.585938 64.992188 145.046875 64.992188 145.609375 Z M 69.621094 146.734375 C 69.621094 147.300781 69.144531 147.757812 68.5625 147.757812 C 67.976562 147.757812 67.5 147.296875 67.5 146.734375 C 67.5 146.21875 67.898438 145.796875 68.410156 145.722656 L 68.707031 145.722656 C 69.222656 145.792969 69.621094 146.21875 69.621094 146.734375 Z M 74.289062 145.609375 C 74.289062 146.171875 73.816406 146.628906 73.230469 146.628906 C 72.648438 146.628906 72.171875 146.167969 72.171875 145.609375 C 72.171875 145.042969 72.648438 144.585938 73.230469 144.585938 C 73.816406 144.585938 74.289062 145.046875 74.289062 145.609375 Z M 74.289062 145.609375 " fill-opacity="1" fill-rule="nonzero"/><path fill="#bf9000" d="M 106.320312 130.882812 L 101.746094 141.476562 C 100.96875 143.273438 99.148438 144.445312 97.132812 144.445312 C 96.613281 144.445312 96.265625 143.921875 96.484375 143.46875 L 106.472656 122.664062 C 106.859375 121.855469 108.046875 121.851562 108.441406 122.65625 L 120.574219 147.480469 C 120.777344 147.894531 120.464844 148.371094 119.992188 148.371094 L 119.804688 148.371094 C 117.816406 148.371094 116.019531 147.238281 115.226562 145.480469 L 108.625 130.863281 C 108.183594 129.886719 106.746094 129.898438 106.320312 130.882812 Z M 106.320312 130.882812 " fill-opacity="1" fill-rule="nonzero"/><path fill="#bf9000" d="M 128.597656 133.324219 C 128.261719 133.066406 127.949219 132.871094 127.660156 132.742188 C 127.371094 132.613281 127.003906 132.550781 126.558594 132.550781 C 125.667969 132.550781 125.019531 132.878906 124.621094 133.535156 C 124.21875 134.1875 124.019531 135.042969 124.019531 136.097656 L 124.019531 144.441406 L 120.441406 144.441406 L 120.441406 129.617188 L 124.019531 129.617188 L 124.019531 131.390625 C 124.484375 130.742188 125.023438 130.226562 125.640625 129.839844 C 126.253906 129.453125 126.882812 129.261719 127.527344 129.261719 C 128.085938 129.261719 128.609375 129.351562 129.097656 129.535156 C 129.585938 129.71875 130.011719 130.003906 130.367188 130.390625 Z M 128.597656 133.324219 " fill-opacity="1" fill-rule="nonzero"/><path fill="#bf9000" d="M 147.5 137.03125 C 147.5 138.664062 147.15625 140.054688 146.464844 141.203125 C 145.777344 142.355469 144.859375 143.234375 143.722656 143.847656 C 142.585938 144.460938 141.351562 144.769531 140.015625 144.769531 C 138.875 144.769531 137.863281 144.527344 136.972656 144.042969 C 136.082031 143.558594 135.34375 142.863281 134.765625 141.964844 L 134.765625 144.445312 L 131.121094 144.445312 L 131.121094 119.304688 L 134.765625 119.304688 L 134.765625 132.097656 C 135.34375 131.195312 136.078125 130.503906 136.972656 130.019531 C 137.863281 129.539062 138.875 129.292969 140.015625 129.292969 C 141.351562 129.292969 142.585938 129.601562 143.722656 130.214844 C 144.859375 130.824219 145.773438 131.707031 146.464844 132.855469 C 147.15625 134.003906 147.5 135.398438 147.5 137.03125 Z M 143.757812 137.03125 C 143.757812 135.546875 143.300781 134.390625 142.386719 133.566406 C 141.472656 132.738281 140.390625 132.324219 139.144531 132.324219 C 138.429688 132.324219 137.738281 132.507812 137.070312 132.871094 C 136.402344 133.238281 135.851562 133.769531 135.417969 134.46875 C 134.984375 135.167969 134.765625 136.019531 134.765625 137.03125 C 134.765625 138.039062 134.984375 138.894531 135.417969 139.59375 C 135.851562 140.292969 136.402344 140.824219 137.070312 141.1875 C 137.738281 141.554688 138.429688 141.734375 139.144531 141.734375 C 140.390625 141.734375 141.472656 141.320312 142.386719 140.492188 C 143.300781 139.667969 143.757812 138.511719 143.757812 137.03125 Z M 143.757812 137.03125 " fill-opacity="1" fill-rule="nonzero"/><path fill="#bf9000" d="M 148.925781 137.03125 C 148.925781 135.503906 149.289062 134.160156 150.015625 133 C 150.738281 131.839844 151.726562 130.933594 152.972656 130.277344 C 154.21875 129.621094 155.632812 129.292969 157.214844 129.292969 C 158.777344 129.292969 160.1875 129.621094 161.445312 130.277344 C 162.703125 130.933594 163.695312 131.84375 164.421875 133 C 165.144531 134.160156 165.507812 135.503906 165.507812 137.03125 C 165.507812 138.558594 165.144531 139.898438 164.421875 141.058594 C 163.695312 142.21875 162.703125 143.125 161.445312 143.78125 C 160.1875 144.4375 158.777344 144.765625 157.214844 144.765625 C 155.632812 144.765625 154.21875 144.4375 152.972656 143.78125 C 151.722656 143.125 150.738281 142.21875 150.015625 141.058594 C 149.289062 139.898438 148.925781 138.554688 148.925781 137.03125 Z M 152.636719 137.03125 C 152.636719 138.40625 153.078125 139.527344 153.957031 140.398438 C 154.835938 141.265625 155.925781 141.703125 157.214844 141.703125 C 158.507812 141.703125 159.597656 141.269531 160.476562 140.398438 C 161.355469 139.527344 161.796875 138.40625 161.796875 137.03125 C 161.796875 135.632812 161.355469 134.503906 160.476562 133.644531 C 159.597656 132.785156 158.507812 132.355469 157.214844 132.355469 C 155.925781 132.355469 154.835938 132.785156 153.957031 133.644531 C 153.078125 134.503906 152.636719 135.632812 152.636719 137.03125 Z M 152.636719 137.03125 " fill-opacity="1" fill-rule="nonzero"/><path fill="#bf9000" d="M 175.414062 133.324219 C 175.078125 133.066406 174.765625 132.871094 174.476562 132.742188 C 174.1875 132.613281 173.820312 132.550781 173.375 132.550781 C 172.484375 132.550781 171.835938 132.878906 171.4375 133.535156 C 171.035156 134.1875 170.835938 135.042969 170.835938 136.097656 L 170.835938 144.441406 L 167.257812 144.441406 L 167.257812 129.617188 L 170.835938 129.617188 L 170.835938 131.390625 C 171.300781 130.742188 171.839844 130.226562 172.453125 129.839844 C 173.066406 129.453125 173.699219 129.261719 174.34375 129.261719 C 174.902344 129.261719 175.425781 129.351562 175.914062 129.535156 C 176.402344 129.71875 176.828125 130.003906 177.183594 130.390625 Z M 175.414062 133.324219 " fill-opacity="1" fill-rule="nonzero"/><path fill="#00783f" d="M 196.273438 129.617188 L 200.21875 129.617188 L 203.792969 138.449219 L 208.070312 128.488281 L 212.550781 138.480469 L 216.160156 129.617188 L 220.105469 129.617188 L 212.921875 145.472656 L 208.074219 135.480469 L 203.460938 145.472656 Z M 196.273438 129.617188 " fill-opacity="1" fill-rule="nonzero"/><path fill="#00783f" d="M 222.992188 133.484375 L 221.519531 131.03125 C 222.234375 130.625 223.136719 130.226562 224.230469 129.839844 C 225.320312 129.453125 226.589844 129.261719 228.039062 129.261719 C 229.910156 129.261719 231.453125 129.664062 232.667969 130.46875 C 233.882812 131.273438 234.492188 132.40625 234.492188 133.871094 L 234.492188 144.441406 L 230.949219 144.441406 L 230.949219 142.410156 C 230.457031 143.207031 229.734375 143.796875 228.777344 144.183594 C 227.816406 144.570312 226.847656 144.761719 225.867188 144.761719 C 224.886719 144.761719 223.992188 144.582031 223.175781 144.214844 C 222.363281 143.851562 221.714844 143.3125 221.222656 142.605469 C 220.734375 141.894531 220.488281 141.035156 220.488281 140.023438 C 220.488281 138.585938 221.011719 137.441406 222.058594 136.59375 C 223.105469 135.746094 224.585938 135.320312 226.503906 135.320312 C 227.507812 135.320312 228.375 135.429688 229.113281 135.640625 C 229.847656 135.855469 230.460938 136.09375 230.949219 136.351562 L 230.949219 134.546875 C 230.949219 133.644531 230.644531 133.011719 230.03125 132.644531 C 229.417969 132.277344 228.632812 132.097656 227.675781 132.097656 C 226.585938 132.097656 225.613281 132.269531 224.769531 132.613281 C 223.917969 132.957031 223.328125 133.25 222.992188 133.484375 Z M 224.128906 139.832031 C 224.128906 140.585938 224.398438 141.160156 224.933594 141.558594 C 225.464844 141.957031 226.15625 142.15625 227.003906 142.15625 C 228.074219 142.15625 229 141.839844 229.78125 141.203125 C 230.558594 140.570312 230.949219 139.683594 230.949219 138.546875 L 230.949219 138.320312 C 229.878906 137.847656 228.683594 137.613281 227.371094 137.613281 C 226.234375 137.613281 225.410156 137.8125 224.898438 138.210938 C 224.382812 138.601562 224.128906 139.144531 224.128906 139.832031 Z M 224.128906 139.832031 " fill-opacity="1" fill-rule="nonzero"/><g clip-path="url(#641fbb1d6a)"><path fill="#00783f" d="M 240.992188 151.53125 L 237.347656 151.53125 L 237.347656 129.617188 L 240.992188 129.617188 L 240.992188 132.097656 C 241.546875 131.175781 242.273438 130.457031 243.164062 129.957031 C 244.054688 129.449219 245.078125 129.199219 246.242188 129.199219 C 247.578125 129.199219 248.8125 129.511719 249.949219 130.132812 C 251.085938 130.757812 252 131.648438 252.691406 132.808594 C 253.382812 133.96875 253.726562 135.375 253.726562 137.03125 C 253.726562 138.6875 253.382812 140.089844 252.691406 141.253906 C 252.003906 142.414062 251.085938 143.300781 249.949219 143.910156 C 248.8125 144.523438 247.578125 144.832031 246.242188 144.832031 C 245.082031 144.832031 244.058594 144.582031 243.164062 144.089844 C 242.273438 143.59375 241.546875 142.886719 240.992188 141.960938 Z M 249.984375 137.03125 C 249.984375 135.546875 249.527344 134.402344 248.613281 133.597656 C 247.699219 132.792969 246.617188 132.390625 245.371094 132.390625 C 244.65625 132.390625 243.964844 132.566406 243.296875 132.921875 C 242.628906 133.273438 242.078125 133.796875 241.644531 134.484375 C 241.210938 135.175781 240.992188 136.023438 240.992188 137.03125 C 240.992188 138.042969 241.210938 138.890625 241.644531 139.578125 C 242.078125 140.265625 242.628906 140.785156 243.296875 141.140625 C 243.964844 141.492188 244.65625 141.671875 245.371094 141.671875 C 246.617188 141.671875 247.699219 141.269531 248.613281 140.464844 C 249.527344 139.65625 249.984375 138.511719 249.984375 137.03125 Z M 249.984375 137.03125 " fill-opacity="1" fill-rule="nonzero"/></g><path fill="#00783f" d="M 194.90625 130.023438 L 189.414062 128.222656 C 189.152344 128.136719 189.082031 127.808594 189.292969 127.632812 L 190.113281 126.9375 L 190.113281 126.910156 C 189.363281 126.273438 188.398438 125.953125 187.210938 125.953125 C 186.117188 125.953125 185.316406 126.191406 184.804688 126.675781 C 184.289062 127.160156 184.035156 127.722656 184.035156 128.367188 C 184.035156 129.25 184.449219 130 185.273438 130.625 C 185.519531 130.808594 185.8125 130.996094 186.15625 131.183594 C 187.675781 132.496094 190.441406 135.222656 191.039062 138.628906 C 191.078125 138.851562 191.101562 139.058594 191.109375 139.25 C 191.066406 138.574219 190.863281 138.011719 190.503906 137.570312 C 190.089844 137.066406 189.503906 136.636719 188.746094 136.28125 C 187.988281 135.925781 187.121094 135.578125 186.140625 135.234375 C 185.558594 135.042969 184.914062 134.78125 184.199219 134.460938 C 183.488281 134.136719 182.808594 133.71875 182.164062 133.203125 C 181.515625 132.6875 180.980469 132.054688 180.554688 131.316406 C 180.132812 130.574219 179.921875 129.675781 179.921875 128.625 C 179.921875 127.421875 180.246094 126.363281 180.890625 125.449219 C 181.535156 124.535156 182.414062 123.820312 183.511719 123.304688 C 184.617188 122.792969 185.871094 122.53125 187.273438 122.53125 C 188.65625 122.53125 189.859375 122.773438 190.882812 123.257812 C 191.648438 123.617188 192.324219 124.046875 192.910156 124.546875 C 192.917969 124.554688 192.929688 124.554688 192.933594 124.546875 L 193.652344 123.941406 C 193.863281 123.765625 194.191406 123.875 194.246094 124.136719 L 195.378906 129.621094 C 195.433594 129.886719 195.171875 130.105469 194.90625 130.023438 Z M 194.90625 130.023438 " fill-opacity="1" fill-rule="nonzero"/><path fill="#bf9000" d="M 195.699219 138.792969 C 195.699219 140.195312 195.324219 141.394531 194.578125 142.40625 C 193.832031 143.414062 192.867188 144.1875 191.6875 144.726562 C 190.503906 145.261719 189.25 145.53125 187.910156 145.53125 C 186.527344 145.53125 185.257812 145.269531 184.097656 144.742188 C 182.9375 144.214844 181.921875 143.511719 181.039062 142.628906 C 180.605469 142.199219 180.21875 141.75 179.878906 141.28125 C 179.261719 140.441406 179.527344 139.257812 180.476562 138.734375 C 181.296875 138.28125 182.339844 138.570312 182.90625 139.304688 C 183.394531 139.9375 183.921875 140.484375 184.480469 140.9375 C 185.074219 141.421875 185.734375 141.753906 186.460938 141.9375 C 186.496094 141.945312 186.523438 141.953125 186.554688 141.960938 C 186.933594 142.0625 187.335938 142.121094 187.769531 142.125 C 188.265625 142.128906 189.191406 142.132812 189.996094 141.640625 C 190.003906 141.640625 190.011719 141.636719 190.019531 141.628906 C 190.203125 141.523438 190.371094 141.410156 190.53125 141.277344 C 191.1875 140.714844 191.511719 139.984375 191.511719 139.082031 L 191.511719 139.046875 C 191.511719 138.964844 191.511719 138.875 191.503906 138.78125 C 191.496094 138.589844 191.472656 138.382812 191.433594 138.15625 C 190.835938 134.753906 188.070312 132.023438 186.550781 130.710938 C 187.355469 131.148438 188.414062 131.585938 189.746094 132.023438 C 190.683594 132.324219 191.605469 132.753906 192.519531 133.3125 C 193.433594 133.871094 194.191406 134.597656 194.796875 135.488281 C 195.402344 136.382812 195.699219 137.484375 195.699219 138.792969 Z M 195.699219 138.792969 " fill-opacity="1" fill-rule="nonzero"/><path fill="#c89211" d="M 131.984375 154.046875 L 131.984375 160.214844 L 133.042969 160.214844 L 133.042969 154.046875 Z M 132.613281 154.964844 L 133.878906 154.964844 C 134.242188 154.964844 134.535156 155.046875 134.757812 155.21875 C 134.980469 155.382812 135.089844 155.628906 135.089844 155.957031 C 135.089844 156.289062 134.980469 156.539062 134.757812 156.707031 C 134.535156 156.878906 134.242188 156.964844 133.878906 156.964844 L 132.613281 156.964844 L 132.613281 157.878906 L 133.878906 157.878906 C 134.339844 157.878906 134.734375 157.804688 135.070312 157.652344 C 135.40625 157.492188 135.667969 157.269531 135.851562 156.980469 C 136.042969 156.695312 136.140625 156.351562 136.140625 155.957031 C 136.140625 155.566406 136.042969 155.226562 135.851562 154.945312 C 135.667969 154.65625 135.40625 154.4375 135.070312 154.285156 C 134.734375 154.125 134.339844 154.046875 133.878906 154.046875 L 132.613281 154.046875 Z M 132.613281 154.964844 " fill-opacity="1" fill-rule="nonzero"/><path fill="#c89211" d="M 136.507812 158.1875 C 136.507812 158.601562 136.601562 158.96875 136.792969 159.289062 C 136.992188 159.609375 137.257812 159.859375 137.59375 160.039062 C 137.933594 160.214844 138.3125 160.304688 138.730469 160.304688 C 139.15625 160.304688 139.535156 160.214844 139.871094 160.039062 C 140.207031 159.859375 140.46875 159.609375 140.660156 159.289062 C 140.859375 158.96875 140.957031 158.601562 140.957031 158.1875 C 140.957031 157.773438 140.859375 157.40625 140.660156 157.085938 C 140.46875 156.769531 140.207031 156.523438 139.871094 156.347656 C 139.535156 156.164062 139.15625 156.074219 138.730469 156.074219 C 138.3125 156.074219 137.933594 156.164062 137.59375 156.347656 C 137.257812 156.523438 136.992188 156.769531 136.792969 157.085938 C 136.601562 157.40625 136.507812 157.773438 136.507812 158.1875 Z M 137.503906 158.1875 C 137.503906 157.9375 137.554688 157.710938 137.664062 157.519531 C 137.773438 157.324219 137.917969 157.175781 138.105469 157.070312 C 138.289062 156.964844 138.5 156.910156 138.730469 156.910156 C 138.964844 156.910156 139.175781 156.964844 139.359375 157.070312 C 139.546875 157.175781 139.691406 157.324219 139.800781 157.519531 C 139.90625 157.710938 139.960938 157.9375 139.960938 158.1875 C 139.960938 158.441406 139.90625 158.664062 139.800781 158.859375 C 139.691406 159.046875 139.546875 159.195312 139.359375 159.308594 C 139.175781 159.414062 138.964844 159.464844 138.730469 159.464844 C 138.5 159.464844 138.289062 159.414062 138.105469 159.308594 C 137.917969 159.195312 137.773438 159.046875 137.664062 158.859375 C 137.554688 158.664062 137.503906 158.441406 137.503906 158.1875 Z M 137.503906 158.1875 " fill-opacity="1" fill-rule="nonzero"/><path fill="#c89211" d="M 141.136719 156.160156 L 143.066406 160.496094 L 144.304688 157.765625 L 145.605469 160.496094 L 147.535156 156.160156 L 146.476562 156.160156 L 145.507812 158.585938 L 144.304688 155.851562 L 143.15625 158.566406 L 142.195312 156.160156 Z M 141.136719 156.160156 " fill-opacity="1" fill-rule="nonzero"/><path fill="#c89211" d="M 149.816406 160.304688 C 150.296875 160.304688 150.707031 160.214844 151.046875 160.03125 C 151.386719 159.84375 151.667969 159.566406 151.890625 159.203125 L 151.046875 158.875 C 150.921875 159.09375 150.761719 159.253906 150.5625 159.359375 C 150.363281 159.464844 150.132812 159.519531 149.863281 159.519531 C 149.609375 159.519531 149.398438 159.464844 149.226562 159.359375 C 149.050781 159.253906 148.917969 159.097656 148.820312 158.894531 C 148.730469 158.6875 148.6875 158.441406 148.695312 158.152344 C 148.695312 157.859375 148.742188 157.613281 148.828125 157.414062 C 148.925781 157.214844 149.058594 157.0625 149.226562 156.953125 C 149.398438 156.847656 149.609375 156.796875 149.851562 156.796875 C 150.058594 156.796875 150.234375 156.839844 150.382812 156.929688 C 150.539062 157.015625 150.660156 157.140625 150.742188 157.296875 C 150.832031 157.457031 150.875 157.644531 150.875 157.863281 C 150.875 157.902344 150.863281 157.953125 150.839844 158.011719 C 150.824219 158.070312 150.804688 158.117188 150.785156 158.152344 L 151.082031 157.75 L 148.292969 157.75 L 148.292969 158.410156 L 151.917969 158.410156 C 151.917969 158.386719 151.917969 158.347656 151.917969 158.292969 C 151.921875 158.242188 151.925781 158.191406 151.925781 158.144531 C 151.925781 157.710938 151.84375 157.339844 151.683594 157.035156 C 151.523438 156.722656 151.285156 156.484375 150.976562 156.320312 C 150.667969 156.15625 150.300781 156.074219 149.863281 156.074219 C 149.425781 156.074219 149.046875 156.160156 148.722656 156.339844 C 148.398438 156.507812 148.148438 156.753906 147.96875 157.070312 C 147.792969 157.386719 147.707031 157.761719 147.707031 158.1875 C 147.707031 158.613281 147.792969 158.980469 147.96875 159.300781 C 148.140625 159.617188 148.386719 159.863281 148.703125 160.039062 C 149.027344 160.214844 149.398438 160.304688 149.816406 160.304688 Z M 149.816406 160.304688 " fill-opacity="1" fill-rule="nonzero"/><path fill="#c89211" d="M 153.820312 156.160156 L 152.859375 156.160156 L 152.859375 160.214844 L 153.820312 160.214844 Z M 155.050781 157.175781 L 155.527344 156.375 C 155.429688 156.261719 155.316406 156.183594 155.183594 156.136719 C 155.054688 156.089844 154.914062 156.066406 154.765625 156.066406 C 154.554688 156.066406 154.351562 156.140625 154.152344 156.292969 C 153.960938 156.441406 153.804688 156.640625 153.675781 156.894531 C 153.558594 157.140625 153.496094 157.425781 153.496094 157.75 L 153.820312 157.933594 C 153.820312 157.738281 153.84375 157.570312 153.882812 157.429688 C 153.933594 157.285156 154.007812 157.167969 154.109375 157.085938 C 154.210938 157.003906 154.34375 156.964844 154.503906 156.964844 C 154.621094 156.964844 154.722656 156.980469 154.800781 157.015625 C 154.882812 157.050781 154.96875 157.105469 155.050781 157.175781 Z M 155.050781 157.175781 " fill-opacity="1" fill-rule="nonzero"/><path fill="#c89211" d="M 157.855469 160.304688 C 158.335938 160.304688 158.742188 160.214844 159.085938 160.03125 C 159.425781 159.84375 159.707031 159.566406 159.929688 159.203125 L 159.085938 158.875 C 158.960938 159.09375 158.796875 159.253906 158.601562 159.359375 C 158.402344 159.464844 158.167969 159.519531 157.898438 159.519531 C 157.648438 159.519531 157.4375 159.464844 157.261719 159.359375 C 157.089844 159.253906 156.953125 159.097656 156.859375 158.894531 C 156.769531 158.6875 156.726562 158.441406 156.734375 158.152344 C 156.734375 157.859375 156.777344 157.613281 156.867188 157.414062 C 156.964844 157.214844 157.09375 157.0625 157.261719 156.953125 C 157.4375 156.847656 157.644531 156.796875 157.890625 156.796875 C 158.09375 156.796875 158.269531 156.839844 158.421875 156.929688 C 158.574219 157.015625 158.695312 157.140625 158.78125 157.296875 C 158.867188 157.457031 158.914062 157.644531 158.914062 157.863281 C 158.914062 157.902344 158.902344 157.953125 158.878906 158.011719 C 158.859375 158.070312 158.84375 158.117188 158.824219 158.152344 L 159.121094 157.75 L 156.328125 157.75 L 156.328125 158.410156 L 159.957031 158.410156 C 159.957031 158.386719 159.957031 158.347656 159.957031 158.292969 C 159.960938 158.242188 159.964844 158.191406 159.964844 158.144531 C 159.964844 157.710938 159.882812 157.339844 159.722656 157.035156 C 159.5625 156.722656 159.324219 156.484375 159.011719 156.320312 C 158.707031 156.15625 158.335938 156.074219 157.898438 156.074219 C 157.460938 156.074219 157.082031 156.160156 156.757812 156.339844 C 156.4375 156.507812 156.183594 156.753906 156.003906 157.070312 C 155.832031 157.386719 155.746094 157.761719 155.746094 158.1875 C 155.746094 158.613281 155.832031 158.980469 156.003906 159.300781 C 156.179688 159.617188 156.425781 159.863281 156.742188 160.039062 C 157.066406 160.214844 157.4375 160.304688 157.855469 160.304688 Z M 157.855469 160.304688 " fill-opacity="1" fill-rule="nonzero"/><path fill="#c89211" d="M 164.003906 153.339844 L 164.003906 160.214844 L 164.980469 160.214844 L 164.980469 153.339844 Z M 160.585938 158.1875 C 160.585938 158.628906 160.675781 159.007812 160.863281 159.324219 C 161.046875 159.644531 161.292969 159.886719 161.597656 160.058594 C 161.910156 160.222656 162.242188 160.304688 162.59375 160.304688 C 162.941406 160.304688 163.246094 160.21875 163.5 160.046875 C 163.765625 159.878906 163.972656 159.632812 164.121094 159.316406 C 164.277344 159 164.355469 158.625 164.355469 158.1875 C 164.355469 157.75 164.277344 157.371094 164.121094 157.0625 C 163.972656 156.742188 163.765625 156.5 163.5 156.328125 C 163.246094 156.160156 162.941406 156.074219 162.59375 156.074219 C 162.242188 156.074219 161.910156 156.160156 161.597656 156.328125 C 161.292969 156.492188 161.046875 156.734375 160.863281 157.050781 C 160.675781 157.363281 160.585938 157.742188 160.585938 158.1875 Z M 161.589844 158.1875 C 161.589844 157.917969 161.644531 157.6875 161.761719 157.492188 C 161.875 157.296875 162.023438 157.152344 162.210938 157.050781 C 162.398438 156.953125 162.605469 156.902344 162.828125 156.902344 C 163.019531 156.902344 163.203125 156.953125 163.382812 157.050781 C 163.5625 157.152344 163.710938 157.296875 163.824219 157.492188 C 163.945312 157.679688 164.003906 157.914062 164.003906 158.1875 C 164.003906 158.464844 163.945312 158.699219 163.824219 158.894531 C 163.710938 159.082031 163.5625 159.226562 163.382812 159.324219 C 163.203125 159.425781 163.019531 159.476562 162.828125 159.476562 C 162.605469 159.476562 162.398438 159.425781 162.210938 159.324219 C 162.023438 159.226562 161.875 159.078125 161.761719 158.886719 C 161.644531 158.691406 161.589844 158.460938 161.589844 158.1875 Z M 161.589844 158.1875 " fill-opacity="1" fill-rule="nonzero"/><path fill="#c89211" d="M 169.816406 153.339844 L 168.839844 153.339844 L 168.839844 160.214844 L 169.816406 160.214844 Z M 173.238281 158.1875 C 173.238281 157.742188 173.144531 157.363281 172.957031 157.050781 C 172.773438 156.734375 172.527344 156.492188 172.222656 156.328125 C 171.917969 156.160156 171.585938 156.074219 171.226562 156.074219 C 170.886719 156.074219 170.582031 156.160156 170.320312 156.328125 C 170.054688 156.5 169.847656 156.742188 169.691406 157.0625 C 169.542969 157.371094 169.46875 157.75 169.46875 158.1875 C 169.46875 158.625 169.542969 159 169.691406 159.316406 C 169.847656 159.632812 170.054688 159.878906 170.320312 160.046875 C 170.582031 160.21875 170.886719 160.304688 171.226562 160.304688 C 171.585938 160.304688 171.917969 160.222656 172.222656 160.058594 C 172.527344 159.886719 172.773438 159.644531 172.957031 159.324219 C 173.144531 159.007812 173.238281 158.628906 173.238281 158.1875 Z M 172.230469 158.1875 C 172.230469 158.460938 172.175781 158.691406 172.0625 158.886719 C 171.949219 159.078125 171.796875 159.226562 171.613281 159.324219 C 171.425781 159.425781 171.21875 159.476562 170.992188 159.476562 C 170.800781 159.476562 170.617188 159.425781 170.4375 159.324219 C 170.257812 159.226562 170.105469 159.082031 169.988281 158.894531 C 169.875 158.699219 169.816406 158.464844 169.816406 158.1875 C 169.816406 157.914062 169.875 157.679688 169.988281 157.492188 C 170.105469 157.296875 170.257812 157.152344 170.4375 157.050781 C 170.617188 156.953125 170.800781 156.902344 170.992188 156.902344 C 171.21875 156.902344 171.425781 156.953125 171.613281 157.050781 C 171.796875 157.152344 171.949219 157.296875 172.0625 157.492188 C 172.175781 157.6875 172.230469 157.917969 172.230469 158.1875 Z M 172.230469 158.1875 " fill-opacity="1" fill-rule="nonzero"/><g clip-path="url(#97ee038617)"><path fill="#c89211" d="M 177.683594 156.160156 L 176.640625 156.160156 L 175.347656 159.34375 L 175.804688 159.371094 L 174.488281 156.160156 L 173.375 156.160156 L 175.042969 159.738281 L 173.957031 162.15625 L 174.988281 162.15625 Z M 177.683594 156.160156 " fill-opacity="1" fill-rule="nonzero"/></g><path fill="#c89211" d="M 182.34375 157.273438 L 184.335938 160.214844 L 185.621094 160.214844 L 183.484375 157.273438 Z M 181.042969 154.046875 L 181.042969 160.214844 L 182.101562 160.214844 L 182.101562 154.046875 Z M 181.671875 154.945312 L 182.9375 154.945312 C 183.183594 154.945312 183.394531 154.988281 183.574219 155.070312 C 183.753906 155.152344 183.894531 155.269531 183.996094 155.421875 C 184.097656 155.574219 184.148438 155.761719 184.148438 155.984375 C 184.148438 156.203125 184.097656 156.390625 183.996094 156.550781 C 183.894531 156.703125 183.753906 156.820312 183.574219 156.902344 C 183.394531 156.976562 183.183594 157.015625 182.9375 157.015625 L 181.671875 157.015625 L 181.671875 157.878906 L 182.980469 157.878906 C 183.441406 157.878906 183.839844 157.800781 184.175781 157.640625 C 184.511719 157.484375 184.769531 157.261719 184.957031 156.972656 C 185.148438 156.683594 185.242188 156.347656 185.242188 155.957031 C 185.242188 155.570312 185.148438 155.234375 184.957031 154.953125 C 184.769531 154.667969 184.511719 154.441406 184.175781 154.285156 C 183.839844 154.125 183.441406 154.046875 182.980469 154.046875 L 181.671875 154.046875 Z M 181.671875 154.945312 " fill-opacity="1" fill-rule="nonzero"/><path fill="#c89211" d="M 185.988281 158.1875 C 185.988281 158.601562 186.082031 158.96875 186.273438 159.289062 C 186.46875 159.609375 186.738281 159.859375 187.070312 160.039062 C 187.414062 160.214844 187.792969 160.304688 188.210938 160.304688 C 188.636719 160.304688 189.015625 160.214844 189.351562 160.039062 C 189.6875 159.859375 189.949219 159.609375 190.140625 159.289062 C 190.339844 158.96875 190.4375 158.601562 190.4375 158.1875 C 190.4375 157.773438 190.339844 157.40625 190.140625 157.085938 C 189.949219 156.769531 189.6875 156.523438 189.351562 156.347656 C 189.015625 156.164062 188.636719 156.074219 188.210938 156.074219 C 187.792969 156.074219 187.414062 156.164062 187.070312 156.347656 C 186.738281 156.523438 186.46875 156.769531 186.273438 157.085938 C 186.082031 157.40625 185.988281 157.773438 185.988281 158.1875 Z M 186.980469 158.1875 C 186.980469 157.9375 187.035156 157.710938 187.144531 157.519531 C 187.25 157.324219 187.398438 157.175781 187.582031 157.070312 C 187.769531 156.964844 187.976562 156.910156 188.210938 156.910156 C 188.445312 156.910156 188.65625 156.964844 188.839844 157.070312 C 189.027344 157.175781 189.171875 157.324219 189.28125 157.519531 C 189.386719 157.710938 189.441406 157.9375 189.441406 158.1875 C 189.441406 158.441406 189.386719 158.664062 189.28125 158.859375 C 189.171875 159.046875 189.027344 159.195312 188.839844 159.308594 C 188.65625 159.414062 188.445312 159.464844 188.210938 159.464844 C 187.976562 159.464844 187.769531 159.414062 187.582031 159.308594 C 187.398438 159.195312 187.25 159.046875 187.144531 158.859375 C 187.035156 158.664062 186.980469 158.441406 186.980469 158.1875 Z M 186.980469 158.1875 " fill-opacity="1" fill-rule="nonzero"/><path fill="#c89211" d="M 192.308594 153.339844 L 191.332031 153.339844 L 191.332031 160.214844 L 192.308594 160.214844 Z M 195.730469 158.1875 C 195.730469 157.742188 195.636719 157.363281 195.449219 157.050781 C 195.265625 156.734375 195.019531 156.492188 194.714844 156.328125 C 194.410156 156.160156 194.078125 156.074219 193.71875 156.074219 C 193.375 156.074219 193.074219 156.160156 192.8125 156.328125 C 192.546875 156.5 192.339844 156.742188 192.183594 157.0625 C 192.035156 157.371094 191.960938 157.75 191.960938 158.1875 C 191.960938 158.625 192.035156 159 192.183594 159.316406 C 192.339844 159.632812 192.546875 159.878906 192.8125 160.046875 C 193.074219 160.21875 193.375 160.304688 193.71875 160.304688 C 194.078125 160.304688 194.410156 160.222656 194.714844 160.058594 C 195.019531 159.886719 195.265625 159.644531 195.449219 159.324219 C 195.636719 159.007812 195.730469 158.628906 195.730469 158.1875 Z M 194.722656 158.1875 C 194.722656 158.460938 194.667969 158.691406 194.554688 158.886719 C 194.4375 159.078125 194.289062 159.226562 194.105469 159.324219 C 193.917969 159.425781 193.710938 159.476562 193.484375 159.476562 C 193.292969 159.476562 193.109375 159.425781 192.929688 159.324219 C 192.75 159.226562 192.597656 159.082031 192.480469 158.894531 C 192.367188 158.699219 192.308594 158.464844 192.308594 158.1875 C 192.308594 157.914062 192.367188 157.679688 192.480469 157.492188 C 192.597656 157.296875 192.75 157.152344 192.929688 157.050781 C 193.109375 156.953125 193.292969 156.902344 193.484375 156.902344 C 193.710938 156.902344 193.917969 156.953125 194.105469 157.050781 C 194.289062 157.152344 194.4375 157.296875 194.554688 157.492188 C 194.667969 157.6875 194.722656 157.917969 194.722656 158.1875 Z M 194.722656 158.1875 " fill-opacity="1" fill-rule="nonzero"/><path fill="#c89211" d="M 197.648438 158.628906 L 197.648438 156.160156 L 196.652344 156.160156 L 196.652344 158.734375 C 196.652344 159.21875 196.773438 159.597656 197.019531 159.882812 C 197.269531 160.164062 197.628906 160.304688 198.089844 160.304688 C 198.375 160.304688 198.621094 160.246094 198.824219 160.128906 C 199.035156 160.003906 199.203125 159.824219 199.335938 159.589844 L 199.335938 160.214844 L 200.304688 160.214844 L 200.304688 156.160156 L 199.335938 156.160156 L 199.335938 158.628906 C 199.335938 158.8125 199.296875 158.96875 199.21875 159.105469 C 199.140625 159.242188 199.035156 159.347656 198.894531 159.421875 C 198.757812 159.5 198.597656 159.539062 198.417969 159.539062 C 198.15625 159.539062 197.960938 159.457031 197.835938 159.300781 C 197.710938 159.140625 197.648438 158.917969 197.648438 158.628906 Z M 197.648438 158.628906 " fill-opacity="1" fill-rule="nonzero"/><path fill="#c89211" d="M 202.503906 156.160156 L 201.542969 156.160156 L 201.542969 160.214844 L 202.503906 160.214844 Z M 203.734375 157.175781 L 204.207031 156.375 C 204.113281 156.261719 204 156.183594 203.867188 156.136719 C 203.734375 156.089844 203.59375 156.066406 203.445312 156.066406 C 203.238281 156.066406 203.03125 156.140625 202.835938 156.292969 C 202.644531 156.441406 202.484375 156.640625 202.359375 156.894531 C 202.238281 157.140625 202.179688 157.425781 202.179688 157.75 L 202.503906 157.933594 C 202.503906 157.738281 202.523438 157.570312 202.566406 157.429688 C 202.613281 157.285156 202.6875 157.167969 202.792969 157.085938 C 202.890625 157.003906 203.023438 156.964844 203.1875 156.964844 C 203.304688 156.964844 203.402344 156.980469 203.480469 157.015625 C 203.566406 157.050781 203.648438 157.105469 203.734375 157.175781 Z M 203.734375 157.175781 " fill-opacity="1" fill-rule="nonzero"/><path fill="#c89211" d="M 207.53125 157.75 L 207.53125 160.214844 L 208.527344 160.214844 L 208.527344 157.632812 C 208.527344 157.152344 208.40625 156.773438 208.160156 156.496094 C 207.914062 156.214844 207.558594 156.074219 207.089844 156.074219 C 206.808594 156.074219 206.5625 156.132812 206.355469 156.25 C 206.152344 156.367188 205.984375 156.546875 205.851562 156.789062 L 205.851562 156.160156 L 204.875 156.160156 L 204.875 160.214844 L 205.851562 160.214844 L 205.851562 157.75 C 205.851562 157.566406 205.886719 157.40625 205.960938 157.273438 C 206.039062 157.132812 206.144531 157.027344 206.28125 156.953125 C 206.421875 156.878906 206.582031 156.839844 206.769531 156.839844 C 207.023438 156.839844 207.214844 156.917969 207.34375 157.070312 C 207.46875 157.222656 207.53125 157.449219 207.53125 157.75 Z M 207.53125 157.75 " fill-opacity="1" fill-rule="nonzero"/><path fill="#c89211" d="M 210.375 158.957031 C 210.375 158.828125 210.40625 158.71875 210.464844 158.628906 C 210.53125 158.542969 210.625 158.472656 210.753906 158.425781 C 210.878906 158.375 211.042969 158.347656 211.246094 158.347656 C 211.480469 158.347656 211.699219 158.375 211.910156 158.4375 C 212.121094 158.496094 212.316406 158.589844 212.503906 158.71875 L 212.503906 158.234375 C 212.449219 158.167969 212.355469 158.097656 212.222656 158.019531 C 212.09375 157.9375 211.925781 157.867188 211.722656 157.808594 C 211.523438 157.75 211.289062 157.722656 211.011719 157.722656 C 210.5 157.722656 210.101562 157.839844 209.820312 158.074219 C 209.539062 158.304688 209.398438 158.613281 209.398438 159.007812 C 209.398438 159.285156 209.460938 159.519531 209.59375 159.714844 C 209.726562 159.90625 209.902344 160.054688 210.125 160.152344 C 210.34375 160.253906 210.585938 160.304688 210.84375 160.304688 C 211.082031 160.304688 211.3125 160.261719 211.542969 160.179688 C 211.777344 160.09375 211.964844 159.960938 212.117188 159.785156 C 212.273438 159.609375 212.351562 159.390625 212.351562 159.132812 L 212.207031 158.601562 C 212.207031 158.808594 212.160156 158.984375 212.0625 159.132812 C 211.964844 159.277344 211.835938 159.394531 211.675781 159.476562 C 211.519531 159.550781 211.34375 159.589844 211.148438 159.589844 C 210.996094 159.589844 210.863281 159.566406 210.742188 159.519531 C 210.628906 159.472656 210.539062 159.402344 210.472656 159.308594 C 210.40625 159.207031 210.375 159.089844 210.375 158.957031 Z M 210.070312 157.21875 C 210.136719 157.179688 210.226562 157.128906 210.347656 157.070312 C 210.46875 157.003906 210.609375 156.953125 210.777344 156.910156 C 210.953125 156.863281 211.132812 156.839844 211.328125 156.839844 C 211.453125 156.839844 211.570312 156.851562 211.675781 156.875 C 211.785156 156.898438 211.878906 156.9375 211.957031 156.988281 C 212.039062 157.042969 212.101562 157.109375 212.144531 157.191406 C 212.183594 157.273438 212.207031 157.382812 212.207031 157.511719 L 212.207031 160.214844 L 213.15625 160.214844 L 213.15625 157.324219 C 213.15625 157.054688 213.082031 156.824219 212.933594 156.636719 C 212.789062 156.449219 212.585938 156.308594 212.324219 156.214844 C 212.058594 156.113281 211.761719 156.066406 211.425781 156.066406 C 211.035156 156.066406 210.695312 156.117188 210.402344 156.222656 C 210.109375 156.328125 209.867188 156.4375 209.675781 156.550781 Z M 210.070312 157.21875 " fill-opacity="1" fill-rule="nonzero"/><path fill="#c89211" d="M 217.058594 154.046875 L 217.058594 160.214844 L 220.613281 160.214844 L 220.613281 159.28125 L 218.117188 159.28125 L 218.117188 154.046875 Z M 217.058594 154.046875 " fill-opacity="1" fill-rule="nonzero"/><path fill="#c89211" d="M 221.910156 158.957031 C 221.910156 158.828125 221.941406 158.71875 222 158.628906 C 222.066406 158.542969 222.160156 158.472656 222.289062 158.425781 C 222.414062 158.375 222.578125 158.347656 222.78125 158.347656 C 223.015625 158.347656 223.234375 158.375 223.445312 158.4375 C 223.65625 158.496094 223.851562 158.589844 224.039062 158.71875 L 224.039062 158.234375 C 223.984375 158.167969 223.890625 158.097656 223.757812 158.019531 C 223.628906 157.9375 223.460938 157.867188 223.257812 157.808594 C 223.058594 157.75 222.824219 157.722656 222.546875 157.722656 C 222.03125 157.722656 221.636719 157.839844 221.355469 158.074219 C 221.074219 158.304688 220.933594 158.613281 220.933594 159.007812 C 220.933594 159.285156 220.996094 159.519531 221.128906 159.714844 C 221.261719 159.90625 221.4375 160.054688 221.660156 160.152344 C 221.878906 160.253906 222.121094 160.304688 222.375 160.304688 C 222.617188 160.304688 222.847656 160.261719 223.078125 160.179688 C 223.3125 160.09375 223.5 159.960938 223.652344 159.785156 C 223.808594 159.609375 223.886719 159.390625 223.886719 159.132812 L 223.742188 158.601562 C 223.742188 158.808594 223.695312 158.984375 223.597656 159.132812 C 223.5 159.277344 223.371094 159.394531 223.210938 159.476562 C 223.054688 159.550781 222.878906 159.589844 222.683594 159.589844 C 222.53125 159.589844 222.398438 159.566406 222.277344 159.519531 C 222.164062 159.472656 222.074219 159.402344 222.007812 159.308594 C 221.941406 159.207031 221.910156 159.089844 221.910156 158.957031 Z M 221.605469 157.21875 C 221.671875 157.179688 221.761719 157.128906 221.882812 157.070312 C 222.003906 157.003906 222.144531 156.953125 222.3125 156.910156 C 222.488281 156.863281 222.667969 156.839844 222.863281 156.839844 C 222.988281 156.839844 223.105469 156.851562 223.210938 156.875 C 223.320312 156.898438 223.414062 156.9375 223.492188 156.988281 C 223.574219 157.042969 223.636719 157.109375 223.679688 157.191406 C 223.71875 157.273438 223.742188 157.382812 223.742188 157.511719 L 223.742188 160.214844 L 224.691406 160.214844 L 224.691406 157.324219 C 224.691406 157.054688 224.617188 156.824219 224.46875 156.636719 C 224.324219 156.449219 224.121094 156.308594 223.859375 156.214844 C 223.59375 156.113281 223.296875 156.066406 222.960938 156.066406 C 222.570312 156.066406 222.230469 156.117188 221.9375 156.222656 C 221.644531 156.328125 221.402344 156.4375 221.210938 156.550781 Z M 221.605469 157.21875 " fill-opacity="1" fill-rule="nonzero"/><path fill="#c89211" d="M 226.765625 153.339844 L 225.785156 153.339844 L 225.785156 160.214844 L 226.765625 160.214844 Z M 230.183594 158.1875 C 230.183594 157.742188 230.09375 157.363281 229.90625 157.050781 C 229.722656 156.734375 229.476562 156.492188 229.171875 156.328125 C 228.867188 156.160156 228.535156 156.074219 228.175781 156.074219 C 227.832031 156.074219 227.53125 156.160156 227.265625 156.328125 C 227.003906 156.5 226.792969 156.742188 226.640625 157.0625 C 226.488281 157.371094 226.414062 157.75 226.414062 158.1875 C 226.414062 158.625 226.488281 159 226.640625 159.316406 C 226.792969 159.632812 227.003906 159.878906 227.265625 160.046875 C 227.53125 160.21875 227.832031 160.304688 228.175781 160.304688 C 228.535156 160.304688 228.867188 160.222656 229.171875 160.058594 C 229.476562 159.886719 229.722656 159.644531 229.90625 159.324219 C 230.09375 159.007812 230.183594 158.628906 230.183594 158.1875 Z M 229.179688 158.1875 C 229.179688 158.460938 229.121094 158.691406 229.007812 158.886719 C 228.894531 159.078125 228.746094 159.226562 228.558594 159.324219 C 228.375 159.425781 228.167969 159.476562 227.941406 159.476562 C 227.75 159.476562 227.566406 159.425781 227.386719 159.324219 C 227.207031 159.226562 227.054688 159.082031 226.9375 158.894531 C 226.820312 158.699219 226.765625 158.464844 226.765625 158.1875 C 226.765625 157.914062 226.820312 157.679688 226.9375 157.492188 C 227.054688 157.296875 227.207031 157.152344 227.386719 157.050781 C 227.566406 156.953125 227.75 156.902344 227.941406 156.902344 C 228.167969 156.902344 228.375 156.953125 228.558594 157.050781 C 228.746094 157.152344 228.894531 157.296875 229.007812 157.492188 C 229.121094 157.6875 229.179688 157.917969 229.179688 158.1875 Z M 229.179688 158.1875 " fill-opacity="1" fill-rule="nonzero"/><path fill="#c89211" d="M 231.296875 158.875 L 230.730469 159.441406 C 230.851562 159.59375 231 159.738281 231.179688 159.882812 C 231.359375 160.015625 231.566406 160.128906 231.800781 160.214844 C 232.03125 160.296875 232.292969 160.339844 232.582031 160.339844 C 233.027344 160.339844 233.386719 160.226562 233.648438 159.996094 C 233.917969 159.761719 234.050781 159.453125 234.050781 159.070312 C 234.050781 158.824219 233.996094 158.625 233.882812 158.472656 C 233.769531 158.316406 233.613281 158.1875 233.425781 158.082031 C 233.234375 157.976562 233.019531 157.878906 232.785156 157.792969 C 232.617188 157.726562 232.464844 157.664062 232.328125 157.605469 C 232.199219 157.546875 232.089844 157.484375 232.003906 157.414062 C 231.929688 157.335938 231.890625 157.25 231.890625 157.15625 C 231.890625 157.046875 231.933594 156.960938 232.023438 156.902344 C 232.113281 156.84375 232.230469 156.8125 232.375 156.8125 C 232.578125 156.8125 232.773438 156.863281 232.964844 156.964844 C 233.15625 157.0625 233.320312 157.191406 233.449219 157.351562 L 233.988281 156.789062 C 233.875 156.652344 233.738281 156.53125 233.578125 156.425781 C 233.414062 156.320312 233.234375 156.234375 233.027344 156.171875 C 232.832031 156.105469 232.617188 156.074219 232.390625 156.074219 C 232.140625 156.074219 231.90625 156.113281 231.683594 156.195312 C 231.46875 156.273438 231.292969 156.394531 231.160156 156.558594 C 231.035156 156.722656 230.972656 156.929688 230.972656 157.175781 C 230.972656 157.417969 231.03125 157.617188 231.144531 157.773438 C 231.265625 157.933594 231.414062 158.0625 231.59375 158.164062 C 231.777344 158.257812 231.964844 158.339844 232.148438 158.410156 C 232.335938 158.472656 232.496094 158.539062 232.632812 158.601562 C 232.773438 158.660156 232.878906 158.734375 232.957031 158.824219 C 233.035156 158.90625 233.074219 159.003906 233.074219 159.125 C 233.074219 159.257812 233.023438 159.363281 232.921875 159.441406 C 232.824219 159.515625 232.691406 159.554688 232.515625 159.554688 C 232.378906 159.554688 232.242188 159.527344 232.105469 159.476562 C 231.96875 159.421875 231.832031 159.347656 231.699219 159.246094 C 231.570312 159.148438 231.433594 159.023438 231.296875 158.875 Z M 231.296875 158.875 " fill-opacity="1" fill-rule="nonzero"/></svg>