<svg width="1075" height="1247" viewBox="0 0 1075 1247" fill="none" xmlns="http://www.w3.org/2000/svg">
<path d="M799 134H1075V1095H0L799 134Z" fill="#5EAF8E"/>
<g opacity="0.35" clip-path="url(#clip0_703_82)">
<path d="M57.015 1080.57C59.612 1077.44 59.1849 1072.8 56.0609 1070.21C52.937 1067.61 48.2993 1068.04 45.7023 1071.17C43.1053 1074.29 43.5324 1078.93 46.6564 1081.52C49.7803 1084.12 54.418 1083.69 57.015 1080.57Z" fill="#113520"/>
<path d="M95.6542 1112.68C97.9281 1109.94 97.5541 1105.88 94.8189 1103.61C92.0837 1101.33 88.0231 1101.71 85.7493 1104.45C83.4755 1107.18 83.8495 1111.24 86.5847 1113.51C89.3198 1115.79 93.3804 1115.41 95.6542 1112.68Z" fill="#113520"/>
<path d="M134.319 1144.81C136.275 1142.45 135.953 1138.96 133.6 1137C131.247 1135.05 127.753 1135.37 125.796 1137.72C123.84 1140.08 124.162 1143.57 126.515 1145.53C128.869 1147.48 132.362 1147.16 134.319 1144.81Z" fill="#113520"/>
<path d="M172.958 1176.92C174.591 1174.95 174.323 1172.04 172.358 1170.4C170.393 1168.77 167.477 1169.04 165.844 1171C164.21 1172.97 164.479 1175.89 166.444 1177.52C168.408 1179.15 171.325 1178.88 172.958 1176.92Z" fill="#113520"/>
<path d="M211.597 1209.03C212.907 1207.45 212.692 1205.11 211.116 1203.8C209.54 1202.49 207.201 1202.71 205.891 1204.28C204.581 1205.86 204.796 1208.2 206.372 1209.51C207.948 1210.82 210.287 1210.6 211.597 1209.03Z" fill="#113520"/>
<path d="M250.237 1241.14C251.223 1239.95 251.061 1238.19 249.874 1237.2C248.687 1236.21 246.925 1236.38 245.938 1237.56C244.951 1238.75 245.113 1240.51 246.3 1241.5C247.487 1242.49 249.25 1242.32 250.237 1241.14Z" fill="#113520"/>
<path d="M87.5485 1043.82C90.1455 1040.7 89.7183 1036.06 86.5944 1033.47C83.4705 1030.87 78.8327 1031.3 76.2357 1034.42C73.6387 1037.55 74.0659 1042.19 77.1898 1044.78C80.3137 1047.38 84.9515 1046.95 87.5485 1043.82Z" fill="#113520"/>
<path d="M126.188 1075.93C128.462 1073.2 128.088 1069.14 125.352 1066.86C122.617 1064.59 118.557 1064.97 116.283 1067.7C114.009 1070.44 114.383 1074.5 117.118 1076.77C119.853 1079.05 123.914 1078.67 126.188 1075.93Z" fill="#113520"/>
<path d="M164.852 1108.06C166.809 1105.71 166.487 1102.22 164.133 1100.26C161.78 1098.31 158.286 1098.63 156.33 1100.98C154.373 1103.34 154.695 1106.83 157.049 1108.79C159.402 1110.74 162.896 1110.42 164.852 1108.06Z" fill="#113520"/>
<path d="M203.491 1140.17C205.125 1138.21 204.856 1135.29 202.891 1133.66C200.927 1132.03 198.01 1132.3 196.377 1134.26C194.744 1136.23 195.012 1139.14 196.977 1140.78C198.942 1142.41 201.858 1142.14 203.491 1140.17Z" fill="#113520"/>
<path d="M242.131 1172.28C243.441 1170.71 243.225 1168.37 241.649 1167.06C240.074 1165.75 237.734 1165.97 236.424 1167.54C235.114 1169.12 235.329 1171.46 236.905 1172.77C238.481 1174.08 240.821 1173.86 242.131 1172.28Z" fill="#113520"/>
<path d="M280.77 1204.39C281.757 1203.21 281.595 1201.44 280.407 1200.46C279.22 1199.47 277.458 1199.63 276.471 1200.82C275.484 1202.01 275.647 1203.77 276.834 1204.76C278.021 1205.74 279.783 1205.58 280.77 1204.39Z" fill="#113520"/>
<path d="M118.082 1007.08C120.679 1003.96 120.252 999.318 117.128 996.722C114.004 994.126 109.366 994.555 106.769 997.68C104.172 1000.81 104.599 1005.44 107.723 1008.04C110.847 1010.64 115.485 1010.21 118.082 1007.08Z" fill="#113520"/>
<path d="M156.721 1039.19C158.995 1036.45 158.621 1032.39 155.886 1030.12C153.151 1027.85 149.09 1028.22 146.816 1030.96C144.543 1033.7 144.917 1037.76 147.652 1040.03C150.387 1042.3 154.447 1041.93 156.721 1039.19Z" fill="#113520"/>
<path d="M195.386 1071.32C197.342 1068.97 197.02 1065.47 194.667 1063.52C192.314 1061.56 188.82 1061.88 186.863 1064.24C184.907 1066.59 185.229 1070.09 187.582 1072.04C189.936 1074 193.429 1073.68 195.386 1071.32Z" fill="#113520"/>
<path d="M234.025 1103.43C235.658 1101.47 235.39 1098.55 233.425 1096.92C231.46 1095.28 228.544 1095.55 226.911 1097.52C225.277 1099.48 225.546 1102.4 227.511 1104.03C229.475 1105.67 232.392 1105.4 234.025 1103.43Z" fill="#113520"/>
<path d="M272.664 1135.54C273.974 1133.96 273.759 1131.63 272.183 1130.32C270.607 1129.01 268.268 1129.22 266.958 1130.8C265.648 1132.38 265.863 1134.71 267.439 1136.02C269.015 1137.33 271.354 1137.12 272.664 1135.54Z" fill="#113520"/>
<path d="M311.304 1167.65C312.29 1166.46 312.128 1164.7 310.941 1163.71C309.754 1162.73 307.992 1162.89 307.005 1164.08C306.018 1165.27 306.18 1167.03 307.367 1168.01C308.554 1169 310.317 1168.84 311.304 1167.65Z" fill="#113520"/>
<path d="M148.615 970.339C151.212 967.214 150.785 962.576 147.661 959.98C144.537 957.384 139.9 957.813 137.303 960.938C134.706 964.063 135.133 968.701 138.257 971.297C141.381 973.893 146.018 973.464 148.615 970.339Z" fill="#113520"/>
<path d="M187.255 1002.45C189.529 999.712 189.155 995.652 186.419 993.379C183.684 991.106 179.624 991.481 177.35 994.218C175.076 996.954 175.45 1001.01 178.185 1003.29C180.92 1005.56 184.981 1005.18 187.255 1002.45Z" fill="#113520"/>
<path d="M225.919 1034.58C227.876 1032.23 227.554 1028.73 225.2 1026.78C222.847 1024.82 219.353 1025.14 217.397 1027.5C215.44 1029.85 215.762 1033.35 218.116 1035.3C220.469 1037.26 223.963 1036.93 225.919 1034.58Z" fill="#113520"/>
<path d="M264.558 1066.69C266.192 1064.72 265.923 1061.81 263.958 1060.17C261.994 1058.54 259.077 1058.81 257.444 1060.78C255.811 1062.74 256.079 1065.66 258.044 1067.29C260.009 1068.92 262.925 1068.65 264.558 1066.69Z" fill="#113520"/>
<path d="M303.198 1098.8C304.508 1097.22 304.292 1094.88 302.716 1093.57C301.141 1092.26 298.801 1092.48 297.491 1094.06C296.181 1095.63 296.396 1097.97 297.972 1099.28C299.548 1100.59 301.888 1100.38 303.198 1098.8Z" fill="#113520"/>
<path d="M341.837 1130.91C342.824 1129.72 342.662 1127.96 341.474 1126.97C340.287 1125.99 338.525 1126.15 337.538 1127.34C336.551 1128.52 336.714 1130.29 337.901 1131.27C339.088 1132.26 340.85 1132.1 341.837 1130.91Z" fill="#113520"/>
<path d="M179.149 933.597C181.746 930.472 181.319 925.834 178.195 923.238C175.071 920.642 170.433 921.071 167.836 924.196C165.239 927.321 165.666 931.959 168.79 934.555C171.914 937.151 176.552 936.722 179.149 933.597Z" fill="#113520"/>
<path d="M217.788 965.706C220.062 962.97 219.688 958.91 216.953 956.637C214.218 954.364 210.157 954.739 207.883 957.475C205.61 960.212 205.984 964.272 208.719 966.545C211.454 968.818 215.514 968.443 217.788 965.706Z" fill="#113520"/>
<path d="M256.453 997.837C258.409 995.483 258.087 991.989 255.734 990.033C253.381 988.077 249.887 988.401 247.93 990.755C245.974 993.109 246.296 996.603 248.649 998.559C251.003 1000.51 254.496 1000.19 256.453 997.837Z" fill="#113520"/>
<path d="M295.092 1029.95C296.725 1027.98 296.457 1025.07 294.492 1023.43C292.527 1021.8 289.611 1022.07 287.978 1024.04C286.344 1026 286.613 1028.92 288.578 1030.55C290.542 1032.18 293.459 1031.91 295.092 1029.95Z" fill="#113520"/>
<path d="M333.68 1057.25C332.335 1055.7 329.991 1055.54 328.445 1056.89C326.9 1058.23 326.738 1060.58 328.083 1062.12C329.429 1063.67 331.773 1063.83 333.318 1062.48C334.864 1061.14 335.026 1058.79 333.68 1057.25Z" fill="#113520"/>
<path d="M372.371 1094.17C373.357 1092.98 373.195 1091.22 372.008 1090.23C370.821 1089.24 369.059 1089.41 368.072 1090.59C367.085 1091.78 367.247 1093.54 368.434 1094.53C369.621 1095.52 371.384 1095.35 372.371 1094.17Z" fill="#113520"/>
<path d="M209.683 896.854C212.28 893.729 211.852 889.091 208.729 886.495C205.605 883.899 200.967 884.328 198.37 887.453C195.773 890.578 196.2 895.216 199.324 897.812C202.448 900.408 207.086 899.979 209.683 896.854Z" fill="#113520"/>
<path d="M248.322 928.963C250.596 926.227 250.222 922.166 247.487 919.893C244.751 917.62 240.691 917.996 238.417 920.732C236.143 923.468 236.517 927.529 239.252 929.802C241.987 932.075 246.048 931.7 248.322 928.963Z" fill="#113520"/>
<path d="M286.986 961.095C288.943 958.741 288.621 955.247 286.268 953.291C283.914 951.335 280.42 951.658 278.464 954.013C276.508 956.367 276.829 959.861 279.183 961.816C281.536 963.772 285.03 963.449 286.986 961.095Z" fill="#113520"/>
<path d="M325.626 993.204C327.259 991.239 326.99 988.322 325.026 986.69C323.061 985.057 320.144 985.327 318.511 987.292C316.878 989.257 317.147 992.174 319.111 993.807C321.076 995.439 323.992 995.17 325.626 993.204Z" fill="#113520"/>
<path d="M364.265 1025.31C365.575 1023.74 365.359 1021.4 363.784 1020.09C362.208 1018.78 359.868 1018.99 358.558 1020.57C357.248 1022.15 357.464 1024.49 359.039 1025.8C360.615 1027.11 362.955 1026.89 364.265 1025.31Z" fill="#113520"/>
<path d="M402.967 1053.96C402.038 1052.73 400.286 1052.48 399.052 1053.41C397.819 1054.34 397.572 1056.09 398.501 1057.33C399.43 1058.56 401.182 1058.81 402.415 1057.88C403.649 1056.95 403.895 1055.19 402.967 1053.96Z" fill="#113520"/>
<path d="M240.216 860.112C242.813 856.987 242.386 852.349 239.262 849.753C236.138 847.157 231.5 847.586 228.903 850.711C226.306 853.836 226.733 858.474 229.857 861.07C232.981 863.666 237.619 863.237 240.216 860.112Z" fill="#113520"/>
<path d="M278.855 892.221C281.129 889.485 280.755 885.424 278.02 883.151C275.285 880.878 271.224 881.254 268.95 883.99C266.677 886.726 267.051 890.787 269.786 893.06C272.521 895.333 276.582 894.957 278.855 892.221Z" fill="#113520"/>
<path d="M317.52 924.353C319.476 921.998 319.154 918.504 316.801 916.549C314.448 914.593 310.954 914.916 308.997 917.27C307.041 919.625 307.363 923.119 309.716 925.074C312.07 927.03 315.563 926.707 317.52 924.353Z" fill="#113520"/>
<path d="M356.159 956.462C357.792 954.497 357.524 951.58 355.559 949.947C353.594 948.315 350.678 948.584 349.045 950.55C347.411 952.515 347.68 955.432 349.645 957.065C351.609 958.697 354.526 958.427 356.159 956.462Z" fill="#113520"/>
<path d="M394.757 983.762C393.412 982.216 391.068 982.055 389.523 983.401C387.977 984.747 387.815 987.091 389.16 988.637C390.506 990.182 392.85 990.343 394.395 988.997C395.941 987.651 396.103 985.307 394.757 983.762Z" fill="#113520"/>
<path d="M433.438 1020.68C434.424 1019.49 434.262 1017.73 433.075 1016.74C431.888 1015.76 430.126 1015.92 429.139 1017.11C428.152 1018.3 428.314 1020.06 429.501 1021.04C430.688 1022.03 432.451 1021.87 433.438 1020.68Z" fill="#113520"/>
<path d="M270.739 823.382C273.336 820.257 272.909 815.619 269.785 813.023C266.661 810.427 262.023 810.856 259.426 813.981C256.829 817.106 257.257 821.744 260.38 824.34C263.504 826.936 268.142 826.507 270.739 823.382Z" fill="#113520"/>
<path d="M309.485 847.389C307.281 844.598 303.231 844.122 300.439 846.327C297.647 848.532 297.17 852.582 299.374 855.373C301.577 858.165 305.627 858.64 308.419 856.436C311.211 854.231 311.688 850.181 309.485 847.389Z" fill="#113520"/>
<path d="M348.043 887.622C349.999 885.268 349.677 881.774 347.324 879.818C344.971 877.863 341.477 878.186 339.521 880.54C337.564 882.894 337.886 886.388 340.239 888.344C342.593 890.299 346.086 889.976 348.043 887.622Z" fill="#113520"/>
<path d="M386.682 919.733C388.315 917.767 388.047 914.85 386.082 913.218C384.117 911.585 381.201 911.855 379.568 913.82C377.934 915.786 378.203 918.702 380.168 920.335C382.132 921.968 385.049 921.698 386.682 919.733Z" fill="#113520"/>
<path d="M425.3 947.027C423.955 945.482 421.611 945.321 420.065 946.667C418.52 948.013 418.358 950.357 419.703 951.902C421.049 953.448 423.393 953.609 424.938 952.263C426.484 950.916 426.646 948.572 425.3 947.027Z" fill="#113520"/>
<path d="M463.961 983.951C464.947 982.764 464.785 981.002 463.598 980.015C462.411 979.029 460.649 979.192 459.662 980.379C458.675 981.567 458.837 983.329 460.024 984.315C461.211 985.302 462.974 985.139 463.961 983.951Z" fill="#113520"/>
<path d="M301.273 786.639C303.87 783.514 303.442 778.876 300.319 776.28C297.195 773.684 292.557 774.113 289.96 777.238C287.363 780.363 287.79 785.001 290.914 787.597C294.038 790.193 298.676 789.764 301.273 786.639Z" fill="#113520"/>
<path d="M339.912 818.748C342.186 816.012 341.812 811.952 339.077 809.679C336.341 807.406 332.281 807.781 330.007 810.517C327.733 813.254 328.107 817.314 330.842 819.587C333.577 821.86 337.638 821.485 339.912 818.748Z" fill="#113520"/>
<path d="M378.576 850.879C380.533 848.525 380.211 845.031 377.858 843.075C375.504 841.119 372.01 841.443 370.054 843.797C368.098 846.151 368.419 849.645 370.773 851.601C373.126 853.556 376.62 853.233 378.576 850.879Z" fill="#113520"/>
<path d="M417.216 882.989C418.849 881.024 418.58 878.107 416.616 876.475C414.651 874.842 411.734 875.112 410.101 877.077C408.468 879.043 408.736 881.959 410.701 883.592C412.666 885.224 415.582 884.955 417.216 882.989Z" fill="#113520"/>
<path d="M455.822 910.292C454.477 908.747 452.133 908.585 450.587 909.932C449.042 911.278 448.88 913.622 450.225 915.167C451.571 916.712 453.914 916.873 455.46 915.527C457.006 914.181 457.168 911.837 455.822 910.292Z" fill="#113520"/>
<path d="M494.494 947.208C495.481 946.021 495.319 944.258 494.132 943.272C492.944 942.285 491.182 942.448 490.195 943.636C489.208 944.823 489.371 946.586 490.558 947.572C491.745 948.559 493.507 948.396 494.494 947.208Z" fill="#113520"/>
<path d="M331.806 749.897C334.403 746.772 333.976 742.134 330.852 739.538C327.728 736.942 323.09 737.371 320.493 740.496C317.896 743.621 318.324 748.259 321.448 750.855C324.571 753.451 329.209 753.022 331.806 749.897Z" fill="#113520"/>
<path d="M370.445 782.006C372.719 779.27 372.345 775.209 369.61 772.936C366.875 770.663 362.814 771.039 360.541 773.775C358.267 776.511 358.641 780.572 361.376 782.845C364.111 785.118 368.172 784.742 370.445 782.006Z" fill="#113520"/>
<path d="M409.11 814.138C411.066 811.783 410.744 808.29 408.391 806.334C406.038 804.378 402.544 804.701 400.588 807.056C398.631 809.41 398.953 812.904 401.306 814.859C403.66 816.815 407.153 816.492 409.11 814.138Z" fill="#113520"/>
<path d="M447.749 846.247C449.382 844.282 449.114 841.365 447.149 839.733C445.184 838.1 442.268 838.37 440.635 840.335C439.001 842.3 439.27 845.217 441.235 846.85C443.199 848.482 446.116 848.213 447.749 846.247Z" fill="#113520"/>
<path d="M486.388 878.357C487.698 876.78 487.483 874.441 485.907 873.131C484.331 871.822 481.992 872.038 480.682 873.614C479.372 875.191 479.587 877.53 481.163 878.84C482.739 880.149 485.078 879.933 486.388 878.357Z" fill="#113520"/>
<path d="M525.028 910.466C526.015 909.279 525.852 907.516 524.665 906.53C523.478 905.543 521.716 905.706 520.729 906.894C519.742 908.081 519.904 909.844 521.091 910.83C522.278 911.817 524.041 911.654 525.028 910.466Z" fill="#113520"/>
<path d="M362.34 713.155C364.937 710.03 364.51 705.392 361.386 702.796C358.262 700.2 353.624 700.629 351.027 703.754C348.43 706.879 348.857 711.517 351.981 714.113C355.105 716.709 359.743 716.28 362.34 713.155Z" fill="#113520"/>
<path d="M400.979 745.264C403.253 742.528 402.879 738.467 400.144 736.194C397.408 733.921 393.348 734.297 391.074 737.033C388.8 739.769 389.174 743.83 391.909 746.103C394.645 748.376 398.705 748 400.979 745.264Z" fill="#113520"/>
<path d="M439.724 770.407C437.828 768.006 434.344 767.597 431.941 769.494C429.539 771.391 429.129 774.875 431.025 777.277C432.921 779.679 436.405 780.088 438.808 778.191C441.21 776.294 441.62 772.809 439.724 770.407Z" fill="#113520"/>
<path d="M478.356 803.68C476.773 801.675 473.864 801.333 471.859 802.917C469.853 804.5 469.511 807.41 471.093 809.415C472.676 811.42 475.585 811.761 477.591 810.177C479.596 808.594 479.939 805.685 478.356 803.68Z" fill="#113520"/>
<path d="M516.887 836.798C515.541 835.252 513.197 835.091 511.652 836.437C510.106 837.784 509.944 840.128 511.29 841.673C512.635 843.218 514.979 843.379 516.525 842.033C518.07 840.687 518.232 838.343 516.887 836.798Z" fill="#113520"/>
<path d="M555.574 873.735C554.581 874.929 552.819 875.081 551.637 874.099C550.456 873.117 550.293 871.344 551.275 870.162C552.257 868.98 554.03 868.816 555.211 869.798C556.393 870.78 556.556 872.553 555.574 873.735Z" fill="#113520"/>
<path d="M392.873 676.411C395.47 673.286 395.043 668.648 391.919 666.052C388.795 663.456 384.157 663.885 381.56 667.01C378.963 670.136 379.391 674.773 382.514 677.369C385.638 679.965 390.276 679.537 392.873 676.411Z" fill="#113520"/>
<path d="M431.512 708.521C433.786 705.785 433.412 701.724 430.677 699.451C427.942 697.178 423.881 697.554 421.607 700.29C419.334 703.026 419.708 707.087 422.443 709.36C425.178 711.633 429.239 711.257 431.512 708.521Z" fill="#113520"/>
<path d="M470.261 733.677C468.365 731.275 464.88 730.866 462.478 732.763C460.076 734.66 459.665 738.145 461.561 740.547C463.457 742.948 466.942 743.358 469.344 741.461C471.746 739.564 472.157 736.079 470.261 733.677Z" fill="#113520"/>
<path d="M508.88 766.938C507.297 764.933 504.388 764.592 502.383 766.176C500.377 767.759 500.035 770.668 501.617 772.673C503.2 774.678 506.109 775.02 508.115 773.436C510.12 771.853 510.463 768.943 508.88 766.938Z" fill="#113520"/>
<path d="M547.432 800.06C546.086 798.515 543.742 798.354 542.197 799.7C540.651 801.046 540.489 803.39 541.834 804.936C543.18 806.481 545.524 806.642 547.069 805.296C548.615 803.95 548.777 801.606 547.432 800.06Z" fill="#113520"/>
<path d="M586.107 836.992C585.114 838.186 583.352 838.337 582.171 837.356C580.989 836.374 580.826 834.601 581.808 833.419C582.791 832.237 584.563 832.073 585.745 833.055C586.926 834.037 587.089 835.81 586.107 836.992Z" fill="#113520"/>
<path d="M423.407 639.669C426.004 636.544 425.576 631.906 422.453 629.31C419.329 626.714 414.691 627.143 412.094 630.268C409.497 633.393 409.924 638.031 413.048 640.627C416.172 643.223 420.81 642.794 423.407 639.669Z" fill="#113520"/>
<path d="M462.046 671.779C464.32 669.043 463.946 664.982 461.211 662.709C458.475 660.436 454.415 660.811 452.141 663.548C449.867 666.284 450.241 670.345 452.976 672.618C455.711 674.89 459.772 674.515 462.046 671.779Z" fill="#113520"/>
<path d="M500.71 703.91C502.667 701.556 502.345 698.062 499.992 696.106C497.638 694.151 494.144 694.474 492.188 696.828C490.232 699.182 490.553 702.676 492.907 704.632C495.26 706.588 498.754 706.264 500.71 703.91Z" fill="#113520"/>
<path d="M539.35 736.02C540.983 734.054 540.714 731.138 538.75 729.505C536.785 727.872 533.868 728.142 532.235 730.107C530.602 732.073 530.871 734.99 532.835 736.622C534.8 738.255 537.716 737.985 539.35 736.02Z" fill="#113520"/>
<path d="M577.989 768.129C579.299 766.553 579.083 764.213 577.508 762.904C575.932 761.594 573.592 761.81 572.282 763.387C570.972 764.963 571.188 767.303 572.763 768.612C574.339 769.922 576.679 769.706 577.989 768.129Z" fill="#113520"/>
<path d="M616.641 800.249C615.648 801.444 613.886 801.595 612.704 800.613C611.523 799.631 611.36 797.859 612.342 796.677C613.324 795.495 615.097 795.331 616.278 796.313C617.46 797.295 617.623 799.067 616.641 800.249Z" fill="#113520"/>
<path d="M453.94 602.927C456.537 599.802 456.11 595.164 452.986 592.568C449.862 589.972 445.224 590.401 442.627 593.526C440.03 596.651 440.458 601.289 443.581 603.885C446.705 606.481 451.343 606.052 453.94 602.927Z" fill="#113520"/>
<path d="M492.579 635.037C494.853 632.3 494.479 628.24 491.744 625.967C489.009 623.694 484.948 624.069 482.674 626.805C480.401 629.542 480.775 633.602 483.51 635.875C486.245 638.148 490.306 637.773 492.579 635.037Z" fill="#113520"/>
<path d="M531.244 667.167C533.2 664.813 532.878 661.319 530.525 659.363C528.172 657.408 524.678 657.731 522.722 660.085C520.765 662.439 521.087 665.933 523.44 667.889C525.794 669.844 529.287 669.521 531.244 667.167Z" fill="#113520"/>
<path d="M569.883 699.277C571.516 697.312 571.248 694.395 569.283 692.763C567.319 691.13 564.402 691.4 562.769 693.365C561.135 695.331 561.404 698.247 563.369 699.88C565.333 701.513 568.25 701.243 569.883 699.277Z" fill="#113520"/>
<path d="M608.522 731.387C609.832 729.81 609.617 727.471 608.041 726.161C606.465 724.852 604.126 725.068 602.816 726.645C601.506 728.221 601.721 730.561 603.297 731.87C604.873 733.18 607.212 732.963 608.522 731.387Z" fill="#113520"/>
<path d="M647.174 763.507C646.182 764.702 644.42 764.853 643.238 763.871C642.056 762.889 641.893 761.117 642.875 759.935C643.858 758.753 645.63 758.589 646.812 759.571C647.993 760.553 648.157 762.325 647.174 763.507Z" fill="#113520"/>
<path d="M484.474 566.185C487.071 563.06 486.643 558.422 483.52 555.826C480.396 553.23 475.758 553.659 473.161 556.784C470.564 559.909 470.991 564.547 474.115 567.143C477.239 569.739 481.877 569.31 484.474 566.185Z" fill="#113520"/>
<path d="M523.113 598.294C525.387 595.558 525.013 591.497 522.278 589.224C519.542 586.952 515.482 587.327 513.208 590.063C510.934 592.799 511.308 596.86 514.043 599.133C516.779 601.406 520.839 601.031 523.113 598.294Z" fill="#113520"/>
<path d="M563.076 627.058C563.17 623.999 560.766 621.444 557.707 621.351C554.648 621.259 552.092 623.663 551.999 626.723C551.905 629.782 554.308 632.337 557.367 632.43C560.426 632.522 562.982 630.118 563.076 627.058Z" fill="#113520"/>
<path d="M601.508 659.726C601.586 657.172 599.579 655.039 597.026 654.961C594.472 654.884 592.338 656.891 592.26 659.445C592.182 661.999 594.188 664.132 596.742 664.21C599.296 664.287 601.429 662.279 601.508 659.726Z" fill="#113520"/>
<path d="M639.743 693.376C640.35 691.418 639.256 689.34 637.299 688.733C635.342 688.126 633.263 689.222 632.655 691.179C632.048 693.137 633.142 695.215 635.1 695.822C637.057 696.429 639.136 695.333 639.743 693.376Z" fill="#113520"/>
<path d="M677.708 726.765C676.715 727.959 674.953 728.111 673.771 727.129C672.59 726.147 672.427 724.375 673.409 723.193C674.391 722.011 676.164 721.847 677.345 722.829C678.527 723.81 678.69 725.583 677.708 726.765Z" fill="#113520"/>
<path d="M515.007 529.442C517.604 526.317 517.177 521.679 514.053 519.083C510.929 516.487 506.291 516.916 503.694 520.041C501.097 523.166 501.525 527.804 504.649 530.4C507.772 532.996 512.41 532.567 515.007 529.442Z" fill="#113520"/>
<path d="M553.646 561.551C555.92 558.815 555.546 554.754 552.811 552.481C550.076 550.208 546.015 550.584 543.742 553.32C541.468 556.056 541.842 560.117 544.577 562.39C547.312 564.663 551.373 564.287 553.646 561.551Z" fill="#113520"/>
<path d="M592.311 593.683C594.267 591.328 593.945 587.835 591.592 585.879C589.239 583.923 585.745 584.246 583.789 586.601C581.832 588.955 582.154 592.449 584.507 594.404C586.861 596.36 590.354 596.037 592.311 593.683Z" fill="#113520"/>
<path d="M630.95 625.792C632.583 623.827 632.315 620.91 630.35 619.277C628.386 617.645 625.469 617.915 623.836 619.88C622.202 621.845 622.471 624.762 624.436 626.395C626.4 628.027 629.317 627.757 630.95 625.792Z" fill="#113520"/>
<path d="M669.589 657.902C670.899 656.325 670.684 653.986 669.108 652.676C667.532 651.366 665.193 651.583 663.883 653.159C662.573 654.736 662.788 657.075 664.364 658.385C665.94 659.694 668.279 659.478 669.589 657.902Z" fill="#113520"/>
<path d="M708.229 690.011C709.216 688.823 709.053 687.061 707.866 686.075C706.679 685.088 704.917 685.251 703.93 686.439C702.943 687.626 703.105 689.389 704.292 690.375C705.479 691.362 707.242 691.199 708.229 690.011Z" fill="#113520"/>
<path d="M545.541 492.7C548.138 489.574 547.71 484.937 544.587 482.341C541.463 479.745 536.825 480.173 534.228 483.299C531.631 486.424 532.058 491.062 535.182 493.658C538.306 496.254 542.944 495.825 545.541 492.7Z" fill="#113520"/>
<path d="M584.18 524.809C586.454 522.073 586.08 518.012 583.345 515.739C580.609 513.466 576.549 513.842 574.275 516.578C572.001 519.314 572.375 523.375 575.11 525.648C577.846 527.921 581.906 527.545 584.18 524.809Z" fill="#113520"/>
<path d="M622.844 556.939C624.801 554.585 624.479 551.091 622.126 549.136C619.772 547.18 616.279 547.503 614.322 549.857C612.366 552.212 612.687 555.706 615.041 557.661C617.394 559.617 620.888 559.294 622.844 556.939Z" fill="#113520"/>
<path d="M661.484 589.05C663.117 587.085 662.848 584.168 660.884 582.535C658.919 580.903 656.002 581.172 654.369 583.138C652.736 585.103 653.005 588.02 654.969 589.652C656.934 591.285 659.85 591.015 661.484 589.05Z" fill="#113520"/>
<path d="M700.123 621.159C701.433 619.583 701.217 617.243 699.642 615.934C698.066 614.624 695.726 614.841 694.416 616.417C693.106 617.994 693.322 620.333 694.898 621.643C696.473 622.952 698.813 622.736 700.123 621.159Z" fill="#113520"/>
<path d="M738.762 653.269C739.749 652.081 739.587 650.319 738.4 649.332C737.213 648.346 735.45 648.509 734.463 649.696C733.476 650.884 733.639 652.646 734.826 653.633C736.013 654.619 737.775 654.456 738.762 653.269Z" fill="#113520"/>
<path d="M575.984 446.394C573.317 443.33 568.671 443.011 565.607 445.679C562.543 448.348 562.221 452.995 564.889 456.058C567.556 459.121 572.202 459.441 575.266 456.772C578.33 454.103 578.652 449.457 575.984 446.394Z" fill="#113520"/>
<path d="M614.726 488.078C612.448 490.819 608.384 491.183 605.656 488.916C602.929 486.65 602.554 482.575 604.821 479.846C607.089 477.118 611.163 476.741 613.891 479.008C616.618 481.274 616.994 485.349 614.726 488.078Z" fill="#113520"/>
<path d="M653.438 513.222C651.542 510.82 648.058 510.411 645.655 512.308C643.253 514.205 642.843 517.69 644.739 520.092C646.635 522.493 650.119 522.903 652.521 521.006C654.924 519.109 655.334 515.624 653.438 513.222Z" fill="#113520"/>
<path d="M692.017 552.308C690.387 554.269 687.464 554.54 685.503 552.91C683.542 551.281 683.273 548.357 684.903 546.396C686.533 544.434 689.456 544.164 691.417 545.793C693.378 547.423 693.647 550.346 692.017 552.308Z" fill="#113520"/>
<path d="M730.627 579.599C729.282 578.054 726.938 577.893 725.392 579.239C723.847 580.585 723.684 582.929 725.03 584.475C726.376 586.02 728.719 586.181 730.265 584.835C731.811 583.489 731.973 581.145 730.627 579.599Z" fill="#113520"/>
<path d="M769.308 616.537C768.316 617.732 766.553 617.883 765.372 616.901C764.19 615.92 764.027 614.147 765.009 612.965C765.992 611.783 767.764 611.619 768.946 612.601C770.127 613.583 770.29 615.355 769.308 616.537Z" fill="#113520"/>
<path d="M606.608 419.214C609.205 416.089 608.778 411.451 605.654 408.855C602.53 406.259 597.892 406.688 595.295 409.813C592.698 412.938 593.125 417.576 596.249 420.172C599.373 422.768 604.011 422.339 606.608 419.214Z" fill="#113520"/>
<path d="M645.26 451.334C642.982 454.076 638.918 454.44 636.19 452.173C633.462 449.906 633.087 445.832 635.355 443.103C637.622 440.375 641.697 439.998 644.424 442.265C647.152 444.531 647.527 448.606 645.26 451.334Z" fill="#113520"/>
<path d="M683.899 483.444C681.945 485.796 678.446 486.119 676.095 484.166C673.745 482.213 673.423 478.714 675.377 476.362C677.331 474.011 680.83 473.687 683.18 475.641C685.531 477.594 685.853 481.093 683.899 483.444Z" fill="#113520"/>
<path d="M722.551 515.565C720.921 517.526 717.997 517.797 716.036 516.167C714.075 514.538 713.806 511.614 715.436 509.652C717.066 507.691 719.99 507.42 721.951 509.05C723.912 510.679 724.181 513.603 722.551 515.565Z" fill="#113520"/>
<path d="M761.19 547.674C759.884 549.246 757.536 549.463 755.965 548.157C754.393 546.852 754.177 544.504 755.483 542.932C756.789 541.36 759.137 541.143 760.709 542.449C762.28 543.754 762.496 546.102 761.19 547.674Z" fill="#113520"/>
<path d="M799.842 579.794C798.849 580.989 797.087 581.14 795.905 580.158C794.724 579.176 794.561 577.404 795.543 576.222C796.525 575.04 798.298 574.876 799.479 575.858C800.661 576.84 800.824 578.612 799.842 579.794Z" fill="#113520"/>
<path d="M637.141 382.472C639.738 379.347 639.311 374.709 636.187 372.113C633.063 369.517 628.425 369.946 625.828 373.071C623.231 376.196 623.659 380.834 626.782 383.43C629.906 386.026 634.544 385.597 637.141 382.472Z" fill="#113520"/>
<path d="M675.78 414.581C678.054 411.845 677.68 407.785 674.945 405.512C672.21 403.239 668.149 403.614 665.875 406.35C663.602 409.087 663.976 413.147 666.711 415.42C669.446 417.693 673.507 417.318 675.78 414.581Z" fill="#113520"/>
<path d="M714.445 446.712C716.401 444.358 716.079 440.864 713.726 438.908C711.373 436.953 707.879 437.276 705.923 439.63C703.966 441.984 704.288 445.478 706.641 447.434C708.995 449.389 712.488 449.066 714.445 446.712Z" fill="#113520"/>
<path d="M753.084 478.822C754.717 476.857 754.449 473.94 752.484 472.308C750.52 470.675 747.603 470.945 745.97 472.91C744.336 474.876 744.605 477.792 746.57 479.425C748.534 481.057 751.451 480.788 753.084 478.822Z" fill="#113520"/>
<path d="M791.723 510.932C793.033 509.355 792.818 507.016 791.242 505.706C789.666 504.397 787.327 504.613 786.017 506.19C784.707 507.766 784.922 510.106 786.498 511.415C788.074 512.725 790.413 512.508 791.723 510.932Z" fill="#113520"/>
<path d="M830.363 543.041C831.35 541.854 831.187 540.091 830 539.105C828.813 538.118 827.051 538.281 826.064 539.469C825.077 540.656 825.239 542.419 826.426 543.405C827.613 544.392 829.376 544.229 830.363 543.041Z" fill="#113520"/>
<path d="M667.664 345.743C670.261 342.617 669.834 337.98 666.71 335.384C663.586 332.788 658.949 333.216 656.352 336.342C653.755 339.467 654.182 344.104 657.306 346.701C660.43 349.297 665.067 348.868 667.664 345.743Z" fill="#113520"/>
<path d="M706.316 377.863C704.038 380.604 699.974 380.968 697.246 378.702C694.519 376.435 694.144 372.36 696.411 369.632C698.679 366.903 702.753 366.526 705.481 368.793C708.208 371.06 708.584 375.134 706.316 377.863Z" fill="#113520"/>
<path d="M744.968 409.983C746.924 407.629 746.603 404.135 744.249 402.18C741.896 400.224 738.402 400.547 736.446 402.901C734.489 405.256 734.811 408.749 737.164 410.705C739.518 412.661 743.012 412.338 744.968 409.983Z" fill="#113520"/>
<path d="M783.607 442.093C781.977 444.054 779.054 444.325 777.093 442.695C775.132 441.066 774.863 438.142 776.493 436.181C778.123 434.219 781.046 433.949 783.007 435.578C784.968 437.208 785.237 440.131 783.607 442.093Z" fill="#113520"/>
<path d="M822.246 474.202C823.556 472.626 823.341 470.286 821.765 468.977C820.189 467.667 817.85 467.884 816.54 469.46C815.23 471.036 815.445 473.376 817.021 474.686C818.597 475.995 820.936 475.779 822.246 474.202Z" fill="#113520"/>
<path d="M860.898 506.323C859.906 507.517 858.144 507.668 856.962 506.687C855.78 505.705 855.617 503.932 856.599 502.75C857.582 501.568 859.354 501.404 860.536 502.386C861.717 503.368 861.881 505.141 860.898 506.323Z" fill="#113520"/>
<path d="M698.198 308.999C700.795 305.874 700.368 301.236 697.244 298.64C694.12 296.044 689.482 296.473 686.885 299.598C684.288 302.723 684.715 307.361 687.839 309.957C690.963 312.553 695.601 312.124 698.198 308.999Z" fill="#113520"/>
<path d="M736.85 341.12C734.572 343.861 730.508 344.225 727.78 341.958C725.052 339.692 724.677 335.617 726.945 332.888C729.212 330.16 733.287 329.783 736.014 332.05C738.742 334.316 739.117 338.391 736.85 341.12Z" fill="#113520"/>
<path d="M775.501 373.239C777.458 370.885 777.136 367.391 774.783 365.436C772.429 363.48 768.936 363.803 766.979 366.157C765.023 368.511 765.345 372.005 767.698 373.961C770.051 375.917 773.545 375.594 775.501 373.239Z" fill="#113520"/>
<path d="M814.141 405.35C812.511 407.311 809.587 407.582 807.626 405.952C805.665 404.323 805.396 401.399 807.026 399.438C808.656 397.476 811.58 397.206 813.541 398.835C815.502 400.465 815.771 403.388 814.141 405.35Z" fill="#113520"/>
<path d="M852.78 437.459C854.09 435.883 853.875 433.543 852.299 432.234C850.723 430.924 848.383 431.141 847.073 432.717C845.763 434.293 845.979 436.633 847.555 437.942C849.13 439.252 851.47 439.036 852.78 437.459Z" fill="#113520"/>
<path d="M891.419 469.569C892.406 468.381 892.244 466.619 891.057 465.632C889.87 464.646 888.107 464.809 887.12 465.996C886.133 467.184 886.296 468.946 887.483 469.933C888.67 470.919 890.432 470.756 891.419 469.569Z" fill="#113520"/>
<path d="M728.731 272.257C731.328 269.132 730.901 264.494 727.777 261.898C724.653 259.302 720.015 259.731 717.418 262.856C714.821 265.981 715.249 270.619 718.373 273.215C721.496 275.811 726.134 275.382 728.731 272.257Z" fill="#113520"/>
<path d="M767.383 304.377C765.105 307.119 761.041 307.483 758.314 305.216C755.586 302.949 755.211 298.875 757.478 296.146C759.746 293.418 763.82 293.041 766.548 295.307C769.275 297.574 769.651 301.649 767.383 304.377Z" fill="#113520"/>
<path d="M806.035 336.497C807.991 334.143 807.67 330.649 805.316 328.693C802.963 326.738 799.469 327.061 797.513 329.415C795.556 331.769 795.878 335.263 798.231 337.219C800.585 339.174 804.079 338.851 806.035 336.497Z" fill="#113520"/>
<path d="M844.674 368.608C843.044 370.569 840.121 370.84 838.16 369.21C836.199 367.58 835.93 364.657 837.56 362.695C839.19 360.734 842.113 360.463 844.074 362.093C846.035 363.722 846.304 366.646 844.674 368.608Z" fill="#113520"/>
<path d="M883.313 400.717C884.624 399.141 884.408 396.801 882.832 395.491C881.256 394.182 878.917 394.398 877.607 395.975C876.297 397.551 876.512 399.891 878.088 401.2C879.664 402.51 882.003 402.293 883.313 400.717Z" fill="#113520"/>
<path d="M921.965 432.837C920.973 434.032 919.211 434.183 918.029 433.201C916.847 432.219 916.684 430.447 917.666 429.265C918.649 428.083 920.421 427.919 921.603 428.901C922.784 429.883 922.948 431.655 921.965 432.837Z" fill="#113520"/>
<path d="M759.265 235.515C761.862 232.39 761.435 227.752 758.311 225.156C755.187 222.56 750.549 222.989 747.952 226.114C745.355 229.239 745.782 233.877 748.906 236.473C752.03 239.069 756.668 238.64 759.265 235.515Z" fill="#113520"/>
<path d="M797.917 267.635C795.639 270.376 791.575 270.741 788.847 268.474C786.119 266.207 785.744 262.133 788.012 259.404C790.279 256.675 794.354 256.299 797.081 258.565C799.809 260.832 800.184 264.907 797.917 267.635Z" fill="#113520"/>
<path d="M836.568 299.755C838.525 297.401 838.203 293.907 835.85 291.951C833.496 289.996 830.003 290.319 828.046 292.673C826.09 295.027 826.412 298.521 828.765 300.477C831.118 302.432 834.612 302.109 836.568 299.755Z" fill="#113520"/>
<path d="M875.208 331.865C873.578 333.827 870.654 334.097 868.693 332.468C866.732 330.838 866.463 327.915 868.093 325.953C869.723 323.992 872.647 323.721 874.608 325.351C876.569 326.98 876.838 329.904 875.208 331.865Z" fill="#113520"/>
<path d="M913.847 363.975C915.157 362.398 914.942 360.059 913.366 358.749C911.79 357.44 909.45 357.656 908.14 359.233C906.83 360.809 907.046 363.149 908.622 364.458C910.198 365.768 912.537 365.551 913.847 363.975Z" fill="#113520"/>
<path d="M952.499 396.095C951.506 397.29 949.744 397.441 948.563 396.459C947.381 395.477 947.218 393.705 948.2 392.523C949.182 391.341 950.955 391.177 952.136 392.159C953.318 393.141 953.481 394.913 952.499 396.095Z" fill="#113520"/>
<path d="M789.798 198.772C792.395 195.647 791.968 191.009 788.844 188.413C785.72 185.817 781.083 186.246 778.486 189.371C775.889 192.496 776.316 197.134 779.44 199.73C782.564 202.326 787.201 201.897 789.798 198.772Z" fill="#113520"/>
<path d="M828.45 230.892C826.172 233.633 822.108 233.997 819.381 231.731C816.653 229.464 816.278 225.39 818.545 222.661C820.813 219.932 824.887 219.555 827.615 221.822C830.342 224.089 830.718 228.163 828.45 230.892Z" fill="#113520"/>
<path d="M867.102 263.012C869.058 260.658 868.737 257.164 866.383 255.208C864.03 253.252 860.536 253.575 858.58 255.93C856.623 258.284 856.945 261.778 859.298 263.733C861.652 265.689 865.146 265.366 867.102 263.012Z" fill="#113520"/>
<path d="M905.741 295.122C904.111 297.084 901.188 297.354 899.227 295.725C897.266 294.095 896.997 291.172 898.627 289.21C900.257 287.248 903.18 286.978 905.141 288.607C907.102 290.237 907.371 293.161 905.741 295.122Z" fill="#113520"/>
<path d="M944.38 327.232C945.691 325.655 945.475 323.316 943.899 322.006C942.323 320.697 939.984 320.913 938.674 322.489C937.364 324.066 937.579 326.405 939.155 327.715C940.731 329.024 943.07 328.808 944.38 327.232Z" fill="#113520"/>
<path d="M983.032 359.352C982.04 360.546 980.278 360.698 979.096 359.716C977.915 358.734 977.751 356.961 978.734 355.779C979.716 354.597 981.488 354.434 982.67 355.415C983.851 356.397 984.015 358.17 983.032 359.352Z" fill="#113520"/>
<path d="M820.332 162.03C822.929 158.905 822.502 154.267 819.378 151.671C816.254 149.075 811.616 149.504 809.019 152.629C806.422 155.754 806.849 160.392 809.973 162.988C813.097 165.584 817.735 165.155 820.332 162.03Z" fill="#113520"/>
<path d="M858.984 194.15C856.706 196.891 852.642 197.255 849.914 194.989C847.186 192.722 846.811 188.647 849.079 185.919C851.346 183.19 855.421 182.813 858.148 185.08C860.876 187.347 861.251 191.421 858.984 194.15Z" fill="#113520"/>
<path d="M897.635 226.27C899.592 223.915 899.27 220.421 896.917 218.466C894.563 216.51 891.07 216.833 889.113 219.188C887.157 221.542 887.479 225.036 889.832 226.991C892.185 228.947 895.679 228.624 897.635 226.27Z" fill="#113520"/>
<path d="M936.275 258.38C934.645 260.342 931.721 260.612 929.76 258.982C927.799 257.353 927.53 254.429 929.16 252.468C930.79 250.506 933.714 250.236 935.675 251.865C937.636 253.495 937.905 256.418 936.275 258.38Z" fill="#113520"/>
<path d="M974.914 290.49C976.224 288.913 976.009 286.574 974.433 285.264C972.857 283.954 970.517 284.171 969.207 285.747C967.897 287.324 968.113 289.663 969.689 290.973C971.265 292.282 973.604 292.066 974.914 290.49Z" fill="#113520"/>
<path d="M1013.57 322.61C1012.57 323.804 1010.81 323.956 1009.63 322.974C1008.45 321.992 1008.28 320.219 1009.27 319.037C1010.25 317.855 1012.02 317.691 1013.2 318.673C1014.38 319.655 1014.55 321.428 1013.57 322.61Z" fill="#113520"/>
<path d="M850.865 125.287C853.462 122.162 853.035 117.524 849.911 114.928C846.787 112.332 842.149 112.761 839.552 115.886C836.955 119.012 837.383 123.649 840.507 126.245C843.63 128.841 848.268 128.413 850.865 125.287Z" fill="#113520"/>
<path d="M889.505 157.397C891.778 154.661 891.404 150.6 888.669 148.327C885.934 146.054 881.873 146.43 879.6 149.166C877.326 151.902 877.7 155.963 880.435 158.236C883.17 160.509 887.231 160.133 889.505 157.397Z" fill="#113520"/>
<path d="M928.169 189.527C930.125 187.173 929.804 183.679 927.45 181.724C925.097 179.768 921.603 180.091 919.647 182.445C917.69 184.799 918.012 188.293 920.365 190.249C922.719 192.205 926.213 191.882 928.169 189.527Z" fill="#113520"/>
<path d="M966.808 221.638C968.441 219.672 968.173 216.756 966.208 215.123C964.244 213.491 961.327 213.76 959.694 215.726C958.061 217.691 958.329 220.608 960.294 222.24C962.258 223.873 965.175 223.603 966.808 221.638Z" fill="#113520"/>
<path d="M1005.45 253.747C1006.76 252.171 1006.54 249.831 1004.97 248.522C1003.39 247.212 1001.05 247.429 999.741 249.005C998.431 250.581 998.646 252.921 1000.22 254.231C1001.8 255.54 1004.14 255.324 1005.45 253.747Z" fill="#113520"/>
<path d="M1044.09 285.857C1045.07 284.669 1044.91 282.907 1043.72 281.92C1042.54 280.934 1040.77 281.097 1039.79 282.284C1038.8 283.472 1038.96 285.234 1040.15 286.221C1041.34 287.207 1043.1 287.044 1044.09 285.857Z" fill="#113520"/>
<path d="M881.399 88.5453C883.996 85.4202 883.569 80.7823 880.445 78.1863C877.321 75.5902 872.683 76.0191 870.086 79.1442C867.489 82.2693 867.916 86.9072 871.04 89.5033C874.164 92.0993 878.802 91.6704 881.399 88.5453Z" fill="#113520"/>
<path d="M920.051 120.665C917.773 123.407 913.709 123.771 910.981 121.504C908.253 119.238 907.878 115.163 910.146 112.434C912.413 109.706 916.488 109.329 919.215 111.596C921.943 113.862 922.318 117.937 920.051 120.665Z" fill="#113520"/>
<path d="M958.702 152.785C960.659 150.431 960.337 146.937 957.984 144.981C955.63 143.026 952.137 143.349 950.18 145.703C948.224 148.057 948.546 151.551 950.899 153.507C953.252 155.463 956.746 155.14 958.702 152.785Z" fill="#113520"/>
<path d="M997.342 184.896C995.712 186.857 992.788 187.128 990.827 185.498C988.866 183.869 988.597 180.945 990.227 178.983C991.857 177.022 994.781 176.751 996.742 178.381C998.703 180.011 998.972 182.934 997.342 184.896Z" fill="#113520"/>
<path d="M1035.98 217.005C1034.67 218.577 1032.33 218.794 1030.76 217.488C1029.18 216.183 1028.97 213.835 1030.27 212.263C1031.58 210.691 1033.93 210.474 1035.5 211.78C1037.07 213.085 1037.29 215.433 1035.98 217.005Z" fill="#113520"/>
<path d="M1074.63 249.125C1073.64 250.32 1071.88 250.471 1070.7 249.489C1069.52 248.507 1069.35 246.735 1070.33 245.553C1071.32 244.371 1073.09 244.207 1074.27 245.189C1075.45 246.171 1075.62 247.943 1074.63 249.125Z" fill="#113520"/>
<path d="M911.932 51.8021C914.529 48.677 914.102 44.0391 910.978 41.4431C907.854 38.8471 903.217 39.276 900.62 42.4011C898.023 45.5262 898.45 50.1641 901.574 52.7601C904.698 55.3561 909.335 54.9272 911.932 51.8021Z" fill="#113520"/>
<path d="M950.584 83.9223C948.306 86.6635 944.242 87.0278 941.515 84.7611C938.787 82.4944 938.412 78.4198 940.679 75.6912C942.947 72.9625 947.021 72.5857 949.749 74.8524C952.476 77.1191 952.852 81.1937 950.584 83.9223Z" fill="#113520"/>
<path d="M989.236 116.043C991.192 113.689 990.871 110.195 988.517 108.239C986.164 106.284 982.67 106.607 980.714 108.961C978.757 111.315 979.079 114.809 981.432 116.765C983.786 118.72 987.28 118.397 989.236 116.043Z" fill="#113520"/>
<path d="M1027.88 148.152C1026.25 150.114 1023.32 150.384 1021.36 148.755C1019.4 147.125 1019.13 144.202 1020.76 142.24C1022.39 140.279 1025.31 140.008 1027.28 141.638C1029.24 143.267 1029.51 146.191 1027.88 148.152Z" fill="#113520"/>
<path d="M1066.51 180.262C1065.21 181.834 1062.86 182.051 1061.29 180.745C1059.72 179.439 1059.5 177.091 1060.81 175.52C1062.11 173.948 1064.46 173.731 1066.03 175.036C1067.6 176.342 1067.82 178.69 1066.51 180.262Z" fill="#113520"/>
<path d="M942.466 15.0599C945.063 11.9348 944.636 7.29693 941.512 4.70091C938.388 2.10489 933.75 2.53379 931.153 5.65889C928.556 8.78399 928.983 13.4219 932.107 16.0179C935.231 18.6139 939.869 18.185 942.466 15.0599Z" fill="#113520"/>
<path d="M981.118 47.1801C978.84 49.9213 974.776 50.2856 972.048 48.0189C969.32 45.7522 968.945 41.6776 971.213 38.949C973.48 36.2203 977.555 35.8435 980.282 38.1102C983.01 40.3769 983.385 44.4515 981.118 47.1801Z" fill="#113520"/>
<path d="M1019.77 79.3008C1021.73 76.9466 1021.4 73.4527 1019.05 71.497C1016.7 69.5413 1013.2 69.8645 1011.25 72.2187C1009.29 74.5729 1009.61 78.0668 1011.97 80.0225C1014.32 81.9782 1017.81 81.655 1019.77 79.3008Z" fill="#113520"/>
<path d="M1058.41 111.41C1056.78 113.372 1053.86 113.642 1051.89 112.013C1049.93 110.383 1049.66 107.46 1051.29 105.498C1052.92 103.537 1055.85 103.266 1057.81 104.896C1059.77 106.525 1060.04 109.449 1058.41 111.41Z" fill="#113520"/>
</g>
<defs>
<clipPath id="clip0_703_82">
<rect width="1400.11" height="265.957" fill="white" transform="translate(41 1076.82) rotate(-50.273)"/>
</clipPath>
</defs>
</svg>
