<svg width="1728" height="329" viewBox="0 0 1728 329" fill="none" xmlns="http://www.w3.org/2000/svg">
<g opacity="0.35" clip-path="url(#clip0_45_853)">
<path d="M7.10131 18.1958C12.1278 18.1958 16.2026 14.1225 16.2026 9.09789C16.2026 4.07327 12.1278 0 7.10131 0C2.0748 0 -2 4.07327 -2 9.09789C-2 14.1225 2.0748 18.1958 7.10131 18.1958Z" fill="#4F5359"/>
<path d="M7.10131 80.3445C11.5023 80.3445 15.07 76.7781 15.07 72.3788C15.07 67.9795 11.5023 64.4131 7.10131 64.4131C2.70032 64.4131 -0.867393 67.9795 -0.867393 72.3788C-0.867393 76.7781 2.70032 80.3445 7.10131 80.3445Z" fill="#4F5359"/>
<path d="M7.10131 142.534C10.888 142.534 13.9576 139.465 13.9576 135.68C13.9576 131.895 10.888 128.826 7.10131 128.826C3.31467 128.826 0.244987 131.895 0.244987 135.68C0.244987 139.465 3.31467 142.534 7.10131 142.534Z" fill="#4F5359"/>
<path d="M7.10132 204.682C10.2624 204.682 12.825 202.121 12.825 198.961C12.825 195.801 10.2624 193.239 7.10132 193.239C3.9402 193.239 1.3776 195.801 1.3776 198.961C1.3776 202.121 3.9402 204.682 7.10132 204.682Z" fill="#4F5359"/>
<path d="M7.10131 266.831C9.63691 266.831 11.6924 264.776 11.6924 262.242C11.6924 259.707 9.63691 257.652 7.10131 257.652C4.56572 257.652 2.51021 259.707 2.51021 262.242C2.51021 264.776 4.56572 266.831 7.10131 266.831Z" fill="#4F5359"/>
<path d="M7.10131 328.98C9.01139 328.98 10.5598 327.432 10.5598 325.523C10.5598 323.613 9.01139 322.065 7.10131 322.065C5.19124 322.065 3.64281 323.613 3.64281 325.523C3.64281 327.432 5.19124 328.98 7.10131 328.98Z" fill="#4F5359"/>
<path d="M66.1992 18.1958C71.2257 18.1958 75.3005 14.1225 75.3005 9.09789C75.3005 4.07327 71.2257 0 66.1992 0C61.1727 0 57.0979 4.07327 57.0979 9.09789C57.0979 14.1225 61.1727 18.1958 66.1992 18.1958Z" fill="#4F5359"/>
<path d="M66.1992 80.3445C70.6002 80.3445 74.1679 76.7781 74.1679 72.3788C74.1679 67.9795 70.6002 64.4131 66.1992 64.4131C61.7982 64.4131 58.2305 67.9795 58.2305 72.3788C58.2305 76.7781 61.7982 80.3445 66.1992 80.3445Z" fill="#4F5359"/>
<path d="M66.1992 142.534C69.9858 142.534 73.0555 139.465 73.0555 135.68C73.0555 131.895 69.9858 128.826 66.1992 128.826C62.4125 128.826 59.3428 131.895 59.3428 135.68C59.3428 139.465 62.4125 142.534 66.1992 142.534Z" fill="#4F5359"/>
<path d="M66.1992 204.682C69.3603 204.682 71.9229 202.121 71.9229 198.961C71.9229 195.801 69.3603 193.239 66.1992 193.239C63.0381 193.239 60.4755 195.801 60.4755 198.961C60.4755 202.121 63.0381 204.682 66.1992 204.682Z" fill="#4F5359"/>
<path d="M66.1992 266.831C68.7348 266.831 70.7903 264.776 70.7903 262.242C70.7903 259.707 68.7348 257.652 66.1992 257.652C63.6636 257.652 61.6081 259.707 61.6081 262.242C61.6081 264.776 63.6636 266.831 66.1992 266.831Z" fill="#4F5359"/>
<path d="M66.1992 328.98C68.1093 328.98 69.6577 327.432 69.6577 325.523C69.6577 323.613 68.1093 322.065 66.1992 322.065C64.2891 322.065 62.7407 323.613 62.7407 325.523C62.7407 327.432 64.2891 328.98 66.1992 328.98Z" fill="#4F5359"/>
<path d="M125.297 18.1958C130.324 18.1958 134.398 14.1225 134.398 9.09789C134.398 4.07327 130.324 0 125.297 0C120.271 0 116.196 4.07327 116.196 9.09789C116.196 14.1225 120.271 18.1958 125.297 18.1958Z" fill="#4F5359"/>
<path d="M125.297 80.3445C129.698 80.3445 133.266 76.7781 133.266 72.3788C133.266 67.9795 129.698 64.4131 125.297 64.4131C120.896 64.4131 117.328 67.9795 117.328 72.3788C117.328 76.7781 120.896 80.3445 125.297 80.3445Z" fill="#4F5359"/>
<path d="M125.297 142.534C129.084 142.534 132.153 139.465 132.153 135.68C132.153 131.895 129.084 128.826 125.297 128.826C121.51 128.826 118.441 131.895 118.441 135.68C118.441 139.465 121.51 142.534 125.297 142.534Z" fill="#4F5359"/>
<path d="M125.297 204.682C128.458 204.682 131.021 202.121 131.021 198.961C131.021 195.801 128.458 193.239 125.297 193.239C122.136 193.239 119.573 195.801 119.573 198.961C119.573 202.121 122.136 204.682 125.297 204.682Z" fill="#4F5359"/>
<path d="M125.297 266.831C127.833 266.831 129.888 264.776 129.888 262.242C129.888 259.707 127.833 257.652 125.297 257.652C122.761 257.652 120.706 259.707 120.706 262.242C120.706 264.776 122.761 266.831 125.297 266.831Z" fill="#4F5359"/>
<path d="M125.297 328.98C127.207 328.98 128.756 327.432 128.756 325.523C128.756 323.613 127.207 322.065 125.297 322.065C123.387 322.065 121.839 323.613 121.839 325.523C121.839 327.432 123.387 328.98 125.297 328.98Z" fill="#4F5359"/>
<path d="M184.395 18.1958C189.421 18.1958 193.496 14.1225 193.496 9.09789C193.496 4.07327 189.421 0 184.395 0C179.368 0 175.294 4.07327 175.294 9.09789C175.294 14.1225 179.368 18.1958 184.395 18.1958Z" fill="#4F5359"/>
<path d="M184.395 80.3445C188.796 80.3445 192.364 76.7781 192.364 72.3788C192.364 67.9795 188.796 64.4131 184.395 64.4131C179.994 64.4131 176.426 67.9795 176.426 72.3788C176.426 76.7781 179.994 80.3445 184.395 80.3445Z" fill="#4F5359"/>
<path d="M184.395 142.534C188.182 142.534 191.251 139.465 191.251 135.68C191.251 131.895 188.182 128.826 184.395 128.826C180.608 128.826 177.539 131.895 177.539 135.68C177.539 139.465 180.608 142.534 184.395 142.534Z" fill="#4F5359"/>
<path d="M184.395 204.682C187.556 204.682 190.119 202.121 190.119 198.961C190.119 195.801 187.556 193.239 184.395 193.239C181.234 193.239 178.671 195.801 178.671 198.961C178.671 202.121 181.234 204.682 184.395 204.682Z" fill="#4F5359"/>
<path d="M184.395 266.831C186.93 266.831 188.986 264.776 188.986 262.242C188.986 259.707 186.93 257.652 184.395 257.652C181.859 257.652 179.804 259.707 179.804 262.242C179.804 264.776 181.859 266.831 184.395 266.831Z" fill="#4F5359"/>
<path d="M184.395 328.98C186.305 328.98 187.853 327.432 187.853 325.523C187.853 323.613 186.305 322.065 184.395 322.065C182.485 322.065 180.936 323.613 180.936 325.523C180.936 327.432 182.485 328.98 184.395 328.98Z" fill="#4F5359"/>
<path d="M243.493 18.1958C248.519 18.1958 252.594 14.1225 252.594 9.09789C252.594 4.07327 248.519 0 243.493 0C238.466 0 234.391 4.07327 234.391 9.09789C234.391 14.1225 238.466 18.1958 243.493 18.1958Z" fill="#4F5359"/>
<path d="M243.493 80.3445C247.894 80.3445 251.461 76.7781 251.461 72.3788C251.461 67.9795 247.894 64.4131 243.493 64.4131C239.092 64.4131 235.524 67.9795 235.524 72.3788C235.524 76.7781 239.092 80.3445 243.493 80.3445Z" fill="#4F5359"/>
<path d="M243.493 142.534C247.279 142.534 250.349 139.465 250.349 135.68C250.349 131.895 247.279 128.826 243.493 128.826C239.706 128.826 236.636 131.895 236.636 135.68C236.636 139.465 239.706 142.534 243.493 142.534Z" fill="#4F5359"/>
<path d="M243.493 204.682C246.654 204.682 249.216 202.121 249.216 198.961C249.216 195.801 246.654 193.239 243.493 193.239C240.332 193.239 237.769 195.801 237.769 198.961C237.769 202.121 240.332 204.682 243.493 204.682Z" fill="#4F5359"/>
<path d="M248.029 262.979C248.436 260.477 246.736 258.12 244.233 257.714C241.73 257.308 239.372 259.007 238.966 261.508C238.56 264.01 240.259 266.368 242.762 266.774C245.265 267.18 247.623 265.481 248.029 262.979Z" fill="#4F5359"/>
<path d="M243.493 328.98C245.403 328.98 246.951 327.432 246.951 325.523C246.951 323.613 245.403 322.065 243.493 322.065C241.583 322.065 240.034 323.613 240.034 325.523C240.034 327.432 241.583 328.98 243.493 328.98Z" fill="#4F5359"/>
<path d="M302.591 18.1958C307.617 18.1958 311.692 14.1225 311.692 9.09789C311.692 4.07327 307.617 0 302.591 0C297.564 0 293.489 4.07327 293.489 9.09789C293.489 14.1225 297.564 18.1958 302.591 18.1958Z" fill="#4F5359"/>
<path d="M302.591 80.3445C306.992 80.3445 310.559 76.7781 310.559 72.3788C310.559 67.9795 306.992 64.4131 302.591 64.4131C298.19 64.4131 294.622 67.9795 294.622 72.3788C294.622 76.7781 298.19 80.3445 302.591 80.3445Z" fill="#4F5359"/>
<path d="M302.591 142.534C306.377 142.534 309.447 139.465 309.447 135.68C309.447 131.895 306.377 128.826 302.591 128.826C298.804 128.826 295.734 131.895 295.734 135.68C295.734 139.465 298.804 142.534 302.591 142.534Z" fill="#4F5359"/>
<path d="M302.591 204.682C305.752 204.682 308.314 202.121 308.314 198.961C308.314 195.801 305.752 193.239 302.591 193.239C299.429 193.239 296.867 195.801 296.867 198.961C296.867 202.121 299.429 204.682 302.591 204.682Z" fill="#4F5359"/>
<path d="M302.591 266.831C305.126 266.831 307.182 264.776 307.182 262.242C307.182 259.707 305.126 257.652 302.591 257.652C300.055 257.652 297.999 259.707 297.999 262.242C297.999 264.776 300.055 266.831 302.591 266.831Z" fill="#4F5359"/>
<path d="M305.934 326.302C306.373 324.444 305.221 322.582 303.362 322.143C301.503 321.705 299.641 322.856 299.202 324.714C298.763 326.572 299.914 328.434 301.773 328.873C303.632 329.311 305.495 328.16 305.934 326.302Z" fill="#4F5359"/>
<path d="M361.688 18.1958C366.715 18.1958 370.79 14.1225 370.79 9.09789C370.79 4.07327 366.715 0 361.688 0C356.662 0 352.587 4.07327 352.587 9.09789C352.587 14.1225 356.662 18.1958 361.688 18.1958Z" fill="#4F5359"/>
<path d="M361.688 80.3445C366.089 80.3445 369.657 76.7781 369.657 72.3788C369.657 67.9795 366.089 64.4131 361.688 64.4131C357.287 64.4131 353.72 67.9795 353.72 72.3788C353.72 76.7781 357.287 80.3445 361.688 80.3445Z" fill="#4F5359"/>
<path d="M361.688 142.534C365.475 142.534 368.545 139.465 368.545 135.68C368.545 131.895 365.475 128.826 361.688 128.826C357.902 128.826 354.832 131.895 354.832 135.68C354.832 139.465 357.902 142.534 361.688 142.534Z" fill="#4F5359"/>
<path d="M361.688 204.682C364.85 204.682 367.412 202.121 367.412 198.961C367.412 195.801 364.85 193.239 361.688 193.239C358.527 193.239 355.965 195.801 355.965 198.961C355.965 202.121 358.527 204.682 361.688 204.682Z" fill="#4F5359"/>
<path d="M366.232 262.989C366.639 260.488 364.939 258.13 362.436 257.724C359.933 257.318 357.575 259.017 357.169 261.519C356.763 264.021 358.462 266.378 360.965 266.784C363.468 267.19 365.826 265.491 366.232 262.989Z" fill="#4F5359"/>
<path d="M361.688 328.98C363.599 328.98 365.147 327.432 365.147 325.523C365.147 323.613 363.599 322.065 361.688 322.065C359.778 322.065 358.23 323.613 358.23 325.523C358.23 327.432 359.778 328.98 361.688 328.98Z" fill="#4F5359"/>
<path d="M420.766 18.1958C425.793 18.1958 429.867 14.1225 429.867 9.09789C429.867 4.07327 425.793 0 420.766 0C415.74 0 411.665 4.07327 411.665 9.09789C411.665 14.1225 415.74 18.1958 420.766 18.1958Z" fill="#4F5359"/>
<path d="M428.559 74.0396C429.472 69.736 426.723 65.5071 422.417 64.5939C418.112 63.6807 413.882 66.4292 412.968 70.7327C412.055 75.0362 414.804 79.2652 419.109 80.1783C423.414 81.0915 427.645 78.3431 428.559 74.0396Z" fill="#4F5359"/>
<path d="M420.766 142.534C424.553 142.534 427.622 139.465 427.622 135.68C427.622 131.895 424.553 128.826 420.766 128.826C416.979 128.826 413.91 131.895 413.91 135.68C413.91 139.465 416.979 142.534 420.766 142.534Z" fill="#4F5359"/>
<path d="M420.766 204.682C423.927 204.682 426.49 202.121 426.49 198.961C426.49 195.801 423.927 193.239 420.766 193.239C417.605 193.239 415.042 195.801 415.042 198.961C415.042 202.121 417.605 204.682 420.766 204.682Z" fill="#4F5359"/>
<path d="M425.331 263.004C425.737 260.502 424.037 258.145 421.534 257.739C419.032 257.333 416.673 259.031 416.267 261.533C415.861 264.035 417.56 266.393 420.063 266.799C422.566 267.205 424.924 265.506 425.331 263.004Z" fill="#4F5359"/>
<path d="M420.766 328.98C422.676 328.98 424.225 327.432 424.225 325.523C424.225 323.613 422.676 322.065 420.766 322.065C418.856 322.065 417.308 323.613 417.308 325.523C417.308 327.432 418.856 328.98 420.766 328.98Z" fill="#4F5359"/>
<path d="M479.864 18.1958C484.89 18.1958 488.965 14.1225 488.965 9.09789C488.965 4.07327 484.89 0 479.864 0C474.837 0 470.763 4.07327 470.763 9.09789C470.763 14.1225 474.837 18.1958 479.864 18.1958Z" fill="#4F5359"/>
<path d="M479.864 80.3445C484.265 80.3445 487.833 76.7781 487.833 72.3788C487.833 67.9795 484.265 64.4131 479.864 64.4131C475.463 64.4131 471.895 67.9795 471.895 72.3788C471.895 76.7781 475.463 80.3445 479.864 80.3445Z" fill="#4F5359"/>
<path d="M479.864 142.534C483.651 142.534 486.72 139.465 486.72 135.68C486.72 131.895 483.651 128.826 479.864 128.826C476.077 128.826 473.008 131.895 473.008 135.68C473.008 139.465 476.077 142.534 479.864 142.534Z" fill="#4F5359"/>
<path d="M479.864 204.682C483.025 204.682 485.588 202.121 485.588 198.961C485.588 195.801 483.025 193.239 479.864 193.239C476.703 193.239 474.14 195.801 474.14 198.961C474.14 202.121 476.703 204.682 479.864 204.682Z" fill="#4F5359"/>
<path d="M484.412 262.999C484.818 260.497 483.119 258.14 480.616 257.734C478.113 257.328 475.755 259.027 475.348 261.528C474.942 264.03 476.642 266.388 479.144 266.794C481.647 267.2 484.006 265.501 484.412 262.999Z" fill="#4F5359"/>
<path d="M479.864 328.98C481.774 328.98 483.322 327.432 483.322 325.523C483.322 323.613 481.774 322.065 479.864 322.065C477.954 322.065 476.405 323.613 476.405 325.523C476.405 327.432 477.954 328.98 479.864 328.98Z" fill="#4F5359"/>
<path d="M538.962 18.1958C543.988 18.1958 548.063 14.1225 548.063 9.09789C548.063 4.07327 543.988 0 538.962 0C533.935 0 529.86 4.07327 529.86 9.09789C529.86 14.1225 533.935 18.1958 538.962 18.1958Z" fill="#4F5359"/>
<path d="M538.962 80.3445C543.363 80.3445 546.931 76.7781 546.931 72.3788C546.931 67.9795 543.363 64.4131 538.962 64.4131C534.561 64.4131 530.993 67.9795 530.993 72.3788C530.993 76.7781 534.561 80.3445 538.962 80.3445Z" fill="#4F5359"/>
<path d="M538.962 142.534C542.748 142.534 545.818 139.465 545.818 135.68C545.818 131.895 542.748 128.826 538.962 128.826C535.175 128.826 532.105 131.895 532.105 135.68C532.105 139.465 535.175 142.534 538.962 142.534Z" fill="#4F5359"/>
<path d="M538.962 204.682C542.123 204.682 544.686 202.121 544.686 198.961C544.686 195.801 542.123 193.239 538.962 193.239C535.801 193.239 533.238 195.801 533.238 198.961C533.238 202.121 535.801 204.682 538.962 204.682Z" fill="#4F5359"/>
<path d="M538.962 266.831C541.497 266.831 543.553 264.776 543.553 262.242C543.553 259.707 541.497 257.652 538.962 257.652C536.426 257.652 534.371 259.707 534.371 262.242C534.371 264.776 536.426 266.831 538.962 266.831Z" fill="#4F5359"/>
<path d="M538.962 328.98C540.872 328.98 542.42 327.432 542.42 325.523C542.42 323.613 540.872 322.065 538.962 322.065C537.052 322.065 535.503 323.613 535.503 325.523C535.503 327.432 537.052 328.98 538.962 328.98Z" fill="#4F5359"/>
<path d="M598.06 18.1958C603.086 18.1958 607.161 14.1225 607.161 9.09789C607.161 4.07327 603.086 0 598.06 0C593.033 0 588.958 4.07327 588.958 9.09789C588.958 14.1225 593.033 18.1958 598.06 18.1958Z" fill="#4F5359"/>
<path d="M598.06 80.3445C602.461 80.3445 606.028 76.7781 606.028 72.3788C606.028 67.9795 602.461 64.4131 598.06 64.4131C593.659 64.4131 590.091 67.9795 590.091 72.3788C590.091 76.7781 593.659 80.3445 598.06 80.3445Z" fill="#4F5359"/>
<path d="M604.771 137.086C605.557 133.383 603.192 129.745 599.488 128.959C595.783 128.173 592.143 130.538 591.357 134.241C590.571 137.944 592.937 141.582 596.641 142.368C600.345 143.154 603.985 140.789 604.771 137.086Z" fill="#4F5359"/>
<path d="M603.66 200.146C604.316 197.055 602.341 194.017 599.249 193.361C596.157 192.705 593.118 194.68 592.462 197.771C591.806 200.862 593.781 203.899 596.873 204.555C599.965 205.211 603.004 203.237 603.66 200.146Z" fill="#4F5359"/>
<path d="M602.615 262.989C603.021 260.487 601.322 258.13 598.819 257.724C596.316 257.317 593.958 259.016 593.551 261.518C593.145 264.02 594.845 266.378 597.347 266.784C599.85 267.19 602.209 265.491 602.615 262.989Z" fill="#4F5359"/>
<path d="M598.06 329C596.138 329 594.601 327.443 594.601 325.543C594.601 323.642 596.159 322.085 598.06 322.085C599.961 322.085 601.518 323.642 601.518 325.543C601.518 327.443 599.961 329 598.06 329Z" fill="#4F5359"/>
<path d="M657.157 18.1958C662.184 18.1958 666.259 14.1225 666.259 9.09789C666.259 4.07327 662.184 0 657.157 0C652.131 0 648.056 4.07327 648.056 9.09789C648.056 14.1225 652.131 18.1958 657.157 18.1958Z" fill="#4F5359"/>
<path d="M657.158 80.3445C661.559 80.3445 665.126 76.7781 665.126 72.3788C665.126 67.9795 661.559 64.4131 657.158 64.4131C652.757 64.4131 649.189 67.9795 649.189 72.3788C649.189 76.7781 652.757 80.3445 657.158 80.3445Z" fill="#4F5359"/>
<path d="M663.86 137.099C664.646 133.396 662.28 129.758 658.576 128.972C654.872 128.186 651.232 130.551 650.446 134.254C649.66 137.957 652.025 141.595 655.729 142.381C659.434 143.167 663.074 140.802 663.86 137.099Z" fill="#4F5359"/>
<path d="M662.748 200.139C663.404 197.048 661.429 194.01 658.337 193.354C655.245 192.698 652.206 194.672 651.55 197.763C650.894 200.854 652.869 203.892 655.961 204.548C659.053 205.204 662.092 203.23 662.748 200.139Z" fill="#4F5359"/>
<path d="M661.716 263.005C662.123 260.503 660.423 258.145 657.92 257.739C655.417 257.333 653.059 259.032 652.653 261.534C652.247 264.036 653.946 266.393 656.449 266.799C658.952 267.205 661.31 265.506 661.716 263.005Z" fill="#4F5359"/>
<path d="M657.158 329C655.236 329 653.699 327.443 653.699 325.543C653.699 323.642 655.256 322.085 657.158 322.085C659.059 322.085 660.616 323.642 660.616 325.543C660.616 327.443 659.059 329 657.158 329Z" fill="#4F5359"/>
<path d="M716.255 18.1958C721.282 18.1958 725.357 14.1225 725.357 9.09789C725.357 4.07327 721.282 0 716.255 0C711.229 0 707.154 4.07327 707.154 9.09789C707.154 14.1225 711.229 18.1958 716.255 18.1958Z" fill="#4F5359"/>
<path d="M716.255 80.3445C720.656 80.3445 724.224 76.7781 724.224 72.3788C724.224 67.9795 720.656 64.4131 716.255 64.4131C711.854 64.4131 708.287 67.9795 708.287 72.3788C708.287 76.7781 711.854 80.3445 716.255 80.3445Z" fill="#4F5359"/>
<path d="M716.255 142.534C720.042 142.534 723.112 139.465 723.112 135.68C723.112 131.895 720.042 128.826 716.255 128.826C712.469 128.826 709.399 131.895 709.399 135.68C709.399 139.465 712.469 142.534 716.255 142.534Z" fill="#4F5359"/>
<path d="M716.255 204.682C719.416 204.682 721.979 202.121 721.979 198.961C721.979 195.801 719.416 193.239 716.255 193.239C713.094 193.239 710.532 195.801 710.532 198.961C710.532 202.121 713.094 204.682 716.255 204.682Z" fill="#4F5359"/>
<path d="M716.255 266.831C718.791 266.831 720.846 264.776 720.846 262.242C720.846 259.707 718.791 257.652 716.255 257.652C713.72 257.652 711.664 259.707 711.664 262.242C711.664 264.776 713.72 266.831 716.255 266.831Z" fill="#4F5359"/>
<path d="M716.255 329C714.334 329 712.797 327.443 712.797 325.543C712.797 323.642 714.354 322.085 716.255 322.085C718.157 322.085 719.714 323.642 719.714 325.543C719.714 327.443 718.157 329 716.255 329Z" fill="#4F5359"/>
<path d="M775.353 18.1958C780.38 18.1958 784.455 14.1225 784.455 9.09789C784.455 4.07327 780.38 0 775.353 0C770.327 0 766.252 4.07327 766.252 9.09789C766.252 14.1225 770.327 18.1958 775.353 18.1958Z" fill="#4F5359"/>
<path d="M775.353 80.3445C779.754 80.3445 783.322 76.7781 783.322 72.3788C783.322 67.9795 779.754 64.4131 775.353 64.4131C770.952 64.4131 767.385 67.9795 767.385 72.3788C767.385 76.7781 770.952 80.3445 775.353 80.3445Z" fill="#4F5359"/>
<path d="M775.353 142.534C779.14 142.534 782.21 139.465 782.21 135.68C782.21 131.895 779.14 128.826 775.353 128.826C771.567 128.826 768.497 131.895 768.497 135.68C768.497 139.465 771.567 142.534 775.353 142.534Z" fill="#4F5359"/>
<path d="M775.353 204.682C778.514 204.682 781.077 202.121 781.077 198.961C781.077 195.801 778.514 193.239 775.353 193.239C772.192 193.239 769.63 195.801 769.63 198.961C769.63 202.121 772.192 204.682 775.353 204.682Z" fill="#4F5359"/>
<path d="M775.353 266.831C777.889 266.831 779.944 264.776 779.944 262.242C779.944 259.707 777.889 257.652 775.353 257.652C772.818 257.652 770.762 259.707 770.762 262.242C770.762 264.776 772.818 266.831 775.353 266.831Z" fill="#4F5359"/>
<path d="M775.353 329C773.432 329 771.895 327.443 771.895 325.543C771.895 323.642 773.452 322.085 775.353 322.085C777.254 322.085 778.812 323.642 778.812 325.543C778.812 327.443 777.254 329 775.353 329Z" fill="#4F5359"/>
<path d="M834.451 18.1958C839.478 18.1958 843.552 14.1225 843.552 9.09789C843.552 4.07327 839.478 0 834.451 0C829.425 0 825.35 4.07327 825.35 9.09789C825.35 14.1225 829.425 18.1958 834.451 18.1958Z" fill="#4F5359"/>
<path d="M834.451 80.3445C838.852 80.3445 842.42 76.7781 842.42 72.3788C842.42 67.9795 838.852 64.4131 834.451 64.4131C830.05 64.4131 826.482 67.9795 826.482 72.3788C826.482 76.7781 830.05 80.3445 834.451 80.3445Z" fill="#4F5359"/>
<path d="M838.681 141.107C841.665 138.778 842.196 134.471 839.866 131.487C837.535 128.504 833.227 127.973 830.242 130.303C827.257 132.632 826.727 136.939 829.057 139.923C831.387 142.906 835.696 143.437 838.681 141.107Z" fill="#4F5359"/>
<path d="M837.987 203.499C840.478 201.554 840.921 197.959 838.976 195.468C837.031 192.977 833.434 192.534 830.942 194.479C828.451 196.424 828.008 200.019 829.953 202.51C831.898 205.001 835.495 205.443 837.987 203.499Z" fill="#4F5359"/>
<path d="M836.201 266.482C838.544 265.512 839.656 262.827 838.686 260.485C837.716 258.144 835.03 257.032 832.688 258.002C830.345 258.971 829.233 261.656 830.203 263.998C831.173 266.34 833.859 267.452 836.201 266.482Z" fill="#4F5359"/>
<path d="M834.451 329C832.53 329 830.993 327.443 830.993 325.543C830.993 323.642 832.55 322.085 834.451 322.085C836.352 322.085 837.91 323.642 837.91 325.543C837.91 327.443 836.352 329 834.451 329Z" fill="#4F5359"/>
<path d="M893.549 18.1958C898.575 18.1958 902.65 14.1225 902.65 9.09789C902.65 4.07327 898.575 0 893.549 0C888.522 0 884.448 4.07327 884.448 9.09789C884.448 14.1225 888.522 18.1958 893.549 18.1958Z" fill="#4F5359"/>
<path d="M893.549 80.3445C897.95 80.3445 901.518 76.7781 901.518 72.3788C901.518 67.9795 897.95 64.4131 893.549 64.4131C889.148 64.4131 885.58 67.9795 885.58 72.3788C885.58 76.7781 889.148 80.3445 893.549 80.3445Z" fill="#4F5359"/>
<path d="M893.549 142.534C897.336 142.534 900.405 139.465 900.405 135.68C900.405 131.895 897.336 128.826 893.549 128.826C889.762 128.826 886.693 131.895 886.693 135.68C886.693 139.465 889.762 142.534 893.549 142.534Z" fill="#4F5359"/>
<path d="M893.549 204.682C896.71 204.682 899.273 202.121 899.273 198.961C899.273 195.801 896.71 193.239 893.549 193.239C890.388 193.239 887.825 195.801 887.825 198.961C887.825 202.121 890.388 204.682 893.549 204.682Z" fill="#4F5359"/>
<path d="M893.549 266.831C896.085 266.831 898.14 264.776 898.14 262.242C898.14 259.707 896.085 257.652 893.549 257.652C891.013 257.652 888.958 259.707 888.958 262.242C888.958 264.776 891.013 266.831 893.549 266.831Z" fill="#4F5359"/>
<path d="M893.549 328.98C895.459 328.98 897.007 327.432 897.007 325.523C897.007 323.613 895.459 322.065 893.549 322.065C891.639 322.065 890.09 323.613 890.09 325.523C890.09 327.432 891.639 328.98 893.549 328.98Z" fill="#4F5359"/>
<path d="M952.647 18.1958C957.673 18.1958 961.748 14.1225 961.748 9.09789C961.748 4.07327 957.673 0 952.647 0C947.62 0 943.545 4.07327 943.545 9.09789C943.545 14.1225 947.62 18.1958 952.647 18.1958Z" fill="#4F5359"/>
<path d="M952.647 80.3445C957.048 80.3445 960.616 76.7781 960.616 72.3788C960.616 67.9795 957.048 64.4131 952.647 64.4131C948.246 64.4131 944.678 67.9795 944.678 72.3788C944.678 76.7781 948.246 80.3445 952.647 80.3445Z" fill="#4F5359"/>
<path d="M952.647 142.534C956.433 142.534 959.503 139.465 959.503 135.68C959.503 131.895 956.433 128.826 952.647 128.826C948.86 128.826 945.79 131.895 945.79 135.68C945.79 139.465 948.86 142.534 952.647 142.534Z" fill="#4F5359"/>
<path d="M952.647 204.682C955.808 204.682 958.371 202.121 958.371 198.961C958.371 195.801 955.808 193.239 952.647 193.239C949.486 193.239 946.923 195.801 946.923 198.961C946.923 202.121 949.486 204.682 952.647 204.682Z" fill="#4F5359"/>
<path d="M952.647 266.831C955.182 266.831 957.238 264.776 957.238 262.242C957.238 259.707 955.182 257.652 952.647 257.652C950.111 257.652 948.056 259.707 948.056 262.242C948.056 264.776 950.111 266.831 952.647 266.831Z" fill="#4F5359"/>
<path d="M952.647 328.98C954.557 328.98 956.105 327.432 956.105 325.523C956.105 323.613 954.557 322.065 952.647 322.065C950.737 322.065 949.188 323.613 949.188 325.523C949.188 327.432 950.737 328.98 952.647 328.98Z" fill="#4F5359"/>
<path d="M1020.77 10.5493C1021.58 5.58963 1018.21 0.916347 1013.25 0.111272C1008.29 -0.693803 1003.61 2.6742 1002.81 7.63391C1002 12.5936 1005.37 17.2669 1010.33 18.072C1015.29 18.877 1019.97 15.5091 1020.77 10.5493Z" fill="#4F5359"/>
<path d="M1011.74 80.365C1007.34 80.365 1003.78 76.7865 1003.78 72.3993C1003.78 68.0121 1007.36 64.4336 1011.74 64.4336C1016.13 64.4336 1019.71 68.0121 1019.71 72.3993C1019.71 76.7865 1016.13 80.365 1011.74 80.365Z" fill="#4F5359"/>
<path d="M1018.43 137.076C1019.21 133.373 1016.85 129.734 1013.15 128.949C1009.44 128.163 1005.8 130.528 1005.01 134.231C1004.23 137.933 1006.59 141.572 1010.3 142.358C1014 143.143 1017.64 140.779 1018.43 137.076Z" fill="#4F5359"/>
<path d="M1011.74 204.682C1008.59 204.682 1006.02 202.115 1006.02 198.961C1006.02 195.807 1008.59 193.239 1011.74 193.239C1014.9 193.239 1017.47 195.807 1017.47 198.961C1017.47 202.115 1014.9 204.682 1011.74 204.682Z" fill="#4F5359"/>
<path d="M1016.31 262.995C1016.71 260.493 1015.01 258.135 1012.51 257.729C1010.01 257.323 1007.65 259.022 1007.24 261.524C1006.84 264.026 1008.53 266.383 1011.04 266.79C1013.54 267.196 1015.9 265.497 1016.31 262.995Z" fill="#4F5359"/>
<path d="M1011.74 329C1009.82 329 1008.29 327.444 1008.29 325.543C1008.29 323.643 1009.84 322.086 1011.74 322.086C1013.65 322.086 1015.2 323.643 1015.2 325.543C1015.2 327.444 1013.65 329 1011.74 329Z" fill="#4F5359"/>
<path d="M1070.84 18.1958C1075.87 18.1958 1079.94 14.1225 1079.94 9.09789C1079.94 4.07327 1075.87 0 1070.84 0C1065.82 0 1061.74 4.07327 1061.74 9.09789C1061.74 14.1225 1065.82 18.1958 1070.84 18.1958Z" fill="#4F5359"/>
<path d="M1070.84 80.3645C1066.43 80.3645 1062.87 76.786 1062.87 72.3988C1062.87 68.0116 1066.45 64.4331 1070.84 64.4331C1075.23 64.4331 1078.81 68.0116 1078.81 72.3988C1078.81 76.786 1075.23 80.3645 1070.84 80.3645Z" fill="#4F5359"/>
<path d="M1070.84 142.514C1067.06 142.514 1063.99 139.441 1063.99 135.66C1063.99 131.879 1067.06 128.806 1070.84 128.806C1074.62 128.806 1077.7 131.879 1077.7 135.66C1077.7 139.441 1074.62 142.514 1070.84 142.514Z" fill="#4F5359"/>
<path d="M1070.84 204.682C1067.69 204.682 1065.12 202.115 1065.12 198.961C1065.12 195.807 1067.69 193.239 1070.84 193.239C1074 193.239 1076.57 195.807 1076.57 198.961C1076.57 202.115 1074 204.682 1070.84 204.682Z" fill="#4F5359"/>
<path d="M1070.84 266.831C1068.31 266.831 1066.25 264.769 1066.25 262.242C1066.25 259.715 1068.31 257.652 1070.84 257.652C1073.37 257.652 1075.43 259.715 1075.43 262.242C1075.43 264.769 1073.37 266.831 1070.84 266.831Z" fill="#4F5359"/>
<path d="M1070.84 329C1068.92 329 1067.38 327.443 1067.38 325.543C1067.38 323.642 1068.94 322.085 1070.84 322.085C1072.74 322.085 1074.3 323.642 1074.3 325.543C1074.3 327.443 1072.74 329 1070.84 329Z" fill="#4F5359"/>
<path d="M1129.94 18.1958C1134.97 18.1958 1139.04 14.1225 1139.04 9.09789C1139.04 4.07327 1134.97 0 1129.94 0C1124.91 0 1120.84 4.07327 1120.84 9.09789C1120.84 14.1225 1124.91 18.1958 1129.94 18.1958Z" fill="#4F5359"/>
<path d="M1129.94 80.3445C1134.34 80.3445 1137.91 76.7781 1137.91 72.3788C1137.91 67.9795 1134.34 64.4131 1129.94 64.4131C1125.54 64.4131 1121.97 67.9795 1121.97 72.3788C1121.97 76.7781 1125.54 80.3445 1129.94 80.3445Z" fill="#4F5359"/>
<path d="M1129.94 142.534C1133.73 142.534 1136.8 139.465 1136.8 135.68C1136.8 131.895 1133.73 128.826 1129.94 128.826C1126.15 128.826 1123.08 131.895 1123.08 135.68C1123.08 139.465 1126.15 142.534 1129.94 142.534Z" fill="#4F5359"/>
<path d="M1129.94 204.682C1133.1 204.682 1135.66 202.121 1135.66 198.961C1135.66 195.801 1133.1 193.239 1129.94 193.239C1126.78 193.239 1124.22 195.801 1124.22 198.961C1124.22 202.121 1126.78 204.682 1129.94 204.682Z" fill="#4F5359"/>
<path d="M1129.94 266.831C1132.48 266.831 1134.53 264.776 1134.53 262.242C1134.53 259.707 1132.48 257.652 1129.94 257.652C1127.4 257.652 1125.35 259.707 1125.35 262.242C1125.35 264.776 1127.4 266.831 1129.94 266.831Z" fill="#4F5359"/>
<path d="M1129.94 328.98C1131.85 328.98 1133.4 327.432 1133.4 325.523C1133.4 323.613 1131.85 322.065 1129.94 322.065C1128.03 322.065 1126.48 323.613 1126.48 325.523C1126.48 327.432 1128.03 328.98 1129.94 328.98Z" fill="#4F5359"/>
<path d="M1189.02 18.1958C1194.04 18.1958 1198.12 14.1225 1198.12 9.09789C1198.12 4.07327 1194.04 0 1189.02 0C1183.99 0 1179.92 4.07327 1179.92 9.09789C1179.92 14.1225 1183.99 18.1958 1189.02 18.1958Z" fill="#4F5359"/>
<path d="M1189.02 80.3645C1184.61 80.3645 1181.05 76.786 1181.05 72.3988C1181.05 68.0116 1184.63 64.4331 1189.02 64.4331C1193.41 64.4331 1196.99 68.0116 1196.99 72.3988C1196.99 76.786 1193.41 80.3645 1189.02 80.3645Z" fill="#4F5359"/>
<path d="M1189.02 142.534C1192.8 142.534 1195.87 139.465 1195.87 135.68C1195.87 131.895 1192.8 128.826 1189.02 128.826C1185.23 128.826 1182.16 131.895 1182.16 135.68C1182.16 139.465 1185.23 142.534 1189.02 142.534Z" fill="#4F5359"/>
<path d="M1189.02 204.682C1185.86 204.682 1183.29 202.115 1183.29 198.961C1183.29 195.807 1185.86 193.239 1189.02 193.239C1192.17 193.239 1194.74 195.807 1194.74 198.961C1194.74 202.115 1192.17 204.682 1189.02 204.682Z" fill="#4F5359"/>
<path d="M1189.02 266.831C1191.55 266.831 1193.61 264.776 1193.61 262.242C1193.61 259.707 1191.55 257.652 1189.02 257.652C1186.48 257.652 1184.43 259.707 1184.43 262.242C1184.43 264.776 1186.48 266.831 1189.02 266.831Z" fill="#4F5359"/>
<path d="M1189.02 329C1187.1 329 1185.56 327.443 1185.56 325.543C1185.56 323.642 1187.12 322.085 1189.02 322.085C1190.92 322.085 1192.48 323.642 1192.48 325.543C1192.48 327.443 1190.92 329 1189.02 329Z" fill="#4F5359"/>
<path d="M1248.12 18.1958C1253.14 18.1958 1257.22 14.1225 1257.22 9.09789C1257.22 4.07327 1253.14 0 1248.12 0C1243.09 0 1239.01 4.07327 1239.01 9.09789C1239.01 14.1225 1243.09 18.1958 1248.12 18.1958Z" fill="#4F5359"/>
<path d="M1248.12 80.3645C1243.71 80.3645 1240.15 76.786 1240.15 72.3988C1240.15 68.0116 1243.73 64.4331 1248.12 64.4331C1252.5 64.4331 1256.08 68.0116 1256.08 72.3988C1256.08 76.786 1252.5 80.3645 1248.12 80.3645Z" fill="#4F5359"/>
<path d="M1248.12 142.534C1251.9 142.534 1254.97 139.465 1254.97 135.68C1254.97 131.895 1251.9 128.826 1248.12 128.826C1244.33 128.826 1241.26 131.895 1241.26 135.68C1241.26 139.465 1244.33 142.534 1248.12 142.534Z" fill="#4F5359"/>
<path d="M1248.12 204.682C1244.96 204.682 1242.39 202.115 1242.39 198.961C1242.39 195.807 1244.96 193.239 1248.12 193.239C1251.27 193.239 1253.84 195.807 1253.84 198.961C1253.84 202.115 1251.27 204.682 1248.12 204.682Z" fill="#4F5359"/>
<path d="M1248.12 266.831C1250.65 266.831 1252.71 264.776 1252.71 262.242C1252.71 259.707 1250.65 257.652 1248.12 257.652C1245.58 257.652 1243.52 259.707 1243.52 262.242C1243.52 264.776 1245.58 266.831 1248.12 266.831Z" fill="#4F5359"/>
<path d="M1248.12 328.98C1250.03 328.98 1251.57 327.432 1251.57 325.523C1251.57 323.613 1250.03 322.065 1248.12 322.065C1246.21 322.065 1244.66 323.613 1244.66 325.523C1244.66 327.432 1246.21 328.98 1248.12 328.98Z" fill="#4F5359"/>
<path d="M1307.21 18.1958C1312.24 18.1958 1316.31 14.1225 1316.31 9.09789C1316.31 4.07327 1312.24 0 1307.21 0C1302.19 0 1298.11 4.07327 1298.11 9.09789C1298.11 14.1225 1302.19 18.1958 1307.21 18.1958Z" fill="#4F5359"/>
<path d="M1307.21 80.3645C1302.8 80.3645 1299.24 76.786 1299.24 72.3988C1299.24 68.0116 1302.82 64.4331 1307.21 64.4331C1311.6 64.4331 1315.18 68.0116 1315.18 72.3988C1315.18 76.786 1311.6 80.3645 1307.21 80.3645Z" fill="#4F5359"/>
<path d="M1307.21 142.534C1311 142.534 1314.07 139.465 1314.07 135.68C1314.07 131.895 1311 128.826 1307.21 128.826C1303.43 128.826 1300.36 131.895 1300.36 135.68C1300.36 139.465 1303.43 142.534 1307.21 142.534Z" fill="#4F5359"/>
<path d="M1307.21 204.682C1304.06 204.682 1301.49 202.115 1301.49 198.961C1301.49 195.807 1304.06 193.239 1307.21 193.239C1310.37 193.239 1312.94 195.807 1312.94 198.961C1312.94 202.115 1310.37 204.682 1307.21 204.682Z" fill="#4F5359"/>
<path d="M1307.21 266.831C1309.75 266.831 1311.8 264.776 1311.8 262.242C1311.8 259.707 1309.75 257.652 1307.21 257.652C1304.68 257.652 1302.62 259.707 1302.62 262.242C1302.62 264.776 1304.68 266.831 1307.21 266.831Z" fill="#4F5359"/>
<path d="M1307.21 329C1305.29 329 1303.76 327.443 1303.76 325.543C1303.76 323.642 1305.31 322.085 1307.21 322.085C1309.11 322.085 1310.67 323.642 1310.67 325.543C1310.67 327.443 1309.11 329 1307.21 329Z" fill="#4F5359"/>
<path d="M1366.31 18.1958C1371.34 18.1958 1375.41 14.1225 1375.41 9.09789C1375.41 4.07327 1371.34 0 1366.31 0C1361.29 0 1357.21 4.07327 1357.21 9.09789C1357.21 14.1225 1361.29 18.1958 1366.31 18.1958Z" fill="#4F5359"/>
<path d="M1366.31 80.3645C1361.9 80.3645 1358.34 76.786 1358.34 72.3988C1358.34 68.0116 1361.92 64.4331 1366.31 64.4331C1370.7 64.4331 1374.28 68.0116 1374.28 72.3988C1374.28 76.786 1370.7 80.3645 1366.31 80.3645Z" fill="#4F5359"/>
<path d="M1366.31 142.534C1370.1 142.534 1373.17 139.465 1373.17 135.68C1373.17 131.895 1370.1 128.826 1366.31 128.826C1362.52 128.826 1359.46 131.895 1359.46 135.68C1359.46 139.465 1362.52 142.534 1366.31 142.534Z" fill="#4F5359"/>
<path d="M1366.31 204.682C1363.16 204.682 1360.59 202.115 1360.59 198.961C1360.59 195.807 1363.16 193.239 1366.31 193.239C1369.47 193.239 1372.04 195.807 1372.04 198.961C1372.04 202.115 1369.47 204.682 1366.31 204.682Z" fill="#4F5359"/>
<path d="M1366.31 266.831C1368.85 266.831 1370.9 264.776 1370.9 262.242C1370.9 259.707 1368.85 257.652 1366.31 257.652C1363.78 257.652 1361.72 259.707 1361.72 262.242C1361.72 264.776 1363.78 266.831 1366.31 266.831Z" fill="#4F5359"/>
<path d="M1366.31 329C1364.39 329 1362.85 327.443 1362.85 325.543C1362.85 323.642 1364.41 322.085 1366.31 322.085C1368.21 322.085 1369.77 323.642 1369.77 325.543C1369.77 327.443 1368.21 329 1366.31 329Z" fill="#4F5359"/>
<path d="M1425.41 18.1958C1430.44 18.1958 1434.51 14.1225 1434.51 9.09789C1434.51 4.07327 1430.44 0 1425.41 0C1420.38 0 1416.31 4.07327 1416.31 9.09789C1416.31 14.1225 1420.38 18.1958 1425.41 18.1958Z" fill="#4F5359"/>
<path d="M1425.41 80.3645C1421 80.3645 1417.44 76.786 1417.44 72.3988C1417.44 68.0116 1421.02 64.4331 1425.41 64.4331C1429.8 64.4331 1433.38 68.0116 1433.38 72.3988C1433.38 76.786 1429.8 80.3645 1425.41 80.3645Z" fill="#4F5359"/>
<path d="M1425.41 142.534C1429.2 142.534 1432.27 139.465 1432.27 135.68C1432.27 131.895 1429.2 128.826 1425.41 128.826C1421.62 128.826 1418.55 131.895 1418.55 135.68C1418.55 139.465 1421.62 142.534 1425.41 142.534Z" fill="#4F5359"/>
<path d="M1425.41 204.682C1422.25 204.682 1419.69 202.115 1419.69 198.961C1419.69 195.807 1422.25 193.239 1425.41 193.239C1428.56 193.239 1431.13 195.807 1431.13 198.961C1431.13 202.115 1428.56 204.682 1425.41 204.682Z" fill="#4F5359"/>
<path d="M1425.41 266.831C1427.95 266.831 1430 264.776 1430 262.242C1430 259.707 1427.95 257.652 1425.41 257.652C1422.87 257.652 1420.82 259.707 1420.82 262.242C1420.82 264.776 1422.87 266.831 1425.41 266.831Z" fill="#4F5359"/>
<path d="M1425.41 329C1423.49 329 1421.95 327.443 1421.95 325.543C1421.95 323.642 1423.51 322.085 1425.41 322.085C1427.31 322.085 1428.87 323.642 1428.87 325.543C1428.87 327.443 1427.31 329 1425.41 329Z" fill="#4F5359"/>
<path d="M1484.51 18.1958C1489.53 18.1958 1493.61 14.1225 1493.61 9.09789C1493.61 4.07327 1489.53 0 1484.51 0C1479.48 0 1475.41 4.07327 1475.41 9.09789C1475.41 14.1225 1479.48 18.1958 1484.51 18.1958Z" fill="#4F5359"/>
<path d="M1484.51 80.3645C1480.1 80.3645 1476.54 76.786 1476.54 72.3988C1476.54 68.0116 1480.12 64.4331 1484.51 64.4331C1488.9 64.4331 1492.48 68.0116 1492.48 72.3988C1492.48 76.786 1488.9 80.3645 1484.51 80.3645Z" fill="#4F5359"/>
<path d="M1484.51 142.534C1488.29 142.534 1491.36 139.465 1491.36 135.68C1491.36 131.895 1488.29 128.826 1484.51 128.826C1480.72 128.826 1477.65 131.895 1477.65 135.68C1477.65 139.465 1480.72 142.534 1484.51 142.534Z" fill="#4F5359"/>
<path d="M1484.51 204.682C1481.35 204.682 1478.78 202.115 1478.78 198.961C1478.78 195.807 1481.35 193.239 1484.51 193.239C1487.66 193.239 1490.23 195.807 1490.23 198.961C1490.23 202.115 1487.66 204.682 1484.51 204.682Z" fill="#4F5359"/>
<path d="M1484.51 266.831C1487.04 266.831 1489.1 264.776 1489.1 262.242C1489.1 259.707 1487.04 257.652 1484.51 257.652C1481.97 257.652 1479.92 259.707 1479.92 262.242C1479.92 264.776 1481.97 266.831 1484.51 266.831Z" fill="#4F5359"/>
<path d="M1484.51 329C1482.59 329 1481.05 327.443 1481.05 325.543C1481.05 323.642 1482.61 322.085 1484.51 322.085C1486.41 322.085 1487.97 323.642 1487.97 325.543C1487.97 327.443 1486.41 329 1484.51 329Z" fill="#4F5359"/>
<path d="M1543.61 18.1958C1548.63 18.1958 1552.71 14.1225 1552.71 9.09789C1552.71 4.07327 1548.63 0 1543.61 0C1538.58 0 1534.5 4.07327 1534.5 9.09789C1534.5 14.1225 1538.58 18.1958 1543.61 18.1958Z" fill="#4F5359"/>
<path d="M1543.61 80.3445C1548.01 80.3445 1551.57 76.7781 1551.57 72.3788C1551.57 67.9795 1548.01 64.4131 1543.61 64.4131C1539.2 64.4131 1535.64 67.9795 1535.64 72.3788C1535.64 76.7781 1539.2 80.3445 1543.61 80.3445Z" fill="#4F5359"/>
<path d="M1543.61 142.534C1547.39 142.534 1550.46 139.465 1550.46 135.68C1550.46 131.895 1547.39 128.826 1543.61 128.826C1539.82 128.826 1536.75 131.895 1536.75 135.68C1536.75 139.465 1539.82 142.534 1543.61 142.534Z" fill="#4F5359"/>
<path d="M1543.61 204.682C1546.77 204.682 1549.33 202.121 1549.33 198.961C1549.33 195.801 1546.77 193.239 1543.61 193.239C1540.44 193.239 1537.88 195.801 1537.88 198.961C1537.88 202.121 1540.44 204.682 1543.61 204.682Z" fill="#4F5359"/>
<path d="M1543.61 266.831C1546.14 266.831 1548.2 264.776 1548.2 262.242C1548.2 259.707 1546.14 257.652 1543.61 257.652C1541.07 257.652 1539.01 259.707 1539.01 262.242C1539.01 264.776 1541.07 266.831 1543.61 266.831Z" fill="#4F5359"/>
<path d="M1543.61 328.98C1545.52 328.98 1547.06 327.432 1547.06 325.523C1547.06 323.613 1545.52 322.065 1543.61 322.065C1541.7 322.065 1540.15 323.613 1540.15 325.523C1540.15 327.432 1541.7 328.98 1543.61 328.98Z" fill="#4F5359"/>
<path d="M1602.7 18.1958C1607.73 18.1958 1611.8 14.1225 1611.8 9.09789C1611.8 4.07327 1607.73 0 1602.7 0C1597.68 0 1593.6 4.07327 1593.6 9.09789C1593.6 14.1225 1597.68 18.1958 1602.7 18.1958Z" fill="#4F5359"/>
<path d="M1602.7 80.3645C1598.29 80.3645 1594.73 76.786 1594.73 72.3988C1594.73 68.0116 1598.31 64.4331 1602.7 64.4331C1607.09 64.4331 1610.67 68.0116 1610.67 72.3988C1610.67 76.786 1607.09 80.3645 1602.7 80.3645Z" fill="#4F5359"/>
<path d="M1602.7 142.534C1606.49 142.534 1609.56 139.465 1609.56 135.68C1609.56 131.895 1606.49 128.826 1602.7 128.826C1598.92 128.826 1595.85 131.895 1595.85 135.68C1595.85 139.465 1598.92 142.534 1602.7 142.534Z" fill="#4F5359"/>
<path d="M1602.7 204.682C1599.55 204.682 1596.98 202.115 1596.98 198.961C1596.98 195.807 1599.55 193.239 1602.7 193.239C1605.86 193.239 1608.43 195.807 1608.43 198.961C1608.43 202.115 1605.86 204.682 1602.7 204.682Z" fill="#4F5359"/>
<path d="M1602.7 266.831C1600.17 266.831 1598.11 264.769 1598.11 262.242C1598.11 259.715 1600.17 257.652 1602.7 257.652C1605.23 257.652 1607.29 259.715 1607.29 262.242C1607.29 264.769 1605.23 266.831 1602.7 266.831Z" fill="#4F5359"/>
<path d="M1602.7 329C1600.78 329 1599.24 327.443 1599.24 325.543C1599.24 323.642 1600.8 322.085 1602.7 322.085C1604.6 322.085 1606.16 323.642 1606.16 325.543C1606.16 327.443 1604.6 329 1602.7 329Z" fill="#4F5359"/>
<path d="M1661.8 18.1958C1666.83 18.1958 1670.9 14.1225 1670.9 9.09789C1670.9 4.07327 1666.83 0 1661.8 0C1656.77 0 1652.7 4.07327 1652.7 9.09789C1652.7 14.1225 1656.77 18.1958 1661.8 18.1958Z" fill="#4F5359"/>
<path d="M1661.8 80.3645C1657.39 80.3645 1653.83 76.786 1653.83 72.3988C1653.83 68.0116 1657.41 64.4331 1661.8 64.4331C1666.19 64.4331 1669.77 68.0116 1669.77 72.3988C1669.77 76.786 1666.19 80.3645 1661.8 80.3645Z" fill="#4F5359"/>
<path d="M1661.8 142.534C1665.59 142.534 1668.66 139.465 1668.66 135.68C1668.66 131.895 1665.59 128.826 1661.8 128.826C1658.01 128.826 1654.94 131.895 1654.94 135.68C1654.94 139.465 1658.01 142.534 1661.8 142.534Z" fill="#4F5359"/>
<path d="M1661.8 204.682C1658.65 204.682 1656.08 202.115 1656.08 198.961C1656.08 195.807 1658.65 193.239 1661.8 193.239C1664.96 193.239 1667.52 195.807 1667.52 198.961C1667.52 202.115 1664.96 204.682 1661.8 204.682Z" fill="#4F5359"/>
<path d="M1661.8 266.831C1659.27 266.831 1657.21 264.769 1657.21 262.242C1657.21 259.715 1659.27 257.652 1661.8 257.652C1664.33 257.652 1666.39 259.715 1666.39 262.242C1666.39 264.769 1664.33 266.831 1661.8 266.831Z" fill="#4F5359"/>
<path d="M1661.8 329C1659.88 329 1658.34 327.443 1658.34 325.543C1658.34 323.642 1659.9 322.085 1661.8 322.085C1663.7 322.085 1665.26 323.642 1665.26 325.543C1665.26 327.443 1663.7 329 1661.8 329Z" fill="#4F5359"/>
<path d="M1720.9 18.1958C1725.93 18.1958 1730 14.1225 1730 9.09789C1730 4.07327 1725.93 0 1720.9 0C1715.87 0 1711.8 4.07327 1711.8 9.09789C1711.8 14.1225 1715.87 18.1958 1720.9 18.1958Z" fill="#4F5359"/>
<path d="M1720.9 80.3645C1716.49 80.3645 1712.93 76.786 1712.93 72.3988C1712.93 68.0116 1716.51 64.4331 1720.9 64.4331C1725.29 64.4331 1728.87 68.0116 1728.87 72.3988C1728.87 76.786 1725.29 80.3645 1720.9 80.3645Z" fill="#4F5359"/>
<path d="M1720.9 142.534C1724.69 142.534 1727.76 139.465 1727.76 135.68C1727.76 131.895 1724.69 128.826 1720.9 128.826C1717.11 128.826 1714.04 131.895 1714.04 135.68C1714.04 139.465 1717.11 142.534 1720.9 142.534Z" fill="#4F5359"/>
<path d="M1720.9 204.682C1717.74 204.682 1715.18 202.115 1715.18 198.961C1715.18 195.807 1717.74 193.239 1720.9 193.239C1724.05 193.239 1726.62 195.807 1726.62 198.961C1726.62 202.115 1724.05 204.682 1720.9 204.682Z" fill="#4F5359"/>
<path d="M1720.9 266.831C1718.37 266.831 1716.31 264.769 1716.31 262.242C1716.31 259.715 1718.37 257.652 1720.9 257.652C1723.43 257.652 1725.49 259.715 1725.49 262.242C1725.49 264.769 1723.43 266.831 1720.9 266.831Z" fill="#4F5359"/>
<path d="M1720.9 329C1718.98 329 1717.44 327.443 1717.44 325.543C1717.44 323.642 1719 322.085 1720.9 322.085C1722.8 322.085 1724.36 323.642 1724.36 325.543C1724.36 327.443 1722.8 329 1720.9 329Z" fill="#4F5359"/>
</g>
<defs>
<clipPath id="clip0_45_853">
<rect width="1732" height="329" fill="white" transform="translate(-2)"/>
</clipPath>
</defs>
</svg>
