<svg width="298" height="436" viewBox="0 0 298 436" fill="none" xmlns="http://www.w3.org/2000/svg">
<g clip-path="url(#clip0_45_749)">
<path d="M183.861 398.382L192.322 417.361V429.331H219.845C219.845 429.331 225.07 416.48 228.414 398.382H183.861Z" fill="#616263"/>
<path d="M124.063 429.331H154.524C154.524 429.331 155.092 421.875 154.524 417.7C157.123 413.036 161.726 405.418 166.044 398.382H118.404C120.042 409.051 122.019 420.519 124.063 429.331Z" fill="#616263"/>
<path d="M231.122 367.434H114.139C114.139 367.434 115.886 381.966 118.404 398.382H166.044C171.46 389.557 176.415 381.668 176.415 381.668L183.861 398.382H228.414C230.134 389.11 231.352 378.455 231.122 367.434Z" fill="#FFC9BA"/>
<path d="M183.861 398.382H228.414" stroke="#693C3C" stroke-width="2" stroke-linecap="round" stroke-linejoin="round"/>
<path d="M118.404 398.382H166.044" stroke="#693C3C" stroke-width="2" stroke-linecap="round" stroke-linejoin="round"/>
<path d="M114.139 367.434C114.139 367.434 118.878 406.977 124.063 429.344H154.524C154.524 429.344 155.092 421.888 154.524 417.713C160.386 407.207 176.415 381.681 176.415 381.681L192.322 417.374V429.344H219.845C219.845 429.344 231.799 399.968 231.122 367.434H114.139Z" stroke="#693C3C" stroke-width="2" stroke-linecap="round" stroke-linejoin="round"/>
<path d="M111.716 344.159C108.508 355.681 105.624 384.989 105.624 384.989C105.624 384.989 132.646 390.059 178.053 388.893C224.082 387.7 239.989 386.697 240.152 385.341C240.314 383.986 235.075 348.401 232.543 337.896C232.543 337.896 157.407 330.277 111.716 344.159Z" fill="#B08271" stroke="#693C3C" stroke-width="2" stroke-linecap="round" stroke-linejoin="round"/>
<path d="M152.831 220.948C152.831 220.948 133.878 229.95 123.955 237.568C119.514 240.984 113.056 270.617 111.703 300.441C110.349 330.264 111.703 344.158 111.703 344.158C111.703 344.158 140.471 349.066 179.894 346.192C219.317 343.318 232.354 339.075 232.516 337.896C232.679 336.716 227.02 273.505 213.604 240.13C205.941 230.126 188.342 222.426 188.342 222.426C188.342 222.426 168.373 219.43 152.804 220.976L152.831 220.948Z" fill="#A0C77F" stroke="#693C3C" stroke-width="2" stroke-linecap="round" stroke-linejoin="round"/>
<path d="M151.816 209.168V222.955C160.169 232.458 176.293 236.063 189.492 229.163V209.168H151.816Z" fill="#FFC9BA" stroke="#693C3C" stroke-width="2" stroke-linecap="round" stroke-linejoin="round"/>
<path d="M94.2791 52.3668C93.5481 38.621 83.7871 20.5103 81.7564 20.5103C79.7257 20.5103 78.3719 27.1256 78.3719 27.1256C69.0712 12.8919 44.7027 -0.325191 43.5114 1.53197C42.32 3.38914 40.1268 19.1547 41.9951 27.6272C27.7801 27.7898 1.89533 39.1497 1.38088 43.2165C0.866436 47.2833 9.16528 68.9728 23.0418 76.7675C15.2303 80.7123 6.63366 93.1973 7.31056 93.8751C7.98746 94.5529 20.8486 102.849 37.4328 103.025C34.7252 106.252 33.2089 113.355 34.0482 113.531C34.8876 113.707 51.6477 114.345 65.8627 106.563C80.0777 98.7823 95.132 68.2815 94.2927 52.3532L94.2791 52.3668Z" fill="#BD7BB6"/>
<path d="M69.2337 72.7005C55.5332 61.3406 37.9337 52.8817 35.727 52.5293C33.5203 52.1768 34.8876 59.8224 39.4499 64.2145C28.6466 60.7984 11.751 52.8682 2.34209 48.2998C4.90078 56.3656 12.2926 70.7213 23.0283 76.7537C15.2168 80.6985 6.62012 93.1835 7.29702 93.8613C7.97392 94.5391 20.8351 102.835 37.4192 103.012C34.7116 106.238 33.1954 113.341 34.0347 113.517C34.8741 113.694 51.6342 114.331 65.8492 106.55C69.7481 104.421 73.7013 100.572 77.3836 95.7998C77.0452 86.7716 75.0686 77.5129 69.2337 72.687V72.7005Z" fill="#9C6696"/>
<path d="M94.2791 52.3668C93.5481 38.621 83.7871 20.5103 81.7564 20.5103C79.7257 20.5103 78.3719 27.1256 78.3719 27.1256C69.0712 12.8919 44.7027 -0.325191 43.5114 1.53197C42.32 3.38914 40.1268 19.1547 41.9951 27.6272C27.7801 27.7898 1.89533 39.1497 1.38088 43.2165C0.866436 47.2833 9.16528 68.9728 23.0418 76.7675C15.2303 80.7123 6.63365 93.1973 7.31056 93.8751C7.98746 94.5529 20.8486 102.849 37.4328 103.025C34.7252 106.252 33.2089 113.355 34.0482 113.531C34.8876 113.707 51.6477 114.345 65.8627 106.563C80.0777 98.7823 95.132 68.2815 94.2927 52.3532L94.2791 52.3668Z" stroke="#693C3C" stroke-width="2" stroke-linecap="round" stroke-linejoin="round"/>
<path d="M93.5887 82.19C87.4559 98.9316 73.9449 109.356 63.4123 105.493C52.8797 101.629 49.3057 84.9147 55.4249 68.1867C61.5576 51.4451 75.0686 41.0206 85.6012 44.884C96.1338 48.7474 99.7079 65.4619 93.5887 82.19Z" fill="white" stroke="#693C3C" stroke-width="2" stroke-linecap="round" stroke-linejoin="round"/>
<path d="M288.415 115.144C287.237 122.519 293.979 134.041 296.254 136.59C298.528 139.138 290.581 142.69 282.039 138.705C282.716 156.748 280.996 181.894 277.043 196.345C271.344 217.221 259.85 225.476 258.455 223.118C255.044 217.356 241.411 204.207 240.111 168.365C238.812 132.523 240.111 112.054 240.111 112.054L288.415 115.144Z" fill="#BD7BB6" stroke="#693C3C" stroke-width="2" stroke-linecap="round" stroke-linejoin="round"/>
<path d="M267.824 152.165C270.667 163.092 271.953 174.126 269.001 181.812C259.484 206.633 217.976 223.524 180.476 222.439C153.183 221.653 114.194 203.814 105.786 189.783C92.7358 180.592 69.7752 130.883 85.4388 88.3982C101.102 45.9003 141.297 29.6603 193.96 35.0149C246.623 40.3695 263.397 61.8693 270.166 93.4817C276.028 120.865 267.973 146.54 267.81 152.179L267.824 152.165Z" fill="#FFE3D8"/>
<path d="M148.675 149.4C162.457 149.793 173.382 158.347 173.098 168.487C172.813 178.64 161.401 186.543 147.619 186.15C133.837 185.757 122.912 177.203 123.196 167.063C123.481 156.91 134.893 149.007 148.675 149.4Z" fill="#FFC9BA"/>
<path d="M234.29 170.249C234.574 160.095 245.987 152.192 259.768 152.585C262.774 152.667 265.63 153.168 268.27 153.954C270.788 164.284 271.79 174.546 269.001 181.798C268.067 184.225 266.822 186.584 265.306 188.848C263.194 189.214 260.987 189.39 258.713 189.322C244.931 188.929 234.006 180.375 234.29 170.235V170.249Z" fill="#FFC9BA"/>
<path d="M267.824 152.165C270.667 163.092 271.953 174.126 269.001 181.812C259.484 206.633 217.976 223.524 180.476 222.439C153.183 221.653 114.194 203.814 105.786 189.783C92.7358 180.592 69.7752 130.883 85.4388 88.3982C101.102 45.9003 141.297 29.6603 193.96 35.0149C246.623 40.3695 263.397 61.8693 270.166 93.4817C276.028 120.865 267.973 146.54 267.81 152.179L267.824 152.165Z" stroke="#693C3C" stroke-width="2" stroke-miterlimit="10" stroke-linecap="round"/>
<path d="M115.155 200.696C89.6626 197.754 60.7724 176.295 54.2335 134.041C46.2596 82.5693 64.1569 42.3082 118.093 21.0796C172.015 -0.162621 208.635 12.7155 232.3 23.7907C255.964 34.866 288.456 56.3928 288.456 117.096C288.456 117.096 284.394 133.16 269.137 135.166C269.137 135.166 251.822 87.7206 219.141 69.4201C186.46 51.1195 165.706 59.4836 165.706 59.4836C165.706 59.4836 122.831 74.8425 120.353 116.649C117.876 158.442 115.168 200.696 115.168 200.696H115.155Z" fill="#BD7BB6"/>
<path d="M282.188 76.1033C277.666 63.0489 271.046 53.0718 263.6 45.3042C254.678 50.7808 238.622 59.1719 214.213 66.831C215.824 67.6308 217.448 68.4849 219.127 69.4202C223.351 71.779 227.304 74.6393 231.014 77.8114C244.457 79.5736 263.139 80.3463 282.188 76.1033Z" fill="#DB8FD3"/>
<path d="M108.833 99.4736C90.6509 106.685 65.1046 112.352 52.4736 114.927C52.6225 121.109 53.2182 127.48 54.2335 134.041C60.7724 176.295 89.6626 197.754 115.155 200.696C115.155 200.696 117.862 158.442 120.34 116.649C120.719 110.332 122.019 104.625 123.955 99.4736H108.833Z" fill="#9C6696"/>
<path d="M269.123 135.166C269.123 135.166 251.808 87.7206 219.127 69.4201C186.446 51.1195 165.692 59.4836 165.692 59.4836C165.692 59.4836 122.817 74.8425 120.34 116.649C117.862 158.442 115.155 200.696 115.155 200.696C89.6626 197.754 60.7724 176.295 54.2335 134.041C46.2596 82.5693 64.1569 42.3082 118.093 21.0796C172.015 -0.162622 208.635 12.7155 232.3 23.7907C255.964 34.866 288.456 57.5993 288.456 118.303C288.456 118.303 288.456 121.109 289.376 123.183" stroke="#693C3C" stroke-width="2" stroke-linecap="round" stroke-linejoin="round"/>
<path d="M80.0235 149.034C84.0985 144.805 94.7123 144.629 101.427 152.274L107.898 189.336C98.151 192.874 85.6689 187.94 79.658 176.322C73.0785 163.621 74.6895 154.565 80.0235 149.034Z" fill="#FFE3D8"/>
<path d="M86.7655 158.971C86.7655 158.971 94.3468 160.286 98.0698 171.93C93.9542 167.823 87.5642 169.422 86.3594 173.028" stroke="#693C3C" stroke-width="2" stroke-linecap="round" stroke-linejoin="round"/>
<path d="M101.427 152.274C94.7123 144.615 84.085 144.805 80.0235 149.034C74.7031 154.565 73.092 163.607 79.658 176.322C85.6689 187.94 98.151 192.874 107.898 189.336" stroke="#693C3C" stroke-width="2" stroke-miterlimit="10" stroke-linecap="round"/>
<path d="M220.928 192.169C220.968 191.41 219.412 189.051 215.052 188.563C210.693 188.075 191.388 186.598 187.367 187.113C183.346 187.628 178.635 190.529 177.741 197.917C176.848 205.305 183.779 211.215 193.987 212.083C205.765 213.072 220.156 208.518 220.928 192.169Z" fill="#D85461"/>
<path d="M177.701 198.635C192.552 193.565 208.216 200.465 213.631 207.243C208.229 211.419 200.688 212.652 193.987 212.083C184.104 211.256 177.322 205.684 177.701 198.622V198.635Z" fill="#FFB0A4"/>
<path d="M177.701 198.635C192.552 193.565 208.216 200.465 213.631 207.243" stroke="#A13E49" stroke-miterlimit="10" stroke-linecap="round"/>
<path d="M215.052 188.577C216.88 188.78 218.207 189.309 219.127 189.905C212.913 192.996 192.525 193.999 182.94 188.712C184.361 187.804 185.905 187.303 187.353 187.113C191.374 186.598 210.666 188.075 215.039 188.563L215.052 188.577Z" fill="white"/>
<path d="M219.127 189.905C212.913 192.996 192.525 193.999 182.94 188.712" stroke="#A13E49" stroke-miterlimit="10" stroke-linecap="round"/>
<path d="M220.928 192.169C220.968 191.41 219.412 189.051 215.052 188.563C210.693 188.075 191.388 186.598 187.367 187.113C183.346 187.628 178.635 190.529 177.741 197.917C176.848 205.305 183.779 211.215 193.987 212.083C205.765 213.072 220.156 208.518 220.928 192.169Z" stroke="#A13E49" stroke-miterlimit="10" stroke-linecap="round"/>
<path d="M220.86 166.901C220.86 166.901 225.084 170.575 219.479 173.977" stroke="#BA7366" stroke-width="2" stroke-miterlimit="10" stroke-linecap="round"/>
<path d="M156.541 163.092C156.541 163.092 156.338 162.956 155.972 162.753C155.62 162.549 155.079 162.292 154.442 161.966C153.779 161.695 153.021 161.329 152.168 161.045C151.329 160.746 150.422 160.435 149.487 160.204C149.027 160.082 148.567 159.96 148.12 159.838C147.66 159.757 147.199 159.662 146.766 159.581C146.333 159.499 145.9 159.418 145.507 159.337C145.101 159.255 144.722 159.242 144.37 159.201C142.948 159.052 142.014 158.944 142.014 158.944H141.933C141.378 158.876 140.972 158.374 141.026 157.818C141.08 157.263 141.581 156.856 142.15 156.91C142.177 156.91 142.204 156.91 142.231 156.91C142.231 156.91 143.206 157.1 144.681 157.371C145.047 157.452 145.453 157.493 145.859 157.615C146.265 157.723 146.712 157.845 147.159 157.967C147.606 158.089 148.066 158.225 148.54 158.347C149 158.51 149.474 158.672 149.934 158.849C150.882 159.16 151.789 159.554 152.628 159.947C153.481 160.299 154.239 160.76 154.889 161.085C155.525 161.465 156.067 161.777 156.419 162.034C156.784 162.278 156.974 162.427 156.974 162.427H156.987C157.15 162.577 157.177 162.807 157.042 162.983C156.92 163.146 156.69 163.173 156.527 163.065L156.541 163.092Z" fill="#ED9087"/>
<path d="M151.721 165.423C151.721 165.423 151.572 165.356 151.315 165.247C151.071 165.139 150.692 165.003 150.246 164.84C149.799 164.691 149.271 164.515 148.689 164.366C148.106 164.23 147.511 164.054 146.888 163.946C146.265 163.824 145.656 163.715 145.06 163.661C144.478 163.593 143.937 163.512 143.463 163.512C142.529 163.471 141.906 163.444 141.906 163.444H141.825C141.27 163.417 140.823 162.943 140.85 162.373C140.877 161.804 141.351 161.37 141.92 161.397C141.96 161.397 142.001 161.397 142.041 161.397C142.041 161.397 142.705 161.506 143.693 161.682C144.194 161.75 144.749 161.912 145.358 162.048C145.967 162.183 146.604 162.373 147.227 162.59C147.863 162.78 148.472 163.037 149.054 163.254C149.636 163.485 150.151 163.729 150.597 163.946C151.044 164.176 151.41 164.352 151.667 164.502L152.06 164.732C152.249 164.84 152.303 165.071 152.195 165.261C152.1 165.423 151.884 165.491 151.708 165.423H151.694H151.721Z" fill="#ED9087"/>
<path d="M146.956 167.755C146.956 167.755 146.617 167.714 146.143 167.687C145.67 167.66 145.033 167.633 144.397 167.66C144.086 167.674 143.761 167.66 143.476 167.701C143.192 167.741 142.921 167.769 142.691 167.809C142.245 167.863 141.933 167.904 141.933 167.904H141.798C141.229 167.999 140.715 167.592 140.647 167.037C140.579 166.467 140.972 165.952 141.541 165.884C141.622 165.884 141.703 165.884 141.784 165.884C141.784 165.884 142.136 165.925 142.664 165.979C142.921 166.006 143.233 166.047 143.558 166.074C143.883 166.101 144.208 166.21 144.546 166.277C145.209 166.413 145.859 166.589 146.347 166.752C146.834 166.887 147.132 167.009 147.132 167.009H147.159C147.348 167.104 147.457 167.321 147.375 167.525C147.308 167.687 147.132 167.782 146.969 167.755H146.956Z" fill="#ED9087"/>
<path d="M251.713 165.234C251.713 165.234 251.808 165.112 252.025 164.908C252.228 164.691 252.539 164.407 252.918 164.081C253.094 163.905 253.324 163.756 253.555 163.58C253.785 163.417 254.015 163.214 254.286 163.051C254.814 162.726 255.369 162.333 255.978 162.061C256.276 161.912 256.574 161.763 256.871 161.614C257.169 161.465 257.481 161.384 257.778 161.262C258.374 161.058 258.929 160.814 259.43 160.733C260.432 160.503 261.095 160.353 261.095 160.353C261.65 160.231 262.192 160.57 262.314 161.126C262.435 161.682 262.097 162.224 261.542 162.346C261.501 162.346 261.461 162.36 261.42 162.36H261.285C261.285 162.36 260.689 162.427 259.782 162.522C259.322 162.536 258.821 162.699 258.252 162.807C257.981 162.875 257.684 162.916 257.399 163.024C257.115 163.119 256.831 163.227 256.533 163.336C255.937 163.512 255.396 163.824 254.868 164.054C254.597 164.176 254.367 164.339 254.137 164.461C253.907 164.596 253.676 164.718 253.487 164.854C253.094 165.112 252.783 165.342 252.58 165.505C252.377 165.667 252.241 165.776 252.241 165.776C252.092 165.925 251.849 165.911 251.7 165.776C251.564 165.64 251.564 165.423 251.673 165.274L251.7 165.247L251.713 165.234Z" fill="#ED9087"/>
<path d="M254.624 167.728L254.854 167.524C255.003 167.389 255.22 167.226 255.49 167.036C256.018 166.657 256.763 166.182 257.575 165.83C257.981 165.654 258.388 165.464 258.794 165.355C259.2 165.233 259.565 165.084 259.904 165.044C260.581 164.922 261.028 164.827 261.028 164.827C261.583 164.718 262.124 165.084 262.219 165.64C262.327 166.196 261.962 166.738 261.407 166.833C261.339 166.833 261.285 166.847 261.217 166.847H261.095C261.095 166.847 260.716 166.847 260.148 166.847C259.863 166.819 259.525 166.901 259.159 166.928C258.794 166.955 258.415 167.05 258.036 167.145C257.264 167.321 256.519 167.619 255.978 167.863C255.707 167.999 255.477 168.107 255.342 168.189C255.193 168.27 255.098 168.324 255.098 168.324C254.922 168.446 254.678 168.405 254.57 168.229C254.462 168.067 254.489 167.85 254.638 167.728H254.624Z" fill="#ED9087"/>
<path d="M257.629 170.195C257.629 170.195 257.792 170.1 258.103 169.978C258.401 169.842 258.821 169.693 259.254 169.585C259.471 169.531 259.687 169.449 259.904 169.422C260.12 169.395 260.337 169.382 260.513 169.368C260.879 169.341 261.122 169.327 261.122 169.327C261.704 169.287 262.205 169.72 262.246 170.29C262.287 170.873 261.853 171.374 261.285 171.415C261.149 171.415 261.028 171.415 260.906 171.374L260.743 171.32C260.743 171.32 260.581 171.266 260.351 171.198C260.229 171.157 260.08 171.117 259.931 171.063C259.768 171.008 259.579 171.008 259.403 170.981C259.024 170.927 258.645 170.913 258.361 170.913C258.076 170.913 257.86 170.94 257.86 170.94C257.657 170.968 257.453 170.832 257.426 170.615C257.399 170.452 257.481 170.303 257.602 170.222L257.657 170.195H257.629Z" fill="#ED9087"/>
<path d="M186.257 123.156C188.111 123.278 184.361 114.29 181.694 113.192C175.508 110.644 163.08 112.88 163.838 113.924C164.596 114.968 177.362 122.559 186.257 123.156Z" fill="#693C3C"/>
<path d="M231.366 124.457C229.89 124.484 233.315 115.714 235.481 114.751C240.504 112.528 250.184 115.402 249.534 116.392C248.884 117.395 238.419 124.322 231.366 124.457Z" fill="#693C3C"/>
<path d="M249.967 127.331C243.306 126.721 238.392 132.184 235.806 135.627C233.207 139.07 231.122 145.509 233.044 154.497C236.659 160.556 247.205 162.088 254.137 160.827C261.068 159.567 264.209 152.003 264.764 146.472C265.319 140.941 263.058 128.51 249.967 127.331Z" fill="white"/>
<path d="M230.811 148.316C231.907 142.771 237.877 129.256 249.304 129.337C260.73 129.419 265.427 139.382 264.493 147.8C266.605 147.285 269.137 144.235 269.137 144.235C269.137 144.235 266.862 128.415 254.001 125.935C239.962 123.223 231.839 134.15 230.824 148.302L230.811 148.316Z" fill="#693C3C"/>
<path d="M252.187 160.028C258.752 160.028 264.074 152.915 264.074 144.141C264.074 135.366 258.752 128.253 252.187 128.253C245.622 128.253 240.301 135.366 240.301 144.141C240.301 152.915 245.622 160.028 252.187 160.028Z" fill="#616263"/>
<path d="M263.816 140.901C262.693 133.675 257.914 128.253 252.187 128.253C245.621 128.253 240.301 135.37 240.301 144.141C240.301 144.195 240.301 144.235 240.301 144.276C244.43 142.324 253.514 138.935 263.816 140.901Z" fill="#505152"/>
<path d="M252.187 160.028C258.752 160.028 264.074 152.915 264.074 144.141C264.074 135.366 258.752 128.253 252.187 128.253C245.622 128.253 240.301 135.366 240.301 144.141C240.301 152.915 245.622 160.028 252.187 160.028Z" stroke="#693C3C" stroke-width="1.5" stroke-miterlimit="10"/>
<path d="M253.879 151.108C256.758 151.108 259.092 147.988 259.092 144.14C259.092 140.292 256.758 137.172 253.879 137.172C251.001 137.172 248.667 140.292 248.667 144.14C248.667 147.988 251.001 151.108 253.879 151.108Z" fill="#2C2D2E"/>
<path d="M236.821 144.14C239.732 142.636 247.395 142.636 247.611 144.14C247.828 145.645 242.115 150.471 238.649 151.108C235.183 151.745 234.168 145.523 236.835 144.14H236.821Z" fill="white"/>
<path d="M261.732 146.146C260.933 144.723 257.846 144.452 257.67 145.089C257.508 145.726 260.039 149.278 260.797 149.237C261.556 149.196 262.314 147.204 261.732 146.146Z" fill="white"/>
<path d="M140.769 151.84C146.035 156.219 158.179 162.536 167.574 162.143C176.97 161.763 179.934 157.398 179.934 157.398C179.934 157.398 183.833 145.266 180.49 138.135C177.146 130.991 167.994 122.41 153.684 127.236C139.361 132.062 138.67 145.211 140.769 151.84Z" fill="white"/>
<path d="M179.934 145.103C179.934 153.874 174.113 160.99 166.911 160.99C159.709 160.99 153.887 153.874 153.887 145.103C153.887 136.332 159.722 129.215 166.911 129.215C174.1 129.215 179.934 136.332 179.934 145.103Z" fill="#616263"/>
<path d="M179.664 141.863C178.445 134.638 173.193 129.215 166.924 129.215C159.736 129.215 153.901 136.332 153.901 145.103C153.901 145.157 153.901 145.198 153.901 145.238C158.422 143.286 168.373 139.897 179.664 141.863Z" fill="#505152"/>
<path d="M179.934 145.103C179.934 153.874 174.113 160.99 166.911 160.99C159.709 160.99 153.887 153.874 153.887 145.103C153.887 136.332 159.722 129.215 166.911 129.215C174.1 129.215 179.934 136.332 179.934 145.103Z" stroke="#693C3C" stroke-width="1.5" stroke-miterlimit="10"/>
<path d="M174.479 145.103C174.479 148.953 171.92 152.071 168.779 152.071C165.638 152.071 163.08 148.953 163.08 145.103C163.08 141.253 165.638 138.135 168.779 138.135C171.92 138.135 174.479 141.253 174.479 145.103Z" fill="#2C2D2E"/>
<path d="M150.097 145.103C153.278 143.598 161.685 143.598 161.915 145.103C162.145 146.608 155.891 151.434 152.087 152.071C148.282 152.708 147.172 146.486 150.097 145.103Z" fill="white"/>
<path d="M177.389 147.109C176.523 145.686 173.125 145.415 172.935 146.052C172.746 146.689 175.535 150.241 176.36 150.2C177.2 150.159 178.026 148.167 177.376 147.109H177.389Z" fill="white"/>
<path d="M183.008 152.342C183.008 152.342 180.354 130.598 164.785 128.104C149.217 125.609 139.74 140.413 140.755 151.827C136.694 150.525 132.064 145.713 132.064 145.713C132.064 145.713 140.322 124.051 157.529 123.183C175.494 122.275 185.025 137.213 182.994 152.328L183.008 152.342Z" fill="#693C3C"/>
<path d="M132.673 138.135C131.13 155.961 130.466 172.554 129.979 184.198C129.14 204.37 131.685 223.348 129.979 223.511C128.3 223.673 106.125 210.632 100.547 194.88C99.5184 198.093 96.3098 202.472 94.956 202.065C93.6022 201.658 82.4333 159.499 94.956 127.277C95.8089 116.581 97.8396 94.8917 107.898 73.88C113.408 61.3543 132.754 39.9224 164.853 37.6314C188.193 33.2122 240.883 35.0829 259.809 76.0896C282.512 101.06 277.72 142.405 276.813 143.991C275.919 145.591 234.317 124.064 223.906 113.138C223.906 113.138 228.875 133.255 228.198 134.828C227.521 136.414 192.877 117.544 170.539 75.1814C161.915 101.344 150.164 119.347 132.673 138.135Z" fill="#BD7BB6"/>
<path d="M259.809 76.0894C255.91 67.6305 250.549 60.8526 244.322 55.4302C235.657 59.375 224.854 63.6044 211.722 67.617C207.836 68.8099 205.806 71.8464 211.722 73.8798C215.837 75.2896 236.997 80.5494 262.192 78.9091C261.434 77.9466 260.648 77.0112 259.809 76.0894Z" fill="#DB8FD3"/>
<path d="M223.906 85.0096C212.967 80.5226 192.511 77.5538 199.294 85.0096C206.077 92.4654 233.667 95.8544 232.286 92.2349C230.905 88.6155 225.49 85.6603 223.906 85.0096Z" fill="#DB8FD3"/>
<path d="M96.2421 106.292C96.2421 106.292 96.7295 104.205 97.4741 101.06C97.6636 100.273 97.8667 99.4194 98.0698 98.5247C98.327 97.63 98.6113 96.6811 98.8956 95.705C99.1799 94.729 99.4777 93.7123 99.7756 92.6956C100.087 91.6789 100.344 90.6215 100.75 89.6048C101.495 87.5715 102.24 85.5381 102.943 83.6402C103.282 82.6778 103.634 81.7695 104.04 80.929C104.419 80.0886 104.785 79.2888 105.123 78.5432C106.463 75.588 107.357 73.6224 107.357 73.6224C107.492 73.3242 107.844 73.1886 108.142 73.3242C108.426 73.4597 108.562 73.7851 108.44 74.0833V74.124C108.44 74.124 107.628 76.1031 106.423 79.0854C106.125 79.831 105.8 80.6308 105.462 81.4848C105.096 82.3253 104.785 83.2471 104.5 84.196C103.891 86.1074 103.255 88.1408 102.605 90.1742C102.253 91.1773 102.05 92.2347 101.793 93.2378C101.536 94.2545 101.292 95.2577 101.062 96.2202C100.818 97.1826 100.588 98.118 100.371 98.9991C100.195 99.9074 100.033 100.761 99.8839 101.548L98.8956 106.834C98.7602 107.566 98.0427 108.054 97.3116 107.919C96.5806 107.783 96.0932 107.065 96.2286 106.333C96.2286 106.319 96.2286 106.292 96.2286 106.279L96.2421 106.292Z" fill="#693C3C"/>
<path d="M259.809 76.0894C282.512 101.059 277.72 142.405 276.813 143.991C275.919 145.591 234.317 124.064 223.906 113.138C223.906 113.138 228.875 133.255 228.198 134.827C227.521 136.413 192.877 117.543 170.539 75.1812C161.915 101.344 150.164 119.346 132.673 138.135C131.13 155.961 130.466 172.554 129.979 184.198C129.14 204.369 131.685 223.348 129.979 223.51C128.3 223.673 106.125 210.632 100.547 194.88C99.5184 198.093 96.3098 202.472 94.956 202.065C93.6022 201.658 82.4333 159.499 94.956 127.277C95.3486 122.342 95.9985 115.049 97.5689 106.577" stroke="#693C3C" stroke-width="2" stroke-linecap="round" stroke-linejoin="round"/>
<path d="M138.494 98.5654L135.8 118.398C134.92 128.321 134.027 138.257 134.027 138.257V138.311C133.959 139.057 133.296 139.613 132.551 139.545C131.807 139.477 131.252 138.813 131.319 138.067V138.027C131.319 138.027 132.538 128.063 133.743 118.086C135.408 108.217 137.059 98.3486 137.059 98.3486C137.127 97.9554 137.493 97.6843 137.899 97.7521C138.291 97.8199 138.549 98.1859 138.494 98.5654Z" fill="#693C3C"/>
<path d="M154.645 427.405H152.831C152.831 427.405 147.186 417.021 143.639 416.452C140.092 415.883 129.37 415.774 127.962 416.005C126.554 416.235 121.017 418.77 120.57 423.406C120.123 428.042 120.57 431.201 120.57 432.163C120.57 433.126 120.678 434.644 123.102 434.644H154.645C155.539 434.644 156.5 433.627 156.5 432.557V428.72C156.5 428.72 156.459 427.419 154.645 427.419V427.405Z" fill="#BD7BB6" stroke="#693C3C" stroke-width="2" stroke-linecap="round" stroke-linejoin="round"/>
<path d="M193.188 427.406H208.067C208.067 427.406 212.466 418.093 215.797 417.361C219.317 416.588 221.496 416.859 222.904 417.076C224.312 417.293 230.743 427.528 230.743 432.15C230.743 433.113 230.635 434.631 228.211 434.631H193.202C192.308 434.631 191.347 433.614 191.347 432.543V428.707C191.347 428.707 191.388 427.406 193.202 427.406H193.188Z" fill="#BD7BB6" stroke="#693C3C" stroke-width="2" stroke-linecap="round" stroke-linejoin="round"/>
<path d="M87.2393 331.579C84.1933 337.191 83.6382 346.341 84.9108 350.72C86.1834 355.098 88.0381 356.291 91.7475 358.135C95.4434 359.992 104.907 360.697 106.531 359.585C108.169 358.474 108.034 354.285 107.844 353.363C108.941 353.634 111.635 353.078 112.244 351.682C112.853 350.286 110.241 343.332 109.564 341.339C108.887 339.346 105.895 335.781 101.373 333.815C96.8649 331.836 88.4036 329.41 87.2258 331.565L87.2393 331.579Z" fill="#FFE3D8" stroke="#693C3C" stroke-width="2" stroke-linecap="round" stroke-linejoin="round"/>
<path d="M107.046 354.461L104.609 351.926C104.324 351.628 104.324 351.153 104.622 350.869C104.852 350.652 105.191 350.598 105.462 350.733H105.475L108.657 352.292C109.347 352.631 109.631 353.444 109.293 354.136C108.954 354.827 108.142 355.112 107.452 354.773C107.303 354.705 107.167 354.61 107.059 354.488L107.032 354.461H107.046Z" fill="#693C3C"/>
<path d="M101.048 278.751C101.048 278.751 86.4947 310.16 83.6788 336.811C100.263 343.481 112.786 343.481 112.786 343.481C118.201 334.439 131.956 301.118 135.462 287.562L101.048 278.751Z" fill="#616263" stroke="#693C3C" stroke-width="2" stroke-linecap="round" stroke-linejoin="round"/>
<path d="M123.955 237.582C123.955 237.582 100.371 259.61 90.5562 283.807C104.771 294.232 122.479 302.474 137.939 305.307C142.109 294.123 144.939 278.426 145.494 265.764L123.955 237.582Z" fill="#A0C77F"/>
<path d="M123.955 237.582C123.955 237.582 100.371 259.61 90.5562 283.807C104.771 294.232 122.479 302.474 137.939 305.307C142.109 294.123 144.939 278.426 145.494 265.764" stroke="#693C3C" stroke-width="2" stroke-linecap="round" stroke-linejoin="round"/>
<path d="M270.477 285.082C270.477 285.082 264.994 308.778 247.151 309.374C236.348 309.727 229.89 308.059 229.89 308.059V269.384H270.477V285.082Z" fill="#616263" stroke="#693C3C" stroke-width="2" stroke-linecap="round" stroke-linejoin="round"/>
<path d="M243.685 219.756L228.915 202.038L220.603 208.979L234.019 225.083L231.867 273.207L242.683 273.695L244.931 223.47C244.985 222.114 244.538 220.8 243.685 219.756Z" fill="white" stroke="#693C3C" stroke-width="2" stroke-linecap="round" stroke-linejoin="round"/>
<path d="M275.879 258.39C274.132 264.3 259.037 266.415 242.169 263.134C225.301 259.84 213.049 252.384 214.809 246.488C216.555 240.577 231.65 238.463 248.518 241.743C265.387 245.037 277.639 252.479 275.879 258.39Z" fill="white" stroke="#693C3C" stroke-width="2" stroke-linecap="round" stroke-linejoin="round"/>
<path d="M214.714 246.922C214.741 246.759 214.781 246.556 214.809 246.407C215.093 244.848 215.377 243.275 215.648 241.716C215.702 241.404 215.783 240.984 215.837 240.672C216.095 239.276 216.338 237.893 216.582 236.497C216.609 236.348 216.636 236.212 216.69 236.063C218.437 230.153 233.532 228.038 250.4 231.319C266.862 234.531 278.925 241.703 277.869 247.532L275.987 257.97C277.043 252.141 264.981 244.956 248.518 241.757C231.65 238.463 216.569 240.591 214.809 246.501C214.768 246.651 214.727 246.786 214.7 246.935L214.714 246.922Z" fill="white" stroke="#693C3C" stroke-width="2" stroke-linecap="round" stroke-linejoin="round"/>
<path d="M247.449 245.471C233.342 242.719 220.725 244.495 219.263 249.443C219.208 249.646 219.168 249.85 219.141 250.053C217.516 265.9 215.905 281.733 214.281 297.567C214.294 297.39 214.335 297.214 214.389 297.038L258.347 305.605L270.355 259.393C271.817 254.459 261.569 248.223 247.462 245.471H247.449Z" fill="white" stroke="#693C3C" stroke-width="2" stroke-linecap="round" stroke-linejoin="round"/>
<path d="M258.333 305.605C257.074 309.862 246.203 311.38 234.073 309.021C221.93 306.649 213.116 301.281 214.375 297.038C215.634 292.781 226.492 291.263 238.636 293.622C250.779 295.994 259.593 301.349 258.333 305.605Z" fill="white" stroke="#693C3C" stroke-width="2" stroke-linecap="round" stroke-linejoin="round"/>
<path d="M275.527 266.971C274.417 263.243 267.404 260.532 265.211 262.742C263.018 264.951 260.134 281.151 260.31 283.808C260.472 286.465 266.903 289.095 269.705 287.658C272.508 286.221 278.925 278.331 275.54 266.985L275.527 266.971Z" fill="#FFE3D8" stroke="#693C3C" stroke-width="2" stroke-linecap="round" stroke-linejoin="round"/>
</g>
<defs>
<clipPath id="clip0_45_749">
<rect width="298" height="436" fill="white"/>
</clipPath>
</defs>
</svg>
