<svg width="245" height="432" viewBox="0 0 245 432" fill="none" xmlns="http://www.w3.org/2000/svg">
<g clip-path="url(#clip0_45_659)">
<path d="M127.983 225.003C125.54 232.697 115.519 238.93 105.611 238.93C95.7037 238.93 89.6608 232.697 92.1032 225.003C94.5581 217.31 104.567 211.077 114.474 211.077C124.382 211.077 130.425 217.31 127.983 225.003Z" fill="#FFC9BA" stroke="#693C3C" stroke-width="2" stroke-miterlimit="10" stroke-linecap="round"/>
<path d="M220.312 248.525C225.109 248.424 231.404 251.194 233.884 253.561C236.364 255.929 236.515 257.578 236.477 260.688C236.439 263.799 233.644 270.371 232.348 271.077C231.051 271.782 228.294 270.246 227.74 269.817C227.539 270.648 226.242 272.26 225.109 272.185C223.963 272.109 220.237 267.979 219.129 266.833C218.034 265.687 216.687 262.464 216.926 258.762C217.165 255.06 218.462 248.575 220.312 248.537V248.525Z" fill="#FFE3D8" stroke="#693C3C" stroke-width="2" stroke-linecap="round" stroke-linejoin="round"/>
<path d="M226.506 270.032L226.683 267.349V267.324C226.708 266.934 227.035 266.644 227.425 266.669C227.702 266.682 227.942 266.871 228.03 267.11L228.986 269.603V269.641C229.251 270.309 228.923 271.051 228.256 271.316C227.589 271.568 226.846 271.24 226.582 270.573C226.519 270.397 226.481 270.208 226.494 270.019L226.506 270.032Z" fill="#693C3C"/>
<path d="M14.9183 228.617C10.2099 227.673 4.67059 223.593 2.7696 220.747C0.856033 217.902 1.07005 216.252 1.77505 213.23C2.49264 210.208 6.6471 204.403 8.0571 203.988C9.47969 203.572 11.8339 205.675 12.2745 206.216C12.6396 205.448 14.2636 204.164 15.3589 204.479C16.4542 204.793 19.2112 209.654 20.0295 211.001C20.8604 212.361 21.4647 215.799 20.4324 219.35C19.4 222.913 16.7185 228.97 14.9057 228.605L14.9183 228.617Z" fill="#FFE3D8" stroke="#693C3C" stroke-width="2" stroke-linecap="round" stroke-linejoin="round"/>
<path d="M13.5335 206.292L12.7781 208.873C12.6648 209.263 12.2872 209.478 11.9095 209.364C11.6451 209.289 11.4563 209.062 11.4185 208.798L11.0282 206.153V206.116C10.9149 205.41 11.4059 204.756 12.1109 204.642C12.8159 204.542 13.4706 205.02 13.5839 205.725C13.609 205.914 13.5839 206.103 13.5461 206.279L13.5335 206.292Z" fill="#693C3C"/>
<path d="M35.9298 397.75C35.9298 397.75 19.249 402.397 17.2095 402.787C15.1701 403.177 12.8788 406.325 15.3967 409.864C17.9145 413.402 35.1493 424.823 41.3558 428.046C47.5623 431.27 53.4667 431.345 54.8892 429.62C56.3118 427.895 65.5146 415.14 65.5146 415.14C65.5146 415.14 64.2557 402.082 53.089 396.252C44.0373 391.53 35.9424 397.75 35.9424 397.75H35.9298Z" fill="#D85461" stroke="#693C3C" stroke-width="2" stroke-linecap="round" stroke-linejoin="round"/>
<path d="M219.872 381.205C219.872 381.205 236.905 384.34 238.907 384.869C240.921 385.41 244.345 383.585 243.628 379.291C242.91 374.997 232.411 357.205 228.244 351.576C224.064 345.96 218.802 343.303 216.762 344.235C214.735 345.167 200.875 352.609 200.875 352.609C200.875 352.609 196.292 364.898 203.783 375.035C209.851 383.245 219.859 381.205 219.859 381.205H219.872Z" fill="#D85461" stroke="#693C3C" stroke-width="2" stroke-linecap="round" stroke-linejoin="round"/>
<path d="M62.6569 330.271C55.4181 339.614 43.6723 364.898 35.5899 389.238C31.8132 392.701 29.396 395.219 30.1388 396.793C30.869 398.367 39.5807 406.338 51.8553 413.264C64.1298 420.189 68.1206 420.718 69.4803 419.975C70.8399 419.245 73.7858 414.409 73.7858 414.409C73.7858 414.409 108.092 392.273 116.904 384.504L124.558 383.774C124.558 383.774 167.261 400.672 175.759 400.042C184.257 399.413 209.335 385.247 209.335 385.247C209.335 385.247 218.361 385.662 218.777 384.617C219.192 383.572 219.091 369.822 216.473 360.378C213.854 350.934 209.964 346.313 208.818 346.212C207.66 346.111 197.803 349.36 197.803 349.36C197.803 349.36 195.436 336.768 191.193 330.258H62.6569V330.271Z" fill="#695B5B" stroke="#693C3C" stroke-width="2" stroke-linecap="round" stroke-linejoin="round"/>
<path d="M36.4335 388.319C36.4335 388.319 36.6475 388.52 37.0126 388.886C37.3777 389.251 37.919 389.754 38.5611 390.334C39.2031 390.925 39.9585 391.605 40.7642 392.336C41.6077 393.041 42.5015 393.784 43.3954 394.527C44.3018 395.257 45.1579 396.063 46.0643 396.68C46.9581 397.322 47.7764 397.914 48.494 398.418C49.9166 399.437 50.8734 400.117 50.8734 400.117L50.9237 400.155C51.2133 400.369 51.2888 400.772 51.0748 401.062C50.8734 401.339 50.4957 401.414 50.2062 401.238C50.2062 401.238 49.199 400.609 47.6883 399.664C46.9329 399.186 46.0391 398.644 45.0949 398.052C44.1255 397.486 43.2191 396.718 42.2371 396.038C41.2804 395.333 40.311 394.627 39.4171 393.973C38.5485 393.268 37.7302 392.613 37.0252 392.059C36.3202 391.505 35.7411 391.026 35.3634 390.686C34.9731 390.346 34.7465 390.157 34.7465 390.157C34.2178 389.704 34.1548 388.911 34.608 388.382C35.0613 387.853 35.8544 387.79 36.3831 388.243C36.4083 388.256 36.4209 388.281 36.4461 388.294L36.4335 388.319Z" fill="#693C3C"/>
<path d="M123.929 384.894C123.929 384.894 123.463 384.63 122.657 384.151C121.839 383.685 120.681 382.993 119.309 382.149C117.924 381.305 116.312 380.323 114.588 379.265C113.719 378.749 112.863 378.145 111.969 377.578C111.075 376.999 110.181 376.407 109.275 375.815C108.369 375.223 107.475 374.632 106.581 374.052C105.7 373.461 104.793 372.932 103.988 372.315C102.351 371.119 100.828 369.998 99.5183 369.041C96.8998 367.127 95.1624 365.855 95.1624 365.855C94.8729 365.641 94.8099 365.238 95.024 364.949C95.2254 364.671 95.6282 364.596 95.9052 364.797L95.9556 364.823C95.9556 364.823 97.7306 366.031 100.387 367.832C101.709 368.739 103.27 369.784 104.919 370.917C105.737 371.496 106.656 372 107.55 372.554C108.457 373.095 109.376 373.649 110.282 374.204C111.201 374.758 112.12 375.312 113.014 375.853C113.92 376.394 114.789 376.949 115.67 377.44C117.42 378.422 119.057 379.341 120.454 380.134C121.852 380.928 123.023 381.57 123.853 382.01C124.684 382.451 125.15 382.716 125.15 382.716C125.767 383.043 125.994 383.798 125.666 384.415C125.339 385.032 124.571 385.259 123.967 384.932C123.967 384.932 123.929 384.919 123.929 384.907V384.894Z" fill="#693C3C"/>
<path d="M116.715 385.776C116.715 385.776 112.662 385.007 108.708 383.937C107.727 383.648 106.732 383.371 105.813 383.094C104.894 382.779 104.038 382.502 103.308 382.25C101.872 381.671 100.916 381.28 100.916 381.28C100.651 381.18 100.525 380.877 100.626 380.6C100.727 380.349 101.004 380.223 101.256 380.298H101.306C101.306 380.298 102.263 380.6 103.698 381.028C104.428 381.205 105.284 381.406 106.203 381.62C107.135 381.797 108.117 381.985 109.111 382.174C113.09 382.867 117.093 383.257 117.093 383.257C117.785 383.32 118.289 383.937 118.226 384.63C118.163 385.322 117.546 385.826 116.854 385.763C116.816 385.763 116.778 385.763 116.74 385.75L116.715 385.776Z" fill="#693C3C"/>
<path d="M198.734 350.191C198.734 350.191 198.52 350.418 198.256 350.758C197.966 351.085 197.564 351.665 197.085 352.319C196.657 353.024 196.065 353.805 195.587 354.737C195.335 355.19 195.071 355.669 194.794 356.147C194.542 356.638 194.316 357.142 194.076 357.658C193.837 358.162 193.585 358.666 193.371 359.182C193.17 359.698 192.968 360.202 192.78 360.693C192.389 361.675 192.037 362.594 191.81 363.413C191.319 365.037 190.979 366.12 190.979 366.12V366.17C190.853 366.523 190.476 366.724 190.123 366.611C189.783 366.51 189.595 366.158 189.67 365.818C189.67 365.818 189.934 364.685 190.337 362.997C190.514 362.141 190.816 361.171 191.156 360.126C191.319 359.61 191.496 359.069 191.672 358.515C191.861 357.973 192.087 357.432 192.301 356.89C192.515 356.349 192.729 355.795 192.956 355.266C193.208 354.75 193.447 354.233 193.686 353.73C194.139 352.722 194.693 351.841 195.109 351.06C195.6 350.305 195.965 349.675 196.317 349.222C196.645 348.756 196.821 348.554 196.821 348.554L196.859 348.517C197.312 347.988 198.105 347.912 198.634 348.366C199.162 348.806 199.238 349.612 198.785 350.141C198.772 350.154 198.747 350.179 198.734 350.191Z" fill="#693C3C"/>
<path d="M223.006 246.435C222.276 245.755 217.392 243.967 217.392 243.967C217.392 243.967 216.183 239.345 213.149 237.935C210.115 236.525 180.253 229.587 171.29 228.542C150.152 224.928 114.902 232.483 103.786 235.467C103.786 235.467 96.0184 216.315 93.3998 214.741C90.7812 213.167 83.4291 213.167 81.3393 214.741C79.3753 216.214 77.6884 220.886 77.2226 222.863C77.2226 222.863 50.9235 217.259 39.4925 215.786C38.1203 214.527 36.6095 212.638 35.0359 212.399C33.4622 212.16 29.7232 213.104 29.7232 213.104C29.7232 213.104 24.0958 209.641 23.5922 209.44C23.0761 209.238 21.4269 210.145 21.4269 210.145C21.4269 210.145 18.8712 218.531 16.7185 222.85C14.5657 227.157 12.6018 229.385 12.6018 229.385C12.6018 229.385 11.5065 231.375 12.6018 232.634C13.697 233.893 19.891 237.62 19.891 237.62C19.891 237.62 21.0492 243.501 23.0886 245.44C25.1281 247.379 41.5194 266.77 67.0127 274.162C67.0127 274.162 66.3832 278.808 66.3077 281.327C63.1603 286.048 57.9735 297.771 59.7738 318.712C56.702 324.378 54.4234 331.858 55.0528 333.897C55.6823 335.937 66.2195 347.824 114.852 350.821C163.484 353.818 193.799 337.7 195.058 336.756C196.317 335.811 196.418 325.524 191.067 317.339C190.438 302.128 184.244 281.087 179.687 271.958C189.909 272.663 199.905 274.086 204.865 273.369C209.825 272.651 212.885 269.276 212.885 269.276C212.885 269.276 218.651 269.226 219.129 268.596C219.607 267.967 223.434 251.282 223.636 249.86C223.837 248.437 223.737 247.077 223.006 246.397V246.435Z" fill="#FFC069"/>
<path d="M77.2101 222.863C77.2101 222.863 50.9237 217.259 39.48 215.786C38.1078 214.527 36.5971 212.638 35.0234 212.399C33.4498 212.16 29.7107 213.104 29.7107 213.104C29.7107 213.104 24.0833 209.641 23.5798 209.44C23.0636 209.238 21.4144 210.145 21.4144 210.145C21.4144 210.145 18.8588 218.531 16.706 222.85C14.5533 227.157 12.5893 229.385 12.5893 229.385C12.5893 229.385 11.4941 231.375 12.5893 232.634C13.6846 233.893 19.8785 237.62 19.8785 237.62C19.8785 237.62 21.0367 243.501 23.0762 245.44C25.1157 247.379 41.5069 266.77 67.0002 274.162C67.0002 274.162 66.3707 278.808 66.2952 281.327C63.1479 286.048 57.9611 297.771 59.7614 318.712C56.6896 324.378 54.4109 331.858 55.0404 333.897C55.6698 335.937 66.2071 347.824 114.839 350.821C163.472 353.818 193.787 337.7 195.046 336.756C196.305 335.811 196.405 325.524 191.055 317.339C190.426 302.128 184.232 281.087 179.674 271.958C189.897 272.663 199.893 274.086 204.853 273.369C209.813 272.651 212.872 269.276 212.872 269.276C212.872 269.276 218.638 269.226 219.117 268.596C219.595 267.967 223.422 251.282 223.623 249.86C223.825 248.437 223.724 247.077 222.994 246.397C222.264 245.717 217.379 243.929 217.379 243.929C217.379 243.929 216.171 239.308 213.137 237.897C210.103 236.487 180.241 229.549 171.277 228.504C150.14 224.89 114.89 232.445 103.773 235.429C103.773 235.429 96.0059 216.277 93.3873 214.703C90.7688 213.129 83.4166 213.129 81.3268 214.703C79.2244 216.277 77.4493 221.528 77.1346 223.203C76.8198 224.877 80.6847 228.554 86.4129 231.601" stroke="#693C3C" stroke-width="2" stroke-linecap="round" stroke-linejoin="round"/>
<path d="M30.9068 213.494C30.9068 213.494 30.6046 214.351 30.0759 215.648C29.8241 216.29 29.5219 217.045 29.1946 217.851C28.8673 218.657 28.477 219.501 28.1119 220.344C27.9231 220.772 27.7469 221.188 27.558 221.603C27.3692 222.019 27.2181 222.435 27.0041 222.825C26.6138 223.606 26.2487 224.323 25.934 224.953C25.3171 226.187 24.9017 227.018 24.9017 227.018C24.7758 227.27 24.4736 227.371 24.2219 227.245C23.9952 227.131 23.8819 226.854 23.9827 226.615V226.577C23.9827 226.577 24.3226 225.721 24.801 224.449C25.0402 223.807 25.3297 223.064 25.6319 222.271C25.7955 221.88 25.9088 221.44 26.0473 221.024C26.1858 220.596 26.3243 220.155 26.4627 219.727C26.7397 218.858 27.0293 217.99 27.2685 217.171C27.4951 216.353 27.7217 215.585 27.8979 214.93C28.2756 213.633 28.5022 212.726 28.5022 212.726C28.6659 212.046 29.3457 211.631 30.0255 211.794C30.7053 211.958 31.1208 212.638 30.9571 213.318C30.9571 213.356 30.9319 213.406 30.9194 213.444V213.482L30.9068 213.494Z" fill="#693C3C"/>
<path d="M65.7539 274.048C65.7539 274.048 65.7916 273.557 65.8672 272.701C65.9553 271.857 66.1064 270.649 66.2952 269.188C66.5092 267.74 66.7862 266.065 67.1135 264.264C67.4283 262.464 67.8563 260.562 68.3221 258.661C68.8005 256.76 69.3166 254.884 69.8958 253.133C70.4749 251.383 71.1043 249.784 71.7338 248.437C72.0233 247.757 72.3884 247.165 72.6654 246.636C72.9424 246.107 73.2445 245.666 73.4837 245.301C73.9495 244.571 74.2516 244.181 74.2516 244.181C74.4153 243.966 74.7174 243.929 74.9315 244.08C75.0951 244.206 75.1581 244.42 75.1077 244.609V244.646C75.1077 244.646 74.9566 245.112 74.6545 245.893C74.5034 246.283 74.3398 246.749 74.1761 247.316C73.9999 247.87 73.7858 248.474 73.5844 249.167C73.383 249.847 73.169 250.59 72.9424 251.37C72.7283 252.164 72.5143 252.995 72.2751 253.851C72.0737 254.72 71.8093 255.601 71.6079 256.52C71.3939 257.44 71.1799 258.359 70.991 259.303C70.5756 261.167 70.2231 263.043 69.8832 264.806C69.5432 266.569 69.2789 268.218 69.0271 269.641C68.5613 272.474 68.2466 274.351 68.2466 274.351V274.376C68.1333 275.068 67.4786 275.522 66.7988 275.408C66.1441 275.295 65.6909 274.703 65.7539 274.061V274.048Z" fill="#693C3C"/>
<path d="M65.1244 274.338C65.1244 274.338 65.0488 274.023 64.9229 273.482C64.7845 272.928 64.6208 272.135 64.432 271.203C64.2305 270.258 64.0543 269.163 63.8403 267.979C63.6766 266.796 63.45 265.537 63.3241 264.265C63.1982 262.993 63.0094 261.734 62.959 260.525C62.8961 259.329 62.7702 258.221 62.7828 257.251C62.7576 255.337 62.745 254.053 62.745 254.053C62.745 253.7 63.022 253.411 63.3745 253.411C63.7144 253.411 63.9913 253.662 64.0165 254.002V254.04C64.0165 254.04 64.1046 255.287 64.2431 257.163C64.2935 258.095 64.4823 259.178 64.6082 260.349C64.7341 261.507 64.9859 262.741 65.1873 263.975C65.3887 265.209 65.6909 266.431 65.9175 267.576C66.1945 268.71 66.4337 269.78 66.6854 270.687C66.9246 271.593 67.1387 272.336 67.2897 272.852C67.4534 273.369 67.5415 273.671 67.5415 273.671V273.696C67.7555 274.363 67.3779 275.069 66.7106 275.27C66.0434 275.472 65.3384 275.094 65.137 274.426L65.1118 274.351L65.1244 274.338Z" fill="#693C3C"/>
<path d="M66.2952 281.352C66.2952 281.352 68.4983 280.004 73.534 280.319C78.5697 280.634 124.445 280.823 127.592 280.81C130.74 280.798 135.146 283.001 136.329 288.353C137.513 293.704 138.772 305.276 142.548 312.353C146.325 319.429 147.584 320.777 147.42 322.577C147.257 324.378 146.086 329.981 141.831 331.946" stroke="#693C3C" stroke-width="2" stroke-linecap="round" stroke-linejoin="round"/>
<path d="M147.282 330.674C147.282 330.674 148.415 330.334 150.115 329.818C150.971 329.566 151.965 329.276 153.023 328.961C154.093 328.647 155.238 328.357 156.384 328.042C157.53 327.74 158.675 327.425 159.745 327.148C160.841 326.896 161.848 326.67 162.729 326.468C164.479 326.078 165.637 325.814 165.637 325.814C166.317 325.662 166.997 326.091 167.148 326.771C167.299 327.45 166.871 328.13 166.191 328.282C166.166 328.282 166.141 328.282 166.103 328.294H166.015C166.015 328.294 164.857 328.483 163.132 328.747C162.263 328.886 161.256 329.037 160.173 329.201C159.091 329.39 157.945 329.629 156.787 329.843C155.629 330.07 154.471 330.271 153.4 330.51C152.318 330.75 151.323 330.964 150.455 331.152C148.73 331.543 147.584 331.795 147.584 331.795C147.269 331.87 146.955 331.669 146.879 331.354C146.816 331.052 146.992 330.75 147.282 330.661V330.674Z" fill="#693C3C"/>
<path d="M65.3007 321.066C65.3007 321.066 65.5021 321.255 65.8798 321.469C66.0686 321.595 66.2952 321.746 66.5596 321.922C66.8492 322.086 67.1891 322.262 67.5668 322.476C68.2843 322.917 69.2663 323.32 70.3364 323.849C71.4065 324.365 72.7032 324.806 74.0502 325.385C75.4351 325.889 76.9709 326.367 78.5698 326.934C80.2064 327.4 81.9563 327.828 83.744 328.306C85.5442 328.76 87.4578 329.062 89.3588 329.465L90.8066 329.755L91.1716 329.83L91.3227 329.868L91.5116 329.893L92.2543 330.006C93.2489 330.157 94.2434 330.321 95.238 330.472C97.2271 330.787 99.2162 331.102 101.155 331.303C103.106 331.517 105.007 331.794 106.883 331.933C108.746 332.097 110.547 332.311 112.271 332.424C113.983 332.537 115.607 332.651 117.106 332.764C120.102 332.94 122.607 333.028 124.357 333.104C126.107 333.142 127.101 333.167 127.101 333.167H127.114C127.454 333.167 127.731 333.457 127.718 333.797C127.718 334.111 127.479 334.363 127.177 334.401C127.177 334.401 126.157 334.527 124.382 334.64C123.501 334.691 122.418 334.741 121.185 334.804C119.951 334.829 118.553 334.842 117.043 334.867C115.519 334.867 113.883 334.816 112.133 334.779C110.395 334.728 108.557 334.59 106.669 334.489C104.768 334.401 102.817 334.124 100.815 333.948C98.8133 333.771 96.8116 333.494 94.8225 333.205C93.828 333.066 92.8334 332.928 91.8389 332.789L91.0961 332.688L90.9073 332.663L90.6933 332.625L90.3282 332.55L88.8426 332.248C86.8787 331.82 84.9274 331.492 83.0767 330.989C81.2387 330.434 79.451 329.956 77.7767 329.415C76.1275 328.785 74.5538 328.218 73.1438 327.601C71.759 326.884 70.4623 326.33 69.4048 325.637C68.3347 324.944 67.4031 324.378 66.7107 323.761C66.3582 323.471 66.0434 323.207 65.7791 322.98C65.5147 322.716 65.3007 322.502 65.1118 322.325C64.9356 322.149 64.8097 322.011 64.7468 321.91C64.6712 321.809 64.6335 321.771 64.6335 321.771C64.4446 321.582 64.4446 321.28 64.6335 321.091C64.8223 320.902 65.1244 320.902 65.3133 321.091L65.3007 321.066Z" fill="#693C3C"/>
<path d="M162.49 270.712C162.49 270.712 162.163 270.498 161.584 270.12C161.294 269.931 160.954 269.717 160.551 269.44C160.148 269.138 159.695 268.785 159.204 268.407C158.701 268.042 158.21 267.602 157.693 267.136C157.19 266.657 156.611 266.204 156.107 265.65C155.591 265.096 155.062 264.529 154.521 263.95C153.992 263.371 153.526 262.703 153.023 262.074C152.519 261.444 152.041 260.815 151.638 260.135C151.21 259.467 150.795 258.812 150.392 258.183C150.014 257.541 149.712 256.873 149.397 256.269C149.095 255.652 148.805 255.073 148.541 254.544C147.698 252.315 147.131 250.829 147.131 250.829C147.018 250.54 147.169 250.212 147.458 250.099C147.735 249.998 148.05 250.124 148.176 250.401L148.201 250.464C148.201 250.464 148.831 251.874 149.762 253.977C150.052 254.481 150.354 255.022 150.681 255.589C151.021 256.156 151.336 256.773 151.726 257.364C152.142 257.944 152.582 258.548 153.01 259.165C153.426 259.795 153.917 260.374 154.433 260.94C154.949 261.507 155.415 262.112 155.944 262.628C156.485 263.144 157.014 263.66 157.53 264.151C158.033 264.655 158.6 265.045 159.103 265.474C159.607 265.889 160.085 266.279 160.551 266.569C161.004 266.884 161.42 267.173 161.798 267.425C162.188 267.677 162.565 267.866 162.855 268.042C163.447 268.382 163.787 268.571 163.787 268.571C164.391 268.911 164.605 269.679 164.252 270.296C163.913 270.901 163.145 271.115 162.528 270.762L162.465 270.724L162.49 270.712Z" fill="#693C3C"/>
<path d="M179.674 271.983C179.674 271.983 169.766 271.253 167.085 271.14C166.355 271.114 164.92 270.623 163.145 269.641" stroke="#693C3C" stroke-width="2" stroke-linecap="round" stroke-linejoin="round"/>
<path d="M151.94 268.017C151.94 268.017 152.053 268.155 152.255 268.319C152.431 268.508 152.758 268.747 153.123 269.049C153.526 269.314 153.954 269.666 154.496 269.943C155.012 270.246 155.566 270.548 156.17 270.787C156.46 270.913 156.749 271.052 157.039 271.165C157.341 271.266 157.63 271.354 157.92 271.442C158.487 271.631 159.015 271.807 159.494 271.87C160.425 272.059 161.042 272.197 161.042 272.197L161.168 272.223C161.848 272.361 162.288 273.041 162.15 273.721C162.012 274.401 161.332 274.842 160.652 274.703C160.602 274.703 160.539 274.678 160.488 274.653C160.488 274.653 159.821 274.414 158.814 274.061C158.31 273.91 157.744 273.645 157.152 273.356C156.85 273.217 156.548 273.066 156.233 272.915C155.931 272.751 155.629 272.55 155.327 272.374C154.71 272.034 154.143 271.606 153.627 271.203C153.086 270.825 152.658 270.372 152.267 270.019C151.902 269.629 151.6 269.326 151.399 269.062C151.185 268.81 151.097 268.672 151.097 268.672L151.071 268.634C150.908 268.382 150.983 268.042 151.235 267.878C151.462 267.727 151.764 267.778 151.94 267.979V268.017Z" fill="#693C3C"/>
<path d="M211.626 269.276C211.626 269.276 211.676 268.357 211.815 266.959C211.878 266.267 211.953 265.448 212.029 264.579C212.117 263.711 212.243 262.779 212.356 261.86C212.482 260.94 212.57 260.009 212.709 259.14C212.86 258.271 213.011 257.465 213.124 256.785C213.376 255.412 213.539 254.493 213.539 254.493C213.602 254.166 213.917 253.939 214.257 254.002C214.572 254.053 214.786 254.342 214.761 254.657V254.707C214.761 254.707 214.672 255.627 214.547 256.986C214.484 257.666 214.408 258.46 214.333 259.316C214.27 260.172 214.257 261.091 214.219 262.011C214.194 262.93 214.144 263.849 214.131 264.705C214.131 265.562 214.131 266.367 214.131 267.047C214.119 268.42 214.144 269.352 214.144 269.352C214.169 270.044 213.615 270.623 212.923 270.649C212.23 270.674 211.651 270.12 211.626 269.427C211.626 269.389 211.626 269.352 211.626 269.326V269.289V269.276Z" fill="#693C3C"/>
<path d="M25.72 156.088C22.7867 166.162 21.3011 176.374 23.8316 183.576C32.0146 206.871 70.1475 223.656 105.032 223.656C130.425 223.656 167.135 208.13 175.318 195.324C187.694 187.14 210.354 141.595 196.934 101.729C183.501 61.8512 146.577 45.6959 97.4789 49.2594C48.3807 52.8228 32.2286 72.3402 25.0905 101.515C18.9092 126.787 25.72 150.838 25.72 156.076V156.088Z" fill="#FFE3D8"/>
<path d="M136.543 156.693C123.727 156.693 113.329 164.336 113.329 173.767C113.329 183.199 123.715 190.842 136.543 190.842C149.372 190.842 159.758 183.199 159.758 173.767C159.758 164.336 149.372 156.693 136.543 156.693Z" fill="#FFC9BA"/>
<path d="M56.4126 173.767C56.4126 164.336 46.0264 156.693 33.198 156.693C30.4031 156.693 27.7342 157.071 25.2541 157.738C22.6355 167.27 21.4396 176.764 23.8315 183.576C24.6372 185.856 25.7325 188.072 27.0796 190.225C29.0309 190.615 31.083 190.842 33.198 190.842C46.0138 190.842 56.4126 183.199 56.4126 173.767Z" fill="#FFC9BA"/>
<path d="M25.72 156.088C22.7867 166.162 21.3011 176.374 23.8316 183.576C32.0146 206.871 70.1475 223.656 105.032 223.656C130.425 223.656 167.135 208.13 175.318 195.324C187.694 187.14 210.354 141.595 196.934 101.729C183.501 61.8512 146.577 45.6959 97.4789 49.2594C48.3807 52.8228 32.2286 72.3402 25.0905 101.515C18.9092 126.787 25.72 150.838 25.72 156.076V156.088Z" stroke="#693C3C" stroke-width="2" stroke-miterlimit="10" stroke-linecap="round"/>
<path d="M200.371 158.179C196.695 154.149 186.838 153.696 180.392 160.622L173.392 194.859C182.356 198.397 194.089 194.154 199.981 183.526C206.439 171.904 205.168 163.455 200.371 158.191V158.179Z" fill="#FFE3D8"/>
<path d="M193.837 167.232C193.837 167.232 186.762 168.252 182.985 178.955C186.913 175.253 192.817 176.916 193.837 180.29" stroke="#693C3C" stroke-width="2" stroke-linecap="round" stroke-linejoin="round"/>
<path d="M180.392 160.622C186.838 153.696 196.708 154.149 200.371 158.179C205.168 163.455 206.426 171.904 199.981 183.513C194.076 194.141 182.356 198.384 173.392 194.846" stroke="#693C3C" stroke-width="2" stroke-miterlimit="10" stroke-linecap="round"/>
<path d="M67.3778 195.022C67.2142 194.191 68.5361 191.345 73.257 190.086C77.978 188.827 98.9643 184.004 103.471 183.891C107.978 183.778 113.643 186.195 115.847 194.179C118.05 202.162 111.415 209.792 100.324 212.437C87.5207 215.484 70.9532 212.852 67.3778 195.022Z" fill="#D85461"/>
<path d="M115.998 194.947C98.8133 191.836 82.7242 202.023 77.9025 210.372C84.537 214.061 93.0348 214.162 100.311 212.437C111.05 209.881 117.584 202.64 115.998 194.947Z" fill="#FFB0A4"/>
<path d="M115.998 194.947C98.8133 191.836 82.7242 202.023 77.9025 210.372" stroke="#A13E49" stroke-miterlimit="10" stroke-linecap="round"/>
<path d="M73.2445 190.086C71.2679 190.615 69.8957 191.408 68.9767 192.227C76.3162 194.594 98.914 192.302 108.583 184.911C106.87 184.143 105.083 183.853 103.459 183.891C98.9518 183.992 77.9654 188.827 73.2445 190.086Z" fill="white"/>
<path d="M68.9767 192.227C76.3162 194.594 98.914 192.303 108.583 184.911" stroke="#A13E49" stroke-miterlimit="10" stroke-linecap="round"/>
<path d="M67.3778 195.022C67.2142 194.191 68.5361 191.345 73.257 190.086C77.978 188.827 98.9644 184.004 103.471 183.891C107.978 183.778 113.643 186.195 115.847 194.179C118.05 202.162 111.415 209.792 100.324 212.437C87.5207 215.484 70.9532 212.852 67.3778 195.022Z" stroke="#A13E49" stroke-miterlimit="10" stroke-linecap="round"/>
<path d="M68.9767 171.01C68.9767 171.01 64.9607 174.309 70.072 177.62" stroke="#BA7366" stroke-width="2" stroke-miterlimit="10" stroke-linecap="round"/>
<path d="M128.549 166.174C128.549 166.174 128.725 166.048 129.078 165.822C129.418 165.582 129.921 165.318 130.526 164.978C131.143 164.688 131.86 164.285 132.666 163.983C133.459 163.656 134.315 163.303 135.196 163.039C135.637 162.9 136.078 162.749 136.506 162.611C136.946 162.497 137.387 162.397 137.802 162.296L139.011 161.994C139.401 161.893 139.766 161.855 140.106 161.792C141.478 161.578 142.397 161.427 142.397 161.427C142.914 161.339 143.392 161.692 143.48 162.208C143.568 162.724 143.216 163.203 142.7 163.291C142.674 163.291 142.649 163.291 142.624 163.291H142.548C142.548 163.291 141.667 163.366 140.345 163.467C140.018 163.505 139.653 163.505 139.275 163.568C138.898 163.631 138.507 163.694 138.092 163.757C137.676 163.82 137.261 163.895 136.82 163.958C136.392 164.059 135.964 164.16 135.536 164.26C134.668 164.449 133.824 164.714 133.031 164.965C132.225 165.205 131.52 165.519 130.891 165.759C130.286 166.036 129.77 166.262 129.443 166.439C129.103 166.615 128.914 166.728 128.914 166.728C128.751 166.829 128.524 166.779 128.423 166.615C128.323 166.451 128.36 166.25 128.511 166.136H128.524L128.549 166.174Z" fill="#ED9087"/>
<path d="M133.044 168.428C133.044 168.428 133.182 168.353 133.409 168.227C133.648 168.088 134 167.937 134.416 167.736C134.844 167.559 135.335 167.333 135.876 167.144C136.417 166.955 136.997 166.728 137.588 166.577C138.18 166.401 138.772 166.237 139.338 166.124C139.905 165.998 140.433 165.872 140.899 165.822L142.448 165.608C142.964 165.532 143.442 165.897 143.518 166.413C143.593 166.93 143.228 167.408 142.712 167.484C142.674 167.484 142.637 167.484 142.599 167.484H142.523C142.523 167.484 141.944 167.484 141.075 167.509C140.635 167.509 140.131 167.559 139.59 167.61C139.036 167.647 138.469 167.736 137.89 167.836C137.311 167.912 136.745 168.063 136.203 168.176C135.662 168.302 135.171 168.453 134.743 168.579C134.328 168.718 133.975 168.831 133.736 168.919L133.358 169.07H133.346C133.169 169.146 132.955 169.07 132.88 168.881C132.817 168.718 132.88 168.516 133.044 168.441V168.428Z" fill="#ED9087"/>
<path d="M137.588 170.657C137.588 170.657 137.865 170.556 138.331 170.443C138.784 170.317 139.401 170.153 140.018 170.052C140.333 170.002 140.635 169.914 140.937 169.889C141.239 169.863 141.529 169.838 141.768 169.813C142.259 169.775 142.586 169.75 142.586 169.75C143.115 169.712 143.568 170.103 143.619 170.632C143.656 171.16 143.266 171.614 142.737 171.664C142.662 171.664 142.586 171.664 142.523 171.664L142.397 171.639C142.397 171.639 142.12 171.588 141.705 171.526C141.491 171.488 141.239 171.45 140.975 171.412C140.71 171.362 140.408 171.374 140.119 171.349C139.527 171.311 138.935 171.311 138.495 171.324C138.054 171.324 137.739 171.362 137.739 171.362C137.538 171.387 137.362 171.249 137.349 171.047C137.337 170.883 137.425 170.732 137.576 170.669H137.601L137.588 170.657Z" fill="#ED9087"/>
<path d="M39.8955 166.716C39.8955 166.716 39.7822 166.603 39.5934 166.451C39.4171 166.288 39.115 166.074 38.7625 165.822C38.5988 165.683 38.3848 165.583 38.1708 165.444C37.9568 165.318 37.7428 165.167 37.5036 165.041C37.0126 164.802 36.5216 164.512 35.9803 164.323C35.7159 164.223 35.4515 164.122 35.1871 164.021C34.9228 163.921 34.6458 163.87 34.394 163.795C33.8778 163.669 33.412 163.505 32.984 163.48C32.1531 163.379 31.5992 163.304 31.5992 163.304H31.4859C30.9697 163.228 30.6046 162.749 30.6676 162.233C30.7305 161.717 31.2089 161.352 31.7251 161.415C31.7628 161.415 31.8006 161.427 31.8384 161.44C31.8384 161.44 32.4553 161.591 33.3743 161.83C33.8401 161.918 34.3436 162.158 34.8976 162.372C35.162 162.485 35.4641 162.573 35.7285 162.724C36.0054 162.875 36.2698 163.014 36.5468 163.165C37.1133 163.429 37.6043 163.82 38.0953 164.135C38.3345 164.286 38.5485 164.487 38.7625 164.651C38.9639 164.827 39.1653 164.966 39.3416 165.129C39.6815 165.444 39.9585 165.709 40.1473 165.923C40.3361 166.124 40.4243 166.237 40.4243 166.237V166.263C40.5628 166.414 40.525 166.64 40.3739 166.766C40.2354 166.88 40.034 166.854 39.9081 166.729L39.8955 166.716Z" fill="#ED9087"/>
<path d="M37.1888 169.02C37.1888 169.02 37.1007 168.957 36.9748 168.882C36.8489 168.794 36.6349 168.693 36.3831 168.567C35.8795 168.315 35.1997 168.025 34.4821 167.837C34.1296 167.748 33.7771 167.648 33.4372 167.61C33.0973 167.572 32.7952 167.497 32.5308 167.509C32.002 167.497 31.6495 167.484 31.6495 167.484H31.5488C31.0201 167.471 30.6046 167.031 30.6172 166.502C30.6298 165.973 31.0704 165.558 31.5992 165.57C31.6621 165.57 31.7251 165.57 31.7754 165.595C31.7754 165.595 32.1909 165.683 32.8203 165.822C33.1351 165.872 33.475 166.023 33.8401 166.149C34.2178 166.263 34.5828 166.452 34.9605 166.628C35.7033 166.98 36.3831 167.434 36.8615 167.811C37.1007 168 37.3021 168.164 37.4406 168.29C37.5665 168.416 37.642 168.479 37.642 168.479C37.7931 168.617 37.7931 168.844 37.6672 168.982C37.5413 169.121 37.3399 169.134 37.2014 169.033L37.1888 169.02Z" fill="#ED9087"/>
<path d="M34.5702 171.35C34.5702 171.35 34.3688 171.312 34.1044 171.312C33.84 171.299 33.4875 171.299 33.135 171.337C32.9588 171.362 32.7825 171.35 32.6315 171.4C32.4804 171.438 32.3545 171.476 32.2412 171.514C32.0146 171.577 31.8761 171.614 31.8761 171.614L31.725 171.652C31.2089 171.791 30.6675 171.488 30.5291 170.972C30.3906 170.456 30.6927 169.914 31.2089 169.776C31.3222 169.738 31.4481 169.738 31.574 169.751C31.574 169.751 31.8006 169.776 32.1405 169.814C32.3042 169.839 32.493 169.864 32.707 169.889C32.9084 169.914 33.1099 170.003 33.3113 170.053C33.7141 170.166 34.0918 170.317 34.3688 170.456C34.6583 170.569 34.8094 170.67 34.8094 170.67L34.8472 170.695C35.0108 170.796 35.0612 171.022 34.9479 171.186C34.8724 171.312 34.7213 171.375 34.5828 171.35H34.5702Z" fill="#ED9087"/>
<path d="M102.489 152.437C113.027 147.161 126.132 144.403 135.222 144.642C144.273 144.882 146.476 146.607 147.181 147.312C147.886 148.017 150.165 154.086 148.755 154.237C147.345 154.388 125.943 153.293 104.856 157.385C102.666 157.813 99.8331 153.696 102.502 152.424L102.489 152.437Z" fill="#693C3C"/>
<path d="M57.5078 152.437C51.5657 147.161 44.1884 144.403 39.0771 144.642C33.9785 144.882 32.7447 146.607 32.3419 147.312C31.939 148.017 31.4354 152.764 32.2412 152.928C33.0343 153.079 44.3143 153.293 56.186 157.385C57.4197 157.813 59.006 153.696 57.5078 152.424V152.437Z" fill="#693C3C"/>
<path d="M106.266 146.216C106.266 146.216 113.581 142.716 116.69 141.771C119.8 140.827 119.321 142.514 117.597 143.232C115.872 143.95 106.745 146.77 106.266 146.896C105.8 147.01 105.523 146.581 106.266 146.229V146.216Z" fill="#ED9087"/>
<path d="M57.6463 146.657C57.6463 146.657 53.4163 143.157 50.3068 142.212C47.1972 141.268 47.6756 142.955 49.4003 143.673C51.1251 144.391 57.1679 147.211 57.6337 147.337C58.0995 147.45 58.3765 147.022 57.6337 146.67L57.6463 146.657Z" fill="#ED9087"/>
<path d="M102.313 131.32C100.588 131.383 104.315 123.148 106.82 122.191C112.636 119.988 124.13 122.405 123.4 123.35C122.67 124.294 110.597 131.005 102.313 131.32Z" fill="#693C3C"/>
<path d="M60.3405 131.32C61.7128 131.383 58.7669 123.148 56.7778 122.191C52.1701 119.988 43.0932 122.405 43.6723 123.35C44.2514 124.294 53.7941 131.005 60.3531 131.32H60.3405Z" fill="#693C3C"/>
<path d="M174.412 154.615C170.937 161.754 166.707 167.244 166.304 167.244C165.75 167.156 158.914 147.362 155.024 131.358C155.163 135.097 154.747 137.326 154.445 137.628C153.501 138.573 115.632 123.979 94.6461 100.898C97.6927 117.683 93.7019 138.145 92.871 138.774C92.1786 139.291 64.5703 127.681 55.9089 96.7806C49.652 105.205 40.0086 131.748 39.0644 131.849C38.5609 131.912 35.7157 127.416 33.6007 120.025C28.4643 127.026 18.1788 136.256 17.6627 135.211C17.1339 134.166 14.8301 125.666 14.6161 118.426C8.95088 121.045 3.07168 122.493 3.2857 121.297C3.49972 120.101 7.90597 113.175 8.00668 104.147C8.1074 95.1311 7.1632 71.9369 25.1029 61.8635C16.4037 61.5487 10.6253 49.0576 10.94 47.4836C11.2547 45.9097 19.8658 46.9674 26.6766 44.235C33.5 41.5025 49.2366 29.2255 67.9065 33.2171C76.8323 21.2549 86.9037 10.3378 88.0493 10.9674C89.2076 11.597 90.6805 24.3021 89.4216 30.7995C95.7162 26.8205 105.788 23.3577 120.681 24.088C135.574 24.8184 158.449 22.9296 159.607 23.3577C160.299 23.6096 158.902 28.8603 154.47 33.4186C166.543 35.6347 181.323 43.3913 189.607 45.2801C197.891 47.1688 211.223 45.9097 211.852 47.6977C212.482 49.4857 204.399 59.7607 199.993 61.6494C207.547 71.8362 218.147 87.1479 219.721 94.5015C221.294 101.843 223.485 114.22 223.485 114.22C229.2 118.892 234.928 121.398 234.928 122.934C234.928 124.684 223.208 130.64 214.861 130.967C219.192 145.209 217.379 163.379 216.75 164.436C216.12 165.482 210.858 160.394 208.881 157.435C208.881 157.435 206.124 162.837 203.833 164.436C200.9 152.89 190.161 155.446 184.911 157.158C181.286 164.096 176.967 169.209 176.464 169.209C175.683 169.209 174.424 154.615 174.424 154.615H174.412Z" fill="#CF8E9D"/>
<path d="M81.5157 63.5886C79.451 57.2927 81.0751 41.0618 89.875 25.5739C90.0008 19.1143 88.9308 11.4459 88.0369 10.9674C86.8913 10.3378 76.8199 21.2549 67.8941 33.2171C66.4715 32.9149 65.0489 32.7134 63.6641 32.5875C58.3136 41.6033 59.1571 49.1835 59.9754 51.0093C60.8315 52.9233 63.6893 59.3325 75.3092 65.4396L81.5157 63.6012V63.5886Z" fill="#BA7081"/>
<path d="M209.423 125.843C208.327 125.679 205.495 130.25 205.331 134.581C202.889 130.174 195.575 125.767 194.316 125.843C193.057 125.918 190.224 142.363 189.154 146.254C188.109 150.938 183.187 160.181 182.998 160.521C183.64 159.463 184.269 158.33 184.899 157.146C190.149 155.433 200.887 152.877 203.82 164.424C206.112 162.825 208.869 157.423 208.869 157.423C210.845 160.382 216.108 165.469 216.737 164.424C217.367 163.366 219.179 145.196 214.849 130.955C213.036 127.731 210.518 125.994 209.423 125.83V125.843Z" fill="#BA7081"/>
<path d="M17.0585 68.4868C11.4059 75.1983 9.29093 83.8111 8.4978 91.2654C25.3926 98.6568 41.7839 96.4029 43.6345 93.6579C45.2837 91.215 30.2773 79.2528 17.0585 68.4994V68.4868Z" fill="#E39CAC"/>
<path d="M219.356 93.2047C217.404 86.871 210.442 76.2057 204.06 67.2529C188.31 76.0924 152.582 93.872 155.05 101.1C157.328 107.799 196.254 103.681 219.356 93.2047Z" fill="#E39CAC"/>
<path d="M158.272 79.4793C149.51 79.1016 137.979 84.2013 141.441 86.8833C144.903 89.5654 162.049 87.664 163.472 85.1457C164.894 82.6273 161.898 79.6304 158.285 79.4793H158.272Z" fill="#E39CAC"/>
<path d="M155.024 131.32C154.722 123.488 151.99 109.057 140.811 91.9199" stroke="#693C3C" stroke-width="2" stroke-linecap="round" stroke-linejoin="round"/>
<path d="M53.4163 73.4985C53.0009 82.2373 53.9954 89.9686 55.909 96.7682C64.5704 127.669 92.1787 139.278 92.8711 138.762C93.702 138.132 97.6928 117.671 94.6462 100.886C115.633 123.967 153.501 138.56 154.445 137.616C154.747 137.314 155.163 135.085 155.024 131.345" stroke="#693C3C" stroke-width="2" stroke-linecap="round" stroke-linejoin="round"/>
<path d="M155.024 131.32V131.345C158.915 147.349 165.75 167.144 166.304 167.232C166.707 167.232 170.937 161.742 174.412 154.602C176.086 151.165 177.597 147.324 178.415 143.547C180.744 133.309 182.456 123.765 178.478 115.051" stroke="#693C3C" stroke-width="2" stroke-linecap="round" stroke-linejoin="round"/>
<path d="M174.412 154.615C174.412 154.615 175.671 169.209 176.451 169.209C176.955 169.209 181.273 164.096 184.899 157.158C186.964 153.23 188.789 148.709 189.595 144.214" stroke="#693C3C" stroke-width="2" stroke-linecap="round" stroke-linejoin="round"/>
<path d="M184.899 157.146C190.149 155.433 200.887 152.877 203.82 164.424C206.112 162.825 208.869 157.423 208.869 157.423C210.845 160.382 216.108 165.469 216.737 164.424C217.367 163.366 219.179 145.196 214.849 130.955C223.195 130.627 234.916 124.672 234.916 122.921C234.916 121.385 229.188 118.879 223.472 114.208C221.571 112.672 219.683 110.896 217.996 108.831" stroke="#693C3C" stroke-width="2" stroke-linecap="round" stroke-linejoin="round"/>
<path d="M55.8964 96.7806C49.6395 105.205 39.9961 131.748 39.0519 131.849C38.5484 131.912 35.7032 127.416 33.5882 120.025C31.725 113.528 30.4409 104.789 31.8131 94.917" stroke="#693C3C" stroke-width="2" stroke-linecap="round" stroke-linejoin="round"/>
<path d="M33.5882 120.025C28.4518 127.026 18.1664 136.256 17.6502 135.211C17.1215 134.166 14.8176 125.666 14.6036 118.426C8.93843 121.045 3.05923 122.493 3.27325 121.297C3.48727 120.101 7.89352 113.175 7.99423 104.147C8.09495 95.1311 7.15075 71.9369 25.0905 61.8635C16.3913 61.5487 10.6128 49.0576 10.9275 47.4836C11.2423 45.9097 19.8533 46.9674 26.6641 44.2349C33.4875 41.5025 49.2241 29.2255 67.894 33.2171C76.8198 21.2549 86.8912 10.3378 88.0369 10.9674C89.1951 11.597 90.668 24.3021 89.4091 30.7995C95.7037 26.8205 105.775 23.3577 120.668 24.088C135.561 24.8184 158.436 22.9296 159.594 23.3577C160.287 23.6096 158.889 28.8603 154.458 33.4186C151.613 36.3273 147.534 38.9716 141.969 39.8278" stroke="#693C3C" stroke-width="2" stroke-linecap="round" stroke-linejoin="round"/>
<path d="M154.445 33.4185C166.518 35.6346 181.298 43.3912 189.582 45.2799C197.866 47.1687 211.198 45.9095 211.827 47.6976C212.457 49.4856 204.374 59.7605 199.968 61.6493C207.522 71.8361 218.122 87.1477 219.696 94.5014C221.269 101.842 223.46 114.22 223.46 114.22" stroke="#693C3C" stroke-width="2" stroke-linecap="round" stroke-linejoin="round"/>
<path d="M76.9205 1.25928C67.1638 4.25613 54.8892 20.084 52.6861 33.4188C50.483 46.7535 54.3857 55.4041 55.8964 57.1418C57.4071 58.8794 62.4428 64.6968 75.4979 66.2708L81.5156 63.6014C76.291 56.1974 69.6817 27.7147 76.9205 1.27187V1.25928Z" fill="#CF8E9D"/>
<path d="M81.5156 63.5888C76.291 56.1848 69.6817 27.7021 76.9205 1.25928C67.1638 4.25613 54.8892 20.084 52.6861 33.4188C50.483 46.7535 54.3857 55.4041 55.8964 57.1418C57.4071 58.8794 62.4428 64.6968 75.4979 66.2708" stroke="#693C3C" stroke-width="2" stroke-linecap="round" stroke-linejoin="round"/>
<path d="M101.935 239.711C99.9715 239.635 98.2342 237.268 99.9715 235.455C101.709 233.641 108.52 223.077 121.826 221.83C125.704 213.973 145.054 199.807 149.624 199.643C154.194 199.48 172.045 206.418 174.009 208.848C175.973 211.278 175.658 222.938 171.567 228.441C168.583 229.31 157.882 229.385 157.882 229.385C157.882 229.385 134.277 234.901 129.481 235.442C120.202 239.371 113.669 241.033 101.948 239.698L101.935 239.711Z" fill="#FFC069"/>
<path d="M158.172 230.632C158.172 230.632 156.397 230.997 153.728 231.539C151.046 232.067 147.496 232.81 143.921 233.478C140.333 234.133 136.808 234.901 134.063 235.278C131.357 235.707 129.544 235.984 129.544 235.984C129.254 236.034 128.977 235.832 128.927 235.543C128.876 235.253 129.065 234.989 129.342 234.938H129.418C129.418 234.938 131.18 234.561 133.837 234.007C136.48 233.503 140.005 232.546 143.53 231.728C147.055 230.871 150.568 229.965 153.212 229.31C155.855 228.63 157.605 228.177 157.605 228.177C158.285 228 158.965 228.403 159.141 229.083C159.317 229.763 158.915 230.443 158.235 230.619C158.222 230.619 158.184 230.619 158.172 230.632Z" fill="#693C3C"/>
<path d="M101.935 239.711C99.9715 239.635 98.2342 237.268 99.9715 235.455C101.709 233.641 108.52 223.077 121.826 221.83C125.704 213.973 145.054 199.807 149.624 199.643C154.194 199.48 172.045 206.418 174.009 208.848C175.973 211.278 175.658 222.938 171.567 228.441C168.583 229.31 157.882 229.385 157.882 229.385" stroke="#693C3C" stroke-width="2" stroke-miterlimit="10" stroke-linecap="round"/>
<path d="M122.985 259.82C123.35 261.696 122.141 263.522 120.265 263.887C118.39 264.252 116.564 263.043 116.199 261.167L111.1 235.328C110.735 233.452 111.957 231.626 113.82 231.261C115.696 230.896 117.521 232.105 117.886 233.981L122.985 259.82Z" fill="white" stroke="#693C3C" stroke-width="2" stroke-miterlimit="10" stroke-linecap="round"/>
<path d="M83.0892 257.603C82.1702 259.278 80.0678 259.895 78.3934 258.963C76.7191 258.044 76.1022 255.941 77.0338 254.267L89.7364 231.198C90.6554 229.524 92.7704 228.919 94.4448 229.838C96.1191 230.758 96.7234 232.873 95.8044 234.535L83.1018 257.603H83.0892Z" fill="white" stroke="#693C3C" stroke-width="2" stroke-miterlimit="10" stroke-linecap="round"/>
</g>
<defs>
<clipPath id="clip0_45_659">
<rect width="245" height="432" fill="white"/>
</clipPath>
</defs>
</svg>
