<svg width="1728" height="239" viewBox="0 0 1728 239" fill="none" xmlns="http://www.w3.org/2000/svg">
<path d="M1711.11 87.7278V87.7751C1709.65 119.951 1670.65 146.732 1636.13 149.689C1640.78 151.061 1643.47 155.959 1642.15 160.643C1640.82 165.328 1635.94 168.072 1631.24 166.794C1642.52 201.288 1586.51 205.878 1559.09 164.641C1542.25 186.407 1516.93 199.916 1489.49 201.714C1462.1 203.536 1435.2 193.481 1415.67 174.128C1413.59 177.843 1409.96 180.445 1405.81 181.202C1401.63 181.983 1397.33 180.871 1394.08 178.174C1383.3 194.333 1362.56 200.484 1344.77 192.771C1320.61 218.417 1281.82 223.504 1251.9 204.979C1225.19 220.144 1193.81 224.71 1163.92 217.802C1178.36 217.991 1192.68 215.531 1206.22 210.492C1213.47 199.49 1226.96 194.451 1239.63 197.976C1249.24 183.734 1265.49 175.43 1282.64 175.997C1286.68 168.521 1294.54 163.932 1303.03 164.121C1311.5 164.31 1319.14 169.231 1322.83 176.92C1323.25 174.673 1324.59 172.685 1326.53 171.479C1328.49 170.248 1330.85 169.917 1333.04 170.532C1332.81 167.977 1334.24 165.564 1336.58 164.57C1338.94 163.577 1341.68 164.216 1343.33 166.179C1347.76 144.271 1361.47 125.416 1380.89 114.415C1398.37 104.525 1418.97 101.923 1438.25 107.009C1438.27 107.009 1438.27 107.033 1438.27 107.033C1444.17 110.156 1449.6 114.249 1454.36 119.217C1455.64 110.487 1462.93 103.887 1471.73 103.579C1474.44 88.2483 1480.9 73.9349 1488.81 62.9811C1502.16 55.1975 1519.46 56.404 1531.7 67.074C1530.45 64.5898 1530.9 61.5852 1532.79 59.5506C1534.7 57.5159 1537.65 56.9009 1540.2 57.9891C1539.02 53.5887 1540.62 48.9279 1544.23 46.1836C1547.84 43.4392 1552.75 43.1316 1556.66 45.4265C1553.97 33.9285 1559.66 22.0993 1570.33 17.0837C1580.99 12.0681 1593.71 15.2146 1600.81 24.6544C1607.84 19.899 1616.69 19.7807 1623.67 23.708C1626.43 27.3751 1627.99 31.8702 1628.04 36.5546C1650.99 30.498 1675.46 37.0278 1692.4 53.7306C1701.98 63.1703 1708.4 75.1178 1711.09 87.8697L1711.11 87.7278Z" fill="#8362BE"/>
<path d="M1704.62 111.812C1684.83 142.047 1637.03 146.306 1619.99 139.894C1619.99 139.894 1640.99 153.947 1624.26 163.718C1626.38 179.286 1582.24 210.113 1560.63 153.64C1547.84 179.901 1499.73 213.165 1472.34 190.878C1444.64 195.752 1421.19 183.544 1415.71 164.31C1409.93 180.8 1398.35 185.058 1392.26 186.904C1465.03 209.19 1507.97 228.424 1557.58 187.211C1621.83 220.783 1639.48 190.571 1644.95 168.9C1699.15 169.822 1705.24 111.504 1704.62 111.812Z" fill="#724BB4"/>
<path d="M1742.28 196.154C1739.4 200.011 1735.77 203.347 1731.45 205.878C1718.4 213.543 1702 212.384 1690.14 202.945C1688.72 208.173 1685.25 212.621 1680.56 215.294C1675.84 217.944 1670.25 218.63 1665.03 217.14C1665.03 238.574 1634.24 236.705 1605.39 229.134C1592.08 225.657 1579.17 220.949 1569.92 216.761C1608.48 224.71 1631.72 219.766 1625.04 208.433C1631.65 211.296 1639.22 210.846 1645.47 207.274C1651.75 203.678 1655.95 197.337 1656.84 190.169C1658.87 190.169 1660.74 188.915 1661.56 187.046C1662.44 185.201 1662.11 183 1660.81 181.415C1708.54 203.607 1744.99 181.037 1731.35 142.592C1740.58 148.01 1747.21 157.307 1749.03 168.285C1750.68 178.316 1748.08 188.324 1742.3 196.154H1742.28Z" fill="#8362BE"/>
<path d="M1660.78 181.416C1662.11 183.001 1662.41 185.201 1661.54 187.07C1660.71 188.939 1658.85 190.146 1656.82 190.17C1655.92 197.338 1651.72 203.679 1645.45 207.275C1639.2 210.871 1631.62 211.32 1625.02 208.458C1631.69 219.79 1608.45 224.735 1569.9 216.785C1565.8 214.916 1562.42 213.166 1560.01 211.675C1535.31 228.402 1506.81 237.297 1478.05 238.102C1452.99 234.056 1429.56 221.564 1412.06 201.928C1404.53 211.959 1391.29 215.721 1379.62 211.226C1339.51 229.182 1294.51 233.11 1251.9 222.369C1222.93 233.89 1191.5 237.889 1160.57 233.961C1123.32 237.061 1085.85 232.589 1050.36 220.831C1017.05 227.006 982.648 222.511 952 208.008C983.474 218.252 1017.12 219.932 1049.44 212.882C1086.7 223.433 1125.89 225.113 1163.92 217.755C1193.81 224.664 1225.19 220.098 1251.9 204.932C1281.84 223.457 1320.61 218.37 1344.77 192.725C1362.56 200.437 1383.3 194.31 1394.08 178.127C1397.33 180.825 1401.63 181.96 1405.81 181.156C1409.98 180.399 1413.61 177.773 1415.67 174.082C1435.2 193.458 1462.08 203.489 1489.49 201.668C1516.91 199.87 1542.25 186.361 1559.09 164.595C1586.49 205.831 1642.52 201.242 1631.24 166.748C1635.94 168.049 1640.8 165.281 1642.15 160.597C1643.49 155.912 1640.78 151.015 1636.13 149.643C1670.65 146.685 1709.65 119.904 1711.11 87.7285C1713.21 97.4758 1713.14 107.72 1710.71 117.751C1715.07 118.65 1718.78 121.584 1720.67 125.653C1722.55 129.699 1722.41 134.407 1720.31 138.358C1724.28 139.162 1727.96 140.605 1731.33 142.592H1731.35C1744.99 181.014 1708.54 203.608 1660.81 181.416H1660.78Z" fill="#6742A4"/>
<path d="M1438.22 106.892C1418.95 101.829 1398.35 104.408 1380.87 114.297C1361.45 125.298 1347.74 144.178 1343.3 166.062C1341.65 164.098 1338.92 163.46 1336.56 164.453C1334.22 165.423 1332.78 167.86 1333.02 170.415C1330.82 169.824 1328.46 170.155 1326.51 171.361C1324.57 172.592 1323.25 174.555 1322.8 176.803C1319.12 169.138 1311.48 164.193 1303.01 164.004C1294.51 163.814 1286.66 168.404 1282.62 175.88C1284.82 166.535 1292.15 159.272 1301.5 157.214C1310.84 155.132 1320.56 158.586 1326.48 166.109C1326.41 161.567 1328.42 157.237 1331.89 154.351C1335.38 151.441 1339.98 150.258 1344.44 151.157C1349.2 127.57 1366.66 108.572 1389.74 101.853C1406.18 97.0503 1423.55 99.0376 1438.22 106.869V106.892Z" fill="#8A6AC1"/>
<path d="M1623.67 23.5428C1616.69 19.6155 1607.84 19.7338 1600.81 24.4892C1593.71 15.0495 1580.99 11.8792 1570.33 16.9185C1559.66 21.9341 1553.97 33.7633 1556.66 45.2613C1552.75 42.9664 1547.84 43.274 1544.23 46.0184C1540.62 48.7627 1539.04 53.4235 1540.2 57.8239C1537.65 56.7357 1534.7 57.3508 1532.79 59.3854C1530.88 61.42 1530.45 64.4246 1531.7 66.9088C1519.43 56.2388 1502.16 55.0559 1488.81 62.8159C1502.07 44.4333 1519.39 35.514 1529.89 47.3669C1527.08 42.7062 1528.45 36.626 1533.02 33.6686C1537.58 30.7113 1543.66 31.8943 1546.78 36.3657C1542.98 22.1234 1550.51 7.2895 1564.21 1.94269C1577.92 -3.35681 1593.42 2.51046 1600.2 15.5936C1606.73 13.7009 1613.79 15.0021 1619.26 19.0714C1620.96 20.3489 1622.44 21.8394 1623.69 23.5192L1623.67 23.5428Z" fill="#6A47AF"/>
<path d="M1478.03 238.078C1452.95 238.811 1427.63 233.394 1404.44 221.73C1402.95 223.528 1400.73 224.545 1398.42 224.474C1396.08 224.427 1393.94 223.291 1392.55 221.446C1346.75 235.618 1297.84 235.949 1251.88 222.345C1294.49 233.086 1339.48 229.159 1379.59 211.202C1391.25 215.697 1404.48 211.912 1412.03 201.904C1429.54 221.541 1452.97 234.056 1478.03 238.078Z" fill="#FFB3BF"/>
<path d="M1266.03 193.481C1268.96 188.938 1273.7 185.934 1279.04 185.224C1284.37 184.514 1289.75 186.194 1293.73 189.814C1294.91 187.211 1297.93 186.028 1300.55 187.14C1303.17 188.252 1304.45 191.233 1303.43 193.907C1302.42 196.556 1299.47 197.929 1296.78 196.982C1291.19 202.518 1282.64 203.678 1275.78 199.892C1275.4 202.921 1272.99 205.286 1269.95 205.594C1266.91 205.878 1264.08 204.033 1263.16 201.123C1262.21 198.213 1263.42 195.042 1266.06 193.505L1266.03 193.481Z" fill="#8A6AC1"/>
<path d="M1366.21 147.585C1364.61 138.713 1367.82 129.651 1374.64 123.784C1381.48 117.917 1390.89 116.142 1399.39 119.1C1400.33 114.959 1403.94 111.979 1408.19 111.908C1412.41 111.837 1416.16 114.652 1417.25 118.768C1418.33 122.861 1416.49 127.191 1412.79 129.226C1410.88 133.981 1406.87 137.553 1401.96 138.949C1397.03 140.321 1391.77 139.328 1387.68 136.252C1387.43 138.074 1386.29 139.659 1384.69 140.511C1383.06 141.362 1381.13 141.41 1379.47 140.605C1381.81 143.35 1382.85 146.993 1382.33 150.565C1381.81 154.138 1379.76 157.332 1376.74 159.295C1375.09 162.821 1371.29 164.761 1367.49 164.074C1363.69 163.365 1360.81 160.194 1360.53 156.314C1360.25 152.434 1362.58 148.862 1366.24 147.585H1366.21Z" fill="#8A6AC1"/>
<path d="M1459.69 124.636C1460.68 122.317 1463.07 120.898 1465.59 121.111C1468.12 121.347 1470.19 123.169 1470.76 125.63C1471.33 128.09 1470.24 130.645 1468.09 131.946C1468.75 134.998 1467.13 138.121 1464.22 139.281C1461.32 140.464 1457.99 139.352 1456.37 136.678C1455.07 139.257 1452.33 140.818 1449.45 140.582C1446.58 140.345 1444.12 138.382 1443.27 135.614C1441.03 135.235 1439.14 133.65 1438.36 131.497C1437.59 129.344 1438.03 126.931 1439.52 125.204C1441.01 123.453 1443.32 122.649 1445.56 123.098C1450.04 120.236 1455.94 120.851 1459.72 124.636H1459.69Z" fill="#8A6AC1"/>
<path d="M1488.6 82.9729C1489.19 78.951 1491.33 75.3076 1494.59 72.8708C1497.84 70.4339 1501.93 69.393 1505.94 69.9844C1508.41 70.2683 1510.28 72.3739 1510.28 74.8581C1510.28 77.3422 1508.41 79.4714 1505.94 79.7317C1508.46 81.5771 1509.05 85.0785 1507.28 87.6336C1505.51 90.1888 1502.04 90.8985 1499.43 89.1951C1500.91 98.2799 1496.57 107.341 1488.57 111.86C1484.42 112.806 1480.29 110.251 1479.25 106.135C1478.21 101.994 1480.67 97.8068 1484.75 96.6712C1482.13 96.1507 1480.03 94.187 1479.3 91.6082C1478.57 89.0295 1479.35 86.2614 1481.28 84.4397C1483.24 82.618 1486.02 82.0266 1488.55 82.9256L1488.6 82.9729Z" fill="#8A6AC1"/>
<path d="M1573.01 67.1695C1571.29 79.259 1561.41 88.5094 1549.26 89.3848C1545.46 89.5031 1541.97 87.4211 1540.24 84.038C1538.52 80.6548 1538.9 76.5856 1541.23 73.5809C1543.57 70.5763 1547.39 69.1805 1551.1 70.0085C1549.94 67.7136 1550.03 64.9693 1551.31 62.7454C1552.61 60.5215 1554.92 59.0783 1557.49 58.9364C1556.64 55.6715 1557.77 52.2174 1560.35 50.0408C1562.94 47.8879 1566.53 47.4147 1569.59 48.8579C1567.59 45.1908 1567.94 40.6957 1570.49 37.4072C1573.04 34.1186 1577.33 32.6755 1581.34 33.7401C1585.38 34.8048 1588.37 38.1642 1588.99 42.3045C1591.14 40.6011 1594.16 40.6011 1596.3 42.3045C1600.83 39.4655 1606.61 39.5601 1611.05 42.541C1615.48 45.522 1617.75 50.8452 1616.83 56.121C1615.91 61.3968 1611.99 65.6554 1606.8 66.9566C1603.43 72.6583 1597.32 76.1361 1590.71 76.1361C1584.1 76.1361 1577.99 72.6583 1574.62 66.9566L1573.01 67.1932V67.1695Z" fill="#8A6AC1"/>
<path d="M1396.75 153.948C1408.16 157.402 1420.53 153.948 1428.48 145.028C1437.59 153.806 1449.95 158.348 1462.55 157.496C1475.15 156.668 1486.83 150.541 1494.68 140.628C1502.35 141.172 1509.15 135.707 1510.3 128.089C1519.15 128.231 1527.83 125.794 1535.34 121.11C1539.98 126.054 1547.34 127.308 1553.36 124.209C1559.4 121.11 1562.66 114.367 1561.36 107.695C1564.5 108.168 1567.66 107.198 1570.02 105.069C1572.35 102.94 1573.63 99.8644 1573.46 96.6941C1596.54 90.7322 1615.48 117.04 1626.67 90.9451C1654.3 107.222 1659.09 90.0461 1654.3 76.5371C1649.51 63.0281 1664.8 54.1089 1680.32 78.832C1695.84 103.555 1649.95 135.849 1588.3 116.851C1589.74 120.305 1589.37 124.233 1587.31 127.355C1585.26 130.478 1581.82 132.371 1578.09 132.418C1562.02 145.572 1540.03 148.719 1520.94 140.604C1502.78 163.648 1471.66 171.975 1444.45 161.045C1438.22 161.518 1432.02 159.626 1427.09 155.769C1417.2 159.697 1406.06 159.01 1396.72 153.948H1396.75Z" fill="#724BB4"/>
<path d="M1585.57 5.11376C1585.57 6.7462 1581.13 8.09472 1575.63 8.09472C1570.14 8.09472 1565.7 6.76986 1565.7 5.11376C1565.7 3.45767 1570.14 2.13281 1575.63 2.13281C1581.13 2.13281 1585.57 3.45767 1585.57 5.11376Z" fill="#724BB4"/>
<path d="M1612.06 46.0181C1612.06 47.6505 1607.63 48.999 1602.13 48.999C1596.63 48.999 1592.2 47.6742 1592.2 46.0181C1592.2 44.362 1596.63 43.0371 1602.13 43.0371C1607.63 43.0371 1612.06 44.362 1612.06 46.0181Z" fill="#9274C6"/>
<path d="M1398.63 124.186C1398.63 125.818 1394.2 127.167 1388.7 127.167C1383.2 127.167 1378.77 125.842 1378.77 124.186C1378.77 122.53 1383.2 121.205 1388.7 121.205C1394.2 121.205 1398.63 122.53 1398.63 124.186Z" fill="#9274C6"/>
<path d="M1544.25 36.3658C1544.25 37.4304 1542.32 38.3058 1539.91 38.3058C1537.51 38.3058 1535.57 37.4304 1535.57 36.3658C1535.57 35.3012 1537.51 34.4258 1539.91 34.4258C1542.32 34.4258 1544.25 35.3012 1544.25 36.3658Z" fill="#724BB4"/>
<path d="M1413.02 116.213C1413.02 117.278 1411.09 118.153 1408.68 118.153C1406.28 118.153 1404.34 117.278 1404.34 116.213C1404.34 115.149 1406.28 114.273 1408.68 114.273C1411.09 114.273 1413.02 115.149 1413.02 116.213Z" fill="#9274C6"/>
<path d="M1507.4 74.3853C1507.4 75.4499 1505.47 76.3253 1503.06 76.3253C1500.65 76.3253 1498.72 75.4499 1498.72 74.3853C1498.72 73.3207 1500.65 72.4453 1503.06 72.4453C1505.47 72.4453 1507.4 73.3207 1507.4 74.3853Z" fill="#9274C6"/>
<path d="M1453.51 125.985C1453.51 127.05 1451.58 127.925 1449.17 127.925C1446.76 127.925 1444.83 127.05 1444.83 125.985C1444.83 124.92 1446.76 124.045 1449.17 124.045C1451.58 124.045 1453.51 124.92 1453.51 125.985Z" fill="#9274C6"/>
<path d="M1583.82 37.8091C1583.82 38.8737 1581.89 39.7491 1579.48 39.7491C1577.07 39.7491 1575.14 38.8737 1575.14 37.8091C1575.14 36.7445 1577.07 35.8691 1579.48 35.8691C1581.89 35.8691 1583.82 36.7445 1583.82 37.8091Z" fill="#9274C6"/>
<path d="M1525.76 46.5619C1525.76 47.4373 1523.4 48.1707 1520.49 48.1707C1517.59 48.1707 1515.23 47.4609 1515.23 46.5619C1515.23 45.6629 1517.59 44.9531 1520.49 44.9531C1523.4 44.9531 1525.76 45.6629 1525.76 46.5619Z" fill="#724BB4"/>
<path d="M1338.04 158.066C1340.06 158.066 1341.7 157.197 1341.7 156.126C1341.7 155.054 1340.06 154.186 1338.04 154.186C1336.02 154.186 1334.39 155.054 1334.39 156.126C1334.39 157.197 1336.02 158.066 1338.04 158.066Z" fill="#9274C6"/>
<path d="M1313.62 160.242C1313.62 160.928 1311.64 161.496 1309.16 161.496C1306.69 161.496 1304.71 160.928 1304.71 160.242C1304.71 159.556 1306.69 158.988 1309.16 158.988C1311.64 158.988 1313.62 159.556 1313.62 160.242Z" fill="#9274C6"/>
<path d="M1305.98 174.769C1311.22 174.769 1315.46 173.339 1315.46 171.575C1315.46 169.811 1311.22 168.381 1305.98 168.381C1300.74 168.381 1296.49 169.811 1296.49 171.575C1296.49 173.339 1300.74 174.769 1305.98 174.769Z" fill="#8A6AC1"/>
<path d="M1240.08 200.768C1240.08 201.596 1236.14 202.258 1231.28 202.258C1226.42 202.258 1222.48 201.596 1222.48 200.768C1222.48 199.94 1226.42 199.277 1231.28 199.277C1236.14 199.277 1240.08 199.94 1240.08 200.768Z" fill="#8A6AC1"/>
<path d="M1588.56 19.6398C1588.56 21.0829 1585.19 22.2658 1581.04 22.2658C1576.88 22.2658 1573.51 21.0829 1573.51 19.6398C1573.51 18.1966 1576.88 17.0137 1581.04 17.0137C1585.19 17.0137 1588.56 18.1966 1588.56 19.6398Z" fill="#8A6AC1"/>
<path d="M1620.75 24.5834C1620.75 25.6007 1618.39 26.4051 1615.48 26.4051C1612.58 26.4051 1610.22 25.577 1610.22 24.5834C1610.22 23.5897 1612.58 22.7617 1615.48 22.7617C1618.39 22.7617 1620.75 23.5897 1620.75 24.5834Z" fill="#8A6AC1"/>
<path d="M1556.12 48.5025C1556.12 49.5671 1554.07 50.4425 1551.54 50.4425C1549.02 50.4425 1546.97 49.5671 1546.97 48.5025C1546.97 47.4378 1549.02 46.5625 1551.54 46.5625C1554.07 46.5625 1556.12 47.4378 1556.12 48.5025Z" fill="#8A6AC1"/>
<path d="M1518.21 62.3666C1518.21 63.2419 1515.75 63.9754 1512.73 63.9754C1509.71 63.9754 1507.26 63.2656 1507.26 62.3666C1507.26 61.4675 1509.71 60.7578 1512.73 60.7578C1515.75 60.7578 1518.21 61.4675 1518.21 62.3666Z" fill="#8A6AC1"/>
<path d="M1665.72 43.2499C1665.72 46.4674 1657.84 49.0935 1648.14 49.0935C1638.44 49.0935 1630.56 46.4911 1630.56 43.2499C1630.56 40.0087 1638.44 37.4062 1648.14 37.4062C1657.84 37.4062 1665.72 40.0087 1665.72 43.2499Z" fill="#8A6AC1"/>
<path d="M1677.23 79.3538C1676.43 80.0399 1673.38 77.816 1670.41 74.3855C1667.44 70.955 1665.69 67.5955 1666.49 66.9094C1667.3 66.2233 1670.34 68.4472 1673.31 71.8777C1676.29 75.3082 1678.03 78.6677 1677.23 79.3538Z" fill="#8362BE"/>
<path d="M1553.57 141.102C1553.62 142.166 1549.99 143.184 1545.48 143.42C1540.95 143.633 1537.25 142.947 1537.2 141.906C1537.15 140.841 1540.79 139.824 1545.29 139.588C1549.82 139.375 1553.53 140.061 1553.57 141.102Z" fill="#6742A4"/>
<path d="M1641.13 117.869C1641.18 118.934 1635.44 120.069 1628.3 120.401C1621.17 120.756 1615.34 120.164 1615.3 119.099C1615.25 118.035 1620.98 116.899 1628.13 116.568C1635.26 116.213 1641.08 116.805 1641.13 117.869Z" fill="#6742A4"/>
<path d="M1477.01 162.488C1477.06 163.553 1473.43 164.57 1468.92 164.807C1464.39 165.02 1460.68 164.334 1460.64 163.293C1460.59 162.228 1464.22 161.211 1468.73 160.974C1473.26 160.761 1476.96 161.447 1477.01 162.488Z" fill="#6742A4"/>
<path d="M1362.72 193.553C1370.67 193.553 1377.11 191.297 1377.11 188.514C1377.11 185.731 1370.67 183.475 1362.72 183.475C1354.77 183.475 1348.33 185.731 1348.33 188.514C1348.33 191.297 1354.77 193.553 1362.72 193.553Z" fill="#8A6AC1"/>
<path d="M1304.02 211.769C1304.02 213.354 1297.84 214.632 1290.19 214.632C1282.55 214.632 1276.37 213.354 1276.37 211.769C1276.37 210.184 1282.55 208.906 1290.19 208.906C1297.84 208.906 1304.02 210.184 1304.02 211.769Z" fill="#8A6AC1"/>
<path d="M1707.67 134.406C1699.74 164.642 1671.12 167.978 1651.96 164.926C1645.26 183.238 1643.75 184.468 1634.9 189.956C1652.86 185.982 1655.9 172.544 1655.9 172.544C1655.9 172.544 1705.52 182.007 1707.67 134.383V134.406Z" fill="#FFB3BF"/>
<path d="M1498.51 209.333C1517.07 220.949 1553.1 207.132 1561.41 195.54C1569.71 183.924 1574.03 197.953 1566.31 203.04C1558.62 208.126 1555.84 205.003 1555.84 205.003C1555.84 205.003 1523.89 226.296 1498.51 209.333Z" fill="#FFB3BF"/>
<path d="M1567.78 196.769C1574.86 190.807 1586.96 194.711 1602.04 202.731C1617.11 210.751 1622.59 198.827 1622.59 198.827C1622.59 198.827 1625.09 213.259 1602.04 209.829C1578.98 216.004 1578.51 201.122 1578.51 201.122C1578.51 201.122 1568.46 210.728 1567.78 196.769Z" fill="#FFB3BF"/>
<path d="M1464.7 205.24C1440.94 210.422 1418.43 196.392 1410.81 187.236C1399.84 199.137 1379.76 197.315 1379.76 197.315C1379.76 197.315 1397.12 205.264 1410.81 195.493C1421.78 208.008 1447.64 210.753 1464.7 205.264V205.24Z" fill="#FFB3BF"/>
<path d="M1417.06 142.049C1427.11 146.402 1435.79 142.049 1438.74 137.459C1435.56 152.577 1420.24 148.673 1417.06 142.049Z" fill="#724BB4"/>
<path d="M1492.87 129.912C1505.89 130.148 1513.42 125.109 1513.18 109.305C1525.28 110.678 1533.97 107.933 1535.1 98.9902C1535.55 110.204 1526.42 114.321 1518.44 113.635C1517.52 127.38 1511.6 134.927 1492.87 129.888V129.912Z" fill="#724BB4"/>
<path d="M1549.14 150.755C1556.29 155.889 1562.4 155.983 1568.32 147.111C1574.53 152.529 1580.4 154.327 1584.46 149.808C1580.42 156.22 1573.77 155.013 1569.59 151.559C1563.84 158.846 1557.66 160.762 1549.16 150.778L1549.14 150.755Z" fill="#724BB4"/>
<path d="M1457.17 173.372C1467.88 178.577 1476.94 178.742 1485.55 169.965C1494.85 175.43 1503.6 177.299 1509.52 172.851C1503.65 179.192 1493.76 177.89 1487.49 174.413C1479.09 181.605 1469.93 183.427 1457.15 173.372H1457.17Z" fill="#724BB4"/>
<path d="M1498.36 170.178C1506.22 173.348 1512.5 172.71 1517.57 165.115C1524.51 168.617 1530.71 169.35 1534.34 165.352C1530.92 170.817 1523.99 170.628 1519.34 168.427C1514.24 174.768 1508.11 176.992 1498.36 170.178Z" fill="#724BB4"/>
<path d="M1606.45 136.796C1613.6 141.93 1619.71 142.024 1625.63 133.152C1631.83 138.57 1637.71 140.368 1641.77 135.849C1637.73 142.261 1631.08 141.054 1626.9 137.6C1621.15 144.887 1614.96 146.803 1606.47 136.819L1606.45 136.796Z" fill="#724BB4"/>
<path d="M1560.27 92.8622C1568.49 96.6002 1575 96.9078 1580.16 89.0059C1576.32 103.319 1570.58 99.4392 1560.27 92.8622Z" fill="#724BB4"/>
<path d="M1526.06 117.964C1531.87 120.85 1536.68 121.631 1541.07 117.68C1537.18 125.416 1533.21 122.672 1526.06 117.964Z" fill="#724BB4"/>
<path d="M1594.46 83.021C1606.78 93.5017 1610.84 90.4262 1617.04 81.7908C1624.38 92.1769 1637.26 87.5162 1639.08 81.6016C1633.58 98.8249 1618.86 90.7337 1617.44 88.3915C1610.51 97.0505 1599.53 93.9276 1594.49 83.0447L1594.46 83.021Z" fill="#724BB4"/>
<path d="M1444.71 216.075C1458.75 217.897 1460.38 217.187 1466.35 214.584C1472.32 211.982 1480.34 223.74 1486.31 220.57C1492.28 217.4 1505.32 225.065 1489.28 226.745C1473.24 228.425 1476.59 215.152 1468.75 219.079C1460.92 223.007 1438.91 215.341 1444.69 216.098L1444.71 216.075Z" fill="#FFB3BF"/>
<path d="M1659.6 40.2935C1659.6 41.9259 1655.17 43.2744 1649.67 43.2744C1644.17 43.2744 1639.74 41.9495 1639.74 40.2935C1639.74 38.6374 1644.17 37.3125 1649.67 37.3125C1655.17 37.3125 1659.6 38.6374 1659.6 40.2935Z" fill="#9274C6"/>
<path d="M1607.27 180.399C1607.27 181.227 1602.58 181.889 1596.77 181.889C1590.97 181.889 1586.27 181.227 1586.27 180.399C1586.27 179.571 1590.97 178.908 1596.77 178.908C1602.58 178.908 1607.27 179.571 1607.27 180.399Z" fill="#724BB4"/>
<path d="M1502.68 195.729C1502.68 196.557 1499.26 197.219 1495.04 197.219C1490.81 197.219 1487.39 196.557 1487.39 195.729C1487.39 194.901 1490.81 194.238 1495.04 194.238C1499.26 194.238 1502.68 194.901 1502.68 195.729Z" fill="#724BB4"/>
<path d="M1742.28 196.154C1739.4 200.011 1735.77 203.347 1731.45 205.878C1718.4 213.543 1702 212.384 1690.14 202.944C1688.72 208.173 1685.25 212.621 1680.56 215.294C1675.84 217.944 1670.25 218.63 1665.03 217.139C1665.03 238.574 1634.24 236.705 1605.39 229.134C1649.36 233.653 1660.45 227.833 1660.03 210.302C1668.62 217.329 1686.69 215.744 1688.51 196.486C1698.09 204.553 1726.07 208.575 1742.28 196.154Z" fill="#FFB3BF"/>
<path d="M397.17 103.681C388.11 105.597 380.938 117.971 396.226 118.373C387.166 137.584 425.035 126.488 432.561 123.862C434.189 149.744 485.058 137.56 498.341 135.573C498.011 138.199 499.19 140.777 501.432 142.268C503.649 143.758 506.552 143.9 508.935 142.646C513.842 146.952 520.543 148.821 527.031 147.709C533.543 146.597 539.206 142.623 542.344 136.945C546.874 142.599 553.881 145.746 561.124 145.556C563.979 144.255 566.598 142.434 568.839 140.139C575.776 145.959 586.157 145.722 592.811 139.571C601.541 144.586 612.842 141.795 618.056 133.301C621.784 127.245 621.454 119.911 617.844 114.327C612.181 120.076 604.513 123.578 596.303 124.051C587.172 124.595 578.253 121.377 571.694 115.155C571.977 117.214 570.986 119.225 569.146 120.266C567.329 121.307 565.041 121.212 563.366 119.958C558.222 124.335 551.12 125.825 544.608 123.862C538.12 121.898 533.118 116.811 531.372 110.353C529.815 112.269 527.409 113.31 524.908 113.121C522.43 112.955 520.189 111.583 518.938 109.477C517.122 114.564 511.884 117.687 506.457 116.906C501.031 116.125 496.925 111.678 496.689 106.283C496.43 100.913 500.063 96.0866 505.348 94.7854C504.145 92.8454 503.791 90.4796 504.405 88.3267C504.617 87.6169 504.876 86.9308 505.277 86.3157C496.383 88.1137 487.771 91.9937 480.221 98.003C469.745 86.8598 452.757 85.109 440.206 93.8154C439.12 89.5095 436.124 85.8898 432.113 83.9971C428.078 82.0808 423.383 82.0571 419.325 83.9261C417.131 81.4893 413.851 80.3301 410.619 80.8506C407.386 81.3711 404.626 83.453 403.281 86.4339C398.303 76.8286 388.535 70.5828 377.705 70.0859H377.611C347.883 79.7386 379.734 104.769 397.241 103.634L397.17 103.681Z" fill="#7853B8"/>
<path d="M371.689 71.9318C360.057 84.1632 374.756 97.7432 386.128 94.1234C386.812 100.937 393.301 103.965 402.951 99.5176C397.052 105.527 388.842 115.274 403.611 115.842C399.907 133.822 426.497 126.725 434.307 120.479C437.988 135.195 453.843 139.997 466.89 134.272C474.487 139.761 494.283 135.715 501.502 130.794C499.969 139.737 506.433 142.032 512.167 137.679C518.962 148.136 537.601 146.598 542.107 130.581C548.242 142.529 550.884 143.499 554.801 145.391C543.901 144.161 541.046 142.339 541.046 142.339C541.046 142.339 532.646 156.369 504.994 146.456C472.34 146.645 424.091 155.186 398.326 138.483C385.161 129.942 346.679 87.712 371.689 71.9082V71.9318Z" fill="#6642A3"/>
<path d="M295.528 109.927C301.898 118.231 313.129 121.377 322.967 117.616C321.387 118.87 320.655 120.904 321.009 122.844C321.387 124.808 322.849 126.44 324.808 127.032C326.742 127.623 328.889 127.126 330.352 125.731C332.122 129.185 335.637 131.456 339.577 131.74C343.518 132 347.316 130.202 349.558 127.032C349.251 131.456 351.091 135.762 354.536 138.648C357.981 141.534 362.652 142.623 367.064 141.582C364.422 144.279 363.549 148.182 364.799 151.708C365.578 153.884 367.088 155.706 369.023 156.889C370.745 156.534 372.208 156.155 373.317 155.753C385.444 151.258 396.793 155.162 409.085 156.77C432.136 159.751 453.772 155.375 475.431 151.092C498.836 146.479 515.8 162.425 540.81 146.077C547.463 148.774 554.825 148.514 561.124 145.627C553.904 145.817 546.897 142.67 542.343 137.016C539.205 142.67 533.567 146.645 527.031 147.78C520.519 148.892 513.842 147.023 508.934 142.717C506.551 143.971 503.649 143.829 501.432 142.339C499.214 140.848 498.01 138.27 498.341 135.643C485.057 137.607 434.189 149.815 432.561 123.933C425.035 126.559 387.166 137.631 396.226 118.444C380.938 118.042 388.11 105.668 397.17 103.752C379.663 104.887 347.812 79.8569 377.54 70.2042C366.734 69.7074 356.494 74.9596 350.596 84.0444C349.133 82.7905 347.623 81.6549 346.019 80.6139C347.34 86.0554 345.382 91.8754 340.781 95.4005C335.472 99.4697 327.993 99.3514 322.779 95.1639C322.236 97.2221 320.278 98.5707 318.154 98.3814C316.031 98.1922 314.356 96.4888 314.214 94.3832C309.731 96.3232 304.493 95.1402 301.285 91.4732C298.784 88.6105 297.958 84.7069 298.996 81.1581C296.755 82.6959 294.655 84.4466 292.744 86.3629C289.299 94.0046 290.195 103.089 295.48 109.998L295.528 109.927Z" fill="#5D3D95"/>
<path d="M301.332 91.4024C304.541 95.0695 309.755 96.2525 314.261 94.3125C314.403 96.4417 316.078 98.1215 318.201 98.3107C320.325 98.5 322.283 97.1514 322.826 95.0932C328.04 99.3044 335.496 99.399 340.828 95.3298C345.429 91.8047 347.387 85.9847 346.066 80.5432C335.425 73.635 322.142 71.7896 309.896 75.7642C306.003 77.0181 302.37 78.8162 299.043 81.0637C298.029 84.5888 298.831 88.4924 301.332 91.3788V91.4024Z" fill="#7853B8"/>
<path d="M258.627 115.864C263.44 119.626 270.235 119.768 275.213 116.243C274.364 118.065 273.137 123.246 284.769 123.293C283.495 123.979 282.858 125.446 283.235 126.818C283.613 128.191 284.887 129.161 286.373 129.137C283.683 133.159 284.391 138.506 288.048 141.723C291.682 144.941 297.203 145.059 301.001 142.007C299.515 145.603 300.058 149.672 302.37 152.795C303.526 154.333 305.036 155.54 306.735 156.32C311.666 155.966 316.526 154.57 320.938 152.204C322.283 151.494 323.958 152.369 324.784 153.198C332.759 161.289 355.338 159.112 369.023 156.841C367.088 155.658 365.578 153.836 364.799 151.66C363.549 148.135 364.422 144.231 367.064 141.534C362.652 142.551 357.981 141.463 354.536 138.6C351.091 135.714 349.251 131.408 349.558 126.984C347.34 130.178 343.541 131.976 339.577 131.692C335.637 131.432 332.122 129.137 330.352 125.683C328.889 127.079 326.742 127.599 324.808 126.984C322.849 126.393 321.387 124.76 321.009 122.796C320.632 120.833 321.363 118.798 322.967 117.568C313.129 121.33 301.898 118.183 295.528 109.879C290.243 102.971 289.346 93.8858 292.791 86.2441C287.388 91.6856 283.495 98.5465 281.702 106.212C279.035 98.6648 272.547 93.2234 264.856 91.7329C260.255 92.5136 256.244 95.5656 254.403 99.9897C252.091 105.573 253.79 112.032 258.603 115.794L258.627 115.864Z" fill="#6642A3"/>
<path d="M223.849 120.574C225.501 124.927 229.606 127.932 234.325 128.168C245.933 134.58 264.242 134.532 275.803 128.05C273.444 132.876 273.467 138.507 275.85 143.31C278.257 148.136 282.763 151.638 288.143 152.773C293.994 155.612 300.412 156.795 306.711 156.275C305.012 155.494 303.479 154.287 302.346 152.749C300.034 149.627 299.491 145.534 300.978 141.961C297.179 145.013 291.658 144.871 288.025 141.677C284.368 138.46 283.66 133.113 286.35 129.091C284.887 129.115 283.589 128.168 283.212 126.772C282.834 125.4 283.471 123.933 284.745 123.247C273.113 123.2 274.34 118.019 275.19 116.197C270.188 119.722 263.416 119.58 258.603 115.819C253.79 112.057 252.068 105.622 254.404 100.015C256.244 95.5907 260.231 92.515 264.856 91.7579C263.534 91.474 262.142 91.3321 260.75 91.3084C251.289 91.1901 242.772 96.9628 239.469 105.716C235.127 103.942 230.125 104.888 226.751 108.106C223.378 111.3 222.221 116.221 223.849 120.55V120.574Z" fill="#7853B8"/>
<path d="M496.689 106.355C496.949 111.749 501.03 116.197 506.457 116.978C511.884 117.759 517.098 114.636 518.938 109.549C520.212 111.678 522.43 113.027 524.907 113.192C527.408 113.358 529.815 112.341 531.372 110.424C533.118 116.86 538.12 121.97 544.608 123.933C551.12 125.897 558.198 124.407 563.366 120.03C565.041 121.284 567.329 121.378 569.146 120.337C570.963 119.296 571.977 117.262 571.694 115.227C578.253 121.449 587.195 124.667 596.303 124.123C604.513 123.626 612.181 120.124 617.844 114.399C616.405 112.152 614.446 110.188 611.993 108.697C603.098 99.0684 584.812 97.6252 574.478 105.669C573.464 102.546 570.798 100.228 567.565 99.6125C564.309 98.9974 560.959 100.157 558.812 102.688C544.844 88.6823 524.624 82.6021 505.254 86.4348C504.876 87.0499 504.593 87.736 504.381 88.4458C503.767 90.6223 504.121 92.9882 505.325 94.9045C500.04 96.2057 496.406 101.032 496.666 106.403L496.689 106.355Z" fill="#8260BD"/>
<path d="M508.675 91.4739C508.746 92.5859 512.851 93.2247 517.877 92.9171C522.902 92.6096 526.889 91.4502 526.819 90.3383C526.748 89.2263 522.619 88.6113 517.617 88.9188C512.615 89.2264 508.604 90.362 508.675 91.4739Z" fill="#9274C6"/>
<path d="M562.328 104.225C562.375 104.958 563.484 105.478 564.781 105.384C566.079 105.289 567.093 104.603 567.046 103.87C566.999 103.136 565.89 102.616 564.593 102.71C563.295 102.805 562.28 103.491 562.328 104.225Z" fill="#9274C6"/>
<path d="M581.533 106.425C581.627 107.703 585.048 108.484 589.154 108.153C593.259 107.821 596.491 106.496 596.397 105.195C596.279 103.918 592.882 103.161 588.776 103.492C584.671 103.823 581.439 105.148 581.533 106.425Z" fill="#9274C6"/>
<path d="M444.783 94.88C444.83 96.2522 448.275 97.2459 452.474 97.0566C456.65 96.8673 460.001 95.5897 459.93 94.2175C459.859 92.8454 456.438 91.8754 452.238 92.0646C448.062 92.2539 444.712 93.5078 444.783 94.88Z" fill="#8260BD"/>
<path d="M422.958 87.7098C422.958 88.1583 423.902 88.5124 425.011 88.4652C426.12 88.418 427.016 88.0167 426.993 87.5682C426.993 87.1197 426.049 86.7656 424.94 86.8128C423.831 86.86 422.935 87.2613 422.958 87.7098Z" fill="#8260BD"/>
<path d="M380.041 78.2711C380.088 79.8326 382.872 81.0391 386.317 80.9681C389.738 80.8735 392.475 79.5486 392.451 77.9871C392.404 76.4257 389.597 75.2192 386.175 75.3138C382.754 75.4084 380.017 76.7333 380.041 78.2947V78.2711Z" fill="#8260BD"/>
<path d="M577.64 130.84C575.21 127.717 571.505 125.801 567.494 125.588C563.484 125.375 559.591 126.889 556.807 129.728C555.792 127.907 553.48 127.221 551.592 128.167C549.705 129.113 548.902 131.361 549.799 133.23C550.696 135.099 552.961 135.951 554.919 135.122C559.378 138.837 565.843 139.215 570.75 136.069C571.199 138.245 573.133 139.83 575.422 139.878C577.711 139.901 579.716 138.387 580.235 136.234C580.754 134.058 579.693 131.834 577.64 130.864V130.84Z" fill="#8260BD"/>
<path d="M467.15 111.015C463.328 109.099 458.892 108.768 454.81 110.069C450.728 111.37 447.331 114.209 445.349 117.971C444.075 120.242 444.712 123.105 446.859 124.619C449.006 126.133 451.979 125.802 453.749 123.862C453.796 127.103 456.438 129.705 459.741 129.753C463.044 129.8 465.781 127.245 465.899 124.004C472.859 130.723 483.382 132.402 492.183 128.239C495.51 125.258 495.793 120.195 492.843 116.883C489.894 113.547 484.774 113.145 481.306 115.984C482.439 113.428 482.014 110.471 480.244 108.318C478.451 106.165 475.62 105.172 472.86 105.739C470.099 106.307 467.905 108.342 467.126 111.015H467.15Z" fill="#8260BD"/>
<path d="M535.595 104.651C536.327 108.011 539.323 110.4 542.815 110.424C543.901 110.376 544.868 109.714 545.293 108.744C545.717 107.75 545.529 106.615 544.797 105.834C544.066 105.03 542.957 104.722 541.919 105.03C542.202 104.367 542.131 103.586 541.706 102.995C541.305 102.403 540.598 102.049 539.866 102.049C540.031 101.126 539.654 100.156 538.875 99.6118C538.096 99.0676 537.058 98.9966 536.209 99.4461C536.704 98.3815 536.516 97.1276 535.737 96.2522C534.935 95.3769 533.708 95.0457 532.576 95.4243C531.443 95.8028 530.665 96.7964 530.57 97.9793C529.933 97.5298 529.06 97.6008 528.494 98.1213C527.149 97.4115 525.521 97.5299 524.294 98.4525C523.091 99.3752 522.525 100.913 522.878 102.38C523.232 103.847 524.436 104.959 525.946 105.242C527.007 106.78 528.824 107.632 530.712 107.514C532.599 107.395 534.274 106.283 535.124 104.627H535.595V104.651Z" fill="#9274C6"/>
<path d="M385.916 107.23C368.291 116.764 356.046 105.006 353.12 101.173C346.231 111.89 332.57 109.879 326.695 102.403C318.98 109.122 305.39 103.681 302.464 98.3577C299.539 93.0345 291.281 109.43 306.499 108.909C306.499 108.909 310.321 112.955 317.777 108.318C322.189 110.684 326.247 109.075 326.742 107.868C340.238 118.065 351.351 110.069 353.923 106.472C360.93 112.482 376.172 114.942 385.916 107.23Z" fill="#FFB3BF"/>
<path d="M415.975 135.453C404.815 144.657 386.152 141.912 380.348 127.883C376.455 135.524 362.369 136.234 358.83 128.853C364.351 140.54 375.818 138.103 379.404 136.116C389.479 145.627 406.679 146.833 415.975 135.453Z" fill="#4A3077"/>
<path d="M455.494 142.48C448.251 148.466 432.726 145.863 428.857 137.086C430.154 147.496 442.4 155.61 455.494 142.48Z" fill="#FFB3BF"/>
<path d="M387.803 127.221C384.925 129.516 378.909 128.38 377.446 124.926C377.894 129.019 382.589 132.26 387.803 127.221Z" fill="#4A3077"/>
<path d="M364.351 99.447C359.326 103.445 348.85 101.363 346.373 95.2832C347.08 102.452 355.244 108.248 364.351 99.447Z" fill="#FFB3BF"/>
<path d="M412.341 95.7786C404.909 98.8069 400.426 99.3747 396.439 93.1289C400.261 105.692 405.381 102.214 412.341 95.7786Z" fill="#6642A3"/>
<path d="M390.021 92.4196C386.128 93.7444 383.085 93.0347 379.852 89.3203C383.934 96.5598 386.647 96.2759 390.021 92.4196Z" fill="#6642A3"/>
<path d="M437.917 120.006C432.632 120.763 431.263 117.924 429.989 116.859C431.57 122.585 434.85 122.348 437.917 120.006Z" fill="#6642A3"/>
<path d="M508.769 130.321C501.573 131.859 498.459 129.02 496.382 126.465C497.232 133.657 504.711 132.663 508.769 130.321Z" fill="#6642A3"/>
<path d="M518.632 135.525C512.804 137.228 511.624 136.613 508.651 134.342C510.445 139.57 511.837 139.949 518.632 135.525Z" fill="#6642A3"/>
<path d="M546.685 129.114C540.975 130.416 536.351 129.611 532.788 125.708C527.668 127.387 521.203 131.244 516.319 123.98C520.59 134.083 533.189 128.357 533.189 128.357C533.189 128.357 540.432 135.904 546.661 129.114H546.685Z" fill="#6642A3"/>
<path d="M580.92 112.931C573.251 114.989 565.631 114.8 559.661 110.684C572.048 120.242 577.782 117.545 580.92 112.931Z" fill="#7853B8"/>
<path d="M522.737 107.206C517.24 109.572 514.573 108.72 511.483 106.236C515.871 113.428 518.113 112.624 522.737 107.206Z" fill="#7853B8"/>
<path d="M328.37 113.948C321.882 118.396 317.753 116.03 314.308 113.428C320.938 125.446 328.418 113.806 328.37 113.948Z" fill="#6642A3"/>
<path d="M370.533 141.818C365.625 142.197 364.162 139.665 363.148 137.229C362.888 145.675 370.603 141.747 370.533 141.818Z" fill="#6642A3"/>
<path d="M358.995 123.246C351.068 127.055 346.892 125.352 344.438 121.874C340.12 122.773 337.312 123.672 334.717 119.674C337.737 128.759 343.211 123.743 343.211 123.743C343.211 123.743 348.496 133.49 358.972 123.246H358.995Z" fill="#6642A3"/>
<path d="M310.085 141.44C304.281 142.221 299.397 143.238 296.448 134.674C298.264 145.675 301.568 144.468 310.085 141.44Z" fill="#7853B8"/>
<path d="M272.193 111.654C276.322 116.126 276.77 117.806 282.197 116.836C285.453 119.414 286.468 122.75 292.012 121.331C286.586 123.767 282.622 120.171 282.079 118.184C276.865 121.165 272.146 117.332 272.193 111.678V111.654Z" fill="#7853B8"/>
<path d="M353.498 145.627C343.187 148.561 336.746 146.053 334.292 137.631C327.969 140.588 314.049 137.773 310.746 127.884C307.419 117.994 297.486 125.447 302.582 129.445C307.678 133.443 309.731 130.226 309.731 130.226C309.731 130.226 313.907 144.823 332.735 140.091C335.448 150.95 346.066 149.294 353.521 145.627H353.498Z" fill="#5D3D95"/>
<path d="M295.787 124.406C295.787 126.394 297.51 128.002 299.657 128.002C301.804 128.002 303.526 126.394 303.526 124.43C303.526 122.443 301.804 120.858 299.657 120.834C297.533 120.834 295.787 122.443 295.787 124.406Z" fill="#5D3D95"/>
<path d="M421.283 155.919C421.307 156.818 425.672 157.386 430.98 157.197C436.313 157.007 440.607 156.108 440.559 155.209C440.512 154.31 436.171 153.766 430.862 153.955C425.53 154.145 421.236 155.02 421.283 155.895V155.919Z" fill="#8C56C5"/>
<path d="M507.944 151.59C507.991 152.489 512.356 152.962 517.664 152.631C522.973 152.3 527.267 151.33 527.196 150.431C527.149 149.532 522.784 149.082 517.475 149.413C512.167 149.721 507.896 150.691 507.944 151.59Z" fill="#8C56C5"/>
<path d="M368.905 153.195C368.905 153.785 370.155 154.234 371.665 154.186C373.175 154.163 374.402 153.667 374.378 153.077C374.378 152.487 373.128 152.038 371.618 152.085C370.108 152.109 368.881 152.605 368.905 153.195Z" fill="#6642A3"/>
<path d="M340.922 156.343C340.922 156.816 344.721 157.17 349.416 157.122C354.111 157.052 357.886 156.603 357.886 156.131C357.886 155.659 354.088 155.328 349.393 155.376C344.697 155.423 340.922 155.871 340.922 156.343Z" fill="#7853B8"/>
<path d="M305.201 153.788C305.201 154.19 306.593 154.496 308.292 154.496C309.991 154.496 311.383 154.166 311.383 153.788C311.383 153.411 309.991 153.08 308.292 153.08C306.593 153.08 305.201 153.411 305.201 153.788Z" fill="#7853B8"/>
<path d="M242.819 128.829C242.819 129.846 246.594 130.722 251.289 130.793C255.984 130.864 259.807 130.083 259.807 129.066C259.807 128.048 256.032 127.197 251.336 127.126C246.641 127.055 242.819 127.812 242.819 128.829Z" fill="#8260BD"/>
<path d="M228.781 124.808C228.781 125.494 229.677 126.086 230.786 126.109C231.919 126.109 232.839 125.589 232.839 124.903C232.839 124.217 231.942 123.625 230.833 123.602C229.701 123.602 228.781 124.122 228.781 124.808Z" fill="#8260BD"/>
<path d="M598.049 136.661C598.167 137.938 601.021 138.742 604.466 138.459C607.911 138.151 610.601 136.873 610.483 135.596C610.365 134.318 607.486 133.514 604.065 133.821C600.644 134.129 597.954 135.383 598.049 136.684V136.661Z" fill="#8C56C5"/>
<path d="M447.118 94.2861C447.118 94.6638 449.171 94.8763 451.696 94.7583C454.197 94.6402 456.226 94.2625 456.202 93.8848C456.202 93.5071 454.15 93.3183 451.625 93.4127C449.124 93.5308 447.095 93.9084 447.118 94.2625V94.2861Z" fill="#9274C6"/>
<path d="M310.298 78.6499C310.392 80.0457 316.267 81.276 323.439 81.3943C330.612 81.5126 336.345 80.4952 336.227 79.0994C336.133 77.7035 330.234 76.497 323.085 76.3787C315.936 76.2604 310.203 77.254 310.298 78.6499Z" fill="#8260BD"/>
<path d="M314.285 78.2233C314.308 78.601 317.824 78.9551 322.118 79.0259C326.412 79.0967 329.88 78.8606 329.857 78.5065C329.833 78.1289 326.318 77.7748 322.024 77.704C317.729 77.6332 314.261 77.8692 314.285 78.2233Z" fill="#9274C6"/>
<path d="M470.429 109.004C470.453 109.69 472.128 110.163 474.133 110.068C476.139 109.974 477.743 109.335 477.696 108.649C477.673 107.963 475.997 107.49 473.992 107.584C471.986 107.679 470.382 108.318 470.429 109.004Z" fill="#9274C6"/>
<path d="M451.129 112.955C451.177 113.784 453.513 114.351 456.367 114.233C459.222 114.115 461.487 113.334 461.464 112.506C461.416 111.678 459.081 111.11 456.226 111.228C453.371 111.347 451.106 112.127 451.129 112.955Z" fill="#9274C6"/>
<path d="M481.683 116.856C481.683 117.234 483.429 117.423 485.529 117.329C487.629 117.21 489.328 116.833 489.304 116.455C489.304 116.077 487.558 115.889 485.458 115.983C483.359 116.101 481.66 116.479 481.683 116.856Z" fill="#9274C6"/>
<path d="M560.416 128.449C560.464 128.992 562.587 129.299 565.159 129.086C567.731 128.897 569.807 128.284 569.76 127.741C569.712 127.198 567.589 126.915 565.017 127.103C562.446 127.292 560.369 127.906 560.416 128.449Z" fill="#9274C6"/>
<path d="M44.8189 100.818C29.8603 102.995 15.2558 126.156 40.5956 126.038C31.2288 133.916 38.189 140.209 45.6918 145.13C61.3582 155.374 87.1463 146.431 102.931 141.747C98.9433 186.793 193.885 173.662 215.969 172.006C215.025 176.478 216.748 181.138 220.428 184.025C224.085 186.911 229.182 187.573 233.499 185.728C241.521 193.843 253.011 197.983 264.572 196.895C276.157 195.807 286.538 189.632 292.744 180.216C299.987 190.578 311.902 196.871 324.595 197.392C329.739 195.475 334.576 192.636 338.752 188.898C350.454 199.687 368.291 200.349 380.82 190.531C395.66 199.876 415.55 196.398 425.719 182.203C432.868 172.219 432.939 159.325 427.158 149.27C417.815 158.308 401.063 163.986 388.582 164.01C374.685 164.01 356.07 156.865 346.561 145.958C346.821 149.554 344.863 152.938 341.559 154.546C338.28 156.155 334.292 155.706 331.508 153.34C322.024 160.343 309.448 162.07 298.335 157.882C287.246 153.695 279.154 144.231 276.936 132.851C273.986 135.974 269.645 137.441 265.328 136.826C261.033 136.211 257.329 133.561 255.394 129.729C251.549 138.293 242.04 143.001 232.697 140.895C223.354 138.813 216.842 130.533 217.149 121.164C217.455 111.819 224.416 103.988 233.759 102.45C231.919 98.9489 231.635 94.8087 233.004 91.118C233.452 89.9114 234.018 88.7758 234.773 87.7584C218.069 89.3672 204.078 96.4411 189.709 104.461C174.42 83.3343 142.993 78.4844 121.004 91.118C119.8 83.4763 115.223 76.7809 108.57 72.83C101.916 68.879 93.7998 68.0273 86.4857 70.5825C83.1118 66.0164 77.638 63.4612 71.9519 63.7924C66.2893 64.1236 61.1459 67.2703 58.3382 72.1912C51.3072 54.8259 35.5701 42.3106 17.1196 39.377H16.9781H16.9545C1.83078 41.8611 -8.07865 55.5357 -5.08222 70.5588C-0.95329 91.2599 26.7932 100.132 44.8661 100.842L44.8189 100.818Z" fill="#7853B8"/>
<path d="M6.47881 41.3887C-14.8973 58.2098 5.41709 84.9439 27.3594 82.3415C27.3122 94.2417 38.0711 100.629 55.5542 94.6202C45.975 102.333 29.8839 121.591 53.8789 122.939C37.8823 152.158 94.6964 144.8 106.493 136.141C110.386 161.81 138.109 173.45 161.184 165.122C177.653 176.668 205.069 172.196 222.127 164.129C218.234 179.388 229.229 184.286 239.822 177.519C252.917 200.279 285.406 191.052 293.121 169.073C302.37 190.508 306.924 192.542 313.553 196.281C294.584 192.874 289.794 189.325 289.794 189.325C274.553 206.951 243.975 200.515 226.067 191.714C191.29 189.088 156.442 187.527 121.829 183.268C95.9469 180.074 60.6269 178.016 40.7372 161.171C21.6497 145.013 -41.8886 60.1025 6.45526 41.3887H6.47881Z" fill="#6642A3"/>
<path d="M-132.654 91.71C-123.028 107.041 -104.389 114.99 -86.5991 110.708C-89.5956 112.529 -91.2943 115.889 -91.0348 119.343C-90.7753 122.821 -88.5574 125.92 -85.2779 127.34C-82.0219 128.759 -78.1762 128.333 -75.3685 126.204C-72.9619 132.521 -67.323 137.158 -60.4807 138.412C-53.6621 139.666 -46.6783 137.3 -42.1955 132.237C-43.5875 139.808 -41.2045 147.615 -35.7307 153.246C-30.2805 158.876 -22.3294 161.644 -14.4019 160.722C-19.4981 164.886 -21.7631 171.439 -20.2531 177.779C-19.3093 181.683 -16.9971 185.114 -13.8356 187.527C-10.7684 187.243 -8.14946 186.864 -6.12039 186.344C15.6096 180.808 35.4285 189.325 56.2619 194.553C95.5693 204.466 134.075 202.29 173.642 195.405C189.827 192.59 204.196 201.485 219.461 205.01C244.942 210.901 265.233 206.051 288.921 195.642C300.246 201.154 313.223 201.556 324.595 197.321C311.902 196.801 299.987 190.508 292.744 180.145C286.538 189.561 276.157 195.736 264.572 196.824C253.035 197.913 241.521 193.773 233.499 185.658C229.182 187.503 224.085 186.841 220.428 183.954C216.748 181.044 215.025 176.407 215.969 171.936C193.885 173.592 98.9433 186.722 102.931 141.677C87.1463 146.361 61.3582 155.328 45.6918 145.06C38.1889 140.139 31.2288 133.846 40.5956 125.967C15.2557 126.109 29.8603 102.924 44.8188 100.748C26.7223 100.061 -1.00047 91.1658 -5.12941 70.4647C-8.12584 55.4416 1.7836 41.767 16.9073 39.2829C-1.51955 36.5385 -20.2296 43.7307 -32.0973 58.1387C-34.3623 55.7019 -36.7689 53.4543 -39.317 51.3487C-38.0901 60.9777 -42.5965 70.654 -51.2319 75.8115C-61.2121 81.7735 -74.1416 80.0937 -82.3051 71.7896C-83.65 75.22 -87.307 77.16 -90.964 76.3793C-94.6211 75.5986 -97.1692 72.3574 -96.9569 68.6667C-105.12 71.1035 -113.944 67.9569 -118.687 60.954C-122.415 55.4653 -122.981 48.5807 -120.48 42.6897C-124.68 44.8899 -128.667 47.4214 -132.348 50.3077C-139.827 61.5218 -139.662 80.4013 -132.607 91.6154L-132.654 91.71Z" fill="#5D3D95"/>
<path d="M217.101 121.141C216.795 130.51 223.307 138.767 232.65 140.872C241.993 142.954 251.501 138.27 255.347 129.705C257.282 133.538 260.986 136.188 265.28 136.803C269.598 137.418 273.939 135.951 276.888 132.828C279.106 144.208 287.199 153.671 298.288 157.859C309.401 162.046 321.976 160.319 331.461 153.317C334.245 155.682 338.233 156.108 341.512 154.523C344.815 152.914 346.774 149.531 346.514 145.935C356.022 156.865 374.638 164.01 388.535 163.986C401.016 163.986 417.768 158.285 427.111 149.247C424.822 145.225 421.59 141.629 417.484 138.814C401.936 120.171 372.538 117.19 352.483 129.658C351.068 124.146 346.703 119.816 341.111 118.373C335.496 116.93 329.55 118.586 325.563 122.679C303.148 96.8911 268.536 83.666 234.703 87.7589C233.948 88.7762 233.381 89.9119 232.933 91.1184C231.565 94.7855 231.871 98.9258 233.688 102.451C224.345 103.989 217.385 111.82 217.078 121.165L217.101 121.141Z" fill="#8260BD"/>
<path d="M239.964 97.0331C239.94 98.9494 246.995 100.629 255.725 100.747C264.454 100.866 271.556 99.3752 271.58 97.4589C271.58 95.5426 264.549 93.9338 255.819 93.8155C247.113 93.6972 240.011 95.1167 239.964 97.0331Z" fill="#9274C6"/>
<path d="M331.508 125.825C331.508 127.103 333.372 128.12 335.661 128.096C337.949 128.096 339.79 127.008 339.766 125.731C339.766 124.453 337.902 123.436 335.614 123.459C333.325 123.459 331.508 124.524 331.508 125.802V125.825Z" fill="#9274C6"/>
<path d="M364.658 131.763C364.705 134.01 370.556 135.714 377.752 135.548C384.949 135.382 390.705 133.419 390.658 131.195C390.587 128.947 384.736 127.291 377.564 127.457C370.391 127.622 364.611 129.539 364.658 131.763Z" fill="#9274C6"/>
<path d="M128.766 93.5539C128.648 95.9434 134.452 98.191 141.743 98.5222C149.033 98.8534 155.002 97.1737 155.097 94.7605C155.191 92.371 149.387 90.1707 142.12 89.8395C134.853 89.5083 128.884 91.1407 128.766 93.5539Z" fill="#8260BD"/>
<path d="M92.1483 77.6097C92.1011 78.4141 93.6347 79.1475 95.5694 79.2658C97.5041 79.384 99.1085 78.8163 99.1557 78.0355C99.2029 77.2312 97.6693 76.4977 95.7346 76.3794C93.7999 76.2611 92.1955 76.8053 92.1483 77.6097Z" fill="#8260BD"/>
<path d="M19.6914 53.832C19.479 56.5291 24.1034 59.1315 30.0255 59.6047C35.9476 60.0779 40.9259 58.2325 41.1147 55.5355C41.327 52.8147 36.7026 50.2596 30.7805 49.7865C24.882 49.3133 19.9037 51.1113 19.6914 53.832Z" fill="#8260BD"/>
<path d="M355.22 173.639C351.304 167.961 345.051 164.223 338.067 163.419C331.084 162.591 324.1 164.767 318.909 169.381C317.352 166.116 313.388 164.625 309.967 166.045C306.546 167.464 304.894 171.226 306.239 174.609C307.584 177.969 311.454 179.696 314.969 178.489C322.33 185.445 333.608 186.864 342.55 181.943C343.093 185.776 346.325 188.733 350.313 189.041C354.3 189.348 357.981 186.935 359.16 183.245C360.317 179.554 358.689 175.556 355.197 173.663L355.22 173.639Z" fill="#8260BD"/>
<path d="M165.124 124.902C158.754 121.022 151.109 119.745 143.795 121.377C136.505 122.986 130.158 127.363 126.124 133.561C123.528 137.276 124.212 142.339 127.728 145.272C131.243 148.23 136.481 148.135 139.855 145.059C139.407 150.666 143.654 155.611 149.411 156.179C155.168 156.747 160.311 152.748 161.019 147.189C172.344 159.846 190.37 164.175 206.248 158.355C212.477 153.647 213.681 144.965 208.985 138.79C204.29 132.615 195.466 131.196 189.025 135.572C191.361 131.338 191.054 126.156 188.27 122.182C185.486 118.207 180.673 116.054 175.812 116.646C170.928 117.213 166.799 120.407 165.077 124.926L165.124 124.902Z" fill="#8260BD"/>
<path d="M284.958 123.317C285.783 129.232 290.714 133.75 296.802 134.2C298.689 134.271 300.459 133.253 301.308 131.597C302.158 129.941 301.969 127.954 300.813 126.487C299.657 125.02 297.745 124.334 295.905 124.736C296.471 123.601 296.448 122.276 295.787 121.188C295.15 120.099 293.994 119.39 292.72 119.319C293.145 117.733 292.578 116.03 291.304 114.965C290.03 113.901 288.237 113.688 286.704 114.374C287.718 112.6 287.529 110.399 286.279 108.767C285.005 107.158 282.905 106.448 280.899 106.945C278.894 107.442 277.407 109.075 277.077 111.109C276.015 110.257 274.505 110.257 273.444 111.086C271.202 109.666 268.347 109.69 266.13 111.133C263.912 112.576 262.756 115.155 263.18 117.734C263.605 120.312 265.54 122.418 268.135 123.08C269.787 125.872 272.83 127.599 276.133 127.623C279.437 127.646 282.48 125.967 284.179 123.199C284.509 123.246 284.651 123.27 284.981 123.317H284.958Z" fill="#9274C6"/>
<path d="M24.6461 104.911C5.18114 114.445 -19.9228 106.52 -31.1063 88.3262C-44.2717 103.065 -65.9073 100.936 -77.138 85.2505C-91.2472 93.0342 -111.774 86.2679 -118.262 73.2321C-122.603 64.5021 -139.945 89.9586 -113.449 92.2534C-113.449 92.2534 -107.621 100.037 -93.7953 93.5784C-86.6228 98.5703 -79.2378 96.6066 -78.1289 94.643C-66.3556 107.797 -43.5638 110.116 -30.7052 97.6239C-17.0443 112.15 7.87085 114.138 24.6461 104.887V104.911Z" fill="#FFB3BF"/>
<path d="M72.0699 158.947C53.006 173.213 16.7894 164.673 11.2684 139.547C1.64208 151.116 -19.0262 151.282 -26.3875 137.205C-22.5181 151.921 -5.1765 158.545 8.15405 153.624C22.7115 171.746 55.4598 177.33 72.0935 158.947H72.0699Z" fill="#FFB3BF"/>
<path d="M140.02 177.543C124.354 185.989 102.176 180.477 94.3188 163.939C96.7254 191.856 122.207 187.858 140.02 177.543Z" fill="#FFB3BF"/>
<path d="M24.3866 139.783C18.9836 143.214 8.67307 140.185 6.76196 133.939C6.80915 141.084 14.43 147.567 24.3866 139.783Z" fill="#FFB3BF"/>
<path d="M72.4474 89.7929C59.0697 93.7438 51.1657 93.9331 45.3616 82.4824C49.7972 104.863 59.282 99.7531 72.4474 89.7929Z" fill="#6642A3"/>
<path d="M34.3904 80.0923C27.4302 81.6775 22.2631 79.9031 17.3556 72.9238C23.1125 86.1726 27.8549 86.1726 34.3904 80.0923Z" fill="#6642A3"/>
<path d="M112.84 135.903C103.521 136.376 101.609 131.218 99.5568 129.16C101.35 139.31 107.107 139.452 112.84 135.903Z" fill="#6642A3"/>
<path d="M234.868 164.293C222.104 165.973 217.031 160.626 213.775 155.918C214.27 168.481 227.436 167.818 234.868 164.293Z" fill="#6642A3"/>
<path d="M251.454 174.608C241.049 176.784 239.067 175.578 234.16 171.225C236.59 180.546 238.997 181.374 251.454 174.608Z" fill="#6642A3"/>
<path d="M301.285 167.062C291.139 168.6 283.164 166.637 277.455 159.444C268.3 161.692 256.48 167.536 248.93 154.311C255.041 172.362 277.832 164.081 277.832 164.081C277.832 164.081 289.582 178.064 301.285 167.062Z" fill="#6642A3"/>
<path d="M362.888 142.977C349.298 145.721 336.015 144.515 326.082 136.66C335.095 146.053 352.601 155.492 362.888 142.977Z" fill="#7853B8"/>
<path d="M262.284 126.11C252.422 129.469 247.892 127.647 242.866 122.939C249.543 135.975 253.554 134.887 262.284 126.11Z" fill="#7853B8"/>
<path d="M77.9447 195.238C77.8503 196.776 85.3768 198.503 94.7672 199.047C104.158 199.591 111.826 198.74 111.896 197.202C111.967 195.664 104.441 194.008 95.0739 193.464C85.7071 192.92 78.0391 193.7 77.9447 195.238Z" fill="#8C56C5"/>
<path d="M219.768 201.319C219.744 202.857 227.318 204.3 236.708 204.466C246.098 204.631 253.719 203.472 253.719 201.934C253.719 200.397 246.146 199.048 236.779 198.859C227.412 198.693 219.791 199.758 219.768 201.296V201.319Z" fill="#8C56C5"/>
<path d="M390.304 185.917C390.375 188.165 395.33 189.845 401.37 189.679C407.41 189.513 412.27 187.55 412.2 185.302C412.129 183.055 407.174 181.399 401.134 181.564C395.094 181.73 390.257 183.67 390.304 185.894V185.917Z" fill="#8C56C5"/>
<path d="M132.895 92.868C132.871 93.5068 136.387 94.1929 140.728 94.4058C145.069 94.6187 148.656 94.2402 148.679 93.6014C148.703 92.9626 145.187 92.3002 140.846 92.0873C136.481 91.8744 132.918 92.2292 132.895 92.868Z" fill="#9274C6"/>
<path d="M171.093 121.898C171.046 123.105 173.854 124.169 177.369 124.288C180.861 124.406 183.74 123.531 183.787 122.348C183.834 121.141 181.027 120.077 177.511 119.958C174.019 119.84 171.141 120.692 171.093 121.898Z" fill="#9274C6"/>
<path d="M136.953 125.825C136.882 127.268 140.87 128.617 145.848 128.83C150.826 129.043 154.908 128.049 154.955 126.606C155.002 125.163 151.039 123.838 146.06 123.625C141.082 123.412 137 124.382 136.953 125.825Z" fill="#9274C6"/>
<path d="M189.52 137.181C189.52 137.82 192.469 138.435 196.15 138.553C199.831 138.671 202.827 138.222 202.851 137.583C202.851 136.944 199.902 136.353 196.221 136.235C192.54 136.116 189.544 136.542 189.52 137.181Z" fill="#9274C6"/>
<path d="M325.35 167.558C325.35 168.528 329.031 169.261 333.585 169.238C338.115 169.19 341.772 168.386 341.772 167.416C341.772 166.446 338.067 165.713 333.537 165.76C329.007 165.807 325.35 166.612 325.35 167.558Z" fill="#9274C6"/>
</svg>
