<svg width="1728" height="361" viewBox="0 0 1728 361" fill="none" xmlns="http://www.w3.org/2000/svg">
<path d="M1813.28 219.8C1807.12 218.807 1801.36 216.086 1796.53 211.898C1782.25 238.159 1754.27 253.939 1724.52 252.473C1700.85 251.29 1679.36 239.484 1665.7 220.841C1699.42 224.319 1738.27 205.345 1692.27 186.205C1693.82 180.598 1690.9 174.755 1685.5 172.696C1747.1 179.889 1739.86 114.993 1678.72 107.304C1680.04 101.461 1677.87 95.4042 1673.18 91.6189C1668.53 87.9045 1662.09 87.1474 1656.71 89.7262C1672.35 79.0326 1677.64 58.4261 1669.1 41.5339C1662.11 27.5991 1647.56 19.7918 1632.67 20.9984C1651.87 6.06992 1680.38 13.1911 1690.12 49.4832C1691.2 47.4959 1693.12 46.1473 1695.38 45.7688C1697.6 45.4376 1699.84 46.1 1701.49 47.6615C1699.2 42.9534 1699.79 37.2517 1703.1 33.1588C1706.38 29.0186 1711.78 27.1733 1716.9 28.4508C1722.02 29.6811 1725.96 33.774 1727 38.9552C1733.72 28.1669 1742.17 22.6782 1750.05 21.7318C1757.31 33.9632 1759.86 48.5132 1757.03 62.59C1753.85 78.6777 1744.03 92.6125 1729.99 101.011C1733.18 101.437 1736.1 103.235 1737.97 105.861C1739.81 108.487 1740.49 111.8 1739.86 114.993C1742.38 115.514 1744.6 117.123 1745.92 119.323C1747.24 121.547 1747.57 124.22 1746.82 126.704C1759.77 122.801 1773.52 129.236 1778.93 141.68C1784.28 154.148 1779.45 168.603 1767.74 175.393C1781.5 170.496 1796.86 174.542 1806.39 185.614C1814.6 195.125 1817.1 208.16 1813.28 219.848V219.8Z" fill="#8362BE"/>
<path d="M1624.22 247.008C1624.22 247.008 1624.22 247.055 1624.17 247.055C1604.4 261.463 1579.35 268.277 1553.79 264.61C1558.21 273.505 1558.58 283.868 1554.93 293.047C1551.22 302.274 1543.79 309.466 1534.45 312.826C1542.52 319 1547.4 328.511 1547.64 338.661C1547.82 345.309 1546.03 351.744 1542.56 357.256C1542.23 357.303 1541.95 357.351 1541.62 357.445C1538.39 358.959 1534.9 359.788 1531.43 359.977C1525.79 360.403 1520.05 359.172 1515.01 356.404C1506.79 351.886 1501.16 343.794 1499.83 334.473C1493.16 336.176 1486.17 333.29 1482.56 327.423C1478.95 321.555 1479.57 314.008 1484.12 308.78C1470.22 320.869 1449.3 319.757 1436.79 306.248C1424.26 292.739 1424.74 271.754 1437.78 258.742C1436.23 253.608 1436.23 248.238 1437.64 243.199C1459.8 275.114 1521.26 256.802 1494.95 236.977C1522.41 231.228 1503.4 221.244 1503.4 221.244C1555.66 216.725 1527.68 160.323 1478.25 195.172C1474.26 192.948 1469.42 193.043 1465.53 195.409C1464.92 195.787 1464.3 196.213 1463.78 196.733C1461.99 188.879 1458.47 181.426 1453.54 175.086C1496.93 175.512 1510.59 146.033 1473.17 148.021C1474.92 146.554 1475.46 144.07 1474.45 142.035C1473.46 139.953 1471.22 138.841 1468.95 139.314C1472.51 136.83 1473.69 132.075 1471.76 128.148C1470.15 125.001 1466.92 123.156 1463.5 123.25C1473.32 121.263 1481.2 113.692 1483.55 103.803C1486.08 93.1095 1481.62 82.0137 1472.42 76.0281C1463.26 69.9952 1451.3 70.4684 1442.62 77.1164C1455.1 54.0494 1429.43 62.4718 1427.97 62.945C1428.68 61.904 1452.01 27.9305 1400.93 52.1567C1401.16 28.8532 1416.67 8.48323 1438.96 2.07179C1461.31 -4.38696 1485.21 4.60326 1497.73 24.1925C1502.01 18.8693 1508.45 15.7227 1515.29 15.6281C1522.11 15.5335 1528.62 18.4434 1533.08 23.6246C1537.63 21.0932 1541.86 19.1059 1545.61 17.5917C1569.18 37.1336 1519.61 81.8954 1519.61 81.8954C1519.61 81.8954 1563.35 89.3715 1538.81 104.442C1538.81 104.442 1566.94 105.767 1556.46 121.003C1576.99 118.708 1595.98 132.17 1600.68 152.303C1605.32 172.507 1594.19 192.972 1574.72 199.951C1618.18 193.066 1607.73 211.52 1596.31 221.22C1613.53 218.547 1622.92 223.018 1626.11 230.021V230.068C1628.37 235.013 1627.52 241.235 1624.17 246.96L1624.22 247.008Z" fill="#8362BE"/>
<path d="M1666.83 228.791C1714.02 245.683 1725.72 238.254 1733.13 217.529C1751.79 241.874 1759.41 234.871 1763.92 228.128C1763.92 228.128 1790.89 232.174 1792.02 200.188C1794.5 213.72 1816.75 219.8 1819.44 202.672C1816.96 239.626 1725.49 289.664 1666.83 228.814V228.791Z" fill="#7752B8"/>
<path d="M1866.89 287.677C1866.32 289.498 1865.52 291.226 1864.55 292.787C1859.24 301.659 1848.74 306.462 1838.31 304.261C1840.04 307.337 1839.85 311.122 1837.84 314.009C1835.84 316.942 1832.37 318.385 1828.85 317.841C1827.55 331.705 1818.64 343.771 1805.75 349.165C1792.89 354.536 1778.1 352.335 1767.32 343.487C1741.39 354.015 1716 358.297 1691.56 359.456C1675.63 360.19 1660.13 359.646 1645.13 358.628C1672.07 354.252 1696.84 340.388 1714.7 319.166C1716.14 322.36 1719.28 324.442 1722.82 324.442C1726.36 324.442 1729.47 322.36 1730.89 319.166C1745.12 328.393 1763.19 329.103 1778.08 321.059C1792.94 312.944 1802.26 297.353 1802.36 280.437C1812.38 283.205 1823.09 281.738 1832.01 276.392C1837.63 283.537 1847.33 285.95 1855.56 282.164C1860.73 279.775 1864.48 275.398 1866.11 270.217C1868.47 275.587 1868.87 281.786 1866.91 287.724L1866.89 287.677Z" fill="#8362BE"/>
<path d="M1624.22 247.007C1624.22 247.007 1624.22 247.055 1624.17 247.055C1604.4 261.463 1579.35 268.276 1553.79 264.609C1558.21 273.505 1558.58 283.867 1554.93 293.047C1551.22 302.274 1543.79 309.466 1534.45 312.825C1542.52 319 1547.4 328.511 1547.64 338.66C1547.82 345.308 1546.03 351.743 1542.56 357.256C1542.23 357.303 1541.95 357.35 1541.62 357.445C1538.39 358.959 1534.9 359.787 1531.43 359.976C1544.62 347.461 1537.54 325.979 1519.32 311.169C1547.16 312.399 1551.39 268.182 1545.09 251.668C1567.86 265.224 1584.32 253.797 1595.41 242.063C1613.44 246.298 1625.35 241.4 1626.11 230.115C1628.37 235.06 1627.52 241.282 1624.17 247.007H1624.22Z" fill="#7752B8"/>
<path d="M1866.11 270.169C1864.45 275.35 1860.7 279.727 1855.54 282.116C1847.33 285.878 1837.6 283.488 1832.01 276.32C1823.09 281.69 1812.38 283.157 1802.33 280.365C1802.24 297.305 1792.94 312.896 1778.05 320.987C1763.17 329.031 1745.09 328.321 1730.87 319.094C1729.45 322.288 1726.27 324.37 1722.8 324.37C1719.33 324.37 1716.12 322.288 1714.68 319.094C1696.84 340.316 1672.05 354.203 1645.1 358.58C1606.88 356.049 1572.06 350.726 1542.56 357.208C1546.03 351.696 1547.82 345.261 1547.64 338.613C1547.4 328.439 1542.52 318.929 1534.45 312.778C1543.79 309.442 1551.2 302.226 1554.93 292.999C1558.58 283.82 1558.21 273.457 1553.79 264.562C1579.32 268.229 1604.4 261.415 1624.17 247.007C1624.22 247.007 1624.22 246.96 1624.22 246.96C1633.85 239.91 1642.2 231.038 1648.74 220.699C1651.83 215.802 1654.52 210.573 1656.71 205.061C1659.09 210.715 1662.16 215.944 1665.68 220.746V220.793C1679.34 239.436 1700.83 251.242 1724.5 252.425C1754.25 253.892 1782.23 238.111 1796.5 211.851C1801.34 216.038 1807.12 218.759 1813.26 219.753C1817.43 220.51 1821.75 220.415 1826.02 219.516C1836.54 217.292 1845.41 210.289 1849.97 200.542C1861.6 195.077 1870.16 184.62 1873.21 172.104C1874.62 166.45 1874.81 160.654 1873.87 155.07C1875.05 156.821 1876.13 158.595 1877.1 160.488C1895.17 194.059 1884.98 235.911 1853.58 257.369C1859.41 259.996 1863.72 264.609 1866.06 270.121L1866.11 270.169Z" fill="#6742A4"/>
<path d="M1648.74 220.746C1642.2 231.108 1633.85 239.957 1624.22 247.007C1632.29 233.119 1625.83 216.653 1596.33 221.266C1607.75 211.566 1618.21 193.113 1574.75 199.997C1594.23 193.042 1605.35 172.554 1600.7 152.349C1596 132.192 1576.99 118.731 1556.48 121.049C1566.96 105.79 1538.84 104.488 1538.84 104.488C1563.4 89.4179 1519.63 81.9419 1519.63 81.9419C1519.63 81.9419 1569.2 37.1801 1545.63 17.6382C1584.87 1.95264 1583.43 37.2747 1548.77 69.8997C1550.94 69.3319 1589.47 59.0168 1570.55 87.3596C1574.44 85.6562 1578.99 86.9338 1581.54 90.3643C1584.02 93.7947 1583.83 98.5501 1581.02 101.768C1587.27 98.5264 1594.92 100.112 1599.28 105.624C1603.65 111.136 1603.55 118.944 1599 124.314C1609.99 120.127 1622.33 121.357 1632.29 127.603C1627.03 130.323 1623.47 135.457 1622.66 141.348C1621.91 147.239 1624.03 153.106 1628.4 157.128C1627.17 159.707 1627.41 162.783 1629.06 165.125C1630.66 167.514 1633.42 168.839 1636.28 168.603C1626.75 176.126 1622.76 188.76 1626.32 200.423C1629.51 210.928 1638.19 218.688 1648.71 220.77L1648.74 220.746Z" fill="#7752B8"/>
<path d="M1453.59 175.086C1447.95 167.894 1440.45 162.05 1431.53 158.383C1429.6 162.098 1425.37 164.085 1421.29 163.139C1417.21 162.145 1414.26 158.572 1414.17 154.338C1393.24 161.128 1370.66 150.245 1362.75 129.662C1354.87 109.055 1364.45 85.8463 1384.48 76.8088C1382.27 65.4527 1389.65 54.4516 1400.95 52.1804C1452.03 27.9305 1428.7 61.9277 1427.99 62.9686C1429.45 62.4955 1455.12 54.073 1442.64 77.14C1451.33 70.492 1463.29 70.0425 1472.44 76.0518C1481.64 82.0373 1486.1 93.1332 1483.58 103.827C1481.24 113.716 1473.34 121.287 1463.52 123.274C1466.94 123.179 1470.2 125.025 1471.78 128.171C1473.72 132.075 1472.54 136.83 1468.97 139.338C1471.24 138.865 1473.48 140.001 1474.47 142.059C1475.51 144.093 1474.94 146.578 1473.2 148.044C1510.62 146.057 1496.96 175.536 1453.57 175.11L1453.59 175.086Z" fill="#8A6AC1"/>
<path d="M1503.44 221.266C1503.44 221.266 1522.46 231.25 1495 236.999C1521.28 256.825 1459.84 275.137 1437.69 243.222C1438.49 240.075 1439.91 237.047 1441.82 234.279C1446.8 227.134 1454.77 222.71 1463.45 222.284C1465.67 213.672 1465.67 204.966 1463.83 196.78C1464.35 196.259 1464.96 195.834 1465.58 195.455C1469.47 193.113 1474.31 193.018 1478.29 195.219C1527.72 160.393 1555.71 216.771 1503.44 221.29V221.266Z" fill="#8A6AC1"/>
<path d="M1391.99 111.587C1391.99 118.684 1387.67 124.433 1382.31 124.433C1376.96 124.433 1372.64 118.684 1372.64 111.587C1372.64 104.489 1376.96 98.7402 1382.31 98.7402C1387.67 98.7402 1391.99 104.489 1391.99 111.587Z" fill="#9274C6"/>
<path d="M1381.65 98.0778C1381.65 104.182 1384.98 109.126 1389.06 109.126C1393.14 109.126 1396.47 104.182 1396.47 98.0778C1396.47 91.9739 1393.14 87.0293 1389.06 87.0293C1384.98 87.0293 1381.65 91.9739 1381.65 98.0778Z" fill="#9274C6"/>
<path d="M1522.79 194.746C1522.79 196.497 1516.85 197.893 1509.53 197.893C1502.22 197.893 1496.27 196.473 1496.27 194.746C1496.27 193.019 1502.22 191.6 1509.53 191.6C1516.85 191.6 1522.79 193.019 1522.79 194.746Z" fill="#9274C6"/>
<path d="M1463.45 230.353C1463.45 231.607 1460.65 232.601 1457.15 232.601C1453.66 232.601 1450.85 231.583 1450.85 230.353C1450.85 229.123 1453.66 228.105 1457.15 228.105C1460.65 228.105 1463.45 229.123 1463.45 230.353Z" fill="#9274C6"/>
<path d="M1467.94 82.9828C1467.94 84.9701 1464.92 86.5789 1461.19 86.5789C1457.46 86.5789 1454.44 84.9701 1454.44 82.9828C1454.44 80.9955 1457.46 79.3867 1461.19 79.3867C1464.92 79.3867 1467.94 80.9955 1467.94 82.9828Z" fill="#9274C6"/>
<path d="M1428.84 51.4222C1428.84 53.4096 1425.82 55.0183 1422.09 55.0183C1418.36 55.0183 1415.34 53.4096 1415.34 51.4222C1415.34 49.4349 1418.36 47.8262 1422.09 47.8262C1425.82 47.8262 1428.84 49.4349 1428.84 51.4222Z" fill="#9274C6"/>
<path d="M1720.56 42.1971C1720.56 45.32 1718.55 47.8278 1716.07 47.8278C1713.6 47.8278 1711.57 45.2964 1711.57 42.1971C1711.57 39.0979 1713.57 36.5664 1716.07 36.5664C1718.57 36.5664 1720.56 39.0979 1720.56 42.1971Z" fill="#8A6AC1"/>
<path d="M1479.19 18.0649C1479.19 23.2935 1472.25 27.5283 1463.69 27.5283C1455.12 27.5283 1448.19 23.2935 1448.19 18.0649C1448.19 12.8364 1455.12 8.60156 1463.69 8.60156C1472.25 8.60156 1479.19 12.8364 1479.19 18.0649Z" fill="#8A6AC1"/>
<path d="M1431.98 25.9669C1431.98 27.5756 1429.57 28.9005 1426.58 28.9005C1423.58 28.9005 1421.17 27.5993 1421.17 25.9669C1421.17 24.3344 1423.58 23.0332 1426.58 23.0332C1429.57 23.0332 1431.98 24.3344 1431.98 25.9669Z" fill="#8A6AC1"/>
<path d="M1442.55 279.041C1446.15 279.041 1449.06 276.615 1449.06 273.623C1449.06 270.631 1446.15 268.205 1442.55 268.205C1438.95 268.205 1436.04 270.631 1436.04 273.623C1436.04 276.615 1438.95 279.041 1442.55 279.041Z" fill="#8A6AC1"/>
<path d="M1519.18 30.226C1524.15 30.226 1528.17 28.4147 1528.17 26.1804C1528.17 23.946 1524.15 22.1348 1519.18 22.1348C1514.22 22.1348 1510.19 23.946 1510.19 26.1804C1510.19 28.4147 1514.22 30.226 1519.18 30.226Z" fill="#8A6AC1"/>
<path d="M1685.5 172.697C1690.9 174.779 1693.8 180.599 1692.27 186.206C1723.29 199.123 1715.72 211.97 1697.15 217.885C1659.05 230.045 1631.23 225.905 1624.22 200.33C1620.99 188.548 1626.77 176.151 1636.3 168.604C1633.45 168.841 1630.66 167.516 1629.08 165.126C1627.43 162.784 1627.19 159.709 1628.42 157.13C1624.06 153.131 1621.93 147.241 1622.69 141.35C1623.49 135.459 1627.05 130.325 1632.31 127.604C1603.11 74.3252 1613.11 36.2351 1632.69 21.0227C1647.58 19.7925 1662.14 27.6234 1669.12 41.5582C1677.66 58.4504 1672.35 79.0805 1656.73 89.7505C1662.14 87.1717 1668.55 87.9051 1673.2 91.6432C1677.9 95.4048 1680.04 101.485 1678.75 107.329C1739.88 114.994 1747.1 179.913 1685.52 172.721L1685.5 172.697Z" fill="#8A6AC1"/>
<path d="M1646.61 60.8869C1653.19 60.8869 1658.53 56.2475 1658.53 50.5245C1658.53 44.8015 1653.19 40.1621 1646.61 40.1621C1640.03 40.1621 1634.7 44.8015 1634.7 50.5245C1634.7 56.2475 1640.03 60.8869 1646.61 60.8869Z" fill="#9274C6"/>
<path d="M1651.78 66.7548C1651.78 59.539 1647.15 53.6953 1641.45 53.6953C1635.74 53.6953 1631.11 59.539 1631.11 66.7548C1631.11 73.9706 1635.74 79.8142 1641.45 79.8142C1647.15 79.8142 1651.78 73.9706 1651.78 66.7548Z" fill="#9274C6"/>
<path d="M1708.22 126.681C1707.41 128.999 1701.4 128.999 1694.77 126.681C1688.16 124.362 1683.44 120.601 1684.27 118.258C1685.07 115.94 1691.09 115.94 1697.72 118.258C1704.32 120.577 1709.04 124.339 1708.22 126.681Z" fill="#9274C6"/>
<path d="M1634.7 67.2035C1638.18 67.2035 1641 63.1679 1641 58.1896C1641 53.2114 1638.18 49.1758 1634.7 49.1758C1631.22 49.1758 1628.4 53.2114 1628.4 58.1896C1628.4 63.1679 1631.22 67.2035 1634.7 67.2035Z" fill="#9274C6"/>
<path d="M1642.34 139.764C1642.34 143.502 1639.94 146.531 1636.94 146.531C1633.94 146.531 1631.54 143.502 1631.54 139.764C1631.54 136.026 1633.94 132.998 1636.94 132.998C1639.94 132.998 1642.34 136.026 1642.34 139.764Z" fill="#9274C6"/>
<path d="M1552.47 321.532C1581.92 332.912 1619.57 315.618 1616.7 278.143C1634.86 292.03 1661.08 285.311 1664.1 267.804C1671.1 276.96 1683.68 278.545 1686.46 274.097C1698.12 299.577 1750.38 292.929 1757.67 265.556C1764.94 238.207 1815.57 234.895 1817.46 254.318C1819.32 273.742 1800.21 274.712 1794.64 260.635C1800.77 280.13 1781.33 297.803 1766.73 285.335C1766.26 310.129 1702.08 315.405 1667.99 288.15C1649.75 300.878 1628.92 297.755 1622.31 290.871C1619.72 320.349 1586.75 339.323 1552.5 321.532H1552.47Z" fill="#FFB3BF"/>
<path d="M1611.62 328.913C1629.01 337.028 1646.68 325.317 1647.89 312.376C1661.97 320.798 1677.26 313.89 1682.05 307.266C1676.36 325.885 1655.08 321.981 1652.39 320.798C1642.51 334.023 1626.01 338.826 1611.65 328.913H1611.62Z" fill="#FFB3BF"/>
<path d="M1631.47 257.537C1641.14 266.574 1655.22 262.67 1658.74 254.461C1666.17 262.978 1677.66 261.724 1682.22 258.412C1674.52 269.413 1661.41 262.292 1659.9 260.92C1650.6 267.473 1638.78 267.095 1631.47 257.513V257.537Z" fill="#FFB3BF"/>
<path d="M1566.75 303.315C1583.05 306.083 1594.54 292.313 1598.55 280.484C1602.56 268.655 1624.39 275.256 1619.17 290.586C1615.78 300.547 1600.46 294.135 1600.46 294.135C1600.46 294.135 1581.75 310.649 1566.75 303.315Z" fill="#FFB3BF"/>
<path d="M1522.04 253.797C1551.69 259.215 1557.99 235.769 1557.69 225.549C1559.48 263.118 1544.8 261.297 1522.04 253.797Z" fill="#7752B8"/>
<path d="M1497.17 315.097C1514.25 318.102 1523.55 310.578 1521.73 294.656C1533.13 312.684 1528.03 321.106 1497.17 315.097Z" fill="#7752B8"/>
<path d="M1663.77 177.168C1682.64 178.374 1691.32 164.842 1689.25 147.713C1694.93 179.557 1691.65 178.351 1663.77 177.168Z" fill="#8362BE"/>
<path d="M1459.7 105.365C1471.1 116.792 1460.9 129.994 1449.2 131.508C1462.98 131.815 1485.16 122.186 1459.7 105.365Z" fill="#8362BE"/>
<path d="M1413.27 72.3135C1435.14 67.5108 1437.83 93.6534 1427.94 97.2495C1447.43 104.773 1437.52 131.814 1410.56 128.502C1428.84 118.282 1437.52 107.47 1419.54 99.3551C1430.94 86.1301 1429.12 70.7994 1413.25 72.3135H1413.27Z" fill="#8362BE"/>
<path d="M1507.95 58.4961C1535.82 69.308 1524.73 90.3403 1516.94 92.4459C1521.14 81.634 1519.63 64.8129 1507.95 58.4961Z" fill="#7752B8"/>
<path d="M1556.79 145.016C1583.45 157.342 1573.28 177.167 1565.47 178.374C1585.86 183.484 1582.86 209.627 1560.99 218.641C1572.98 207.214 1579.87 191.292 1557.4 177.783C1571.18 169.36 1572.69 156.159 1556.81 145.039L1556.79 145.016Z" fill="#7752B8"/>
<path d="M1720.77 85.4668C1732.45 97.6272 1727.28 107.54 1720.53 109.575C1735.14 110.923 1742.78 95.3797 1720.77 85.4668Z" fill="#7752B8"/>
<path d="M1655.84 349.567C1655.84 351.673 1647.58 353.4 1637.41 353.4C1627.24 353.4 1618.98 351.696 1618.98 349.567C1618.98 347.438 1627.24 345.734 1637.41 345.734C1647.58 345.734 1655.84 347.438 1655.84 349.567Z" fill="#8C56C5"/>
<path d="M1574.93 346.633C1574.93 348.123 1570.31 349.33 1564.6 349.33C1558.89 349.33 1554.27 348.123 1554.27 346.633C1554.27 345.142 1558.89 343.936 1564.6 343.936C1570.31 343.936 1574.93 345.142 1574.93 346.633Z" fill="#8C56C5"/>
<path d="M1677.54 215.495C1677.54 217.411 1670.96 218.949 1662.87 218.949C1654.78 218.949 1648.19 217.411 1648.19 215.495C1648.19 213.579 1654.78 212.041 1662.87 212.041C1670.96 212.041 1677.54 213.579 1677.54 215.495Z" fill="#8362BE"/>
<path d="M1484.88 254.839C1484.88 256.093 1480.39 257.087 1474.85 257.087C1469.3 257.087 1464.82 256.07 1464.82 254.839C1464.82 253.609 1469.3 252.592 1474.85 252.592C1480.39 252.592 1484.88 253.609 1484.88 254.839Z" fill="#8362BE"/>
<path d="M1864.55 292.787C1859.24 301.659 1848.74 306.462 1838.31 304.261C1840.04 307.337 1839.85 311.122 1837.84 314.009C1835.84 316.942 1832.37 318.386 1828.85 317.841C1827.55 331.705 1818.64 343.771 1805.75 349.165C1792.89 354.536 1778.1 352.335 1767.32 343.487C1741.39 354.015 1716 358.297 1691.56 359.457C1741.18 354.346 1762.91 339.087 1767.41 332.084C1785.7 348.408 1816.58 349.615 1820.66 319.048C1822.29 302.321 1834.07 315.783 1830.41 303.552C1827.48 293.804 1852.45 302.156 1864.55 292.787Z" fill="#FFB3BF"/>
<path d="M139.314 120.417C136.695 115.496 131.222 112.822 125.724 113.816C120.227 114.786 116.004 119.186 115.225 124.723C114.871 121.292 112.842 118.264 109.822 116.584C106.826 114.904 103.169 114.762 100.054 116.253C100.668 115.188 100.786 113.863 100.314 112.704C99.8419 111.545 98.898 110.669 97.6947 110.315C97.6239 108.114 96.4444 106.103 94.5568 104.968C92.6693 103.808 90.3334 103.738 88.3751 104.708C100.856 97.1605 108.926 63.116 57.6796 84.2903C82.3588 61.8621 124.663 74.1645 107.038 109.558C110.931 107.547 115.697 108.966 117.915 112.728C120.982 108.398 126.55 106.648 131.552 108.446C136.53 110.244 139.716 115.141 139.362 120.44L139.314 120.417Z" fill="#724BB4"/>
<path d="M188.578 143.697C193.628 148.051 168.76 145.874 153.966 143.816C127.895 147.223 118.41 146.395 131.458 142.869C119.661 138.658 69.5708 147.507 74.5963 143.13C61.1478 146.395 51.6394 144.62 62.9173 140.835C46.0713 138.516 33.9912 145.874 24.766 142.041C0.605873 149.92 -7.69919 143.011 7.94356 132.531C11.7894 132.129 16.2486 132.27 21.2269 133.193C18.4193 127.373 19.8585 120.347 24.7896 116.135C29.7208 111.924 36.8225 111.546 42.1311 115.236C44.113 101.373 50.0351 91.1521 57.6559 84.2438C108.902 63.0695 100.856 97.114 88.3516 104.661C90.3099 103.691 92.6457 103.762 94.5332 104.921C96.4207 106.057 97.6239 108.068 97.6711 110.268C98.8508 110.623 99.8182 111.498 100.29 112.658C100.762 113.817 100.644 115.142 100.03 116.206C103.145 114.716 106.802 114.834 109.798 116.538C112.818 118.217 114.848 121.246 115.201 124.676C115.98 119.164 120.227 114.763 125.701 113.77C131.198 112.8 136.672 115.449 139.291 120.37C143.868 117.673 149.531 117.65 154.131 120.276C158.756 122.925 161.563 127.846 161.563 133.146C170.505 138.54 186.738 138.848 200.611 138.185C232.298 146.063 204.009 144.029 188.555 143.65L188.578 143.697Z" fill="#6A47AF"/>
<path d="M301.31 150.582C264.787 157.396 209.884 150.038 197.686 150.44C185.488 150.819 122.162 156.781 93.0468 152.688C63.9319 148.619 30.3342 152.286 8.13236 154.32C-10.0821 155.977 -14.1639 152.972 -26.5271 152.191C-28.0843 152.097 -28.5562 150.062 -27.2114 149.281C-23.2948 146.939 -20.4163 144.195 -7.13297 145.141C-11.5686 142.113 -5.74089 133.974 7.94357 132.555C-7.69918 143.035 0.605883 149.944 24.766 142.065C33.9912 145.874 46.0713 138.517 62.9173 140.859C51.6394 144.644 61.1478 146.419 74.5963 143.154C69.5708 147.53 119.661 138.682 131.458 142.893C118.434 146.419 127.895 147.247 153.966 143.84C168.76 145.898 193.628 148.051 188.578 143.721C204.032 144.1 232.322 146.158 200.635 138.256C215.971 137.499 228.381 135.63 224.96 138.185C218.448 143.083 225.361 146.75 248.979 146.75C266.745 146.75 290.528 148.264 301.192 149.021C302.136 149.092 302.207 150.417 301.287 150.606L301.31 150.582Z" fill="#5A399A"/>
<path d="M107.486 87.5555C107.486 90.1579 106.212 92.2398 104.631 92.2398C103.05 92.2398 101.776 90.1342 101.776 87.5555C101.776 84.9767 103.05 82.8711 104.631 82.8711C106.212 82.8711 107.486 84.9767 107.486 87.5555Z" fill="#8362BE"/>
<path d="M115.626 112.255C115.626 113.036 114.116 113.675 112.276 113.675C110.435 113.675 108.925 113.036 108.925 112.255C108.925 111.475 110.435 110.836 112.276 110.836C114.116 110.836 115.626 111.475 115.626 112.255Z" fill="#8362BE"/>
<path d="M131.717 110.22C131.717 111.001 130.396 111.64 128.768 111.64C127.14 111.64 125.819 111.001 125.819 110.22C125.819 109.44 127.14 108.801 128.768 108.801C130.396 108.801 131.717 109.44 131.717 110.22Z" fill="#8362BE"/>
<path d="M88.965 85.8988C94.0208 85.8988 98.1194 84.5324 98.1194 82.8469C98.1194 81.1613 94.0208 79.7949 88.965 79.7949C83.9091 79.7949 79.8107 81.1613 79.8107 82.8469C79.8107 84.5324 83.9091 85.8988 88.965 85.8988Z" fill="#724BB4"/>
<path d="M137.616 117.554C137.616 118.903 135.256 120.015 132.331 120.015C129.405 120.015 127.046 118.926 127.046 117.554C127.046 116.182 129.405 115.094 132.331 115.094C135.256 115.094 137.616 116.182 137.616 117.554Z" fill="#8362BE"/>
<path d="M151.253 125.124C153.729 125.124 155.736 124.118 155.736 122.876C155.736 121.635 153.729 120.629 151.253 120.629C148.777 120.629 146.77 121.635 146.77 122.876C146.77 124.118 148.777 125.124 151.253 125.124Z" fill="#724BB4"/>
<path d="M42.1311 118.264C42.1311 119.896 38.9932 121.221 35.1002 121.221C31.2072 121.221 28.0691 119.896 28.0691 118.264C28.0691 116.632 31.2072 115.307 35.1002 115.307C38.9932 115.307 42.1311 116.632 42.1311 118.264Z" fill="#724BB4"/>
<path d="M15.352 135.932C18.5575 135.932 21.156 135.478 21.156 134.917C21.156 134.357 18.5575 133.902 15.352 133.902C12.1465 133.902 9.54785 134.357 9.54785 134.917C9.54785 135.478 12.1465 135.932 15.352 135.932Z" fill="#724BB4"/>
<path d="M91.3952 92.9492C91.3952 95.2678 83.7036 97.1368 74.1953 97.1368C64.6869 97.1368 56.9952 95.2678 56.9952 92.9492C56.9952 90.6307 64.6869 88.7617 74.1953 88.7617C83.7036 88.7617 91.3952 90.6307 91.3952 92.9492Z" fill="#724BB4"/>
<path d="M78.9847 98.4611C78.9847 100.33 72.9683 101.821 65.5362 101.821C58.1041 101.821 52.0878 100.306 52.0878 98.4611C52.0878 96.6157 58.1041 95.1016 65.5362 95.1016C72.9683 95.1016 78.9847 96.6157 78.9847 98.4611Z" fill="#724BB4"/>
<path d="M85.8034 120.441C85.8034 123.304 77.7342 125.646 67.7776 125.646C57.821 125.646 49.7518 123.328 49.7518 120.441C49.7518 117.555 57.821 115.236 67.7776 115.236C77.7342 115.236 85.8034 117.555 85.8034 120.441Z" fill="#724BB4"/>
<path d="M101.163 124.676C101.163 126.994 94.8634 128.863 87.0774 128.863C79.2914 128.863 72.9919 126.994 72.9919 124.676C72.9919 122.357 79.2914 120.488 87.0774 120.488C94.8634 120.488 101.163 122.357 101.163 124.676Z" fill="#724BB4"/>
<path d="M79.3858 118.572C79.3858 119.258 75.6109 119.802 70.9393 119.802C66.2677 119.802 62.4927 119.258 62.4927 118.572C62.4927 117.886 66.2677 117.342 70.9393 117.342C75.6109 117.342 79.3858 117.886 79.3858 118.572Z" fill="#8362BE"/>
<path d="M83.6562 91.6248C83.6562 92.3109 80.3296 92.855 76.2243 92.855C72.1189 92.855 68.7921 92.3109 68.7921 91.6248C68.7921 90.9387 72.1189 90.3945 76.2243 90.3945C80.3296 90.3945 83.6562 90.9387 83.6562 91.6248Z" fill="#8362BE"/>
<path d="M96.7038 123.064C96.7038 123.513 94.8398 123.891 92.5276 123.891C90.2154 123.891 88.3516 123.537 88.3516 123.064C88.3516 122.592 90.2154 122.238 92.5276 122.238C94.8398 122.238 96.7038 122.592 96.7038 123.064Z" fill="#8362BE"/>
<path d="M39.8896 118.38C39.8896 118.947 38.6156 119.395 37.0348 119.395C35.4541 119.395 34.1799 118.947 34.1799 118.38C34.1799 117.814 35.4541 117.365 37.0348 117.365C38.6156 117.365 39.8896 117.814 39.8896 118.38Z" fill="#8362BE"/>
<path d="M470.108 92.8769C458.641 99.0518 435.613 102.175 417.8 100.992C427.639 109.083 410.297 107.876 390.832 107.663C371.65 107.451 326.681 104.612 292.115 100.093C290.582 99.9035 290.653 97.6796 292.186 97.5376C295.206 97.2774 298.085 96.9225 300.892 96.5203C312.335 94.9589 322.245 92.7586 332.437 92.7586C315.072 83.9577 329.913 63.5405 364.761 74.3287C366.318 68.3668 371.816 64.3448 377.95 64.6761C384.084 65.0073 389.134 69.6207 390.03 75.7009C397.769 65.7643 410.108 60.7014 422.542 62.2865C434.976 63.8953 445.665 71.9629 450.619 83.5319C457.32 82.8458 463.832 84.5965 468.621 86.5364C469.211 86.7494 469.777 86.986 470.32 87.2226C472.821 88.3345 472.514 91.552 470.108 92.8532V92.8769Z" fill="#6A47AF"/>
<path d="M422.118 74.636C428.477 74.636 433.632 72.687 433.632 70.2828C433.632 67.8787 428.477 65.9297 422.118 65.9297C415.759 65.9297 410.604 67.8787 410.604 70.2828C410.604 72.687 415.759 74.636 422.118 74.636Z" fill="#724BB4"/>
<path d="M381.701 73.8796C383.682 73.8796 385.288 72.6932 385.288 71.2298C385.288 69.7664 383.682 68.5801 381.701 68.5801C379.721 68.5801 378.115 69.7664 378.115 71.2298C378.115 72.6932 379.721 73.8796 381.701 73.8796Z" fill="#724BB4"/>
<path d="M363.393 76.9083C363.393 77.9493 357.636 78.801 350.557 78.801C343.479 78.801 337.722 77.9493 337.722 76.9083C337.722 75.8673 343.479 75.0156 350.557 75.0156C357.636 75.0156 363.393 75.8673 363.393 76.9083Z" fill="#724BB4"/>
<path d="M335.434 96.3993C335.434 95.88 331.541 95.4551 326.751 95.4551C321.962 95.4551 318.069 95.88 318.069 96.3993C318.069 96.9186 321.962 97.3435 326.751 97.3435C331.541 97.3435 335.434 96.9186 335.434 96.3993Z" fill="#724BB4"/>
<path d="M458.924 88.2631C462.26 88.2631 464.964 87.6699 464.964 86.9381C464.964 86.2064 462.26 85.6133 458.924 85.6133C455.588 85.6133 452.884 86.2064 452.884 86.9381C452.884 87.6699 455.588 88.2631 458.924 88.2631Z" fill="#724BB4"/>
<path d="M470.108 92.8773C458.641 99.0522 435.613 102.175 417.8 100.992C427.639 109.083 410.297 107.877 390.832 107.664C371.65 107.451 326.681 104.612 292.115 100.093C290.582 99.9039 290.653 97.68 292.186 97.5381C295.206 97.2778 298.085 96.9229 300.892 96.5207C310.613 100.353 332.626 102.696 347.773 100.117C365.658 97.0885 380.262 98.3661 397.627 103.405C414.992 108.468 409.471 91.7891 421.032 96.0949C431.579 99.9985 463.997 94.2969 468.621 86.5605C469.211 86.7735 469.777 87.01 470.32 87.2466C472.821 88.3586 472.514 91.5761 470.108 92.8773Z" fill="#5A399A"/>
<path d="M425.067 87.2461C412.987 91.7885 415.889 85.9922 403.549 90.0141C391.21 94.0597 390.714 85.732 382.032 89.1388C386.562 87.8849 390.974 91.7885 398.524 96.0707C406.074 100.353 406.947 86.6073 413.388 90.7712C419.829 94.9351 425.091 87.2461 425.091 87.2461H425.067Z" fill="#5A399A"/>
<path d="M382.787 78.1612C387.576 75.2513 391.469 75.133 395.008 79.4151C389.605 77.1439 386.585 76.6471 382.787 78.1612Z" fill="#724BB4"/>
</svg>
