<svg width="1728" height="929" viewBox="0 0 1728 929" fill="none" xmlns="http://www.w3.org/2000/svg">
<path d="M1813.28 219.8C1807.12 218.807 1801.36 216.086 1796.53 211.898C1782.25 238.159 1754.27 253.939 1724.52 252.473C1700.85 251.29 1679.36 239.484 1665.7 220.841C1699.42 224.319 1738.27 205.345 1692.27 186.205C1693.82 180.598 1690.9 174.755 1685.5 172.696C1747.1 179.889 1739.86 114.993 1678.72 107.304C1680.04 101.461 1677.87 95.4042 1673.18 91.6189C1668.53 87.9045 1662.09 87.1474 1656.71 89.7262C1672.35 79.0326 1677.64 58.4261 1669.1 41.5339C1662.11 27.5991 1647.56 19.7918 1632.67 20.9984C1651.87 6.06992 1680.38 13.1911 1690.12 49.4832C1691.2 47.4959 1693.12 46.1473 1695.38 45.7688C1697.6 45.4376 1699.84 46.1 1701.49 47.6615C1699.2 42.9534 1699.79 37.2517 1703.1 33.1588C1706.38 29.0186 1711.78 27.1733 1716.9 28.4508C1722.02 29.6811 1725.96 33.774 1727 38.9552C1733.72 28.1669 1742.17 22.6782 1750.05 21.7318C1757.31 33.9632 1759.86 48.5132 1757.03 62.59C1753.85 78.6777 1744.03 92.6125 1729.99 101.011C1733.18 101.437 1736.1 103.235 1737.97 105.861C1739.81 108.487 1740.49 111.8 1739.86 114.993C1742.38 115.514 1744.6 117.123 1745.92 119.323C1747.24 121.547 1747.57 124.22 1746.82 126.704C1759.77 122.801 1773.52 129.236 1778.93 141.68C1784.28 154.148 1779.45 168.603 1767.74 175.393C1781.5 170.496 1796.86 174.542 1806.39 185.614C1814.6 195.125 1817.1 208.16 1813.28 219.848V219.8Z" fill="#8362BE"/>
<path d="M1624.22 247.008C1624.22 247.008 1624.22 247.055 1624.17 247.055C1604.4 261.463 1579.35 268.277 1553.79 264.61C1558.21 273.505 1558.58 283.868 1554.93 293.047C1551.22 302.274 1543.79 309.466 1534.45 312.826C1542.52 319 1547.4 328.511 1547.64 338.661C1547.82 345.309 1546.03 351.744 1542.56 357.256C1542.23 357.303 1541.95 357.351 1541.62 357.445C1538.39 358.959 1534.9 359.788 1531.43 359.977C1525.79 360.403 1520.05 359.172 1515.01 356.404C1506.79 351.886 1501.16 343.794 1499.83 334.473C1493.16 336.176 1486.17 333.29 1482.56 327.423C1478.95 321.555 1479.57 314.008 1484.12 308.78C1470.22 320.869 1449.3 319.757 1436.79 306.248C1424.26 292.739 1424.74 271.754 1437.78 258.742C1436.23 253.608 1436.23 248.238 1437.64 243.199C1459.8 275.114 1521.26 256.802 1494.95 236.977C1522.41 231.228 1503.4 221.244 1503.4 221.244C1555.66 216.725 1527.68 160.323 1478.25 195.172C1474.26 192.948 1469.42 193.043 1465.53 195.409C1464.92 195.787 1464.3 196.213 1463.78 196.733C1461.99 188.879 1458.47 181.426 1453.54 175.086C1496.93 175.512 1510.59 146.033 1473.17 148.021C1474.92 146.554 1475.46 144.07 1474.45 142.035C1473.46 139.953 1471.22 138.841 1468.95 139.314C1472.51 136.83 1473.69 132.075 1471.76 128.148C1470.15 125.001 1466.92 123.156 1463.5 123.25C1473.32 121.263 1481.2 113.692 1483.55 103.803C1486.08 93.1095 1481.62 82.0137 1472.42 76.0281C1463.26 69.9952 1451.3 70.4684 1442.62 77.1164C1455.1 54.0494 1429.43 62.4718 1427.97 62.945C1428.68 61.904 1452.01 27.9305 1400.93 52.1567C1401.16 28.8532 1416.67 8.48323 1438.96 2.07179C1461.31 -4.38696 1485.21 4.60326 1497.73 24.1925C1502.01 18.8693 1508.45 15.7227 1515.29 15.6281C1522.11 15.5335 1528.62 18.4434 1533.08 23.6246C1537.63 21.0932 1541.86 19.1059 1545.61 17.5917C1569.18 37.1336 1519.61 81.8954 1519.61 81.8954C1519.61 81.8954 1563.35 89.3715 1538.81 104.442C1538.81 104.442 1566.94 105.767 1556.46 121.003C1576.99 118.708 1595.98 132.17 1600.67 152.303C1605.32 172.507 1594.19 192.972 1574.72 199.951C1618.18 193.066 1607.73 211.52 1596.31 221.22C1613.53 218.547 1622.92 223.018 1626.11 230.021V230.068C1628.37 235.013 1627.52 241.235 1624.17 246.96L1624.22 247.008Z" fill="#8362BE"/>
<path d="M1666.83 228.791C1714.02 245.683 1725.72 238.254 1733.13 217.529C1751.79 241.874 1759.41 234.871 1763.92 228.128C1763.92 228.128 1790.89 232.174 1792.02 200.188C1794.5 213.72 1816.75 219.8 1819.44 202.672C1816.96 239.626 1725.49 289.664 1666.83 228.814V228.791Z" fill="#7752B8"/>
<path d="M1866.89 287.677C1866.32 289.498 1865.52 291.226 1864.55 292.787C1859.24 301.659 1848.74 306.462 1838.31 304.261C1840.04 307.337 1839.85 311.122 1837.84 314.009C1835.84 316.942 1832.37 318.385 1828.85 317.841C1827.55 331.705 1818.64 343.771 1805.75 349.165C1792.89 354.536 1778.1 352.335 1767.32 343.487C1741.39 354.015 1716 358.297 1691.56 359.456C1675.63 360.19 1660.13 359.646 1645.13 358.628C1672.07 354.252 1696.84 340.388 1714.7 319.166C1716.14 322.36 1719.28 324.442 1722.82 324.442C1726.36 324.442 1729.47 322.36 1730.89 319.166C1745.12 328.393 1763.19 329.103 1778.08 321.059C1792.94 312.944 1802.26 297.353 1802.36 280.437C1812.38 283.205 1823.09 281.738 1832.01 276.392C1837.63 283.537 1847.33 285.95 1855.56 282.164C1860.73 279.775 1864.48 275.398 1866.11 270.217C1868.47 275.587 1868.87 281.786 1866.91 287.724L1866.89 287.677Z" fill="#8362BE"/>
<path d="M1624.22 247.007C1624.22 247.007 1624.22 247.055 1624.17 247.055C1604.4 261.463 1579.35 268.276 1553.79 264.609C1558.21 273.505 1558.58 283.867 1554.93 293.047C1551.22 302.274 1543.79 309.466 1534.45 312.825C1542.52 319 1547.4 328.511 1547.64 338.66C1547.82 345.308 1546.03 351.743 1542.56 357.256C1542.23 357.303 1541.95 357.35 1541.62 357.445C1538.39 358.959 1534.9 359.787 1531.43 359.976C1544.62 347.461 1537.54 325.979 1519.32 311.169C1547.16 312.399 1551.39 268.182 1545.09 251.668C1567.86 265.224 1584.32 253.797 1595.41 242.063C1613.44 246.298 1625.35 241.4 1626.11 230.115C1628.37 235.06 1627.52 241.282 1624.17 247.007H1624.22Z" fill="#7752B8"/>
<path d="M1866.11 270.17C1864.45 275.351 1860.7 279.728 1855.54 282.117C1847.33 285.879 1837.6 283.489 1832.01 276.321C1823.09 281.691 1812.38 283.158 1802.33 280.366C1802.24 297.306 1792.94 312.897 1778.05 320.988C1763.17 329.032 1745.09 328.322 1730.87 319.095C1729.45 322.289 1726.27 324.371 1722.8 324.371C1719.33 324.371 1716.12 322.289 1714.68 319.095C1696.84 340.317 1672.05 354.204 1645.1 358.581C1606.88 356.05 1572.06 350.727 1542.56 357.209C1546.03 351.697 1547.82 345.262 1547.64 338.614C1547.4 328.44 1542.52 318.93 1534.45 312.779C1543.79 309.443 1551.2 302.227 1554.93 293C1558.58 283.821 1558.21 273.458 1553.79 264.563C1579.32 268.23 1604.4 261.416 1624.17 247.008C1624.22 247.008 1624.22 246.961 1624.22 246.961C1633.85 239.911 1642.2 231.039 1648.74 220.7C1651.83 215.803 1654.52 210.574 1656.71 205.062C1659.09 210.716 1662.16 215.944 1665.68 220.747V220.794C1679.34 239.437 1700.83 251.243 1724.5 252.426C1754.25 253.893 1782.23 238.112 1796.5 211.852C1801.34 216.039 1807.12 218.76 1813.26 219.754C1817.43 220.511 1821.75 220.416 1826.02 219.517C1836.54 217.293 1845.41 210.29 1849.97 200.543C1861.6 195.078 1870.16 184.621 1873.21 172.105C1874.62 166.451 1874.81 160.655 1873.87 155.071C1875.05 156.822 1876.13 158.596 1877.1 160.489C1895.17 194.06 1884.98 235.912 1853.58 257.37C1859.41 259.997 1863.72 264.61 1866.06 270.122L1866.11 270.17Z" fill="#6742A4"/>
<path d="M1648.74 220.747C1642.2 231.109 1633.85 239.958 1624.22 247.008C1632.29 233.12 1625.83 216.654 1596.33 221.267C1607.75 211.567 1618.21 193.114 1574.75 199.998C1594.23 193.043 1605.35 172.555 1600.7 152.35C1596 132.193 1576.99 118.732 1556.48 121.05C1566.96 105.791 1538.84 104.489 1538.84 104.489C1563.4 89.4189 1519.63 81.9428 1519.63 81.9428C1519.63 81.9428 1569.2 37.181 1545.63 17.6392C1584.87 1.95362 1583.43 37.2757 1548.77 69.9007C1550.94 69.3329 1589.47 59.0178 1570.55 87.3606C1574.44 85.6572 1578.99 86.9348 1581.54 90.3652C1584.02 93.7957 1583.83 98.551 1581.02 101.769C1587.27 98.5274 1594.92 100.113 1599.28 105.625C1603.65 111.137 1603.55 118.945 1599 124.315C1609.99 120.128 1622.33 121.358 1632.29 127.604C1627.03 130.324 1623.47 135.458 1622.66 141.349C1621.91 147.24 1624.03 153.107 1628.4 157.129C1627.17 159.708 1627.41 162.784 1629.06 165.126C1630.66 167.515 1633.42 168.84 1636.28 168.604C1626.75 176.127 1622.76 188.761 1626.32 200.424C1629.51 210.929 1638.19 218.689 1648.71 220.771L1648.74 220.747Z" fill="#7752B8"/>
<path d="M1453.59 175.086C1447.95 167.894 1440.45 162.05 1431.53 158.383C1429.6 162.098 1425.37 164.085 1421.29 163.139C1417.21 162.145 1414.26 158.572 1414.17 154.338C1393.24 161.128 1370.66 150.245 1362.75 129.662C1354.87 109.055 1364.45 85.8463 1384.48 76.8088C1382.27 65.4527 1389.65 54.4516 1400.95 52.1804C1452.03 27.9305 1428.7 61.9277 1427.99 62.9686C1429.45 62.4955 1455.12 54.073 1442.64 77.14C1451.33 70.492 1463.29 70.0425 1472.44 76.0518C1481.64 82.0373 1486.1 93.1332 1483.58 103.827C1481.24 113.716 1473.34 121.287 1463.52 123.274C1466.94 123.179 1470.2 125.025 1471.78 128.171C1473.72 132.075 1472.54 136.83 1468.97 139.338C1471.24 138.865 1473.48 140.001 1474.47 142.059C1475.51 144.093 1474.94 146.578 1473.2 148.044C1510.62 146.057 1496.96 175.536 1453.57 175.11L1453.59 175.086Z" fill="#8A6AC1"/>
<path d="M1503.44 221.267C1503.44 221.267 1522.46 231.251 1495 237C1521.28 256.826 1459.84 275.138 1437.69 243.222C1438.49 240.076 1439.91 237.048 1441.82 234.28C1446.8 227.135 1454.77 222.711 1463.45 222.285C1465.67 213.673 1465.67 204.967 1463.83 196.781C1464.35 196.26 1464.96 195.835 1465.58 195.456C1469.47 193.114 1474.31 193.019 1478.29 195.219C1527.72 160.394 1555.71 216.772 1503.44 221.291V221.267Z" fill="#8A6AC1"/>
<path d="M1391.99 111.587C1391.99 118.684 1387.67 124.433 1382.31 124.433C1376.96 124.433 1372.64 118.684 1372.64 111.587C1372.64 104.489 1376.96 98.7402 1382.31 98.7402C1387.67 98.7402 1391.99 104.489 1391.99 111.587Z" fill="#9274C6"/>
<path d="M1381.65 98.0778C1381.65 104.182 1384.98 109.126 1389.06 109.126C1393.14 109.126 1396.47 104.182 1396.47 98.0778C1396.47 91.9739 1393.14 87.0293 1389.06 87.0293C1384.98 87.0293 1381.65 91.9739 1381.65 98.0778Z" fill="#9274C6"/>
<path d="M1522.79 194.746C1522.79 196.497 1516.85 197.893 1509.53 197.893C1502.22 197.893 1496.27 196.473 1496.27 194.746C1496.27 193.019 1502.22 191.6 1509.53 191.6C1516.85 191.6 1522.79 193.019 1522.79 194.746Z" fill="#9274C6"/>
<path d="M1463.45 230.352C1463.45 231.606 1460.65 232.6 1457.15 232.6C1453.66 232.6 1450.85 231.582 1450.85 230.352C1450.85 229.122 1453.66 228.104 1457.15 228.104C1460.65 228.104 1463.45 229.122 1463.45 230.352Z" fill="#9274C6"/>
<path d="M1467.94 82.9838C1467.94 84.9711 1464.92 86.5798 1461.19 86.5798C1457.46 86.5798 1454.44 84.9711 1454.44 82.9838C1454.44 80.9964 1457.46 79.3877 1461.19 79.3877C1464.92 79.3877 1467.94 80.9964 1467.94 82.9838Z" fill="#9274C6"/>
<path d="M1428.84 51.4232C1428.84 53.4105 1425.82 55.0193 1422.09 55.0193C1418.36 55.0193 1415.34 53.4105 1415.34 51.4232C1415.34 49.4359 1418.36 47.8271 1422.09 47.8271C1425.82 47.8271 1428.84 49.4359 1428.84 51.4232Z" fill="#9274C6"/>
<path d="M1720.56 42.1962C1720.56 45.3191 1718.55 47.8269 1716.07 47.8269C1713.6 47.8269 1711.57 45.2954 1711.57 42.1962C1711.57 39.0969 1713.57 36.5654 1716.07 36.5654C1718.57 36.5654 1720.56 39.0969 1720.56 42.1962Z" fill="#8A6AC1"/>
<path d="M1479.19 18.0649C1479.19 23.2935 1472.25 27.5283 1463.69 27.5283C1455.12 27.5283 1448.19 23.2935 1448.19 18.0649C1448.19 12.8364 1455.12 8.60156 1463.69 8.60156C1472.25 8.60156 1479.19 12.8364 1479.19 18.0649Z" fill="#8A6AC1"/>
<path d="M1431.98 25.9669C1431.98 27.5756 1429.57 28.9005 1426.58 28.9005C1423.58 28.9005 1421.17 27.5993 1421.17 25.9669C1421.17 24.3344 1423.58 23.0332 1426.58 23.0332C1429.57 23.0332 1431.98 24.3344 1431.98 25.9669Z" fill="#8A6AC1"/>
<path d="M1442.55 279.041C1446.15 279.041 1449.06 276.615 1449.06 273.623C1449.06 270.631 1446.15 268.205 1442.55 268.205C1438.95 268.205 1436.04 270.631 1436.04 273.623C1436.04 276.615 1438.95 279.041 1442.55 279.041Z" fill="#8A6AC1"/>
<path d="M1519.18 30.225C1524.15 30.225 1528.17 28.4137 1528.17 26.1794C1528.17 23.9451 1524.15 22.1338 1519.18 22.1338C1514.22 22.1338 1510.19 23.9451 1510.19 26.1794C1510.19 28.4137 1514.22 30.225 1519.18 30.225Z" fill="#8A6AC1"/>
<path d="M1685.5 172.696C1690.9 174.778 1693.8 180.598 1692.27 186.205C1723.29 199.122 1715.72 211.969 1697.15 217.884C1659.05 230.044 1631.23 225.904 1624.22 200.329C1620.99 188.547 1626.77 176.15 1636.3 168.603C1633.45 168.84 1630.66 167.515 1629.08 165.125C1627.43 162.783 1627.19 159.708 1628.42 157.129C1624.06 153.13 1621.93 147.24 1622.69 141.349C1623.49 135.458 1627.05 130.324 1632.31 127.603C1603.11 74.3242 1613.11 36.2341 1632.69 21.0217C1647.58 19.7915 1662.14 27.6224 1669.12 41.5573C1677.66 58.4494 1672.35 79.0795 1656.73 89.7495C1662.14 87.1707 1668.55 87.9041 1673.2 91.6422C1677.9 95.4039 1680.04 101.484 1678.75 107.328C1739.88 114.993 1747.1 179.912 1685.52 172.72L1685.5 172.696Z" fill="#8A6AC1"/>
<path d="M1646.61 60.8869C1653.19 60.8869 1658.53 56.2475 1658.53 50.5245C1658.53 44.8015 1653.19 40.1621 1646.61 40.1621C1640.03 40.1621 1634.7 44.8015 1634.7 50.5245C1634.7 56.2475 1640.03 60.8869 1646.61 60.8869Z" fill="#9274C6"/>
<path d="M1651.78 66.7538C1651.78 59.538 1647.15 53.6943 1641.45 53.6943C1635.74 53.6943 1631.11 59.538 1631.11 66.7538C1631.11 73.9696 1635.74 79.8133 1641.45 79.8133C1647.15 79.8133 1651.78 73.9696 1651.78 66.7538Z" fill="#9274C6"/>
<path d="M1708.22 126.681C1707.41 128.999 1701.4 128.999 1694.77 126.681C1688.16 124.362 1683.44 120.601 1684.27 118.258C1685.07 115.94 1691.09 115.94 1697.72 118.258C1704.32 120.577 1709.04 124.339 1708.22 126.681Z" fill="#9274C6"/>
<path d="M1634.7 67.2035C1638.18 67.2035 1641 63.1679 1641 58.1896C1641 53.2114 1638.18 49.1758 1634.7 49.1758C1631.22 49.1758 1628.4 53.2114 1628.4 58.1896C1628.4 63.1679 1631.22 67.2035 1634.7 67.2035Z" fill="#9274C6"/>
<path d="M1642.34 139.763C1642.34 143.501 1639.94 146.53 1636.94 146.53C1633.94 146.53 1631.54 143.501 1631.54 139.763C1631.54 136.025 1633.94 132.997 1636.94 132.997C1639.94 132.997 1642.34 136.025 1642.34 139.763Z" fill="#9274C6"/>
<path d="M1552.47 321.531C1581.92 332.911 1619.57 315.617 1616.7 278.142C1634.86 292.029 1661.08 285.31 1664.1 267.803C1671.1 276.959 1683.68 278.544 1686.46 274.096C1698.12 299.576 1750.38 292.928 1757.67 265.555C1764.94 238.206 1815.57 234.894 1817.46 254.318C1819.32 273.741 1800.21 274.711 1794.64 260.634C1800.77 280.129 1781.33 297.802 1766.73 285.334C1766.26 310.128 1702.08 315.404 1667.99 288.149C1649.75 300.877 1628.92 297.754 1622.31 290.87C1619.72 320.348 1586.75 339.322 1552.5 321.531H1552.47Z" fill="#FFB3BF"/>
<path d="M1611.62 328.913C1629.01 337.028 1646.68 325.317 1647.89 312.376C1661.97 320.798 1677.26 313.89 1682.05 307.266C1676.36 325.885 1655.08 321.981 1652.39 320.798C1642.51 334.023 1626.01 338.826 1611.65 328.913H1611.62Z" fill="#FFB3BF"/>
<path d="M1631.47 257.536C1641.14 266.573 1655.22 262.669 1658.74 254.46C1666.17 262.977 1677.66 261.723 1682.22 258.411C1674.52 269.412 1661.41 262.291 1659.9 260.919C1650.6 267.472 1638.78 267.094 1631.47 257.512V257.536Z" fill="#FFB3BF"/>
<path d="M1566.75 303.315C1583.05 306.083 1594.54 292.313 1598.55 280.484C1602.56 268.655 1624.39 275.256 1619.17 290.586C1615.78 300.547 1600.46 294.135 1600.46 294.135C1600.46 294.135 1581.75 310.649 1566.75 303.315Z" fill="#FFB3BF"/>
<path d="M1522.04 253.798C1551.69 259.216 1557.99 235.77 1557.69 225.55C1559.48 263.119 1544.8 261.298 1522.04 253.798Z" fill="#7752B8"/>
<path d="M1497.17 315.096C1514.25 318.101 1523.55 310.577 1521.73 294.655C1533.13 312.683 1528.03 321.105 1497.17 315.096Z" fill="#7752B8"/>
<path d="M1663.77 177.168C1682.64 178.374 1691.32 164.842 1689.25 147.713C1694.93 179.557 1691.65 178.351 1663.77 177.168Z" fill="#8362BE"/>
<path d="M1459.7 105.364C1471.1 116.791 1460.9 129.993 1449.2 131.507C1462.98 131.814 1485.16 122.185 1459.7 105.364Z" fill="#8362BE"/>
<path d="M1413.27 72.3135C1435.14 67.5108 1437.83 93.6534 1427.94 97.2495C1447.43 104.773 1437.52 131.814 1410.56 128.502C1428.84 118.282 1437.52 107.47 1419.54 99.3551C1430.94 86.1301 1429.12 70.7994 1413.25 72.3135H1413.27Z" fill="#8362BE"/>
<path d="M1507.95 58.4971C1535.82 69.309 1524.73 90.3413 1516.94 92.4469C1521.14 81.635 1519.63 64.8139 1507.95 58.4971Z" fill="#7752B8"/>
<path d="M1556.79 145.016C1583.45 157.342 1573.28 177.167 1565.47 178.374C1585.86 183.484 1582.86 209.627 1560.99 218.641C1572.98 207.214 1579.87 191.292 1557.4 177.783C1571.18 169.36 1572.69 156.159 1556.81 145.039L1556.79 145.016Z" fill="#7752B8"/>
<path d="M1720.77 85.4678C1732.45 97.6282 1727.28 107.541 1720.53 109.576C1735.14 110.924 1742.78 95.3807 1720.77 85.4678Z" fill="#7752B8"/>
<path d="M1655.84 349.567C1655.84 351.673 1647.58 353.4 1637.41 353.4C1627.24 353.4 1618.98 351.696 1618.98 349.567C1618.98 347.438 1627.24 345.734 1637.41 345.734C1647.58 345.734 1655.84 347.438 1655.84 349.567Z" fill="#8C56C5"/>
<path d="M1574.93 346.634C1574.93 348.124 1570.31 349.331 1564.6 349.331C1558.89 349.331 1554.27 348.124 1554.27 346.634C1554.27 345.143 1558.89 343.937 1564.6 343.937C1570.31 343.937 1574.93 345.143 1574.93 346.634Z" fill="#8C56C5"/>
<path d="M1677.54 215.494C1677.54 217.411 1670.96 218.948 1662.87 218.948C1654.78 218.948 1648.19 217.411 1648.19 215.494C1648.19 213.578 1654.78 212.04 1662.87 212.04C1670.96 212.04 1677.54 213.578 1677.54 215.494Z" fill="#8362BE"/>
<path d="M1484.88 254.838C1484.88 256.092 1480.39 257.086 1474.85 257.086C1469.3 257.086 1464.82 256.069 1464.82 254.838C1464.82 253.608 1469.3 252.591 1474.85 252.591C1480.39 252.591 1484.88 253.608 1484.88 254.838Z" fill="#8362BE"/>
<path d="M1864.55 292.787C1859.24 301.659 1848.74 306.462 1838.31 304.261C1840.04 307.337 1839.85 311.122 1837.84 314.009C1835.84 316.942 1832.37 318.386 1828.85 317.841C1827.55 331.705 1818.64 343.771 1805.75 349.165C1792.89 354.536 1778.1 352.335 1767.32 343.487C1741.39 354.015 1716 358.297 1691.56 359.457C1741.18 354.346 1762.91 339.087 1767.41 332.084C1785.7 348.408 1816.58 349.615 1820.66 319.048C1822.29 302.321 1834.07 315.783 1830.41 303.552C1827.48 293.804 1852.45 302.156 1864.55 292.787Z" fill="#FFB3BF"/>
<path d="M1711.11 777.728V777.775C1709.65 809.951 1670.65 836.732 1636.13 839.689C1640.78 841.061 1643.47 845.959 1642.15 850.643C1640.82 855.328 1635.94 858.072 1631.24 856.794C1642.52 891.288 1586.51 895.878 1559.09 854.641C1542.25 876.407 1516.93 889.916 1489.49 891.714C1462.1 893.536 1435.2 883.481 1415.67 864.128C1413.59 867.843 1409.96 870.445 1405.81 871.202C1401.63 871.983 1397.33 870.871 1394.08 868.174C1383.3 884.333 1362.56 890.484 1344.77 882.771C1320.61 908.417 1281.82 913.504 1251.9 894.979C1225.19 910.144 1193.81 914.71 1163.92 907.802C1178.36 907.991 1192.68 905.531 1206.22 900.492C1213.47 889.49 1226.96 884.451 1239.63 887.976C1249.24 873.734 1265.49 865.43 1282.64 865.997C1286.68 858.521 1294.54 853.932 1303.03 854.121C1311.5 854.31 1319.14 859.231 1322.83 866.92C1323.25 864.673 1324.59 862.685 1326.53 861.479C1328.49 860.248 1330.85 859.917 1333.04 860.532C1332.81 857.977 1334.24 855.564 1336.58 854.57C1338.94 853.577 1341.68 854.216 1343.33 856.179C1347.76 834.271 1361.47 815.416 1380.89 804.415C1398.37 794.525 1418.97 791.923 1438.25 797.009C1438.27 797.009 1438.27 797.033 1438.27 797.033C1444.17 800.156 1449.6 804.249 1454.36 809.217C1455.64 800.487 1462.93 793.887 1471.73 793.579C1474.44 778.248 1480.9 763.935 1488.81 752.981C1502.16 745.197 1519.46 746.404 1531.7 757.074C1530.45 754.59 1530.9 751.585 1532.79 749.551C1534.7 747.516 1537.65 746.901 1540.2 747.989C1539.02 743.589 1540.62 738.928 1544.23 736.184C1547.84 733.439 1552.75 733.132 1556.66 735.426C1553.97 723.928 1559.66 712.099 1570.33 707.084C1580.99 702.068 1593.71 705.215 1600.81 714.654C1607.84 709.899 1616.69 709.781 1623.67 713.708C1626.43 717.375 1627.99 721.87 1628.04 726.555C1650.99 720.498 1675.46 727.028 1692.4 743.731C1701.98 753.17 1708.4 765.118 1711.09 777.87L1711.11 777.728Z" fill="#8362BE"/>
<path d="M1704.62 801.813C1684.83 832.048 1637.03 836.307 1619.99 829.895C1619.99 829.895 1640.99 843.948 1624.26 853.719C1626.38 869.287 1582.24 900.114 1560.63 843.641C1547.84 869.902 1499.73 903.166 1472.34 880.879C1444.64 885.753 1421.19 873.545 1415.71 854.311C1409.93 870.801 1398.35 875.059 1392.26 876.905C1465.03 899.191 1507.97 918.425 1557.58 877.212C1621.83 910.784 1639.48 880.572 1644.95 858.901C1699.15 859.823 1705.24 801.505 1704.62 801.813Z" fill="#724BB4"/>
<path d="M1742.28 886.154C1739.4 890.011 1735.77 893.347 1731.45 895.878C1718.4 903.543 1702 902.384 1690.14 892.945C1688.72 898.173 1685.25 902.621 1680.56 905.294C1675.84 907.944 1670.25 908.63 1665.03 907.14C1665.03 928.574 1634.24 926.705 1605.39 919.134C1592.08 915.657 1579.17 910.949 1569.92 906.761C1608.48 914.71 1631.72 909.766 1625.04 898.433C1631.65 901.296 1639.22 900.846 1645.47 897.274C1651.75 893.678 1655.95 887.337 1656.84 880.169C1658.87 880.169 1660.74 878.915 1661.56 877.046C1662.44 875.201 1662.11 873 1660.81 871.415C1708.54 893.607 1744.99 871.037 1731.35 832.592C1740.58 838.01 1747.21 847.307 1749.03 858.285C1750.68 868.316 1748.08 878.324 1742.3 886.154H1742.28Z" fill="#8362BE"/>
<path d="M1660.78 871.416C1662.11 873.001 1662.41 875.201 1661.54 877.07C1660.71 878.939 1658.85 880.146 1656.82 880.17C1655.92 887.338 1651.72 893.679 1645.45 897.275C1639.2 900.871 1631.62 901.32 1625.02 898.458C1631.69 909.79 1608.45 914.735 1569.9 906.785C1565.8 904.916 1562.42 903.166 1560.01 901.675C1535.31 918.402 1506.81 927.297 1478.05 928.102C1452.99 924.056 1429.56 911.564 1412.06 891.928C1404.53 901.959 1391.29 905.721 1379.62 901.226C1339.51 919.182 1294.51 923.11 1251.9 912.369C1222.93 923.89 1191.5 927.889 1160.57 923.961C1123.32 927.061 1085.85 922.589 1050.36 910.831C1017.05 917.006 982.648 912.511 952 898.008C983.474 908.252 1017.12 909.932 1049.44 902.882C1086.7 913.433 1125.89 915.113 1163.92 907.755C1193.81 914.664 1225.19 910.098 1251.9 894.932C1281.84 913.457 1320.61 908.37 1344.77 882.725C1362.56 890.437 1383.3 884.31 1394.08 868.127C1397.33 870.825 1401.63 871.96 1405.81 871.156C1409.98 870.399 1413.61 867.773 1415.67 864.082C1435.2 883.458 1462.08 893.489 1489.49 891.668C1516.91 889.87 1542.25 876.361 1559.09 854.595C1586.49 895.831 1642.52 891.242 1631.24 856.748C1635.94 858.049 1640.8 855.281 1642.15 850.597C1643.49 845.912 1640.78 841.015 1636.13 839.643C1670.65 836.685 1709.65 809.904 1711.11 777.729C1713.21 787.476 1713.14 797.72 1710.71 807.751C1715.07 808.65 1718.78 811.584 1720.67 815.653C1722.55 819.699 1722.41 824.407 1720.31 828.358C1724.28 829.162 1727.96 830.605 1731.33 832.592H1731.35C1744.99 871.014 1708.54 893.608 1660.81 871.416H1660.78Z" fill="#6742A4"/>
<path d="M1438.22 796.891C1418.95 791.828 1398.35 794.407 1380.87 804.296C1361.45 815.297 1347.74 834.177 1343.3 856.061C1341.65 854.097 1338.92 853.459 1336.56 854.452C1334.22 855.422 1332.78 857.859 1333.02 860.414C1330.82 859.823 1328.46 860.154 1326.51 861.361C1324.57 862.591 1323.25 864.554 1322.8 866.802C1319.12 859.137 1311.48 854.192 1303.01 854.003C1294.51 853.813 1286.66 858.403 1282.62 865.879C1284.82 856.534 1292.15 849.271 1301.5 847.213C1310.84 845.131 1320.56 848.585 1326.48 856.108C1326.41 851.566 1328.42 847.236 1331.89 844.35C1335.38 841.44 1339.98 840.257 1344.44 841.156C1349.2 817.569 1366.66 798.571 1389.74 791.852C1406.18 787.049 1423.55 789.037 1438.22 796.868V796.891Z" fill="#8A6AC1"/>
<path d="M1623.67 713.543C1616.69 709.616 1607.84 709.734 1600.81 714.489C1593.71 705.049 1580.99 701.879 1570.33 706.918C1559.66 711.934 1553.97 723.763 1556.66 735.261C1552.75 732.966 1547.84 733.274 1544.23 736.018C1540.62 738.763 1539.04 743.423 1540.2 747.824C1537.65 746.736 1534.7 747.351 1532.79 749.385C1530.88 751.42 1530.45 754.425 1531.7 756.909C1519.43 746.239 1502.16 745.056 1488.81 752.816C1502.07 734.433 1519.39 725.514 1529.89 737.367C1527.08 732.706 1528.45 726.626 1533.02 723.669C1537.58 720.711 1543.66 721.894 1546.78 726.366C1542.98 712.123 1550.51 697.289 1564.21 691.943C1577.92 686.643 1593.42 692.51 1600.2 705.594C1606.73 703.701 1613.79 705.002 1619.26 709.071C1620.96 710.349 1622.44 711.839 1623.69 713.519L1623.67 713.543Z" fill="#6A47AF"/>
<path d="M1478.03 928.078C1452.95 928.811 1427.63 923.394 1404.44 911.73C1402.95 913.528 1400.73 914.545 1398.42 914.474C1396.08 914.427 1393.94 913.291 1392.55 911.446C1346.75 925.618 1297.84 925.949 1251.88 912.345C1294.49 923.086 1339.48 919.159 1379.59 901.202C1391.25 905.697 1404.48 901.912 1412.03 891.904C1429.54 911.541 1452.97 924.056 1478.03 928.078Z" fill="#FFB3BF"/>
<path d="M1266.03 883.482C1268.96 878.939 1273.7 875.935 1279.04 875.225C1284.37 874.515 1289.75 876.195 1293.73 879.815C1294.91 877.212 1297.93 876.029 1300.55 877.141C1303.17 878.253 1304.45 881.234 1303.43 883.908C1302.42 886.557 1299.47 887.93 1296.78 886.983C1291.19 892.519 1282.64 893.679 1275.78 889.893C1275.4 892.922 1272.99 895.287 1269.95 895.595C1266.91 895.879 1264.08 894.034 1263.16 891.124C1262.21 888.214 1263.42 885.043 1266.06 883.506L1266.03 883.482Z" fill="#8A6AC1"/>
<path d="M1366.21 837.585C1364.61 828.713 1367.82 819.651 1374.64 813.784C1381.48 807.917 1390.89 806.142 1399.39 809.1C1400.33 804.959 1403.94 801.979 1408.19 801.908C1412.41 801.837 1416.16 804.652 1417.25 808.768C1418.33 812.861 1416.49 817.191 1412.79 819.226C1410.88 823.981 1406.87 827.553 1401.96 828.949C1397.03 830.321 1391.77 829.328 1387.68 826.252C1387.43 828.074 1386.29 829.659 1384.69 830.511C1383.06 831.362 1381.13 831.41 1379.47 830.605C1381.81 833.35 1382.85 836.993 1382.33 840.565C1381.81 844.138 1379.76 847.332 1376.74 849.295C1375.09 852.821 1371.29 854.761 1367.49 854.074C1363.69 853.365 1360.81 850.194 1360.53 846.314C1360.25 842.434 1362.58 838.862 1366.24 837.585H1366.21Z" fill="#8A6AC1"/>
<path d="M1459.69 814.635C1460.68 812.316 1463.07 810.897 1465.59 811.11C1468.12 811.346 1470.19 813.168 1470.76 815.629C1471.33 818.089 1470.24 820.644 1468.09 821.945C1468.75 824.997 1467.13 828.12 1464.22 829.28C1461.32 830.463 1457.99 829.351 1456.37 826.677C1455.07 829.256 1452.33 830.817 1449.45 830.581C1446.58 830.344 1444.12 828.381 1443.27 825.613C1441.03 825.234 1439.14 823.649 1438.36 821.496C1437.59 819.343 1438.03 816.93 1439.52 815.203C1441.01 813.452 1443.32 812.648 1445.56 813.097C1450.04 810.235 1455.94 810.85 1459.72 814.635H1459.69Z" fill="#8A6AC1"/>
<path d="M1488.6 772.973C1489.19 768.951 1491.33 765.308 1494.59 762.871C1497.84 760.434 1501.93 759.393 1505.94 759.984C1508.41 760.268 1510.28 762.374 1510.28 764.858C1510.28 767.342 1508.41 769.471 1505.94 769.732C1508.46 771.577 1509.05 775.079 1507.28 777.634C1505.51 780.189 1502.04 780.898 1499.43 779.195C1500.91 788.28 1496.57 797.341 1488.57 801.86C1484.42 802.806 1480.29 800.251 1479.25 796.135C1478.21 791.994 1480.67 787.807 1484.75 786.671C1482.13 786.151 1480.03 784.187 1479.3 781.608C1478.57 779.029 1479.35 776.261 1481.28 774.44C1483.24 772.618 1486.02 772.027 1488.55 772.926L1488.6 772.973Z" fill="#8A6AC1"/>
<path d="M1573.01 757.169C1571.29 769.259 1561.41 778.509 1549.26 779.385C1545.46 779.503 1541.97 777.421 1540.24 774.038C1538.52 770.655 1538.9 766.586 1541.23 763.581C1543.57 760.576 1547.39 759.18 1551.1 760.008C1549.94 757.714 1550.03 754.969 1551.31 752.745C1552.61 750.521 1554.92 749.078 1557.49 748.936C1556.64 745.671 1557.77 742.217 1560.35 740.041C1562.94 737.888 1566.53 737.415 1569.59 738.858C1567.59 735.191 1567.94 730.696 1570.49 727.407C1573.04 724.119 1577.33 722.675 1581.34 723.74C1585.38 724.805 1588.37 728.164 1588.99 732.304C1591.14 730.601 1594.16 730.601 1596.3 732.304C1600.83 729.465 1606.61 729.56 1611.05 732.541C1615.48 735.522 1617.75 740.845 1616.83 746.121C1615.91 751.397 1611.99 755.655 1606.8 756.957C1603.43 762.658 1597.32 766.136 1590.71 766.136C1584.1 766.136 1577.99 762.658 1574.62 756.957L1573.01 757.193V757.169Z" fill="#8A6AC1"/>
<path d="M1396.75 843.949C1408.16 847.403 1420.53 843.949 1428.48 835.029C1437.59 843.807 1449.95 848.349 1462.55 847.497C1475.15 846.669 1486.83 840.542 1494.68 830.629C1502.35 831.173 1509.15 825.708 1510.3 818.09C1519.15 818.232 1527.83 815.795 1535.34 811.111C1539.98 816.055 1547.34 817.309 1553.36 814.21C1559.4 811.111 1562.66 804.368 1561.36 797.696C1564.5 798.169 1567.66 797.199 1570.02 795.07C1572.35 792.941 1573.63 789.865 1573.46 786.695C1596.54 780.733 1615.48 807.041 1626.67 780.946C1654.3 797.223 1659.09 780.047 1654.3 766.538C1649.51 753.029 1664.8 744.11 1680.32 768.833C1695.84 793.556 1649.95 825.85 1588.3 806.852C1589.74 810.306 1589.37 814.234 1587.31 817.356C1585.26 820.479 1581.82 822.372 1578.09 822.419C1562.02 835.573 1540.03 838.72 1520.94 830.605C1502.78 853.649 1471.66 861.976 1444.45 851.046C1438.22 851.519 1432.02 849.627 1427.09 845.77C1417.2 849.698 1406.06 849.011 1396.72 843.949H1396.75Z" fill="#724BB4"/>
<path d="M1585.57 695.113C1585.57 696.745 1581.13 698.094 1575.63 698.094C1570.14 698.094 1565.7 696.769 1565.7 695.113C1565.7 693.457 1570.14 692.132 1575.63 692.132C1581.13 692.132 1585.57 693.457 1585.57 695.113Z" fill="#724BB4"/>
<path d="M1612.06 736.018C1612.06 737.65 1607.63 738.999 1602.13 738.999C1596.63 738.999 1592.2 737.674 1592.2 736.018C1592.2 734.362 1596.63 733.037 1602.13 733.037C1607.63 733.037 1612.06 734.362 1612.06 736.018Z" fill="#9274C6"/>
<path d="M1398.63 814.186C1398.63 815.818 1394.2 817.167 1388.7 817.167C1383.2 817.167 1378.77 815.842 1378.77 814.186C1378.77 812.53 1383.2 811.205 1388.7 811.205C1394.2 811.205 1398.63 812.53 1398.63 814.186Z" fill="#9274C6"/>
<path d="M1544.25 726.366C1544.25 727.43 1542.32 728.306 1539.91 728.306C1537.51 728.306 1535.57 727.43 1535.57 726.366C1535.57 725.301 1537.51 724.426 1539.91 724.426C1542.32 724.426 1544.25 725.301 1544.25 726.366Z" fill="#724BB4"/>
<path d="M1413.02 806.213C1413.02 807.278 1411.09 808.153 1408.68 808.153C1406.28 808.153 1404.34 807.278 1404.34 806.213C1404.34 805.149 1406.28 804.273 1408.68 804.273C1411.09 804.273 1413.02 805.149 1413.02 806.213Z" fill="#9274C6"/>
<path d="M1507.4 764.385C1507.4 765.45 1505.47 766.325 1503.06 766.325C1500.65 766.325 1498.72 765.45 1498.72 764.385C1498.72 763.321 1500.65 762.445 1503.06 762.445C1505.47 762.445 1507.4 763.321 1507.4 764.385Z" fill="#9274C6"/>
<path d="M1453.51 815.984C1453.51 817.049 1451.58 817.924 1449.17 817.924C1446.76 817.924 1444.83 817.049 1444.83 815.984C1444.83 814.919 1446.76 814.044 1449.17 814.044C1451.58 814.044 1453.51 814.919 1453.51 815.984Z" fill="#9274C6"/>
<path d="M1583.82 727.809C1583.82 728.874 1581.89 729.749 1579.48 729.749C1577.07 729.749 1575.14 728.874 1575.14 727.809C1575.14 726.744 1577.07 725.869 1579.48 725.869C1581.89 725.869 1583.82 726.744 1583.82 727.809Z" fill="#9274C6"/>
<path d="M1525.76 736.563C1525.76 737.438 1523.4 738.172 1520.5 738.172C1517.59 738.172 1515.23 737.462 1515.23 736.563C1515.23 735.664 1517.59 734.954 1520.5 734.954C1523.4 734.954 1525.76 735.664 1525.76 736.563Z" fill="#724BB4"/>
<path d="M1338.04 848.065C1340.06 848.065 1341.7 847.196 1341.7 846.125C1341.7 845.053 1340.06 844.185 1338.04 844.185C1336.02 844.185 1334.39 845.053 1334.39 846.125C1334.39 847.196 1336.02 848.065 1338.04 848.065Z" fill="#9274C6"/>
<path d="M1313.62 850.241C1313.62 850.927 1311.64 851.495 1309.16 851.495C1306.69 851.495 1304.71 850.927 1304.71 850.241C1304.71 849.555 1306.69 848.987 1309.16 848.987C1311.64 848.987 1313.62 849.555 1313.62 850.241Z" fill="#9274C6"/>
<path d="M1305.98 864.768C1311.22 864.768 1315.46 863.338 1315.46 861.574C1315.46 859.81 1311.22 858.38 1305.98 858.38C1300.74 858.38 1296.49 859.81 1296.49 861.574C1296.49 863.338 1300.74 864.768 1305.98 864.768Z" fill="#8A6AC1"/>
<path d="M1240.08 890.769C1240.08 891.597 1236.14 892.259 1231.28 892.259C1226.42 892.259 1222.48 891.597 1222.48 890.769C1222.48 889.941 1226.42 889.278 1231.28 889.278C1236.14 889.278 1240.08 889.941 1240.08 890.769Z" fill="#8A6AC1"/>
<path d="M1588.56 709.64C1588.56 711.083 1585.19 712.266 1581.04 712.266C1576.88 712.266 1573.51 711.083 1573.51 709.64C1573.51 708.197 1576.88 707.014 1581.04 707.014C1585.19 707.014 1588.56 708.197 1588.56 709.64Z" fill="#8A6AC1"/>
<path d="M1620.75 714.584C1620.75 715.602 1618.39 716.406 1615.48 716.406C1612.58 716.406 1610.22 715.578 1610.22 714.584C1610.22 713.591 1612.58 712.763 1615.48 712.763C1618.39 712.763 1620.75 713.591 1620.75 714.584Z" fill="#8A6AC1"/>
<path d="M1556.12 738.502C1556.12 739.567 1554.07 740.442 1551.54 740.442C1549.02 740.442 1546.97 739.567 1546.97 738.502C1546.97 737.438 1549.02 736.562 1551.54 736.562C1554.07 736.562 1556.12 737.438 1556.12 738.502Z" fill="#8A6AC1"/>
<path d="M1518.21 752.367C1518.21 753.242 1515.75 753.975 1512.73 753.975C1509.71 753.975 1507.26 753.266 1507.26 752.367C1507.26 751.468 1509.71 750.758 1512.73 750.758C1515.75 750.758 1518.21 751.468 1518.21 752.367Z" fill="#8A6AC1"/>
<path d="M1665.72 733.251C1665.72 736.468 1657.84 739.095 1648.14 739.095C1638.44 739.095 1630.56 736.492 1630.56 733.251C1630.56 730.01 1638.44 727.407 1648.14 727.407C1657.84 727.407 1665.72 730.01 1665.72 733.251Z" fill="#8A6AC1"/>
<path d="M1677.23 769.353C1676.43 770.039 1673.38 767.815 1670.41 764.385C1667.44 760.954 1665.69 757.595 1666.49 756.908C1667.3 756.222 1670.34 758.446 1673.31 761.877C1676.29 765.307 1678.03 768.667 1677.23 769.353Z" fill="#8362BE"/>
<path d="M1553.57 831.102C1553.62 832.166 1549.99 833.184 1545.48 833.42C1540.95 833.633 1537.25 832.947 1537.2 831.906C1537.15 830.841 1540.79 829.824 1545.29 829.588C1549.82 829.375 1553.53 830.061 1553.57 831.102Z" fill="#6742A4"/>
<path d="M1641.13 807.869C1641.18 808.934 1635.44 810.069 1628.3 810.401C1621.17 810.756 1615.34 810.164 1615.3 809.099C1615.25 808.035 1620.98 806.899 1628.13 806.568C1635.26 806.213 1641.08 806.805 1641.13 807.869Z" fill="#6742A4"/>
<path d="M1477.01 852.489C1477.06 853.554 1473.43 854.571 1468.92 854.808C1464.39 855.021 1460.68 854.335 1460.64 853.294C1460.59 852.229 1464.22 851.212 1468.73 850.975C1473.26 850.762 1476.96 851.448 1477.01 852.489Z" fill="#6742A4"/>
<path d="M1362.72 883.552C1370.67 883.552 1377.11 881.296 1377.11 878.513C1377.11 875.73 1370.67 873.474 1362.72 873.474C1354.77 873.474 1348.33 875.73 1348.33 878.513C1348.33 881.296 1354.77 883.552 1362.72 883.552Z" fill="#8A6AC1"/>
<path d="M1304.02 901.77C1304.02 903.355 1297.84 904.633 1290.19 904.633C1282.55 904.633 1276.37 903.355 1276.37 901.77C1276.37 900.185 1282.55 898.907 1290.19 898.907C1297.84 898.907 1304.02 900.185 1304.02 901.77Z" fill="#8A6AC1"/>
<path d="M1707.67 824.406C1699.74 854.642 1671.12 857.978 1651.96 854.926C1645.26 873.238 1643.75 874.468 1634.9 879.956C1652.86 875.982 1655.9 862.544 1655.9 862.544C1655.9 862.544 1705.52 872.007 1707.67 824.383V824.406Z" fill="#FFB3BF"/>
<path d="M1498.51 899.333C1517.07 910.949 1553.1 897.132 1561.41 885.54C1569.71 873.924 1574.03 887.953 1566.31 893.04C1558.62 898.126 1555.84 895.003 1555.84 895.003C1555.84 895.003 1523.89 916.296 1498.51 899.333Z" fill="#FFB3BF"/>
<path d="M1567.78 886.77C1574.86 880.808 1586.96 884.712 1602.04 892.732C1617.11 900.752 1622.59 888.828 1622.59 888.828C1622.59 888.828 1625.09 903.26 1602.04 899.83C1578.98 906.005 1578.51 891.123 1578.51 891.123C1578.51 891.123 1568.46 900.729 1567.78 886.77Z" fill="#FFB3BF"/>
<path d="M1464.7 895.239C1440.94 900.421 1418.43 886.391 1410.81 877.235C1399.84 889.136 1379.76 887.314 1379.76 887.314C1379.76 887.314 1397.12 895.263 1410.81 885.492C1421.78 898.007 1447.64 900.752 1464.7 895.263V895.239Z" fill="#FFB3BF"/>
<path d="M1417.06 832.048C1427.11 836.401 1435.79 832.048 1438.74 827.458C1435.56 842.576 1420.24 838.672 1417.06 832.048Z" fill="#724BB4"/>
<path d="M1492.87 819.911C1505.89 820.147 1513.42 815.108 1513.18 799.304C1525.28 800.677 1533.97 797.932 1535.1 788.989C1535.55 800.203 1526.42 804.32 1518.44 803.634C1517.52 817.379 1511.6 824.926 1492.87 819.887V819.911Z" fill="#724BB4"/>
<path d="M1549.14 840.755C1556.29 845.889 1562.4 845.983 1568.32 837.111C1574.52 842.529 1580.4 844.327 1584.46 839.808C1580.42 846.22 1573.77 845.013 1569.59 841.559C1563.84 848.846 1557.66 850.762 1549.16 840.778L1549.14 840.755Z" fill="#724BB4"/>
<path d="M1457.17 863.372C1467.88 868.577 1476.94 868.742 1485.55 859.965C1494.85 865.43 1503.6 867.299 1509.52 862.851C1503.65 869.192 1493.76 867.89 1487.49 864.413C1479.09 871.605 1469.93 873.427 1457.15 863.372H1457.17Z" fill="#724BB4"/>
<path d="M1498.36 860.178C1506.22 863.348 1512.5 862.71 1517.57 855.115C1524.51 858.617 1530.71 859.35 1534.34 855.352C1530.92 860.817 1523.99 860.628 1519.34 858.427C1514.24 864.768 1508.11 866.992 1498.36 860.178Z" fill="#724BB4"/>
<path d="M1606.45 826.796C1613.6 831.93 1619.71 832.024 1625.63 823.152C1631.83 828.57 1637.71 830.368 1641.77 825.849C1637.73 832.261 1631.08 831.054 1626.9 827.6C1621.15 834.887 1614.97 836.803 1606.47 826.819L1606.45 826.796Z" fill="#724BB4"/>
<path d="M1560.27 782.862C1568.49 786.6 1575 786.908 1580.16 779.006C1576.32 793.319 1570.58 789.439 1560.27 782.862Z" fill="#724BB4"/>
<path d="M1526.06 807.964C1531.87 810.85 1536.68 811.631 1541.07 807.68C1537.18 815.416 1533.21 812.672 1526.06 807.964Z" fill="#724BB4"/>
<path d="M1594.46 773.02C1606.78 783.501 1610.84 780.425 1617.04 771.79C1624.38 782.176 1637.26 777.515 1639.08 771.601C1633.58 788.824 1618.86 780.733 1617.44 778.391C1610.51 787.05 1599.53 783.927 1594.49 773.044L1594.46 773.02Z" fill="#724BB4"/>
<path d="M1444.71 906.076C1458.75 907.897 1460.38 907.188 1466.35 904.585C1472.32 901.983 1480.34 913.741 1486.31 910.571C1492.28 907.401 1505.32 915.066 1489.28 916.746C1473.24 918.426 1476.59 905.153 1468.75 909.08C1460.92 913.008 1438.91 905.342 1444.69 906.099L1444.71 906.076Z" fill="#FFB3BF"/>
<path d="M1659.6 730.293C1659.6 731.926 1655.17 733.274 1649.67 733.274C1644.17 733.274 1639.74 731.95 1639.74 730.293C1639.74 728.637 1644.17 727.312 1649.67 727.312C1655.17 727.312 1659.6 728.637 1659.6 730.293Z" fill="#9274C6"/>
<path d="M1607.27 870.399C1607.27 871.227 1602.58 871.889 1596.77 871.889C1590.97 871.889 1586.27 871.227 1586.27 870.399C1586.27 869.571 1590.97 868.908 1596.77 868.908C1602.58 868.908 1607.27 869.571 1607.27 870.399Z" fill="#724BB4"/>
<path d="M1502.68 885.729C1502.68 886.557 1499.26 887.219 1495.04 887.219C1490.81 887.219 1487.39 886.557 1487.39 885.729C1487.39 884.901 1490.81 884.238 1495.04 884.238C1499.26 884.238 1502.68 884.901 1502.68 885.729Z" fill="#724BB4"/>
<path d="M1742.28 886.155C1739.4 890.012 1735.77 893.347 1731.45 895.879C1718.4 903.544 1702 902.385 1690.14 892.945C1688.72 898.174 1685.25 902.622 1680.56 905.295C1675.84 907.945 1670.25 908.631 1665.03 907.14C1665.03 928.575 1634.24 926.706 1605.39 919.135C1649.36 923.654 1660.45 917.834 1660.03 900.303C1668.62 907.33 1686.69 905.745 1688.51 886.487C1698.09 894.554 1726.07 898.576 1742.28 886.155Z" fill="#FFB3BF"/>
<path d="M139.314 120.417C136.695 115.496 131.222 112.822 125.724 113.816C120.227 114.786 116.004 119.186 115.225 124.723C114.871 121.292 112.842 118.264 109.822 116.584C106.826 114.904 103.168 114.762 100.054 116.253C100.668 115.188 100.786 113.863 100.314 112.704C99.8418 111.545 98.898 110.669 97.6947 110.315C97.6239 108.114 96.4443 106.103 94.5568 104.968C92.6693 103.808 90.3334 103.738 88.3751 104.708C100.856 97.1605 108.925 63.116 57.6795 84.2903C82.3587 61.8621 124.663 74.1645 107.038 109.558C110.931 107.547 115.697 108.966 117.915 112.728C120.982 108.398 126.55 106.648 131.552 108.446C136.53 110.244 139.715 115.141 139.362 120.44L139.314 120.417Z" fill="#724BB4"/>
<path d="M188.578 143.697C193.628 148.05 168.76 145.873 153.966 143.815C127.895 147.222 118.41 146.394 131.458 142.868C119.661 138.657 69.5709 147.506 74.5964 143.129C61.1478 146.394 51.6395 144.619 62.9174 140.834C46.0713 138.515 33.9913 145.873 24.7661 142.04C0.605911 149.919 -7.69915 143.01 7.9436 132.53C11.7894 132.128 16.2487 132.27 21.227 133.192C18.4193 127.372 19.8586 120.346 24.7897 116.134C29.7208 111.923 36.8225 111.545 42.1311 115.235C44.113 101.372 50.0351 91.1511 57.656 84.2429C108.902 63.0685 100.856 97.113 88.3516 104.66C90.3099 103.69 92.6457 103.761 94.5332 104.92C96.4207 106.056 97.6239 108.067 97.6711 110.267C98.8508 110.622 99.8183 111.497 100.29 112.657C100.762 113.816 100.644 115.141 100.031 116.205C103.145 114.715 106.802 114.833 109.798 116.537C112.818 118.216 114.848 121.245 115.202 124.675C115.98 119.163 120.227 114.762 125.701 113.769C131.198 112.799 136.672 115.448 139.291 120.369C143.868 117.672 149.531 117.649 154.131 120.275C158.756 122.924 161.563 127.845 161.563 133.145C170.506 138.539 186.738 138.847 200.611 138.184C232.298 146.062 204.009 144.028 188.555 143.649L188.578 143.697Z" fill="#6A47AF"/>
<path d="M301.31 150.581C264.787 157.395 209.884 150.037 197.686 150.439C185.488 150.818 122.162 156.78 93.0468 152.687C63.9319 148.618 30.3342 152.285 8.13236 154.319C-10.0821 155.976 -14.1639 152.971 -26.5271 152.19C-28.0843 152.096 -28.5562 150.061 -27.2114 149.28C-23.2948 146.938 -20.4163 144.194 -7.13297 145.14C-11.5686 142.112 -5.74089 133.973 7.94357 132.554C-7.69918 143.034 0.605883 149.943 24.766 142.064C33.9912 145.873 46.0713 138.516 62.9173 140.858C51.6394 144.643 61.1478 146.418 74.5963 143.153C69.5708 147.529 119.661 138.681 131.458 142.892C118.434 146.418 127.895 147.246 153.966 143.839C168.76 145.897 193.628 148.05 188.578 143.721C204.032 144.099 232.322 146.157 200.635 138.255C215.971 137.498 228.381 135.629 224.96 138.184C218.448 143.082 225.361 146.749 248.979 146.749C266.745 146.749 290.528 148.263 301.192 149.02C302.136 149.091 302.207 150.416 301.287 150.605L301.31 150.581Z" fill="#5A399A"/>
<path d="M107.486 87.5555C107.486 90.1579 106.212 92.2398 104.631 92.2398C103.05 92.2398 101.777 90.1342 101.777 87.5555C101.777 84.9767 103.05 82.8711 104.631 82.8711C106.212 82.8711 107.486 84.9767 107.486 87.5555Z" fill="#8362BE"/>
<path d="M115.626 112.254C115.626 113.035 114.116 113.674 112.276 113.674C110.435 113.674 108.925 113.035 108.925 112.254C108.925 111.474 110.435 110.835 112.276 110.835C114.116 110.835 115.626 111.474 115.626 112.254Z" fill="#8362BE"/>
<path d="M131.717 110.22C131.717 111.001 130.396 111.64 128.768 111.64C127.14 111.64 125.819 111.001 125.819 110.22C125.819 109.44 127.14 108.801 128.768 108.801C130.396 108.801 131.717 109.44 131.717 110.22Z" fill="#8362BE"/>
<path d="M88.9649 85.8998C94.0208 85.8998 98.1194 84.5334 98.1194 82.8479C98.1194 81.1623 94.0208 79.7959 88.9649 79.7959C83.9091 79.7959 79.8106 81.1623 79.8106 82.8479C79.8106 84.5334 83.9091 85.8998 88.9649 85.8998Z" fill="#724BB4"/>
<path d="M137.616 117.554C137.616 118.903 135.256 120.015 132.331 120.015C129.405 120.015 127.046 118.926 127.046 117.554C127.046 116.182 129.405 115.094 132.331 115.094C135.256 115.094 137.616 116.182 137.616 117.554Z" fill="#8362BE"/>
<path d="M151.253 125.125C153.729 125.125 155.736 124.119 155.736 122.877C155.736 121.636 153.729 120.63 151.253 120.63C148.777 120.63 146.77 121.636 146.77 122.877C146.77 124.119 148.777 125.125 151.253 125.125Z" fill="#724BB4"/>
<path d="M42.1311 118.264C42.1311 119.896 38.9931 121.221 35.1001 121.221C31.2071 121.221 28.0691 119.896 28.0691 118.264C28.0691 116.632 31.2071 115.307 35.1001 115.307C38.9931 115.307 42.1311 116.632 42.1311 118.264Z" fill="#724BB4"/>
<path d="M15.3521 135.932C18.5576 135.932 21.1561 135.478 21.1561 134.917C21.1561 134.357 18.5576 133.902 15.3521 133.902C12.1465 133.902 9.54791 134.357 9.54791 134.917C9.54791 135.478 12.1465 135.932 15.3521 135.932Z" fill="#724BB4"/>
<path d="M91.3952 92.9492C91.3952 95.2678 83.7036 97.1368 74.1953 97.1368C64.6869 97.1368 56.9952 95.2678 56.9952 92.9492C56.9952 90.6307 64.6869 88.7617 74.1953 88.7617C83.7036 88.7617 91.3952 90.6307 91.3952 92.9492Z" fill="#724BB4"/>
<path d="M78.9847 98.462C78.9847 100.331 72.9683 101.822 65.5362 101.822C58.1041 101.822 52.0878 100.307 52.0878 98.462C52.0878 96.6167 58.1041 95.1025 65.5362 95.1025C72.9683 95.1025 78.9847 96.6167 78.9847 98.462Z" fill="#724BB4"/>
<path d="M85.8034 120.44C85.8034 123.303 77.7343 125.645 67.7776 125.645C57.821 125.645 49.7519 123.327 49.7519 120.44C49.7519 117.554 57.821 115.235 67.7776 115.235C77.7343 115.235 85.8034 117.554 85.8034 120.44Z" fill="#724BB4"/>
<path d="M101.163 124.676C101.163 126.994 94.8634 128.863 87.0774 128.863C79.2914 128.863 72.9919 126.994 72.9919 124.676C72.9919 122.357 79.2914 120.488 87.0774 120.488C94.8634 120.488 101.163 122.357 101.163 124.676Z" fill="#724BB4"/>
<path d="M79.3858 118.572C79.3858 119.258 75.6109 119.802 70.9393 119.802C66.2677 119.802 62.4926 119.258 62.4926 118.572C62.4926 117.886 66.2677 117.342 70.9393 117.342C75.6109 117.342 79.3858 117.886 79.3858 118.572Z" fill="#8362BE"/>
<path d="M83.6563 91.6248C83.6563 92.3109 80.3296 92.855 76.2243 92.855C72.119 92.855 68.7922 92.3109 68.7922 91.6248C68.7922 90.9387 72.119 90.3945 76.2243 90.3945C80.3296 90.3945 83.6563 90.9387 83.6563 91.6248Z" fill="#8362BE"/>
<path d="M96.7038 123.064C96.7038 123.513 94.8398 123.891 92.5276 123.891C90.2154 123.891 88.3516 123.537 88.3516 123.064C88.3516 122.592 90.2154 122.238 92.5276 122.238C94.8398 122.238 96.7038 122.592 96.7038 123.064Z" fill="#8362BE"/>
<path d="M39.8896 118.38C39.8896 118.947 38.6156 119.395 37.0349 119.395C35.4541 119.395 34.1799 118.947 34.1799 118.38C34.1799 117.814 35.4541 117.365 37.0349 117.365C38.6156 117.365 39.8896 117.814 39.8896 118.38Z" fill="#8362BE"/>
<path d="M470.108 92.8769C458.641 99.0518 435.613 102.175 417.8 100.992C427.639 109.083 410.297 107.876 390.832 107.663C371.65 107.451 326.681 104.612 292.115 100.093C290.582 99.9035 290.653 97.6796 292.186 97.5376C295.206 97.2774 298.085 96.9225 300.892 96.5203C312.335 94.9589 322.245 92.7586 332.437 92.7586C315.072 83.9577 329.913 63.5405 364.761 74.3287C366.318 68.3668 371.816 64.3448 377.95 64.6761C384.084 65.0073 389.134 69.6207 390.03 75.7009C397.769 65.7643 410.108 60.7014 422.542 62.2865C434.976 63.8953 445.665 71.9629 450.619 83.5319C457.32 82.8458 463.832 84.5965 468.621 86.5364C469.211 86.7494 469.777 86.986 470.32 87.2226C472.821 88.3345 472.514 91.552 470.108 92.8532V92.8769Z" fill="#6A47AF"/>
<path d="M422.118 74.637C428.477 74.637 433.632 72.688 433.632 70.2838C433.632 67.8796 428.477 65.9307 422.118 65.9307C415.759 65.9307 410.604 67.8796 410.604 70.2838C410.604 72.688 415.759 74.637 422.118 74.637Z" fill="#724BB4"/>
<path d="M381.701 73.8796C383.682 73.8796 385.288 72.6932 385.288 71.2298C385.288 69.7664 383.682 68.5801 381.701 68.5801C379.721 68.5801 378.115 69.7664 378.115 71.2298C378.115 72.6932 379.721 73.8796 381.701 73.8796Z" fill="#724BB4"/>
<path d="M363.393 76.9073C363.393 77.9483 357.636 78.8 350.557 78.8C343.479 78.8 337.722 77.9483 337.722 76.9073C337.722 75.8664 343.479 75.0146 350.557 75.0146C357.636 75.0146 363.393 75.8664 363.393 76.9073Z" fill="#724BB4"/>
<path d="M335.434 96.4003C335.434 95.8809 331.541 95.4561 326.751 95.4561C321.962 95.4561 318.069 95.8809 318.069 96.4003C318.069 96.9196 321.962 97.3445 326.751 97.3445C331.541 97.3445 335.434 96.9196 335.434 96.4003Z" fill="#724BB4"/>
<path d="M458.924 88.264C462.26 88.264 464.964 87.6708 464.964 86.9391C464.964 86.2074 462.26 85.6143 458.924 85.6143C455.588 85.6143 452.884 86.2074 452.884 86.9391C452.884 87.6708 455.588 88.264 458.924 88.264Z" fill="#724BB4"/>
<path d="M470.108 92.8773C458.641 99.0522 435.613 102.175 417.8 100.992C427.639 109.083 410.297 107.877 390.832 107.664C371.65 107.451 326.681 104.612 292.115 100.093C290.582 99.9039 290.653 97.68 292.186 97.5381C295.206 97.2778 298.085 96.9229 300.892 96.5207C310.613 100.353 332.626 102.696 347.773 100.117C365.658 97.0885 380.262 98.3661 397.627 103.405C414.992 108.468 409.471 91.7891 421.032 96.0949C431.579 99.9985 463.997 94.2969 468.621 86.5605C469.211 86.7735 469.777 87.01 470.32 87.2466C472.821 88.3586 472.514 91.5761 470.108 92.8773Z" fill="#5A399A"/>
<path d="M425.067 87.2461C412.987 91.7885 415.889 85.9922 403.549 90.0141C391.21 94.0597 390.714 85.732 382.032 89.1388C386.562 87.8849 390.974 91.7885 398.524 96.0707C406.074 100.353 406.947 86.6073 413.388 90.7712C419.829 94.9351 425.091 87.2461 425.091 87.2461H425.067Z" fill="#5A399A"/>
<path d="M382.787 78.1612C387.576 75.2513 391.469 75.133 395.008 79.4151C389.605 77.1439 386.585 76.6471 382.787 78.1612Z" fill="#724BB4"/>
<path d="M397.17 793.681C388.11 795.597 380.938 807.971 396.226 808.373C387.166 827.584 425.035 816.488 432.561 813.862C434.189 839.744 485.057 827.56 498.341 825.573C498.01 828.199 499.19 830.777 501.432 832.268C503.649 833.758 506.551 833.9 508.934 832.646C513.842 836.952 520.543 838.821 527.031 837.709C533.543 836.597 539.205 832.623 542.343 826.945C546.874 832.599 553.881 835.746 561.124 835.556C563.979 834.255 566.598 832.434 568.839 830.139C575.776 835.959 586.157 835.722 592.811 829.571C601.54 834.586 612.842 831.795 618.056 823.301C621.784 817.245 621.454 809.911 617.844 804.327C612.181 810.076 604.513 813.578 596.303 814.051C587.172 814.595 578.253 811.377 571.694 805.155C571.977 807.214 570.986 809.225 569.146 810.266C567.329 811.307 565.041 811.212 563.366 809.958C558.222 814.335 551.12 815.825 544.608 813.862C538.12 811.898 533.118 806.811 531.372 800.353C529.815 802.269 527.409 803.31 524.908 803.121C522.43 802.955 520.189 801.583 518.938 799.477C517.122 804.564 511.884 807.687 506.457 806.906C501.031 806.125 496.925 801.678 496.689 796.283C496.43 790.913 500.063 786.087 505.348 784.785C504.145 782.845 503.791 780.48 504.404 778.327C504.617 777.617 504.876 776.931 505.277 776.316C496.383 778.114 487.771 781.994 480.221 788.003C469.745 776.86 452.757 775.109 440.205 783.815C439.12 779.51 436.124 775.89 432.113 773.997C428.078 772.081 423.383 772.057 419.325 773.926C417.131 771.489 413.851 770.33 410.619 770.851C407.386 771.371 404.626 773.453 403.281 776.434C398.303 766.829 388.535 760.583 377.705 760.086H377.611C347.883 769.739 379.734 794.769 397.241 793.634L397.17 793.681Z" fill="#7853B8"/>
<path d="M371.689 761.931C360.057 774.162 374.756 787.742 386.128 784.122C386.812 790.936 393.301 793.964 402.951 789.517C397.052 795.526 388.842 805.273 403.611 805.841C399.907 823.821 426.497 816.724 434.307 810.478C437.988 825.194 453.843 829.996 466.89 824.271C474.487 829.76 494.283 825.714 501.502 820.793C499.969 829.736 506.433 832.031 512.167 827.678C518.962 838.135 537.601 836.597 542.107 820.58C548.242 832.528 550.884 833.498 554.801 835.39C543.901 834.16 541.046 832.338 541.046 832.338C541.046 832.338 532.646 846.368 504.994 836.455C472.34 836.644 424.091 845.185 398.326 828.482C385.161 819.941 346.679 777.711 371.689 761.907V761.931Z" fill="#6642A3"/>
<path d="M295.528 799.927C301.898 808.231 313.129 811.377 322.967 807.616C321.387 808.87 320.655 810.904 321.009 812.844C321.387 814.808 322.849 816.44 324.808 817.032C326.742 817.623 328.889 817.126 330.352 815.731C332.122 819.185 335.637 821.456 339.578 821.74C343.518 822 347.316 820.202 349.558 817.032C349.251 821.456 351.091 825.762 354.536 828.648C357.981 831.534 362.652 832.623 367.064 831.582C364.422 834.279 363.549 838.182 364.799 841.708C365.578 843.884 367.088 845.706 369.023 846.889C370.745 846.534 372.208 846.155 373.317 845.753C385.444 841.258 396.793 845.162 409.085 846.77C432.136 849.751 453.772 845.375 475.431 841.092C498.836 836.479 515.8 852.425 540.81 836.077C547.463 838.774 554.825 838.514 561.124 835.627C553.904 835.817 546.897 832.67 542.343 827.016C539.206 832.67 533.567 836.645 527.031 837.78C520.519 838.892 513.842 837.023 508.934 832.717C506.551 833.971 503.649 833.829 501.432 832.339C499.214 830.848 498.01 828.27 498.341 825.643C485.057 827.607 434.189 839.815 432.561 813.933C425.035 816.559 387.166 827.631 396.226 808.444C380.938 808.042 388.11 795.668 397.17 793.752C379.663 794.887 347.812 769.857 377.54 760.204C366.734 759.707 356.494 764.96 350.596 774.044C349.133 772.791 347.623 771.655 346.019 770.614C347.34 776.055 345.382 781.875 340.781 785.4C335.472 789.47 327.993 789.351 322.779 785.164C322.236 787.222 320.278 788.571 318.154 788.381C316.031 788.192 314.356 786.489 314.214 784.383C309.731 786.323 304.493 785.14 301.285 781.473C298.784 778.61 297.958 774.707 298.996 771.158C296.755 772.696 294.655 774.447 292.744 776.363C289.299 784.005 290.195 793.089 295.481 799.998L295.528 799.927Z" fill="#5D3D95"/>
<path d="M301.332 781.402C304.541 785.07 309.755 786.252 314.261 784.312C314.403 786.442 316.078 788.121 318.201 788.311C320.325 788.5 322.283 787.151 322.826 785.093C328.04 789.304 335.496 789.399 340.828 785.33C345.429 781.805 347.387 775.985 346.066 770.543C335.425 763.635 322.142 761.79 309.896 765.764C306.003 767.018 302.37 768.816 299.043 771.064C298.029 774.589 298.831 778.492 301.332 781.379V781.402Z" fill="#7853B8"/>
<path d="M258.627 805.865C263.44 809.627 270.235 809.769 275.213 806.244C274.364 808.066 273.137 813.247 284.769 813.294C283.495 813.98 282.858 815.447 283.235 816.819C283.613 818.192 284.887 819.162 286.373 819.138C283.684 823.16 284.391 828.507 288.048 831.724C291.682 834.942 297.203 835.06 301.001 832.008C299.515 835.604 300.058 839.673 302.37 842.796C303.526 844.334 305.036 845.541 306.735 846.321C311.666 845.967 316.526 844.571 320.938 842.205C322.283 841.495 323.958 842.37 324.784 843.198C332.759 851.29 355.338 849.113 369.023 846.842C367.088 845.659 365.578 843.837 364.799 841.661C363.549 838.136 364.422 834.232 367.064 831.535C362.652 832.552 357.981 831.464 354.536 828.601C351.091 825.715 349.251 821.409 349.558 816.985C347.34 820.179 343.541 821.977 339.578 821.693C335.637 821.433 332.122 819.138 330.352 815.684C328.889 817.08 326.742 817.6 324.808 816.985C322.849 816.394 321.387 814.761 321.009 812.797C320.632 810.834 321.363 808.799 322.967 807.569C313.129 811.331 301.898 808.184 295.528 799.88C290.243 792.972 289.346 783.887 292.791 776.245C287.388 781.687 283.495 788.548 281.702 796.213C279.035 788.666 272.547 783.224 264.856 781.734C260.255 782.515 256.244 785.567 254.404 789.991C252.091 795.574 253.79 802.033 258.603 805.794L258.627 805.865Z" fill="#6642A3"/>
<path d="M223.849 810.573C225.501 814.926 229.606 817.931 234.325 818.167C245.933 824.579 264.242 824.531 275.803 818.049C273.444 822.875 273.467 828.506 275.85 833.309C278.257 838.135 282.763 841.637 288.143 842.772C293.994 845.611 300.412 846.794 306.711 846.274C305.012 845.493 303.479 844.286 302.346 842.748C300.034 839.626 299.491 835.533 300.978 831.96C297.179 835.012 291.658 834.87 288.025 831.676C284.368 828.459 283.66 823.112 286.35 819.09C284.887 819.114 283.589 818.167 283.212 816.772C282.834 815.399 283.471 813.932 284.745 813.246C273.113 813.199 274.34 808.018 275.19 806.196C270.188 809.721 263.416 809.579 258.603 805.818C253.79 802.056 252.068 795.621 254.404 790.014C256.244 785.59 260.231 782.514 264.856 781.757C263.534 781.473 262.142 781.331 260.75 781.307C251.289 781.189 242.772 786.962 239.469 795.715C235.127 793.941 230.125 794.887 226.751 798.105C223.378 801.299 222.221 806.22 223.849 810.549V810.573Z" fill="#7853B8"/>
<path d="M496.689 796.354C496.949 801.748 501.03 806.196 506.457 806.977C511.884 807.758 517.098 804.635 518.938 799.548C520.212 801.677 522.43 803.026 524.908 803.191C527.408 803.357 529.815 802.34 531.372 800.423C533.118 806.859 538.12 811.969 544.608 813.932C551.12 815.896 558.198 814.406 563.366 810.029C565.041 811.283 567.329 811.377 569.146 810.336C570.963 809.295 571.977 807.261 571.694 805.226C578.253 811.448 587.195 814.666 596.303 814.122C604.513 813.625 612.181 810.123 617.844 804.398C616.405 802.151 614.446 800.187 611.993 798.696C603.098 789.067 584.812 787.624 574.478 795.668C573.464 792.545 570.798 790.227 567.565 789.612C564.309 788.996 560.959 790.156 558.812 792.687C544.844 778.681 524.624 772.601 505.254 776.434C504.876 777.049 504.593 777.735 504.381 778.445C503.767 780.621 504.121 782.987 505.325 784.904C500.04 786.205 496.406 791.031 496.666 796.402L496.689 796.354Z" fill="#8260BD"/>
<path d="M508.675 781.473C508.746 782.585 512.851 783.224 517.877 782.916C522.902 782.609 526.889 781.449 526.819 780.337C526.748 779.225 522.619 778.61 517.617 778.918C512.615 779.225 508.604 780.361 508.675 781.473Z" fill="#9274C6"/>
<path d="M562.327 794.225C562.375 794.959 563.484 795.479 564.781 795.385C566.079 795.29 567.093 794.604 567.046 793.871C566.999 793.137 565.89 792.617 564.593 792.711C563.295 792.806 562.28 793.492 562.327 794.225Z" fill="#9274C6"/>
<path d="M581.533 796.425C581.627 797.703 585.048 798.484 589.154 798.153C593.259 797.821 596.491 796.496 596.397 795.195C596.279 793.918 592.882 793.161 588.776 793.492C584.671 793.823 581.439 795.148 581.533 796.425Z" fill="#9274C6"/>
<path d="M444.783 784.88C444.83 786.252 448.275 787.246 452.474 787.057C456.65 786.867 460.001 785.59 459.93 784.218C459.859 782.845 456.438 781.875 452.238 782.065C448.062 782.254 444.712 783.508 444.783 784.88Z" fill="#8260BD"/>
<path d="M422.958 777.71C422.958 778.158 423.902 778.512 425.011 778.465C426.12 778.418 427.016 778.017 426.993 777.568C426.993 777.12 426.049 776.766 424.94 776.813C423.831 776.86 422.935 777.261 422.958 777.71Z" fill="#8260BD"/>
<path d="M380.041 768.272C380.088 769.834 382.872 771.04 386.317 770.969C389.738 770.874 392.475 769.55 392.451 767.988C392.404 766.427 389.597 765.22 386.175 765.315C382.754 765.409 380.017 766.734 380.041 768.296V768.272Z" fill="#8260BD"/>
<path d="M577.64 820.841C575.21 817.718 571.505 815.802 567.495 815.589C563.484 815.376 559.591 816.89 556.807 819.729C555.792 817.908 553.48 817.222 551.592 818.168C549.705 819.114 548.903 821.362 549.799 823.231C550.696 825.1 552.961 825.952 554.919 825.123C559.378 828.838 565.843 829.216 570.75 826.07C571.199 828.246 573.133 829.831 575.422 829.879C577.711 829.902 579.716 828.388 580.235 826.235C580.754 824.059 579.693 821.835 577.64 820.865V820.841Z" fill="#8260BD"/>
<path d="M467.15 801.015C463.328 799.099 458.892 798.768 454.81 800.069C450.728 801.37 447.331 804.209 445.349 807.971C444.075 810.242 444.712 813.105 446.859 814.619C449.006 816.133 451.979 815.802 453.748 813.862C453.796 817.103 456.438 819.705 459.741 819.753C463.044 819.8 465.781 817.245 465.899 814.004C472.859 820.723 483.382 822.402 492.183 818.239C495.51 815.258 495.793 810.195 492.843 806.883C489.894 803.547 484.774 803.145 481.306 805.984C482.439 803.428 482.014 800.471 480.244 798.318C478.451 796.165 475.62 795.172 472.859 795.739C470.099 796.307 467.905 798.342 467.126 801.015H467.15Z" fill="#8260BD"/>
<path d="M535.595 794.651C536.327 798.011 539.323 800.4 542.815 800.424C543.901 800.376 544.868 799.714 545.293 798.744C545.717 797.75 545.529 796.615 544.797 795.834C544.066 795.03 542.957 794.722 541.919 795.03C542.202 794.367 542.131 793.586 541.706 792.995C541.305 792.403 540.598 792.049 539.866 792.049C540.031 791.126 539.654 790.156 538.875 789.612C538.096 789.068 537.058 788.997 536.209 789.446C536.704 788.382 536.516 787.128 535.737 786.252C534.935 785.377 533.708 785.046 532.576 785.424C531.443 785.803 530.664 786.796 530.57 787.979C529.933 787.53 529.06 787.601 528.494 788.121C527.149 787.412 525.521 787.53 524.294 788.453C523.091 789.375 522.525 790.913 522.878 792.38C523.232 793.847 524.436 794.959 525.946 795.242C527.007 796.78 528.824 797.632 530.712 797.514C532.599 797.395 534.274 796.283 535.124 794.627H535.595V794.651Z" fill="#9274C6"/>
<path d="M385.916 797.23C368.291 806.764 356.046 795.006 353.12 791.173C346.231 801.89 332.57 799.879 326.695 792.403C318.98 799.122 305.39 793.681 302.464 788.358C299.539 783.035 291.281 799.43 306.499 798.909C306.499 798.909 310.321 802.955 317.777 798.318C322.189 800.684 326.247 799.075 326.742 797.868C340.238 808.065 351.351 800.069 353.923 796.472C360.93 802.482 376.172 804.942 385.916 797.23Z" fill="#FFB3BF"/>
<path d="M415.975 825.454C404.815 834.658 386.152 831.913 380.348 817.884C376.455 825.525 362.369 826.235 358.83 818.854C364.351 830.541 375.818 828.104 379.404 826.117C389.479 835.628 406.679 836.834 415.975 825.454Z" fill="#4A3077"/>
<path d="M455.494 832.481C448.251 838.467 432.726 835.864 428.857 827.087C430.154 837.497 442.4 845.611 455.494 832.481Z" fill="#FFB3BF"/>
<path d="M387.803 817.222C384.925 819.517 378.909 818.381 377.446 814.927C377.894 819.02 382.589 822.261 387.803 817.222Z" fill="#4A3077"/>
<path d="M364.351 789.446C359.326 793.444 348.85 791.362 346.372 785.282C347.08 792.451 355.244 798.247 364.351 789.446Z" fill="#FFB3BF"/>
<path d="M412.341 785.779C404.909 788.807 400.426 789.375 396.439 783.129C400.261 795.692 405.381 792.214 412.341 785.779Z" fill="#6642A3"/>
<path d="M390.021 782.42C386.128 783.744 383.085 783.035 379.852 779.32C383.934 786.56 386.647 786.276 390.021 782.42Z" fill="#6642A3"/>
<path d="M437.917 810.005C432.632 810.762 431.263 807.923 429.989 806.858C431.57 812.584 434.85 812.347 437.917 810.005Z" fill="#6642A3"/>
<path d="M508.769 820.32C501.573 821.858 498.459 819.019 496.382 816.464C497.232 823.656 504.711 822.662 508.769 820.32Z" fill="#6642A3"/>
<path d="M518.632 825.526C512.804 827.229 511.624 826.614 508.651 824.343C510.444 829.571 511.837 829.95 518.632 825.526Z" fill="#6642A3"/>
<path d="M546.685 819.113C540.975 820.415 536.351 819.61 532.788 815.707C527.668 817.386 521.203 821.243 516.319 813.979C520.59 824.082 533.189 818.356 533.189 818.356C533.189 818.356 540.432 825.903 546.661 819.113H546.685Z" fill="#6642A3"/>
<path d="M580.919 802.931C573.251 804.989 565.631 804.8 559.661 800.684C572.048 810.242 577.781 807.545 580.919 802.931Z" fill="#7853B8"/>
<path d="M522.737 797.206C517.24 799.572 514.573 798.72 511.483 796.236C515.871 803.428 518.113 802.624 522.737 797.206Z" fill="#7853B8"/>
<path d="M328.37 803.949C321.882 808.397 317.753 806.031 314.308 803.429C320.938 815.447 328.418 803.807 328.37 803.949Z" fill="#6642A3"/>
<path d="M370.533 831.818C365.625 832.197 364.162 829.665 363.148 827.229C362.888 835.675 370.604 831.747 370.533 831.818Z" fill="#6642A3"/>
<path d="M358.995 813.246C351.068 817.055 346.892 815.352 344.438 811.874C340.12 812.773 337.312 813.672 334.717 809.674C337.737 818.759 343.211 813.743 343.211 813.743C343.211 813.743 348.496 823.49 358.972 813.246H358.995Z" fill="#6642A3"/>
<path d="M310.085 831.44C304.281 832.221 299.397 833.238 296.448 824.674C298.265 835.675 301.568 834.468 310.085 831.44Z" fill="#7853B8"/>
<path d="M272.193 801.654C276.322 806.126 276.771 807.806 282.197 806.836C285.453 809.414 286.468 812.75 292.012 811.331C286.586 813.767 282.622 810.171 282.079 808.184C276.865 811.165 272.146 807.332 272.193 801.678V801.654Z" fill="#7853B8"/>
<path d="M353.498 835.627C343.187 838.561 336.746 836.053 334.292 827.631C327.969 830.588 314.049 827.773 310.746 817.884C307.419 807.994 297.486 815.447 302.582 819.445C307.678 823.443 309.731 820.226 309.731 820.226C309.731 820.226 313.907 834.823 332.735 830.091C335.449 840.95 346.066 839.294 353.521 835.627H353.498Z" fill="#5D3D95"/>
<path d="M295.787 814.405C295.787 816.393 297.51 818.002 299.657 818.002C301.804 818.002 303.526 816.393 303.526 814.429C303.526 812.442 301.804 810.857 299.657 810.833C297.533 810.833 295.787 812.442 295.787 814.405Z" fill="#5D3D95"/>
<path d="M421.283 845.919C421.307 846.818 425.672 847.386 430.98 847.197C436.313 847.007 440.607 846.108 440.559 845.209C440.512 844.31 436.171 843.766 430.862 843.955C425.53 844.145 421.236 845.02 421.283 845.895V845.919Z" fill="#8C56C5"/>
<path d="M507.944 841.589C507.991 842.488 512.356 842.961 517.664 842.63C522.973 842.299 527.267 841.329 527.196 840.43C527.149 839.531 522.784 839.081 517.475 839.412C512.167 839.72 507.896 840.69 507.944 841.589Z" fill="#8C56C5"/>
<path d="M368.905 843.196C368.905 843.786 370.155 844.235 371.665 844.187C373.175 844.164 374.402 843.668 374.378 843.078C374.378 842.488 373.128 842.039 371.618 842.086C370.108 842.11 368.881 842.606 368.905 843.196Z" fill="#6642A3"/>
<path d="M340.922 846.342C340.922 846.815 344.721 847.169 349.416 847.121C354.111 847.051 357.886 846.602 357.886 846.13C357.886 845.658 354.088 845.327 349.393 845.375C344.697 845.422 340.922 845.87 340.922 846.342Z" fill="#7853B8"/>
<path d="M305.201 843.788C305.201 844.19 306.593 844.496 308.292 844.496C309.991 844.496 311.383 844.166 311.383 843.788C311.383 843.411 309.991 843.08 308.292 843.08C306.593 843.08 305.201 843.411 305.201 843.788Z" fill="#7853B8"/>
<path d="M242.819 818.83C242.819 819.847 246.594 820.723 251.289 820.794C255.984 820.865 259.806 820.084 259.806 819.067C259.806 818.049 256.031 817.198 251.336 817.127C246.641 817.056 242.819 817.813 242.819 818.83Z" fill="#8260BD"/>
<path d="M228.781 814.808C228.781 815.494 229.677 816.086 230.786 816.109C231.919 816.109 232.839 815.589 232.839 814.903C232.839 814.217 231.942 813.625 230.833 813.602C229.701 813.602 228.781 814.122 228.781 814.808Z" fill="#8260BD"/>
<path d="M598.049 826.661C598.167 827.938 601.021 828.742 604.466 828.459C607.911 828.151 610.601 826.873 610.483 825.596C610.365 824.318 607.486 823.514 604.065 823.821C600.644 824.129 597.954 825.383 598.049 826.684V826.661Z" fill="#8C56C5"/>
<path d="M447.118 784.286C447.118 784.664 449.171 784.876 451.696 784.758C454.197 784.64 456.226 784.262 456.202 783.885C456.202 783.507 454.15 783.318 451.625 783.413C449.124 783.531 447.095 783.908 447.118 784.263V784.286Z" fill="#9274C6"/>
<path d="M310.297 768.65C310.392 770.046 316.267 771.276 323.439 771.394C330.612 771.513 336.345 770.495 336.227 769.099C336.133 767.704 330.234 766.497 323.085 766.379C315.936 766.26 310.203 767.254 310.297 768.65Z" fill="#8260BD"/>
<path d="M314.285 768.223C314.308 768.601 317.824 768.955 322.118 769.026C326.412 769.097 329.88 768.861 329.857 768.507C329.833 768.129 326.318 767.775 322.024 767.704C317.73 767.633 314.261 767.869 314.285 768.223Z" fill="#9274C6"/>
<path d="M470.429 799.004C470.453 799.69 472.128 800.163 474.133 800.068C476.139 799.974 477.743 799.335 477.696 798.649C477.673 797.963 475.997 797.49 473.992 797.584C471.986 797.679 470.382 798.318 470.429 799.004Z" fill="#9274C6"/>
<path d="M451.129 802.955C451.177 803.784 453.513 804.351 456.367 804.233C459.222 804.115 461.487 803.334 461.464 802.506C461.416 801.678 459.081 801.11 456.226 801.228C453.371 801.347 451.106 802.127 451.129 802.955Z" fill="#9274C6"/>
<path d="M481.683 806.856C481.683 807.234 483.429 807.423 485.529 807.329C487.629 807.21 489.328 806.833 489.304 806.455C489.304 806.077 487.558 805.889 485.458 805.983C483.359 806.101 481.66 806.479 481.683 806.856Z" fill="#9274C6"/>
<path d="M560.416 818.448C560.464 818.991 562.587 819.298 565.159 819.085C567.731 818.896 569.807 818.283 569.76 817.74C569.712 817.197 567.589 816.914 565.017 817.102C562.446 817.291 560.369 817.905 560.416 818.448Z" fill="#9274C6"/>
<path d="M44.8189 790.818C29.8603 792.995 15.2558 816.156 40.5956 816.038C31.2288 823.916 38.189 830.209 45.6918 835.13C61.3582 845.374 87.1463 836.431 102.931 831.747C98.9433 876.793 193.885 863.662 215.969 862.006C215.025 866.478 216.748 871.138 220.428 874.025C224.085 876.911 229.182 877.573 233.499 875.728C241.521 883.843 253.011 887.983 264.572 886.895C276.157 885.807 286.538 879.632 292.744 870.216C299.987 880.578 311.902 886.871 324.595 887.392C329.739 885.475 334.576 882.636 338.752 878.898C350.454 889.687 368.291 890.349 380.82 880.531C395.66 889.876 415.55 886.398 425.719 872.203C432.868 862.219 432.939 849.325 427.158 839.27C417.815 848.308 401.063 853.986 388.582 854.01C374.685 854.01 356.07 846.865 346.561 835.958C346.821 839.554 344.863 842.938 341.559 844.546C338.28 846.155 334.292 845.706 331.508 843.34C322.024 850.343 309.448 852.07 298.335 847.882C287.246 843.695 279.154 834.231 276.936 822.851C273.986 825.974 269.645 827.441 265.328 826.826C261.033 826.211 257.329 823.561 255.394 819.729C251.549 828.293 242.04 833.001 232.697 830.895C223.354 828.813 216.842 820.533 217.149 811.164C217.455 801.819 224.416 793.988 233.759 792.45C231.919 788.949 231.635 784.809 233.004 781.118C233.452 779.911 234.018 778.776 234.773 777.758C218.069 779.367 204.078 786.441 189.709 794.461C174.42 773.334 142.993 768.484 121.004 781.118C119.8 773.476 115.223 766.781 108.57 762.83C101.916 758.879 93.7998 758.027 86.4857 760.582C83.1118 756.016 77.638 753.461 71.9519 753.792C66.2893 754.124 61.1459 757.27 58.3382 762.191C51.3072 744.826 35.5701 732.311 17.1197 729.377H16.9781H16.9545C1.8308 731.861 -8.07863 745.536 -5.08221 760.559C-0.953274 781.26 26.7932 790.132 44.8661 790.842L44.8189 790.818Z" fill="#7853B8"/>
<path d="M6.47881 731.388C-14.8973 748.209 5.41709 774.943 27.3594 772.341C27.3122 784.241 38.0711 790.628 55.5542 784.619C45.975 792.332 29.8839 811.59 53.8789 812.938C37.8823 842.157 94.6964 834.799 106.493 826.14C110.386 851.809 138.109 863.449 161.184 855.121C177.653 866.667 205.069 862.195 222.127 854.128C218.234 869.387 229.229 874.285 239.822 867.518C252.917 890.278 285.406 881.051 293.121 859.072C302.37 880.507 306.924 882.542 313.553 886.28C294.584 882.873 289.794 879.324 289.794 879.324C274.553 896.95 243.975 890.514 226.067 881.713C191.29 879.087 156.442 877.526 121.829 873.267C95.9469 870.074 60.6269 868.015 40.7372 851.17C21.6497 835.012 -41.8886 750.102 6.45526 731.388H6.47881Z" fill="#6642A3"/>
<path d="M-132.654 781.709C-123.028 797.04 -104.389 804.989 -86.5991 800.707C-89.5955 802.528 -91.2943 805.888 -91.0348 809.342C-90.7752 812.82 -88.5574 815.919 -85.2779 817.339C-82.0219 818.758 -78.1761 818.332 -75.3685 816.203C-72.9619 822.52 -67.3229 827.157 -60.4807 828.411C-53.6621 829.665 -46.6783 827.299 -42.1954 822.236C-43.5875 829.807 -41.2045 837.614 -35.7307 843.245C-30.2805 848.875 -22.3294 851.643 -14.4018 850.721C-19.4981 854.885 -21.7631 861.438 -20.2531 867.778C-19.3093 871.682 -16.9971 875.113 -13.8355 877.526C-10.7683 877.242 -8.14943 876.863 -6.12036 876.343C15.6096 870.807 35.4285 879.324 56.2619 884.552C95.5694 894.465 134.075 892.289 173.642 885.404C189.827 882.589 204.196 891.484 219.461 895.009C244.942 900.9 265.233 896.05 288.921 885.641C300.246 891.153 313.223 891.555 324.595 887.32C311.902 886.8 299.987 880.507 292.744 870.144C286.538 879.56 276.157 885.735 264.572 886.824C253.035 887.912 241.521 883.772 233.499 875.657C229.182 877.502 224.085 876.84 220.428 873.953C216.748 871.043 215.025 866.406 215.969 861.935C193.885 863.591 98.9433 876.721 102.931 831.676C87.1463 836.36 61.3582 845.327 45.6918 835.059C38.189 830.138 31.2288 823.845 40.5956 815.966C15.2558 816.108 29.8603 792.923 44.8189 790.747C26.7224 790.06 -1.00044 781.165 -5.12938 760.464C-8.12581 745.441 1.78363 731.766 16.9073 729.282C-1.51952 726.538 -20.2295 733.73 -32.0973 748.138C-34.3623 745.701 -36.7688 743.453 -39.317 741.348C-38.0901 750.977 -42.5965 760.653 -51.2319 765.811C-61.2121 771.772 -74.1416 770.093 -82.3051 761.789C-83.6499 765.219 -87.3069 767.159 -90.964 766.378C-94.621 765.598 -97.1692 762.356 -96.9569 758.666C-105.12 761.103 -113.944 757.956 -118.687 750.953C-122.415 745.464 -122.981 738.58 -120.48 732.689C-124.68 734.889 -128.667 737.42 -132.348 740.307C-139.827 751.521 -139.662 770.4 -132.607 781.614L-132.654 781.709Z" fill="#5D3D95"/>
<path d="M217.102 811.14C216.795 820.509 223.307 828.766 232.65 830.871C241.993 832.953 251.501 828.269 255.347 819.704C257.282 823.537 260.986 826.187 265.28 826.802C269.598 827.417 273.939 825.95 276.888 822.827C279.106 834.207 287.199 843.67 298.288 847.858C309.401 852.045 321.976 850.318 331.461 843.316C334.245 845.681 338.233 846.107 341.512 844.522C344.815 842.913 346.774 839.53 346.514 835.934C356.022 846.864 374.638 854.009 388.535 853.985C401.016 853.985 417.768 848.284 427.111 839.246C424.822 835.224 421.59 831.628 417.485 828.813C401.936 810.17 372.538 807.189 352.483 819.657C351.068 814.145 346.703 809.815 341.111 808.372C335.496 806.929 329.55 808.585 325.563 812.678C303.149 786.89 268.536 773.665 234.703 777.758C233.948 778.775 233.381 779.911 232.933 781.117C231.565 784.785 231.871 788.925 233.688 792.45C224.345 793.988 217.385 801.819 217.078 811.164L217.102 811.14Z" fill="#8260BD"/>
<path d="M239.964 787.033C239.94 788.949 246.995 790.629 255.725 790.747C264.454 790.866 271.556 789.375 271.58 787.459C271.58 785.543 264.549 783.934 255.819 783.815C247.113 783.697 240.011 785.117 239.964 787.033Z" fill="#9274C6"/>
<path d="M331.508 815.825C331.508 817.103 333.372 818.12 335.661 818.096C337.95 818.096 339.79 817.008 339.766 815.731C339.766 814.453 337.902 813.436 335.614 813.459C333.325 813.459 331.508 814.524 331.508 815.802V815.825Z" fill="#9274C6"/>
<path d="M364.658 821.764C364.705 824.011 370.556 825.715 377.752 825.549C384.949 825.383 390.706 823.42 390.658 821.196C390.588 818.948 384.736 817.292 377.564 817.458C370.391 817.623 364.611 819.54 364.658 821.764Z" fill="#9274C6"/>
<path d="M128.766 783.555C128.648 785.944 134.452 788.192 141.743 788.523C149.033 788.854 155.002 787.175 155.097 784.761C155.191 782.372 149.387 780.172 142.12 779.84C134.853 779.509 128.884 781.142 128.766 783.555Z" fill="#8260BD"/>
<path d="M92.1482 767.609C92.101 768.413 93.6347 769.146 95.5694 769.265C97.5041 769.383 99.1084 768.815 99.1556 768.035C99.2028 767.23 97.6692 766.497 95.7345 766.378C93.7998 766.26 92.1954 766.804 92.1482 767.609Z" fill="#8260BD"/>
<path d="M19.6914 743.832C19.479 746.529 24.1034 749.132 30.0255 749.605C35.9476 750.078 40.9259 748.233 41.1147 745.535C41.327 742.815 36.7026 740.26 30.7805 739.786C24.882 739.313 19.9037 741.111 19.6914 743.832Z" fill="#8260BD"/>
<path d="M355.22 863.638C351.304 857.96 345.051 854.222 338.068 853.418C331.084 852.59 324.1 854.766 318.909 859.38C317.352 856.115 313.388 854.624 309.967 856.044C306.546 857.463 304.895 861.225 306.239 864.608C307.584 867.968 311.454 869.695 314.969 868.488C322.33 875.444 333.608 876.863 342.55 871.942C343.093 875.775 346.325 878.732 350.313 879.04C354.3 879.347 357.981 876.934 359.161 873.244C360.317 869.553 358.689 865.555 355.197 863.662L355.22 863.638Z" fill="#8260BD"/>
<path d="M165.124 814.902C158.754 811.022 151.109 809.745 143.795 811.377C136.505 812.986 130.158 817.363 126.124 823.561C123.528 827.276 124.212 832.339 127.728 835.272C131.243 838.23 136.481 838.135 139.855 835.059C139.407 840.666 143.654 845.611 149.411 846.179C155.168 846.747 160.311 842.748 161.019 837.189C172.344 849.846 190.37 854.175 206.248 848.355C212.477 843.647 213.68 834.965 208.985 828.79C204.29 822.615 195.466 821.196 189.025 825.572C191.361 821.338 191.054 816.156 188.27 812.182C185.486 808.207 180.673 806.054 175.812 806.646C170.928 807.213 166.799 810.407 165.077 814.926L165.124 814.902Z" fill="#8260BD"/>
<path d="M284.958 813.317C285.783 819.232 290.715 823.75 296.802 824.2C298.689 824.271 300.459 823.253 301.308 821.597C302.158 819.941 301.969 817.954 300.813 816.487C299.657 815.02 297.745 814.334 295.905 814.736C296.471 813.601 296.448 812.276 295.787 811.188C295.15 810.099 293.994 809.39 292.72 809.319C293.145 807.733 292.578 806.03 291.304 804.965C290.03 803.901 288.237 803.688 286.704 804.374C287.718 802.6 287.529 800.399 286.279 798.767C285.005 797.158 282.905 796.448 280.899 796.945C278.894 797.442 277.408 799.075 277.077 801.109C276.015 800.257 274.505 800.257 273.444 801.086C271.202 799.666 268.348 799.69 266.13 801.133C263.912 802.576 262.756 805.155 263.18 807.734C263.605 810.312 265.54 812.418 268.135 813.08C269.787 815.872 272.83 817.599 276.133 817.623C279.437 817.646 282.48 815.967 284.179 813.199C284.509 813.246 284.651 813.27 284.981 813.317H284.958Z" fill="#9274C6"/>
<path d="M24.6461 794.911C5.18117 804.445 -19.9228 796.52 -31.1063 778.326C-44.2717 793.065 -65.9073 790.936 -77.138 775.251C-91.2471 783.034 -111.774 776.268 -118.262 763.232C-122.603 754.502 -139.945 779.959 -113.449 782.253C-113.449 782.253 -107.621 790.037 -93.7953 783.578C-86.6227 788.57 -79.2378 786.607 -78.1289 784.643C-66.3555 797.797 -43.5638 800.116 -30.7051 787.624C-17.0443 802.15 7.87088 804.138 24.6461 794.887V794.911Z" fill="#FFB3BF"/>
<path d="M72.0699 848.946C53.006 863.212 16.7893 854.672 11.2683 829.546C1.64203 841.115 -19.0262 841.281 -26.3875 827.204C-22.5181 841.92 -5.17655 848.544 8.154 843.623C22.7114 861.745 55.4597 867.329 72.0934 848.946H72.0699Z" fill="#FFB3BF"/>
<path d="M140.02 867.542C124.354 875.988 102.176 870.476 94.3189 853.938C96.7255 881.855 122.207 877.857 140.02 867.542Z" fill="#FFB3BF"/>
<path d="M24.3865 829.783C18.9835 833.214 8.67301 830.185 6.7619 823.939C6.80909 831.084 14.4299 837.567 24.3865 829.783Z" fill="#FFB3BF"/>
<path d="M72.4474 779.793C59.0697 783.744 51.1657 783.933 45.3616 772.482C49.7972 794.863 59.282 789.753 72.4474 779.793Z" fill="#6642A3"/>
<path d="M34.3904 770.093C27.4302 771.678 22.2632 769.904 17.3556 762.925C23.1125 776.174 27.8549 776.174 34.3904 770.093Z" fill="#6642A3"/>
<path d="M112.84 825.904C103.521 826.377 101.609 821.219 99.5568 819.161C101.35 829.311 107.107 829.453 112.84 825.904Z" fill="#6642A3"/>
<path d="M234.868 854.293C222.103 855.973 217.031 850.626 213.775 845.918C214.27 858.481 227.436 857.818 234.868 854.293Z" fill="#6642A3"/>
<path d="M251.454 864.609C241.049 866.785 239.067 865.579 234.16 861.226C236.59 870.547 238.997 871.375 251.454 864.609Z" fill="#6642A3"/>
<path d="M301.285 857.062C291.139 858.599 283.164 856.636 277.455 849.443C268.3 851.691 256.48 857.535 248.93 844.31C255.041 862.361 277.832 854.081 277.832 854.081C277.832 854.081 289.582 868.063 301.285 857.062Z" fill="#6642A3"/>
<path d="M362.888 832.977C349.298 835.721 336.015 834.515 326.082 826.66C335.095 836.053 352.601 845.492 362.888 832.977Z" fill="#7853B8"/>
<path d="M262.284 816.109C252.422 819.468 247.892 817.647 242.866 812.938C249.543 825.974 253.554 824.886 262.284 816.109Z" fill="#7853B8"/>
<path d="M77.9448 885.238C77.8504 886.776 85.3768 888.503 94.7672 889.047C104.158 889.591 111.826 888.74 111.896 887.202C111.967 885.664 104.441 884.008 95.0739 883.464C85.7072 882.92 78.0391 883.7 77.9448 885.238Z" fill="#8C56C5"/>
<path d="M219.768 891.319C219.744 892.857 227.318 894.3 236.708 894.466C246.098 894.631 253.719 893.472 253.719 891.934C253.719 890.397 246.146 889.048 236.779 888.859C227.412 888.693 219.791 889.758 219.768 891.296V891.319Z" fill="#8C56C5"/>
<path d="M390.304 875.917C390.375 878.165 395.33 879.845 401.37 879.679C407.41 879.513 412.27 877.55 412.2 875.302C412.129 873.055 407.174 871.399 401.134 871.564C395.094 871.73 390.257 873.67 390.304 875.894V875.917Z" fill="#8C56C5"/>
<path d="M132.895 782.869C132.871 783.508 136.387 784.194 140.728 784.407C145.069 784.62 148.656 784.241 148.679 783.602C148.703 782.964 145.187 782.301 140.846 782.088C136.481 781.875 132.919 782.23 132.895 782.869Z" fill="#9274C6"/>
<path d="M171.093 811.897C171.046 813.104 173.854 814.168 177.369 814.287C180.861 814.405 183.74 813.53 183.787 812.347C183.834 811.14 181.027 810.076 177.511 809.957C174.019 809.839 171.141 810.691 171.093 811.897Z" fill="#9274C6"/>
<path d="M136.953 815.825C136.882 817.268 140.87 818.617 145.848 818.83C150.826 819.043 154.908 818.049 154.955 816.606C155.002 815.163 151.039 813.838 146.06 813.625C141.082 813.412 137 814.382 136.953 815.825Z" fill="#9274C6"/>
<path d="M189.52 827.181C189.52 827.82 192.47 828.435 196.15 828.553C199.831 828.671 202.827 828.222 202.851 827.583C202.851 826.944 199.902 826.353 196.221 826.235C192.54 826.116 189.544 826.542 189.52 827.181Z" fill="#9274C6"/>
<path d="M325.35 857.558C325.35 858.528 329.031 859.261 333.585 859.238C338.115 859.19 341.772 858.386 341.772 857.416C341.772 856.446 338.067 855.713 333.537 855.76C329.007 855.807 325.35 856.612 325.35 857.558Z" fill="#9274C6"/>
</svg>
