<svg width="65" height="95" viewBox="0 0 65 95" fill="none" xmlns="http://www.w3.org/2000/svg">
<g clip-path="url(#clip0_300_22178)">
<path d="M40.1038 86.8047L41.9494 90.9399V93.548H47.9527C47.9527 93.548 49.0925 90.7479 49.8219 86.8047H40.1038Z" fill="#616263"/>
<path d="M27.0607 93.548H33.7048C33.7048 93.548 33.8288 91.9235 33.7048 91.0137C34.2718 89.9976 35.2758 88.3377 36.2177 86.8047H25.8264C26.1837 89.1293 26.6148 91.6281 27.0607 93.548Z" fill="#616263"/>
<path d="M50.4125 80.0605H24.8962C24.8962 80.0605 25.2771 83.2269 25.8264 86.8039H36.2177C37.3989 84.881 38.4797 83.1619 38.4797 83.1619L40.1038 86.8039H49.8219C50.1969 84.7835 50.4627 82.4619 50.4125 80.0605Z" fill="#FFC9BA"/>
<path d="M40.1038 86.8047H49.8219" stroke="#693C3C" stroke-linecap="round" stroke-linejoin="round"/>
<path d="M25.8264 86.8047H36.2177" stroke="#693C3C" stroke-linecap="round" stroke-linejoin="round"/>
<path d="M24.8962 80.0605C24.8962 80.0605 25.9297 88.6765 27.0607 93.5501H33.7048C33.7048 93.5501 33.8288 91.9256 33.7048 91.0158C34.9834 88.7267 38.4797 83.1649 38.4797 83.1649L41.9494 90.942V93.5501H47.9527C47.9527 93.5501 50.5602 87.1494 50.4125 80.0605H24.8962Z" stroke="#693C3C" stroke-linecap="round" stroke-linejoin="round"/>
<path d="M24.3676 74.9891C23.6678 77.4997 23.0388 83.8856 23.0388 83.8856C23.0388 83.8856 28.9328 84.9903 38.837 84.7363C48.877 84.4764 52.3467 84.2578 52.3821 83.9624C52.4175 83.6671 51.2748 75.9136 50.7226 73.6245C50.7226 73.6245 34.3338 71.9645 24.3676 74.9891Z" fill="#B08271" stroke="#693C3C" stroke-linecap="round" stroke-linejoin="round"/>
<path d="M33.3357 48.1433C33.3357 48.1433 29.2016 50.1046 27.0371 51.7646C26.0685 52.5089 24.66 58.9657 24.3647 65.4638C24.0694 71.962 24.3647 74.9895 24.3647 74.9895C24.3647 74.9895 30.6397 76.0588 39.2386 75.4326C47.8375 74.8064 50.6812 73.8819 50.7167 73.6249C50.7521 73.3679 49.5178 59.5948 46.5914 52.3228C44.92 50.143 41.0812 48.4653 41.0812 48.4653C41.0812 48.4653 36.7257 47.8125 33.3298 48.1492L33.3357 48.1433Z" fill="#A0C77F" stroke="#693C3C" stroke-linecap="round" stroke-linejoin="round"/>
<path d="M33.1142 45.5762V48.5801C34.9362 50.6506 38.4531 51.4363 41.3322 49.9329V45.5762H33.1142Z" fill="#FFC9BA" stroke="#693C3C" stroke-width="2" stroke-linecap="round" stroke-linejoin="round"/>
<path d="M20.5643 12.0657C20.4048 9.07065 18.2758 5.1245 17.8328 5.1245C17.3899 5.1245 17.0946 6.56591 17.0946 6.56591C15.0659 3.46452 9.75063 0.584654 9.49077 0.989311C9.23092 1.39397 8.75254 4.82913 9.16005 6.67519C6.05946 6.71064 0.413452 9.18584 0.301241 10.072C0.189029 10.9581 1.99918 15.684 5.02594 17.3824C3.32209 18.2419 1.44698 20.9623 1.59463 21.1099C1.74227 21.2576 4.54756 23.0653 8.16491 23.1037C7.57432 23.8067 7.24359 25.3544 7.42667 25.3928C7.60975 25.4312 11.2655 25.57 14.3661 23.8746C17.4667 22.1792 20.7503 15.5334 20.5672 12.0627L20.5643 12.0657Z" fill="#BD7BB6"/>
<path d="M15.1013 16.4964C12.113 14.0212 8.27416 12.178 7.79283 12.1012C7.3115 12.0244 7.60975 13.6903 8.60489 14.6473C6.24845 13.903 2.56318 12.1751 0.510895 11.1797C1.069 12.9371 2.6813 16.0651 5.02298 17.3795C3.31914 18.239 1.44402 20.9594 1.59167 21.1071C1.73932 21.2548 4.5446 23.0624 8.16195 23.1008C7.57136 23.8038 7.24063 25.3516 7.42372 25.39C7.6068 25.4284 11.2625 25.5672 14.3631 23.8718C15.2136 23.408 16.0758 22.5692 16.879 21.5295C16.8052 19.5623 16.3741 17.5449 15.1013 16.4934V16.4964Z" fill="#9C6696"/>
<path d="M20.5643 12.0657C20.4048 9.07065 18.2758 5.1245 17.8328 5.1245C17.3899 5.1245 17.0946 6.56591 17.0946 6.56591C15.0659 3.46452 9.75063 0.584654 9.49077 0.989311C9.23092 1.39397 8.75254 4.82913 9.16005 6.67519C6.05946 6.71064 0.413452 9.18584 0.301241 10.072C0.189029 10.9581 1.99918 15.684 5.02594 17.3824C3.32209 18.2419 1.44698 20.9623 1.59463 21.1099C1.74227 21.2576 4.54756 23.0653 8.16491 23.1037C7.57432 23.8067 7.24359 25.3544 7.42667 25.3928C7.60975 25.4312 11.2655 25.57 14.3661 23.8746C17.4667 22.1792 20.7503 15.5334 20.5672 12.0627L20.5643 12.0657Z" stroke="#693C3C" stroke-linecap="round" stroke-linejoin="round"/>
<path d="M20.4137 18.5636C19.076 22.2115 16.129 24.4829 13.8316 23.6411C11.5342 22.7992 10.7546 19.1573 12.0894 15.5125C13.427 11.8646 16.3741 9.59323 18.6714 10.435C20.9688 11.2768 21.7484 14.9188 20.4137 18.5636Z" fill="white" stroke="#693C3C" stroke-linecap="round" stroke-linejoin="round"/>
<path d="M62.9094 25.7438C62.6525 27.3506 64.123 29.8612 64.6191 30.4165C65.1152 30.9718 63.3818 31.7457 61.5185 30.8773C61.6662 34.8087 61.2912 40.2878 60.4289 43.4364C59.1857 47.9852 56.6787 49.784 56.3745 49.27C55.6304 48.0147 52.6568 45.1496 52.3733 37.34C52.0898 29.5304 52.3733 25.0703 52.3733 25.0703L62.9094 25.7438Z" fill="#BD7BB6" stroke="#693C3C" stroke-linecap="round" stroke-linejoin="round"/>
<path d="M58.4179 33.8113C59.0381 36.192 59.3186 38.5963 58.6749 40.2711C56.5989 45.6793 47.5452 49.3596 39.3656 49.1233C33.4125 48.952 24.908 45.0649 23.0743 42.0078C20.2276 40.0052 15.2195 29.174 18.636 19.9171C22.0526 10.6572 30.8198 7.11867 42.3067 8.28539C53.7937 9.4521 57.4523 14.1367 58.9288 21.0247C60.2074 26.9912 58.4504 32.5855 58.415 33.8143L58.4179 33.8113Z" fill="#FFE3D8"/>
<path d="M32.4292 33.2081C35.4353 33.2938 37.8183 35.1576 37.7563 37.367C37.6943 39.5793 35.2049 41.3013 32.1988 41.2156C29.1928 41.13 26.8097 39.2662 26.8717 37.0568C26.9338 34.8445 29.4231 33.1225 32.4292 33.2081Z" fill="#FFC9BA"/>
<path d="M51.1035 37.7502C51.1655 35.5379 53.6549 33.8158 56.6609 33.9015C57.3165 33.9192 57.9396 34.0285 58.5154 34.1998C59.0646 36.4505 59.2832 38.6865 58.6748 40.2667C58.4711 40.7954 58.1994 41.3094 57.8687 41.8027C57.408 41.8824 56.9267 41.9208 56.4306 41.906C53.4245 41.8204 51.0415 39.9566 51.1035 37.7472V37.7502Z" fill="#FFC9BA"/>
<path d="M58.4179 33.8113C59.0381 36.192 59.3186 38.5963 58.6748 40.2711C56.5989 45.6793 47.5452 49.3596 39.3656 49.1233C33.4125 48.952 24.908 45.0649 23.0743 42.0078C20.2276 40.0052 15.2195 29.174 18.636 19.9171C22.0526 10.6572 30.8198 7.11867 42.3067 8.28539C53.7937 9.4521 57.4523 14.1367 58.9288 21.0247C60.2074 26.9912 58.4504 32.5855 58.415 33.8143L58.4179 33.8113Z" stroke="#693C3C" stroke-miterlimit="10" stroke-linecap="round"/>
<path d="M25.1177 44.3856C19.5573 43.7447 13.2558 39.069 11.8295 29.8623C10.0902 18.647 13.994 9.87454 25.7585 5.24904C37.52 0.620583 45.5077 3.4266 50.6695 5.83978C55.8312 8.25296 62.9182 12.9434 62.9182 26.1701C62.9182 26.1701 62.0323 29.6703 58.7044 30.1074C58.7044 30.1074 54.9276 19.7695 47.7992 15.7819C40.6708 11.7944 36.144 13.6169 36.144 13.6169C36.144 13.6169 26.792 16.9634 26.2516 26.0727C25.7112 35.1789 25.1207 44.3856 25.1207 44.3856H25.1177Z" fill="#BD7BB6"/>
<path d="M61.551 17.2382C60.5647 14.3937 59.1208 12.2198 57.4966 10.5273C55.5507 11.7206 52.0485 13.549 46.7243 15.2178C47.0757 15.3921 47.4301 15.5782 47.7963 15.782C48.7176 16.2959 49.5798 16.9192 50.3889 17.6103C53.3212 17.9943 57.3962 18.1627 61.551 17.2382Z" fill="#DB8FD3"/>
<path d="M23.7387 22.3301C19.7729 23.9014 14.2007 25.1361 11.4456 25.6973C11.4781 27.0442 11.608 28.4324 11.8295 29.862C13.2558 39.0687 19.5573 43.7444 25.1177 44.3854C25.1177 44.3854 25.7083 35.1787 26.2487 26.0724C26.3314 24.696 26.6148 23.4525 27.0371 22.3301H23.7387Z" fill="#9C6696"/>
<path d="M58.7014 30.1074C58.7014 30.1074 54.9246 19.7695 47.7962 15.782C40.6679 11.7944 36.141 13.6169 36.141 13.6169C36.141 13.6169 26.7891 16.9634 26.2487 26.0727C25.7083 35.1789 25.1177 44.3856 25.1177 44.3856C19.5573 43.7447 13.2558 39.069 11.8295 29.8623C10.0902 18.647 13.994 9.87454 25.7585 5.24904C37.52 0.620583 45.5077 3.4266 50.6694 5.83978C55.8312 8.25296 62.9182 13.2063 62.9182 26.433C62.9182 26.433 62.9182 27.0444 63.119 27.4963" stroke="#693C3C" stroke-linecap="round" stroke-linejoin="round"/>
<path d="M17.4548 33.1298C18.3437 32.2082 20.6588 32.1698 22.1234 33.8357L23.5349 41.9112C21.4088 42.6821 18.6862 41.6069 17.3751 39.0756C15.94 36.308 16.2914 34.3349 17.4548 33.1298Z" fill="#FFE3D8"/>
<path d="M18.9254 35.293C18.9254 35.293 20.579 35.5795 21.3911 38.1167C20.4934 37.2217 19.0996 37.5703 18.8368 38.356" stroke="#693C3C" stroke-linecap="round" stroke-linejoin="round"/>
<path d="M22.1236 33.8347C20.6589 32.1659 18.3409 32.2072 17.455 33.1288C16.2945 34.3339 15.9431 36.304 17.3753 39.0746C18.6864 41.6059 21.409 42.6811 23.5351 41.9101" stroke="#693C3C" stroke-miterlimit="10" stroke-linecap="round"/>
<path d="M48.189 42.5275C48.1978 42.3621 47.8583 41.8481 46.9074 41.7418C45.9566 41.6355 41.7457 41.3135 40.8687 41.4258C39.9916 41.538 38.964 42.1701 38.7691 43.7799C38.5742 45.3896 40.0861 46.6774 42.3126 46.8665C44.8817 47.0821 48.0207 46.0897 48.189 42.5275Z" fill="#D85461"/>
<path d="M38.7603 43.9358C41.9996 42.8311 45.4162 44.3346 46.5974 45.8114C45.4191 46.7212 43.7744 46.9899 42.3127 46.8659C40.157 46.6857 38.6776 45.4717 38.7603 43.9329V43.9358Z" fill="#FFB0A4"/>
<path d="M38.7605 43.9358C41.9999 42.8311 45.4164 44.3346 46.5976 45.8114" stroke="#A13E49" stroke-miterlimit="10" stroke-linecap="round"/>
<path d="M46.9074 41.7448C47.3061 41.7891 47.5954 41.9043 47.7962 42.0342C46.4408 42.7077 41.9937 42.9262 39.903 41.7743C40.2131 41.5764 40.5497 41.4671 40.8657 41.4258C41.7427 41.3135 45.9507 41.6355 46.9045 41.7418L46.9074 41.7448Z" fill="white"/>
<path d="M47.7962 42.0334C46.4408 42.7068 41.9937 42.9254 39.903 41.7734" stroke="#A13E49" stroke-miterlimit="10" stroke-linecap="round"/>
<path d="M48.189 42.5275C48.1978 42.3621 47.8583 41.8481 46.9074 41.7418C45.9566 41.6355 41.7457 41.3135 40.8687 41.4258C39.9916 41.538 38.964 42.1701 38.7691 43.7799C38.5742 45.3896 40.0861 46.6774 42.3126 46.8665C44.8817 47.0821 48.0207 46.0897 48.189 42.5275Z" stroke="#A13E49" stroke-miterlimit="10" stroke-linecap="round"/>
<path d="M48.1742 37.0215C48.1742 37.0215 49.0955 37.8219 47.873 38.5633" stroke="#BA7366" stroke-miterlimit="10" stroke-linecap="round"/>
<path d="M34.1448 36.1917C34.1448 36.1917 34.1005 36.1622 34.0208 36.1179C33.944 36.0735 33.8259 36.0174 33.6871 35.9465C33.5424 35.8875 33.3771 35.8077 33.191 35.7457C33.0079 35.6807 32.8101 35.6128 32.6063 35.5626C32.5059 35.536 32.4055 35.5094 32.3081 35.4828C32.2077 35.4651 32.1073 35.4444 32.0128 35.4267C31.9183 35.409 31.8238 35.3912 31.7382 35.3735C31.6496 35.3558 31.5669 35.3528 31.4901 35.344C31.1801 35.3115 30.9763 35.2879 30.9763 35.2879H30.9586C30.8375 35.2731 30.7489 35.1638 30.7608 35.0427C30.7726 34.9216 30.8818 34.833 31.0059 34.8448C31.0118 34.8448 31.0177 34.8448 31.0236 34.8448C31.0236 34.8448 31.2362 34.8862 31.5581 34.9452C31.6378 34.963 31.7264 34.9718 31.815 34.9984C31.9035 35.022 32.001 35.0486 32.0984 35.0752C32.1959 35.1018 32.2963 35.1313 32.3996 35.1579C32.5 35.1933 32.6034 35.2288 32.7038 35.2672C32.9105 35.3351 33.1083 35.4208 33.2914 35.5064C33.4775 35.5832 33.6428 35.6837 33.7846 35.7545C33.9234 35.8373 34.0415 35.9052 34.1182 35.9613C34.198 36.0145 34.2393 36.047 34.2393 36.047H34.2423C34.2777 36.0795 34.2836 36.1297 34.2541 36.1681C34.2275 36.2035 34.1773 36.2094 34.1419 36.1858L34.1448 36.1917Z" fill="#ED9087"/>
<path d="M33.0936 36.6998C33.0936 36.6998 33.0611 36.685 33.005 36.6614C32.9518 36.6378 32.8692 36.6082 32.7717 36.5728C32.6743 36.5403 32.5591 36.5019 32.4321 36.4694C32.3052 36.4399 32.1752 36.4015 32.0394 36.3778C31.9036 36.3512 31.7707 36.3276 31.6407 36.3158C31.5138 36.301 31.3956 36.2833 31.2923 36.2833C31.0885 36.2744 30.9527 36.2685 30.9527 36.2685H30.935C30.8139 36.2626 30.7165 36.1593 30.7224 36.0352C30.7283 35.9111 30.8316 35.8166 30.9557 35.8225C30.9645 35.8225 30.9734 35.8225 30.9822 35.8225C30.9822 35.8225 31.1269 35.8462 31.3425 35.8846C31.4518 35.8993 31.5728 35.9348 31.7057 35.9643C31.8386 35.9938 31.9774 36.0352 32.1132 36.0825C32.252 36.1238 32.3849 36.1799 32.5119 36.2272C32.6388 36.2774 32.751 36.3306 32.8485 36.3778C32.9459 36.428 33.0257 36.4664 33.0818 36.4989L33.1674 36.5491C33.2087 36.5728 33.2206 36.623 33.1969 36.6643C33.1763 36.6998 33.129 36.7145 33.0906 36.6998H33.0877H33.0936Z" fill="#ED9087"/>
<path d="M32.0541 37.2084C32.0541 37.2084 31.9803 37.1995 31.877 37.1936C31.7736 37.1877 31.6348 37.1818 31.496 37.1877C31.4281 37.1907 31.3573 37.1877 31.2952 37.1966C31.2332 37.2054 31.1742 37.2113 31.124 37.2202C31.0265 37.232 30.9586 37.2409 30.9586 37.2409H30.9291C30.8051 37.2616 30.6928 37.1729 30.6781 37.0518C30.6633 36.9278 30.7489 36.8155 30.873 36.8008C30.8907 36.8008 30.9084 36.8008 30.9261 36.8008C30.9261 36.8008 31.0029 36.8096 31.1181 36.8215C31.1742 36.8274 31.2421 36.8362 31.313 36.8421C31.3838 36.848 31.4547 36.8717 31.5285 36.8864C31.6732 36.916 31.815 36.9544 31.9213 36.9898C32.0276 37.0194 32.0925 37.0459 32.0925 37.0459H32.0984C32.1398 37.0666 32.1634 37.1139 32.1457 37.1582C32.1309 37.1936 32.0925 37.2143 32.0571 37.2084H32.0541Z" fill="#ED9087"/>
<path d="M54.904 36.6586C54.904 36.6586 54.9246 36.632 54.9719 36.5877C55.0162 36.5404 55.0841 36.4784 55.1668 36.4075C55.2052 36.3691 55.2554 36.3366 55.3055 36.2982C55.3557 36.2628 55.406 36.2185 55.465 36.183C55.5802 36.1121 55.7012 36.0265 55.8341 35.9674C55.8991 35.9349 55.9641 35.9024 56.029 35.8699C56.094 35.8375 56.1619 35.8197 56.2269 35.7931C56.3568 35.7488 56.4779 35.6957 56.5871 35.678C56.8056 35.6277 56.9503 35.5953 56.9503 35.5953C57.0714 35.5687 57.1895 35.6425 57.2161 35.7636C57.2427 35.8847 57.1689 36.0029 57.0478 36.0294C57.0389 36.0294 57.0301 36.0324 57.0212 36.0324H56.9917C56.9917 36.0324 56.8617 36.0472 56.6639 36.0678C56.5635 36.0708 56.4542 36.1062 56.3302 36.1299C56.2712 36.1446 56.2062 36.1535 56.1442 36.1771C56.0822 36.1978 56.0202 36.2214 55.9552 36.2451C55.8253 36.2835 55.7071 36.3514 55.592 36.4016C55.5329 36.4282 55.4827 36.4636 55.4325 36.4902C55.3823 36.5198 55.3321 36.5463 55.2908 36.5759C55.2052 36.632 55.1372 36.6822 55.0929 36.7177C55.0486 36.7531 55.0191 36.7767 55.0191 36.7767C54.9866 36.8092 54.9335 36.8063 54.901 36.7767C54.8715 36.7472 54.8715 36.6999 54.8951 36.6674L54.901 36.6615L54.904 36.6586Z" fill="#ED9087"/>
<path d="M55.5388 37.2026L55.589 37.1583C55.6215 37.1288 55.6688 37.0934 55.7278 37.052C55.843 36.9693 56.0054 36.8659 56.1826 36.7891C56.2712 36.7507 56.3597 36.7094 56.4483 36.6858C56.5369 36.6592 56.6167 36.6267 56.6905 36.6178C56.8381 36.5912 56.9356 36.5706 56.9356 36.5706C57.0566 36.5469 57.1748 36.6267 57.1954 36.7478C57.2191 36.8689 57.1393 36.987 57.0183 37.0077C57.0035 37.0077 56.9917 37.0107 56.9769 37.0107H56.9503C56.9503 37.0107 56.8677 37.0107 56.7436 37.0107C56.6816 37.0048 56.6078 37.0225 56.5281 37.0284C56.4483 37.0343 56.3657 37.055 56.283 37.0756C56.1147 37.114 55.9522 37.179 55.8341 37.2322C55.7751 37.2617 55.7249 37.2854 55.6953 37.3031C55.6629 37.3208 55.6422 37.3326 55.6422 37.3326C55.6038 37.3592 55.5506 37.3503 55.527 37.3119C55.5034 37.2765 55.5093 37.2292 55.5418 37.2026H55.5388Z" fill="#ED9087"/>
<path d="M56.1944 37.7404C56.1944 37.7404 56.2298 37.7197 56.2977 37.6931C56.3627 37.6636 56.4542 37.6311 56.5487 37.6075C56.596 37.5957 56.6432 37.5779 56.6905 37.572C56.7377 37.5661 56.785 37.5632 56.8234 37.5602C56.9031 37.5543 56.9562 37.5514 56.9562 37.5514C57.0832 37.5425 57.1925 37.637 57.2013 37.7611C57.2102 37.8881 57.1157 37.9974 56.9917 38.0062C56.9622 38.0062 56.9356 38.0062 56.909 37.9974L56.8736 37.9855C56.8736 37.9855 56.8381 37.9737 56.7879 37.959C56.7614 37.9501 56.7289 37.9412 56.6964 37.9294C56.661 37.9176 56.6196 37.9176 56.5812 37.9117C56.4985 37.8999 56.4159 37.8969 56.3538 37.8969C56.2918 37.8969 56.2446 37.9028 56.2446 37.9028C56.2003 37.9088 56.156 37.8792 56.1501 37.832C56.1442 37.7965 56.1619 37.764 56.1885 37.7463L56.2003 37.7404H56.1944Z" fill="#ED9087"/>
<path d="M40.6265 27.4895C41.0311 27.5161 40.2131 25.5578 39.6314 25.3185C38.2819 24.7632 35.5711 25.2506 35.7365 25.478C35.9018 25.7055 38.6864 27.3595 40.6265 27.4895Z" fill="#693C3C"/>
<path d="M50.4657 27.7748C50.1438 27.7807 50.8909 25.8696 51.3634 25.6599C52.4589 25.1755 54.5703 25.8017 54.4285 26.0173C54.2868 26.2359 52.0042 27.7452 50.4657 27.7748Z" fill="#693C3C"/>
<path d="M54.523 28.4009C53.0702 28.268 51.9983 29.4583 51.4343 30.2085C50.8673 30.9588 50.4126 32.3618 50.8319 34.3201C51.6203 35.6404 53.9206 35.9742 55.4325 35.6995C56.9444 35.4248 57.6295 33.7766 57.7506 32.5715C57.8717 31.3664 57.3785 28.6578 54.523 28.4009Z" fill="white"/>
<path d="M50.3446 32.9729C50.5838 31.7648 51.8861 28.82 54.3783 28.8377C56.8706 28.8554 57.8953 31.0264 57.6915 32.8606C58.1522 32.7484 58.7044 32.0838 58.7044 32.0838C58.7044 32.0838 58.2083 28.6368 55.403 28.0963C52.3408 27.5056 50.5691 29.8863 50.3476 32.9699L50.3446 32.9729Z" fill="#693C3C"/>
<path d="M55.0073 35.525C56.4392 35.525 57.6 33.9752 57.6 32.0633C57.6 30.1514 56.4392 28.6016 55.0073 28.6016C53.5754 28.6016 52.4146 30.1514 52.4146 32.0633C52.4146 33.9752 53.5754 35.525 55.0073 35.525Z" fill="#616263"/>
<path d="M57.5439 31.3574C57.2988 29.783 56.2564 28.6016 55.0073 28.6016C53.5751 28.6016 52.4146 30.1523 52.4146 32.0633C52.4146 32.0751 52.4146 32.084 52.4146 32.0928C53.3153 31.6675 55.2967 30.9291 57.5439 31.3574Z" fill="#505152"/>
<path d="M55.0073 35.525C56.4392 35.525 57.6 33.9752 57.6 32.0633C57.6 30.1514 56.4392 28.6016 55.0073 28.6016C53.5754 28.6016 52.4146 30.1514 52.4146 32.0633C52.4146 33.9752 53.5754 35.525 55.0073 35.525Z" stroke="#693C3C" stroke-miterlimit="10"/>
<path d="M55.3764 33.5813C56.0043 33.5813 56.5133 32.9016 56.5133 32.0631C56.5133 31.2246 56.0043 30.5449 55.3764 30.5449C54.7485 30.5449 54.2395 31.2246 54.2395 32.0631C54.2395 32.9016 54.7485 33.5813 55.3764 33.5813Z" fill="#2C2D2E"/>
<path d="M51.6557 32.0623C52.2906 31.7344 53.962 31.7344 54.0092 32.0623C54.0565 32.3902 52.8103 33.4417 52.0544 33.5805C51.2984 33.7193 51.077 32.3636 51.6587 32.0623H51.6557Z" fill="white"/>
<path d="M57.0891 32.5005C56.9149 32.1904 56.2416 32.1313 56.2033 32.2701C56.1678 32.4089 56.72 33.1828 56.8854 33.1739C57.0508 33.1651 57.2161 32.7309 57.0891 32.5005Z" fill="white"/>
<path d="M30.7047 33.7415C31.8534 34.6955 34.5021 36.072 36.5515 35.9863C38.6008 35.9036 39.2475 34.9525 39.2475 34.9525C39.2475 34.9525 40.0979 32.3089 39.3686 30.7553C38.6392 29.1987 36.643 27.329 33.5218 28.3805C30.3976 29.432 30.247 32.2971 30.7047 33.7415Z" fill="white"/>
<path d="M39.2475 32.2723C39.2475 34.1833 37.9777 35.734 36.4068 35.734C34.8358 35.734 33.5661 34.1833 33.5661 32.2723C33.5661 30.3612 34.8388 28.8105 36.4068 28.8105C37.9748 28.8105 39.2475 30.3612 39.2475 32.2723Z" fill="#616263"/>
<path d="M39.1888 31.5664C38.923 29.992 37.7773 28.8105 36.4101 28.8105C34.8421 28.8105 33.5694 30.3612 33.5694 32.2723C33.5694 32.2841 33.5694 32.293 33.5694 32.3018C34.5556 31.8765 36.7261 31.1381 39.1888 31.5664Z" fill="#505152"/>
<path d="M39.2475 32.2723C39.2475 34.1833 37.9777 35.734 36.4068 35.734C34.8358 35.734 33.5661 34.1833 33.5661 32.2723C33.5661 30.3612 34.8388 28.8105 36.4068 28.8105C37.9748 28.8105 39.2475 30.3612 39.2475 32.2723Z" stroke="#693C3C" stroke-miterlimit="10"/>
<path d="M38.0575 32.2721C38.0575 33.111 37.4994 33.7903 36.8143 33.7903C36.1292 33.7903 35.5711 33.111 35.5711 32.2721C35.5711 31.4333 36.1292 30.7539 36.8143 30.7539C37.4994 30.7539 38.0575 31.4333 38.0575 32.2721Z" fill="#2C2D2E"/>
<path d="M32.7392 32.2732C33.4332 31.9454 35.2669 31.9454 35.3171 32.2732C35.3673 32.6011 34.0031 33.6526 33.1733 33.7914C32.3435 33.9303 32.1014 32.5745 32.7392 32.2732Z" fill="white"/>
<path d="M38.6923 32.7095C38.5033 32.3993 37.7622 32.3403 37.7208 32.4791C37.6795 32.6179 38.2878 33.3918 38.4679 33.3829C38.651 33.3741 38.8311 32.9399 38.6894 32.7095H38.6923Z" fill="white"/>
<path d="M39.9178 33.8503C39.9178 33.8503 39.339 29.1125 35.9432 28.5691C32.5473 28.0256 30.4802 31.251 30.7017 33.738C29.8158 33.4545 28.8059 32.4059 28.8059 32.4059C28.8059 32.4059 30.6072 27.6859 34.3604 27.4969C38.2789 27.299 40.3578 30.554 39.9149 33.8473L39.9178 33.8503Z" fill="#693C3C"/>
<path d="M28.9388 30.7533C28.6022 34.6374 28.4575 38.2527 28.3512 40.79C28.1681 45.1851 28.7232 49.3203 28.3512 49.3557C27.985 49.3911 23.1481 46.5497 21.9315 43.1175C21.7071 43.8175 21.0072 44.7715 20.7119 44.6829C20.4166 44.5943 17.9805 35.4083 20.7119 28.3874C20.898 26.0569 21.3409 21.3309 23.5349 16.7527C24.7368 14.0235 28.9565 9.35368 35.9579 8.8545C41.0488 7.89159 52.5416 8.2992 56.6698 17.2342C61.6219 22.6749 60.5765 31.6837 60.3787 32.0293C60.1838 32.3778 51.1094 27.6873 48.8386 25.3066C48.8386 25.3066 49.9224 29.6899 49.7747 30.0326C49.6271 30.3781 42.0705 26.2666 37.1982 17.0363C35.3171 22.7369 32.754 26.6594 28.9388 30.7533Z" fill="#BD7BB6"/>
<path d="M56.6698 17.2339C55.8194 15.3908 54.65 13.9139 53.2917 12.7324C51.4018 13.5919 49.0453 14.5135 46.181 15.3878C45.3335 15.6477 44.8906 16.3094 46.181 16.7524C47.0787 17.0596 51.6941 18.2056 57.1895 17.8482C57.0242 17.6385 56.8529 17.4347 56.6698 17.2339Z" fill="#DB8FD3"/>
<path d="M48.8386 19.178C46.4527 18.2003 41.9908 17.5534 43.4702 19.178C44.9496 20.8025 50.9677 21.5409 50.6665 20.7523C50.3653 19.9637 49.1841 19.3197 48.8386 19.178Z" fill="#DB8FD3"/>
<path d="M20.9925 23.816C20.9925 23.816 21.0988 23.3611 21.2612 22.6759C21.3025 22.5045 21.3468 22.3185 21.3911 22.1235C21.4472 21.9286 21.5092 21.7218 21.5712 21.5091C21.6332 21.2965 21.6982 21.0749 21.7632 20.8534C21.8311 20.6319 21.8872 20.4015 21.9758 20.18C22.1382 19.7369 22.3006 19.2939 22.4542 18.8803C22.528 18.6706 22.6048 18.4727 22.6933 18.2896C22.776 18.1065 22.8558 17.9322 22.9296 17.7697C23.2219 17.1258 23.4168 16.6976 23.4168 16.6976C23.4463 16.6326 23.5231 16.603 23.5881 16.6326C23.6501 16.6621 23.6796 16.733 23.653 16.798V16.8068C23.653 16.8068 23.4759 17.2381 23.2131 17.8879C23.1481 18.0503 23.0772 18.2246 23.0034 18.4107C22.9237 18.5938 22.8558 18.7947 22.7937 19.0014C22.6609 19.4179 22.5221 19.861 22.3803 20.304C22.3036 20.5226 22.2593 20.753 22.2032 20.9716C22.1471 21.1931 22.0939 21.4117 22.0437 21.6214C21.9905 21.8311 21.9403 22.0349 21.8931 22.2269C21.8547 22.4248 21.8193 22.6109 21.7868 22.7822L21.5712 23.9341C21.5417 24.0936 21.3852 24.2 21.2257 24.1704C21.0663 24.1409 20.96 23.9843 20.9895 23.8248C20.9895 23.8219 20.9895 23.816 20.9895 23.813L20.9925 23.816Z" fill="#693C3C"/>
<path d="M56.6698 17.235C61.6219 22.6757 60.5765 31.6845 60.3787 32.0301C60.1838 32.3787 51.1094 27.6882 48.8386 25.3075C48.8386 25.3075 49.9224 29.6908 49.7747 30.0334C49.6271 30.379 42.0705 26.2674 37.1982 17.0371C35.3171 22.7378 32.754 26.6603 28.9388 30.7541C28.6022 34.6382 28.4575 38.2536 28.3512 40.7908C28.1681 45.1859 28.7232 49.3211 28.3512 49.3565C27.985 49.392 23.1481 46.5505 21.9315 43.1183C21.7071 43.8183 21.0072 44.7724 20.7119 44.6838C20.4166 44.5952 17.9805 35.4092 20.7119 28.3882C20.7976 27.313 20.9393 25.724 21.2818 23.8779" stroke="#693C3C" stroke-linecap="round" stroke-linejoin="round"/>
<path d="M30.2086 22.1326L29.6209 26.4539C29.429 28.616 29.2341 30.7811 29.2341 30.7811V30.7929C29.2193 30.9553 29.0746 31.0764 28.9122 31.0617C28.7498 31.0469 28.6287 30.9022 28.6435 30.7397V30.7308C28.6435 30.7308 28.9093 28.5599 29.1721 26.3859C29.5353 24.2356 29.8956 22.0854 29.8956 22.0854C29.9103 21.9997 29.99 21.9406 30.0786 21.9554C30.1643 21.9702 30.2204 22.0499 30.2086 22.1326Z" fill="#693C3C"/>
<path d="M33.7314 93.1279H33.3357C33.3357 93.1279 32.1043 90.8653 31.3306 90.7413C30.557 90.6172 28.2182 90.5936 27.9111 90.6438C27.604 90.694 26.3963 91.2463 26.2988 92.2565C26.2014 93.2667 26.2988 93.9549 26.2988 94.1646C26.2988 94.3743 26.3225 94.7051 26.851 94.7051H33.7314C33.9263 94.7051 34.1359 94.4836 34.1359 94.2503V93.4144C34.1359 93.4144 34.1271 93.1308 33.7314 93.1308V93.1279Z" fill="#BD7BB6" stroke="#693C3C" stroke-width="2" stroke-linecap="round" stroke-linejoin="round"/>
<path d="M42.1384 93.1267H45.3837C45.3837 93.1267 46.3434 91.0975 47.0698 90.938C47.8375 90.7697 48.313 90.8288 48.6201 90.876C48.9272 90.9233 50.3298 93.1533 50.3298 94.1605C50.3298 94.3703 50.3062 94.7011 49.7776 94.7011H42.1413C41.9464 94.7011 41.7368 94.4795 41.7368 94.2462V93.4103C41.7368 93.4103 41.7456 93.1267 42.1413 93.1267H42.1384Z" fill="#BD7BB6" stroke="#693C3C" stroke-width="2" stroke-linecap="round" stroke-linejoin="round"/>
<path d="M19.0287 72.2473C18.3643 73.4701 18.2432 75.4638 18.5208 76.4179C18.7984 77.3719 19.2029 77.6319 20.012 78.0336C20.8182 78.4382 22.8823 78.5918 23.2366 78.3496C23.5939 78.1074 23.5644 77.1947 23.5231 76.9939C23.7623 77.0529 24.3499 76.9318 24.4828 76.6276C24.6157 76.3234 24.0457 74.8081 23.8981 74.3739C23.7505 73.9397 23.0979 73.1629 22.1116 72.7346C21.1282 72.3034 19.2827 71.7747 19.0258 72.2443L19.0287 72.2473Z" fill="#FFE3D8" stroke="#693C3C" stroke-linecap="round" stroke-linejoin="round"/>
<path d="M23.3489 77.2327L22.8173 76.6803C22.7553 76.6153 22.7553 76.512 22.8203 76.4499C22.8705 76.4027 22.9443 76.3909 23.0034 76.4204H23.0063L23.7003 76.7601C23.8509 76.8339 23.9129 77.0111 23.839 77.1618C23.7652 77.3124 23.588 77.3744 23.4374 77.3006C23.405 77.2858 23.3754 77.2652 23.3518 77.2386L23.3459 77.2327H23.3489Z" fill="#693C3C"/>
<path d="M22.0407 60.7363C22.0407 60.7363 18.8663 67.5801 18.2521 73.387C21.8694 74.8403 24.6009 74.8403 24.6009 74.8403C25.7821 72.8701 28.7823 65.6099 29.5471 62.6562L22.0407 60.7363Z" fill="#616263" stroke="#693C3C" stroke-linecap="round" stroke-linejoin="round"/>
<path d="M27.0371 51.7676C27.0371 51.7676 21.8931 56.5673 19.7522 61.8397C22.8528 64.1111 26.7152 65.907 30.0875 66.5243C30.997 64.0875 31.6141 60.6671 31.7352 57.9083L27.0371 51.7676Z" fill="#A0C77F"/>
<path d="M27.0371 51.7676C27.0371 51.7676 21.8931 56.5673 19.7522 61.8397C22.8528 64.1111 26.7152 65.907 30.0875 66.5243C30.997 64.0875 31.6141 60.6671 31.7352 57.9083" stroke="#693C3C" stroke-linecap="round" stroke-linejoin="round"/>
<path d="M58.9967 62.1157C58.9967 62.1157 57.8007 67.2788 53.9088 67.4087C51.5523 67.4855 50.1438 67.1222 50.1438 67.1222V58.6953H58.9967V62.1157Z" fill="#616263" stroke="#693C3C" stroke-linecap="round" stroke-linejoin="round"/>
<path d="M53.1528 47.882L49.9312 44.0215L48.1181 45.5338L51.0444 49.0428L50.5749 59.5284L52.9343 59.6348L53.4245 48.6913C53.4363 48.3959 53.3389 48.1094 53.1528 47.882Z" fill="white" stroke="#693C3C" stroke-linecap="round" stroke-linejoin="round"/>
<path d="M60.1749 56.2996C59.794 57.5874 56.5015 58.0482 52.8221 57.3334C49.1427 56.6156 46.4703 54.9911 46.8542 53.7062C47.2352 52.4184 50.5277 51.9576 54.207 52.6724C57.8864 53.3902 60.5588 55.0118 60.1749 56.2996Z" fill="white" stroke="#693C3C" stroke-linecap="round" stroke-linejoin="round"/>
<path d="M46.8336 53.8007C46.8395 53.7652 46.8483 53.7209 46.8542 53.6884C46.9162 53.3487 46.9782 53.0061 47.0373 52.6664C47.0491 52.5985 47.0668 52.5069 47.0786 52.439C47.1347 52.1348 47.1879 51.8335 47.2411 51.5293C47.247 51.4968 47.2529 51.4672 47.2647 51.4347C47.6456 50.1469 50.9381 49.6861 54.6175 50.4009C58.2083 51.101 60.8393 52.6635 60.609 53.9336L60.1985 56.2079C60.4289 54.9378 57.7978 53.3724 54.207 52.6753C50.5277 51.9575 47.2381 52.4213 46.8542 53.7091C46.8454 53.7416 46.8365 53.7711 46.8306 53.8036L46.8336 53.8007Z" fill="white" stroke="#693C3C" stroke-linecap="round" stroke-linejoin="round"/>
<path d="M53.9737 53.4854C50.8968 52.8858 48.1447 53.2727 47.8257 54.3508C47.8139 54.3951 47.8051 54.4394 47.7992 54.4837C47.4448 57.9366 47.0934 61.3865 46.7391 64.8364C46.742 64.798 46.7509 64.7596 46.7627 64.7212L56.3509 66.588L58.9701 56.5188C59.289 55.4437 57.0537 54.085 53.9767 53.4854H53.9737Z" fill="white" stroke="#693C3C" stroke-linecap="round" stroke-linejoin="round"/>
<path d="M56.3479 66.5875C56.0733 67.5149 53.7021 67.8457 51.0562 67.3318C48.4075 66.8149 46.4851 65.6452 46.7597 64.7207C47.0344 63.7933 49.4026 63.4624 52.0514 63.9764C54.7002 64.4933 56.6225 65.66 56.3479 66.5875Z" fill="white" stroke="#693C3C" stroke-linecap="round" stroke-linejoin="round"/>
<path d="M60.0981 58.1691C59.856 57.3569 58.3264 56.7661 57.848 57.2476C57.3696 57.729 56.7406 61.2587 56.779 61.8376C56.8145 62.4165 58.2171 62.9896 58.8284 62.6765C59.4396 62.3634 60.8393 60.6443 60.1011 58.1721L60.0981 58.1691Z" fill="#FFE3D8" stroke="#693C3C" stroke-linecap="round" stroke-linejoin="round"/>
</g>
<defs>
<clipPath id="clip0_300_22178">
<rect width="65" height="95" fill="white"/>
</clipPath>
</defs>
</svg>
