<svg width="56" height="98" viewBox="0 0 56 98" fill="none" xmlns="http://www.w3.org/2000/svg">
<g clip-path="url(#clip0_300_22281)">
<path d="M29.2532 51.0421C28.6949 52.7874 26.4044 54.2013 24.1398 54.2013C21.8751 54.2013 20.4939 52.7874 21.0521 51.0421C21.6133 49.2968 23.9009 47.8828 26.1655 47.8828C28.4302 47.8828 29.8114 49.2968 29.2532 51.0421Z" fill="#FFC9BA" stroke="#693C3C" stroke-width="2" stroke-miterlimit="10" stroke-linecap="round"/>
<path d="M50.3571 56.3776C51.4534 56.3547 52.8922 56.9831 53.4591 57.5201C54.026 58.0572 54.0605 58.4314 54.0519 59.1369C54.0432 59.8425 53.4044 61.3335 53.108 61.4935C52.8116 61.6535 52.1815 61.305 52.0549 61.2079C52.0088 61.3964 51.7124 61.762 51.4534 61.7449C51.1916 61.7277 50.3398 60.7908 50.0866 60.5309C49.8363 60.2709 49.5284 59.5397 49.583 58.6999C49.6377 57.8601 49.9341 56.389 50.3571 56.3804V56.3776Z" fill="#FFE3D8" stroke="#693C3C" stroke-width="2" stroke-linecap="round" stroke-linejoin="round"/>
<path d="M51.7728 61.2572L51.8131 60.6487V60.643C51.8189 60.5545 51.8937 60.4888 51.9829 60.4945C52.0462 60.4973 52.1009 60.5402 52.121 60.5945L52.3397 61.16V61.1686C52.4001 61.32 52.3253 61.4885 52.1728 61.5485C52.0203 61.6057 51.8505 61.5314 51.7901 61.38C51.7757 61.34 51.7671 61.2972 51.77 61.2543L51.7728 61.2572Z" fill="#693C3C"/>
<path d="M3.4099 51.8612C2.33369 51.647 1.06757 50.7215 0.633059 50.0759C0.195672 49.4304 0.24459 49.0562 0.405733 48.3706C0.569753 47.6851 1.51934 46.3682 1.84163 46.274C2.16679 46.1797 2.7049 46.6567 2.80561 46.7796C2.88906 46.6053 3.26026 46.314 3.51061 46.3854C3.76096 46.4568 4.39114 47.5594 4.57818 47.865C4.7681 48.1735 4.90622 48.9533 4.67026 49.7589C4.4343 50.5672 3.82139 51.9412 3.40702 51.8584L3.4099 51.8612Z" fill="#FFE3D8" stroke="#693C3C" stroke-width="2" stroke-linecap="round" stroke-linejoin="round"/>
<path d="M3.09338 46.7972L2.92073 47.3827C2.89483 47.4713 2.8085 47.5198 2.72218 47.4941C2.66175 47.477 2.61858 47.4256 2.60995 47.3656L2.52075 46.7657V46.7572C2.49485 46.5972 2.60707 46.4487 2.76822 46.423C2.92936 46.4001 3.07899 46.5087 3.10489 46.6686C3.11065 46.7115 3.10489 46.7543 3.09626 46.7943L3.09338 46.7972Z" fill="#693C3C"/>
<path d="M8.21251 90.2297C8.21251 90.2297 4.39976 91.2838 3.93359 91.3723C3.46743 91.4609 2.94371 92.175 3.51922 92.9777C4.09473 93.7803 8.0341 96.3712 9.45273 97.1024C10.8714 97.8337 12.2209 97.8508 12.5461 97.4595C12.8713 97.0681 14.9748 94.1745 14.9748 94.1745C14.9748 94.1745 14.687 91.2124 12.1346 89.8898C10.0657 88.8186 8.21539 90.2297 8.21539 90.2297H8.21251Z" fill="#D85461" stroke="#693C3C" stroke-width="2" stroke-linecap="round" stroke-linejoin="round"/>
<path d="M50.2564 86.4769C50.2564 86.4769 54.1497 87.1882 54.6073 87.3082C55.0677 87.431 55.8504 87.0168 55.6864 86.0427C55.5223 85.0687 53.1225 81.0325 52.17 79.7556C51.2146 78.4816 50.0118 77.8789 49.5457 78.0903C49.0824 78.3017 45.9142 79.9899 45.9142 79.9899C45.9142 79.9899 44.8668 82.7778 46.5789 85.0772C47.9659 86.9397 50.2535 86.4769 50.2535 86.4769H50.2564Z" fill="#D85461" stroke="#693C3C" stroke-width="2" stroke-linecap="round" stroke-linejoin="round"/>
<path d="M14.3216 74.9228C12.667 77.0423 9.98222 82.7781 8.13483 88.2997C7.27156 89.0852 6.71907 89.6565 6.88885 90.0135C7.05575 90.3706 9.04701 92.1788 11.8526 93.7498C14.6582 95.3209 15.5704 95.4408 15.8812 95.2723C16.192 95.1066 16.8653 94.0098 16.8653 94.0098C16.8653 94.0098 24.7066 88.9881 26.7209 87.2256L28.4705 87.0599C28.4705 87.0599 38.2311 90.8933 40.1735 90.7505C42.1158 90.6077 47.8479 87.3942 47.8479 87.3942C47.8479 87.3942 49.9111 87.4884 50.0061 87.2513C50.101 87.0142 50.078 83.895 49.4795 81.7526C48.8809 79.6103 47.9918 78.5619 47.7299 78.5391C47.4652 78.5162 45.2121 79.2532 45.2121 79.2532C45.2121 79.2532 44.6711 76.3967 43.7013 74.9199H14.3216V74.9228Z" fill="#695B5B" stroke="#693C3C" stroke-linecap="round" stroke-linejoin="round"/>
<path d="M8.3276 88.0917C8.3276 88.0917 8.37651 88.1374 8.45996 88.2203C8.54341 88.3031 8.66715 88.4174 8.8139 88.5488C8.96066 88.683 9.13331 88.8373 9.31747 89.0029C9.51027 89.1629 9.71458 89.3314 9.91888 89.5C10.1261 89.6656 10.3217 89.8485 10.5289 89.9884C10.7332 90.1341 10.9203 90.2684 11.0843 90.3826C11.4095 90.614 11.6281 90.7682 11.6281 90.7682L11.6397 90.7768C11.7058 90.8254 11.7231 90.9168 11.6742 90.9825C11.6281 91.0453 11.5418 91.0625 11.4756 91.0225C11.4756 91.0225 11.2454 90.8796 10.9001 90.6654C10.7275 90.5569 10.5232 90.434 10.3074 90.2998C10.0858 90.1712 9.8786 89.997 9.65415 89.8427C9.43545 89.6828 9.21388 89.5228 9.00958 89.3743C8.81102 89.2143 8.62398 89.0658 8.46284 88.9401C8.3017 88.8144 8.16933 88.7059 8.083 88.6287C7.9938 88.5516 7.942 88.5088 7.942 88.5088C7.82115 88.4059 7.80676 88.226 7.91035 88.106C8.01394 87.986 8.19523 87.9717 8.31609 88.0746C8.32184 88.0774 8.32472 88.0831 8.33047 88.086L8.3276 88.0917Z" fill="#693C3C"/>
<path d="M28.3266 87.3133C28.3266 87.3133 28.2201 87.2533 28.0359 87.1447C27.8489 87.0391 27.5842 86.8819 27.2705 86.6906C26.954 86.4992 26.5857 86.2764 26.1914 86.0364C25.9929 85.9193 25.7972 85.7822 25.5929 85.6537C25.3886 85.5223 25.1843 85.388 24.9771 85.2538C24.7699 85.1195 24.5656 84.9852 24.3613 84.8538C24.1599 84.7196 23.9527 84.5996 23.7685 84.4597C23.3945 84.1883 23.0463 83.9341 22.747 83.717C22.1485 83.2828 21.7514 82.9943 21.7514 82.9943C21.6852 82.9457 21.6708 82.8543 21.7197 82.7886C21.7658 82.7258 21.8578 82.7086 21.9212 82.7543L21.9327 82.7601C21.9327 82.7601 22.3384 83.0343 22.9456 83.4427C23.2477 83.6484 23.6045 83.8855 23.9815 84.1426C24.1685 84.274 24.3786 84.3882 24.5829 84.5139C24.7901 84.6368 25.0001 84.7624 25.2073 84.8881C25.4174 85.0138 25.6274 85.1395 25.8317 85.2623C26.0389 85.3852 26.2375 85.5108 26.4389 85.6222C26.8389 85.845 27.213 86.0536 27.5324 86.2335C27.8518 86.4135 28.1194 86.5592 28.3093 86.6591C28.4992 86.7591 28.6057 86.8191 28.6057 86.8191C28.7467 86.8934 28.7985 87.0648 28.7237 87.2047C28.6489 87.3447 28.4733 87.3961 28.3352 87.3219C28.3352 87.3219 28.3266 87.319 28.3266 87.3161V87.3133Z" fill="#693C3C"/>
<path d="M26.6778 87.5151C26.6778 87.5151 25.7512 87.3408 24.8477 87.098C24.6232 87.0323 24.3959 86.9695 24.1858 86.9067C23.9758 86.8352 23.7801 86.7724 23.6132 86.7153C23.2852 86.5839 23.0665 86.4953 23.0665 86.4953C23.006 86.4725 22.9773 86.4039 23.0003 86.3411C23.0233 86.2839 23.0866 86.2554 23.1442 86.2725H23.1557C23.1557 86.2725 23.3744 86.3411 23.7024 86.4382C23.8693 86.4782 24.065 86.5239 24.275 86.5725C24.488 86.6124 24.7124 86.6553 24.9397 86.6981C25.8491 86.8552 26.7641 86.9438 26.7641 86.9438C26.9224 86.9581 27.0375 87.098 27.0231 87.2551C27.0087 87.4123 26.8677 87.5265 26.7094 87.5122C26.7008 87.5122 26.6922 87.5122 26.6835 87.5094L26.6778 87.5151Z" fill="#693C3C"/>
<path d="M45.425 79.4426C45.425 79.4426 45.3761 79.4941 45.3156 79.5712C45.2494 79.6455 45.1574 79.7769 45.048 79.9254C44.9502 80.0854 44.8149 80.2625 44.7056 80.4738C44.648 80.5767 44.5876 80.6852 44.5243 80.7938C44.4668 80.9052 44.415 81.0194 44.3603 81.1365C44.3056 81.2508 44.2481 81.3651 44.1991 81.4822C44.1531 81.5993 44.1071 81.7136 44.0639 81.825C43.9747 82.0478 43.8941 82.2563 43.8423 82.4419C43.7301 82.8104 43.6524 83.0561 43.6524 83.0561V83.0675C43.6236 83.1475 43.5373 83.1932 43.4567 83.1675C43.379 83.1446 43.3359 83.0647 43.3531 82.9875C43.3531 82.9875 43.4136 82.7305 43.5057 82.3477C43.5459 82.1534 43.615 81.9335 43.6927 81.6964C43.7301 81.5793 43.7704 81.4565 43.8107 81.3308C43.8538 81.208 43.9056 81.0851 43.9546 80.9623C44.0035 80.8395 44.0524 80.7138 44.1042 80.5938C44.1617 80.4767 44.2164 80.3596 44.2711 80.2453C44.3747 80.0168 44.5013 79.8168 44.5962 79.6397C44.7085 79.4684 44.7919 79.3255 44.8725 79.2227C44.9473 79.117 44.9876 79.0713 44.9876 79.0713L44.9962 79.0627C45.0998 78.9428 45.2811 78.9256 45.402 79.0285C45.5228 79.1284 45.5401 79.3113 45.4365 79.4312C45.4336 79.4341 45.4279 79.4398 45.425 79.4426Z" fill="#693C3C"/>
<path d="M50.9729 55.9048C50.806 55.7506 49.6895 55.3449 49.6895 55.3449C49.6895 55.3449 49.4133 54.2966 48.7198 53.9767C48.0263 53.6568 41.2008 52.0828 39.1519 51.8458C34.3205 51.026 26.2634 52.7398 23.7225 53.4168C23.7225 53.4168 21.9471 49.0721 21.3485 48.7151C20.75 48.358 19.0695 48.358 18.5919 48.7151C18.143 49.0493 17.7574 50.109 17.6509 50.5575C17.6509 50.5575 11.6397 49.2864 9.02688 48.9521C8.71322 48.6665 8.36792 48.238 8.00822 48.1838C7.64853 48.1295 6.7939 48.3437 6.7939 48.3437C6.7939 48.3437 5.50763 47.5582 5.39253 47.5125C5.27455 47.4668 4.89759 47.6724 4.89759 47.6724C4.89759 47.6724 4.31345 49.5749 3.82139 50.5546C3.32933 51.5315 2.88043 52.0371 2.88043 52.0371C2.88043 52.0371 2.63008 52.4885 2.88043 52.7741C3.13078 53.0598 4.54653 53.9053 4.54653 53.9053C4.54653 53.9053 4.81127 55.2393 5.27743 55.6792C5.74359 56.1191 9.49016 60.518 15.3172 62.1948C15.3172 62.1948 15.1733 63.2488 15.1561 63.8201C14.4367 64.8913 13.2511 67.5507 13.6626 72.301C12.9605 73.5864 12.4397 75.2832 12.5835 75.7459C12.7274 76.2087 15.1359 78.9052 26.2519 79.585C37.3679 80.2648 44.297 76.6086 44.5848 76.3943C44.8725 76.1801 44.8955 73.8463 43.6726 71.9896C43.5287 68.539 42.1129 63.7658 41.0713 61.6949C43.4078 61.8549 45.6926 62.1776 46.8264 62.0148C47.9601 61.852 48.6594 61.0865 48.6594 61.0865C48.6594 61.0865 49.9773 61.075 50.0866 60.9322C50.196 60.7894 51.0708 57.0046 51.1168 56.6818C51.1628 56.359 51.1398 56.0505 50.9729 55.8962V55.9048Z" fill="#FFC069"/>
<path d="M17.648 50.5575C17.648 50.5575 11.6397 49.2864 9.02401 48.9521C8.71036 48.6665 8.36505 48.238 8.00536 48.1838C7.64566 48.1295 6.79103 48.3437 6.79103 48.3437C6.79103 48.3437 5.50476 47.5582 5.38966 47.5125C5.27168 47.4668 4.89472 47.6724 4.89472 47.6724C4.89472 47.6724 4.31058 49.5749 3.81852 50.5546C3.32646 51.5315 2.87756 52.0371 2.87756 52.0371C2.87756 52.0371 2.62721 52.4885 2.87756 52.7741C3.12791 53.0598 4.54366 53.9053 4.54366 53.9053C4.54366 53.9053 4.8084 55.2393 5.27456 55.6792C5.74072 56.119 9.48729 60.518 15.3143 62.1948C15.3143 62.1948 15.1705 63.2488 15.1532 63.8201C14.4338 64.8913 13.2483 67.5507 13.6597 72.301C12.9576 73.5864 12.4368 75.2832 12.5807 75.7459C12.7245 76.2087 15.133 78.9052 26.249 79.585C37.365 80.2648 44.2941 76.6086 44.5819 76.3943C44.8697 76.1801 44.8927 73.8463 43.6697 71.9896C43.5258 68.539 42.1101 63.7658 41.0684 61.6949C43.405 61.8549 45.6898 62.1776 46.8235 62.0148C47.9573 61.852 48.6565 61.0865 48.6565 61.0865C48.6565 61.0865 49.9744 61.075 50.0838 60.9322C50.1931 60.7894 51.0679 57.0046 51.1139 56.6818C51.16 56.359 51.137 56.0505 50.9701 55.8962C50.8032 55.742 49.6867 55.3364 49.6867 55.3364C49.6867 55.3364 49.4104 54.288 48.7169 53.9681C48.0234 53.6482 41.1979 52.0743 39.1491 51.8372C34.3177 51.0174 26.2605 52.7313 23.7197 53.4083C23.7197 53.4083 21.9442 49.0636 21.3457 48.7065C20.7471 48.3494 19.0667 48.3494 18.589 48.7065C18.1084 49.0636 17.7027 50.2547 17.6308 50.6346C17.5588 51.0145 18.4422 51.8486 19.7515 52.5399" stroke="#693C3C" stroke-linecap="round" stroke-linejoin="round"/>
<path d="M7.06437 48.4328C7.06437 48.4328 6.99531 48.627 6.87445 48.9212C6.8169 49.0669 6.74784 49.2383 6.67303 49.4211C6.59821 49.6039 6.509 49.7953 6.42556 49.9867C6.38239 50.0838 6.34211 50.1781 6.29894 50.2723C6.25578 50.3666 6.22125 50.4609 6.17233 50.5494C6.08313 50.7265 5.99968 50.8893 5.92774 51.0322C5.78674 51.3121 5.69178 51.5006 5.69178 51.5006C5.66301 51.5578 5.59394 51.5806 5.53639 51.552C5.4846 51.5263 5.4587 51.4635 5.48172 51.4092V51.4007C5.48172 51.4007 5.55941 51.2064 5.66876 50.9179C5.72343 50.7722 5.78962 50.6037 5.85868 50.4237C5.89609 50.3352 5.92198 50.2352 5.95364 50.1409C5.98529 50.0438 6.01694 49.9438 6.0486 49.8467C6.1119 49.6496 6.17809 49.4525 6.23276 49.2669C6.28456 49.0812 6.33635 48.9069 6.37664 48.7584C6.46296 48.4642 6.51476 48.2585 6.51476 48.2585C6.55217 48.1043 6.70756 48.01 6.86294 48.0471C7.01833 48.0843 7.11329 48.2385 7.07588 48.3928C7.07588 48.4014 7.07013 48.4128 7.06725 48.4213V48.4299L7.06437 48.4328Z" fill="#693C3C"/>
<path d="M15.0295 62.1688C15.0295 62.1688 15.0381 62.0574 15.0554 61.8631C15.0755 61.6718 15.11 61.3975 15.1532 61.0662C15.2021 60.7377 15.2654 60.3578 15.3402 59.9493C15.4122 59.5408 15.51 59.1095 15.6165 58.6782C15.7258 58.2468 15.8438 57.8212 15.9762 57.4242C16.1086 57.0271 16.2524 56.6643 16.3963 56.3587C16.4625 56.2045 16.5459 56.0702 16.6092 55.9502C16.6726 55.8303 16.7416 55.7303 16.7963 55.6474C16.9028 55.4818 16.9718 55.3932 16.9718 55.3932C17.0092 55.3447 17.0783 55.3361 17.1272 55.3704C17.1646 55.3989 17.179 55.4475 17.1675 55.4903V55.4989C17.1675 55.4989 17.133 55.6046 17.0639 55.7817C17.0294 55.8702 16.992 55.9759 16.9546 56.1045C16.9143 56.2302 16.8653 56.3673 16.8193 56.5244C16.7733 56.6786 16.7243 56.8472 16.6726 57.0243C16.6236 57.2042 16.5747 57.3928 16.52 57.587C16.474 57.7841 16.4136 57.984 16.3675 58.1926C16.3186 58.4011 16.2697 58.6096 16.2265 58.8238C16.1316 59.2466 16.051 59.6722 15.9733 60.0721C15.8956 60.472 15.8352 60.8462 15.7776 61.169C15.6712 61.8117 15.5992 62.2373 15.5992 62.2373V62.243C15.5733 62.4002 15.4237 62.503 15.2683 62.4773C15.1187 62.4516 15.0151 62.3173 15.0295 62.1716V62.1688Z" fill="#693C3C"/>
<path d="M14.8856 62.2338C14.8856 62.2338 14.8683 62.1624 14.8396 62.0396C14.8079 61.9139 14.7705 61.7339 14.7273 61.5225C14.6813 61.3083 14.641 61.0598 14.5921 60.7913C14.5547 60.5228 14.5029 60.2371 14.4741 59.9486C14.4453 59.6601 14.4022 59.3745 14.3907 59.1002C14.3763 58.8289 14.3475 58.5775 14.3504 58.3576C14.3446 57.9234 14.3417 57.632 14.3417 57.632C14.3417 57.552 14.405 57.4863 14.4856 57.4863C14.5633 57.4863 14.6266 57.5435 14.6324 57.6206V57.6292C14.6324 57.6292 14.6525 57.9119 14.6842 58.3376C14.6957 58.5489 14.7388 58.7946 14.7676 59.0602C14.7964 59.323 14.8539 59.603 14.9 59.8829C14.946 60.1628 15.0151 60.4399 15.0669 60.6999C15.1302 60.9569 15.1849 61.1997 15.2424 61.4054C15.2971 61.6111 15.346 61.7796 15.3805 61.8967C15.4179 62.0138 15.4381 62.0824 15.4381 62.0824V62.0881C15.487 62.2395 15.4007 62.3995 15.2482 62.4452C15.0957 62.4909 14.9345 62.4052 14.8885 62.2538L14.8827 62.2366L14.8856 62.2338Z" fill="#693C3C"/>
<path d="M15.1532 63.8251C15.1532 63.8251 15.6568 63.5195 16.8078 63.5909C17.9588 63.6623 28.4446 63.7052 29.164 63.7023C29.8834 63.6994 30.8905 64.1993 31.161 65.4133C31.4315 66.6273 31.7193 69.2524 32.5825 70.8578C33.4458 72.4631 33.7335 72.7688 33.6961 73.1772C33.6587 73.5857 33.3911 74.8568 32.4185 75.3024" stroke="#693C3C" stroke-linecap="round" stroke-linejoin="round"/>
<path d="M33.6644 75.0138C33.6644 75.0138 33.9234 74.9367 34.3119 74.8195C34.5076 74.7624 34.7349 74.6967 34.9766 74.6253C35.2212 74.5539 35.4831 74.4882 35.7449 74.4168C36.0068 74.3482 36.2686 74.2768 36.5132 74.214C36.7636 74.1568 36.9938 74.1054 37.1952 74.0597C37.5952 73.9712 37.8599 73.9112 37.8599 73.9112C38.0153 73.8769 38.1707 73.974 38.2052 74.1283C38.2398 74.2825 38.1419 74.4368 37.9865 74.471C37.9808 74.471 37.975 74.471 37.9664 74.4739H37.9462C37.9462 74.4739 37.6815 74.5167 37.2873 74.5767C37.0887 74.6082 36.8585 74.6424 36.6111 74.6796C36.3636 74.7224 36.1017 74.7767 35.837 74.8253C35.5723 74.8767 35.3075 74.9224 35.0629 74.9766C34.8155 75.0309 34.5881 75.0795 34.3896 75.1223C33.9954 75.2109 33.7335 75.268 33.7335 75.268C33.6616 75.2851 33.5896 75.2394 33.5724 75.168C33.558 75.0995 33.5983 75.0309 33.6644 75.0109V75.0138Z" fill="#693C3C"/>
<path d="M14.9258 72.835C14.9258 72.835 14.9719 72.8779 15.0582 72.9264C15.1014 72.955 15.1532 72.9893 15.2136 73.0293C15.2798 73.0664 15.3575 73.1064 15.4438 73.1549C15.6078 73.2549 15.8323 73.3463 16.0769 73.4663C16.3215 73.5834 16.6178 73.6834 16.9257 73.8148C17.2423 73.929 17.5933 74.0376 17.9588 74.1661C18.3329 74.2718 18.7328 74.3689 19.1415 74.4775C19.5529 74.5803 19.9903 74.6489 20.4248 74.7403L20.7558 74.806L20.8392 74.8231L20.8737 74.8317L20.9169 74.8374L21.0867 74.8631C21.314 74.8974 21.5413 74.9345 21.7687 74.9688C22.2233 75.0402 22.678 75.1116 23.1211 75.1573C23.5671 75.2059 24.0016 75.2687 24.4304 75.3002C24.8563 75.3373 25.2678 75.3858 25.662 75.4116C26.0533 75.4373 26.4245 75.463 26.767 75.4887C27.4518 75.5287 28.0245 75.5487 28.4244 75.5658C28.8244 75.5744 29.0517 75.5801 29.0517 75.5801H29.0546C29.1323 75.5801 29.1956 75.6458 29.1927 75.7229C29.1927 75.7943 29.1381 75.8515 29.069 75.86C29.069 75.86 28.8359 75.8886 28.4302 75.9143C28.2288 75.9257 27.9813 75.9372 27.6993 75.9514C27.4173 75.9571 27.0979 75.96 26.7526 75.9657C26.4044 75.9657 26.0303 75.9543 25.6303 75.9457C25.2332 75.9343 24.8131 75.9029 24.3815 75.88C23.947 75.86 23.5009 75.7972 23.0434 75.7572C22.5859 75.7172 22.1284 75.6544 21.6737 75.5887C21.4464 75.5572 21.219 75.5258 20.9917 75.4944L20.8219 75.4715L20.7788 75.4658L20.7299 75.4573L20.6464 75.4401L20.3069 75.3716C19.858 75.2744 19.4119 75.2002 18.9889 75.0859C18.5688 74.9602 18.1602 74.8517 17.7775 74.7289C17.4005 74.586 17.0408 74.4575 16.7186 74.3175C16.402 74.1547 16.1056 74.029 15.8639 73.8719C15.6193 73.7148 15.4064 73.5863 15.2481 73.4463C15.1676 73.3806 15.0956 73.3206 15.0352 73.2692C14.9748 73.2092 14.9258 73.1607 14.8827 73.1207C14.8424 73.0807 14.8136 73.0493 14.7992 73.0264C14.782 73.0035 14.7733 72.995 14.7733 72.995C14.7302 72.9521 14.7302 72.8836 14.7733 72.8407C14.8165 72.7979 14.8856 72.7979 14.9287 72.8407L14.9258 72.835Z" fill="#693C3C"/>
<path d="M37.1405 61.4124C37.1405 61.4124 37.0657 61.3638 36.9333 61.2781C36.8672 61.2353 36.7895 61.1867 36.6974 61.1239C36.6053 61.0553 36.5017 60.9753 36.3895 60.8897C36.2744 60.8068 36.1622 60.7068 36.0442 60.6011C35.9291 60.4926 35.7967 60.3898 35.6816 60.2641C35.5636 60.1384 35.4428 60.0099 35.319 59.8785C35.1982 59.7471 35.0917 59.5957 34.9766 59.4528C34.8615 59.31 34.7522 59.1672 34.6601 59.0129C34.5622 58.8616 34.4673 58.713 34.3752 58.5702C34.2889 58.4245 34.2198 58.2731 34.1479 58.136C34.0788 57.996 34.0126 57.8646 33.9522 57.7447C33.7594 57.2391 33.6299 56.902 33.6299 56.902C33.604 56.8363 33.6385 56.762 33.7047 56.7363C33.768 56.7135 33.84 56.742 33.8687 56.8049L33.8745 56.8192C33.8745 56.8192 34.0184 57.1391 34.2313 57.6161C34.2975 57.7304 34.3666 57.8532 34.4414 57.9818C34.5191 58.1103 34.591 58.2503 34.6802 58.3845C34.7752 58.5159 34.8759 58.653 34.9737 58.793C35.0687 58.9358 35.1809 59.0672 35.2989 59.1958C35.4169 59.3243 35.5233 59.4614 35.6442 59.5785C35.7679 59.6956 35.8888 59.8128 36.0068 59.9242C36.1219 60.0384 36.2514 60.127 36.3665 60.2241C36.4816 60.3184 36.5909 60.4069 36.6974 60.4726C36.801 60.544 36.8959 60.6097 36.9823 60.6668C37.0715 60.724 37.1578 60.7668 37.224 60.8068C37.3592 60.8839 37.4369 60.9268 37.4369 60.9268C37.575 61.0039 37.6239 61.1782 37.5434 61.3181C37.4657 61.4552 37.2902 61.5038 37.1492 61.4238L37.1348 61.4152L37.1405 61.4124Z" fill="#693C3C"/>
<path d="M41.0684 61.7012C41.0684 61.7012 38.8038 61.5356 38.1908 61.5098C38.0239 61.5041 37.6959 61.3927 37.2902 61.1699" stroke="#693C3C" stroke-linecap="round" stroke-linejoin="round"/>
<path d="M34.7292 60.8014C34.7292 60.8014 34.7551 60.8328 34.8011 60.8699C34.8414 60.9128 34.9162 60.967 34.9997 61.0356C35.0917 61.0956 35.1896 61.1755 35.3133 61.2384C35.4313 61.3069 35.5579 61.3755 35.696 61.4298C35.7622 61.4583 35.8284 61.4898 35.8946 61.5155C35.9636 61.5383 36.0298 61.5583 36.096 61.5783C36.2255 61.6212 36.3464 61.6612 36.4557 61.6754C36.6686 61.7183 36.8096 61.7497 36.8096 61.7497L36.8384 61.7554C36.9938 61.7868 37.0945 61.9411 37.0629 62.0953C37.0312 62.2496 36.8758 62.3496 36.7204 62.3181C36.7089 62.3181 36.6945 62.3124 36.683 62.3067C36.683 62.3067 36.5305 62.2524 36.3003 62.1725C36.1852 62.1382 36.0557 62.0782 35.9205 62.0125C35.8514 61.9811 35.7824 61.9468 35.7104 61.9125C35.6414 61.8754 35.5723 61.8297 35.5032 61.7897C35.3622 61.7126 35.2327 61.6154 35.1148 61.524C34.991 61.4383 34.8932 61.3355 34.804 61.2555C34.7205 61.167 34.6515 61.0984 34.6054 61.0384C34.5565 60.9813 34.5364 60.9499 34.5364 60.9499L34.5306 60.9413C34.4932 60.8842 34.5105 60.8071 34.568 60.7699C34.6198 60.7357 34.6889 60.7471 34.7292 60.7928V60.8014Z" fill="#693C3C"/>
<path d="M48.3716 61.0864C48.3716 61.0864 48.3832 60.8779 48.4148 60.5608C48.4292 60.4037 48.4465 60.2181 48.4637 60.021C48.4839 59.8239 48.5126 59.6125 48.5385 59.404C48.5673 59.1954 48.5875 58.9841 48.6191 58.787C48.6536 58.5899 48.6882 58.4071 48.7141 58.2528C48.7716 57.9415 48.809 57.7329 48.809 57.7329C48.8234 57.6587 48.8954 57.6072 48.973 57.6215C49.045 57.633 49.0939 57.6987 49.0882 57.7701V57.7815C49.0882 57.7815 49.068 57.99 49.0392 58.2985C49.0248 58.4528 49.0076 58.6327 48.9903 58.827C48.9759 59.0212 48.9731 59.2297 48.9644 59.4382C48.9587 59.6468 48.9472 59.8553 48.9443 60.0495C48.9443 60.2438 48.9443 60.4266 48.9443 60.5808C48.9414 60.8922 48.9472 61.1036 48.9472 61.1036C48.9529 61.2607 48.8263 61.3921 48.668 61.3978C48.5098 61.4035 48.3774 61.2778 48.3716 61.1207C48.3716 61.1121 48.3716 61.1036 48.3716 61.0979V61.0893V61.0864Z" fill="#693C3C"/>
<path d="M5.87885 35.4097C5.20838 37.6948 4.86883 40.0114 5.44722 41.6453C7.31762 46.9298 16.0337 50.7375 24.0074 50.7375C29.8114 50.7375 38.2024 47.2155 40.0728 44.3104C42.9014 42.4537 48.081 32.1219 45.0135 23.0782C41.9432 14.0318 33.5033 10.3669 22.2809 11.1753C11.0584 11.9837 7.36654 16.4112 5.73497 23.0297C4.32209 28.7626 5.87885 34.2185 5.87885 35.4068V35.4097Z" fill="#FFE3D8"/>
<path d="M31.21 35.5469C28.2806 35.5469 25.9037 37.2808 25.9037 39.4203C25.9037 41.5598 28.2777 43.2936 31.21 43.2936C34.1422 43.2936 36.5162 41.5598 36.5162 39.4203C36.5162 37.2808 34.1422 35.5469 31.21 35.5469Z" fill="#FFC9BA"/>
<path d="M12.8943 39.4203C12.8943 37.2808 10.5204 35.5469 7.58813 35.5469C6.94932 35.5469 6.33928 35.6326 5.7724 35.784C5.17387 37.9463 4.9005 40.1001 5.44724 41.6455C5.6314 42.1625 5.88175 42.6652 6.18964 43.1537C6.63566 43.2422 7.10471 43.2936 7.58813 43.2936C10.5175 43.2936 12.8943 41.5598 12.8943 39.4203Z" fill="#FFC9BA"/>
<path d="M5.87885 35.4097C5.20838 37.6948 4.86883 40.0114 5.44722 41.6453C7.31762 46.9298 16.0337 50.7375 24.0074 50.7375C29.8114 50.7375 38.2024 47.2155 40.0728 44.3104C42.9014 42.4537 48.081 32.1219 45.0135 23.0782C41.9432 14.0318 33.5033 10.3669 22.2809 11.1753C11.0584 11.9837 7.36654 16.4112 5.73497 23.0297C4.32209 28.7626 5.87885 34.2185 5.87885 35.4068V35.4097Z" stroke="#693C3C" stroke-miterlimit="10" stroke-linecap="round"/>
<path d="M45.7991 35.8833C44.9589 34.9692 42.7057 34.8664 41.2324 36.4375L39.6325 44.2042C41.6813 45.0069 44.3632 44.0443 45.7099 41.6334C47.1861 38.9969 46.8954 37.0802 45.7991 35.8862V35.8833Z" fill="#FFE3D8"/>
<path d="M44.3056 37.9375C44.3056 37.9375 42.6885 38.1689 41.8252 40.5969C42.723 39.7571 44.0726 40.1341 44.3056 40.8997" stroke="#693C3C" stroke-linecap="round" stroke-linejoin="round"/>
<path d="M41.2324 36.4375C42.7057 34.8664 44.9617 34.9692 45.7991 35.8833C46.8954 37.0802 47.1832 38.9969 45.7099 41.6305C44.3603 44.0414 41.6813 45.004 39.6325 44.2014" stroke="#693C3C" stroke-miterlimit="10" stroke-linecap="round"/>
<path d="M15.4007 44.2428C15.3633 44.0543 15.6654 43.4087 16.7445 43.123C17.8236 42.8374 22.6204 41.7434 23.6506 41.7177C24.6808 41.6919 25.9757 42.2404 26.4792 44.0514C26.9828 45.8624 25.4663 47.5934 22.9312 48.1933C20.0047 48.8846 16.2179 48.2876 15.4007 44.2428Z" fill="#D85461"/>
<path d="M26.5137 44.2256C22.5859 43.5201 18.9084 45.8309 17.8063 47.7248C19.3227 48.5617 21.2651 48.5846 22.9283 48.1932C25.3829 47.6134 26.8763 45.9709 26.5137 44.2256Z" fill="#FFB0A4"/>
<path d="M26.5137 44.2256C22.5859 43.5201 18.9084 45.8309 17.8063 47.7248" stroke="#A13E49" stroke-miterlimit="10" stroke-linecap="round"/>
<path d="M16.7416 43.1229C16.2898 43.2429 15.9762 43.4229 15.7661 43.6085C17.4437 44.1455 22.6089 43.6257 24.8189 41.9489C24.4275 41.7747 24.0189 41.709 23.6477 41.7175C22.6176 41.7404 17.8207 42.8373 16.7416 43.1229Z" fill="white"/>
<path d="M15.7661 43.6088C17.4437 44.1458 22.6089 43.626 24.8189 41.9492" stroke="#A13E49" stroke-miterlimit="10" stroke-linecap="round"/>
<path d="M15.4007 44.2428C15.3633 44.0543 15.6654 43.4087 16.7445 43.123C17.8236 42.8374 22.6204 41.7434 23.6506 41.7177C24.6808 41.6919 25.9757 42.2404 26.4792 44.0514C26.9828 45.8624 25.4663 47.5934 22.9312 48.1933C20.0047 48.8846 16.2179 48.2876 15.4007 44.2428Z" stroke="#A13E49" stroke-miterlimit="10" stroke-linecap="round"/>
<path d="M15.7661 38.7949C15.7661 38.7949 14.8482 39.5433 16.0164 40.2946" stroke="#BA7366" stroke-miterlimit="10" stroke-linecap="round"/>
<path d="M29.3827 37.6971C29.3827 37.6971 29.423 37.6686 29.5035 37.6172C29.5812 37.5629 29.6963 37.5029 29.8345 37.4258C29.9755 37.3601 30.1395 37.2687 30.3236 37.2001C30.5049 37.1258 30.7006 37.0459 30.902 36.9859C31.0027 36.9545 31.1035 36.9202 31.2013 36.8888C31.302 36.8631 31.4027 36.8402 31.4977 36.8174L31.7739 36.7488C31.8631 36.7259 31.9466 36.7174 32.0243 36.7031C32.3379 36.6545 32.548 36.6203 32.548 36.6203C32.666 36.6003 32.7753 36.6802 32.7955 36.7974C32.8156 36.9145 32.735 37.023 32.6171 37.043C32.6113 37.043 32.6055 37.043 32.5998 37.043H32.5825C32.5825 37.043 32.3811 37.0602 32.079 37.083C32.0041 37.0916 31.9207 37.0916 31.8344 37.1059C31.748 37.1201 31.6588 37.1344 31.5639 37.1487C31.4689 37.163 31.374 37.1801 31.2732 37.1944C31.1754 37.2173 31.0776 37.2401 30.9797 37.263C30.7812 37.3058 30.5884 37.3658 30.4071 37.4229C30.2229 37.4772 30.0618 37.5486 29.9179 37.6029C29.7798 37.6657 29.6618 37.7171 29.587 37.7571C29.5093 37.7971 29.4661 37.8228 29.4661 37.8228C29.4287 37.8457 29.3769 37.8343 29.3539 37.7971C29.3309 37.76 29.3395 37.7143 29.3741 37.6886H29.3769L29.3827 37.6971Z" fill="#ED9087"/>
<path d="M30.41 38.2085C30.41 38.2085 30.4416 38.1914 30.4934 38.1628C30.5481 38.1314 30.6287 38.0971 30.7236 38.0514C30.8215 38.0114 30.9337 37.96 31.0574 37.9171C31.1811 37.8743 31.3135 37.8229 31.4488 37.7886C31.584 37.7486 31.7192 37.7115 31.8487 37.6858C31.9782 37.6572 32.0991 37.6286 32.2056 37.6172L32.5595 37.5687C32.6775 37.5515 32.7868 37.6344 32.8041 37.7515C32.8213 37.8686 32.7379 37.9771 32.6199 37.9943C32.6113 37.9943 32.6027 37.9943 32.594 37.9943H32.5768C32.5768 37.9943 32.4444 37.9943 32.2458 38C32.1451 38 32.03 38.0114 31.9063 38.0228C31.7797 38.0314 31.6502 38.0514 31.5178 38.0742C31.3855 38.0914 31.256 38.1257 31.1322 38.1514C31.0085 38.1799 30.8963 38.2142 30.7984 38.2428C30.7035 38.2742 30.6229 38.2999 30.5682 38.3199L30.4819 38.3542H30.479C30.4387 38.3713 30.3898 38.3542 30.3726 38.3113C30.3582 38.2742 30.3726 38.2285 30.41 38.2114V38.2085Z" fill="#ED9087"/>
<path d="M31.4487 38.7141C31.4487 38.7141 31.512 38.6912 31.6185 38.6655C31.7221 38.6369 31.8631 38.5998 32.0041 38.5769C32.0761 38.5655 32.1451 38.5455 32.2142 38.5398C32.2832 38.5341 32.3494 38.5284 32.4041 38.5227C32.5163 38.5141 32.5911 38.5084 32.5911 38.5084C32.712 38.4998 32.8156 38.5884 32.8271 38.7083C32.8357 38.8283 32.7465 38.9311 32.6257 38.9426C32.6084 38.9426 32.5911 38.9426 32.5767 38.9426L32.548 38.9369C32.548 38.9369 32.4847 38.9254 32.3897 38.9111C32.3408 38.9026 32.2832 38.894 32.2228 38.8854C32.1624 38.874 32.0933 38.8769 32.0271 38.8712C31.8919 38.8626 31.7566 38.8626 31.6559 38.8654C31.5552 38.8654 31.4833 38.874 31.4833 38.874C31.4372 38.8797 31.3969 38.8483 31.3941 38.8026C31.3912 38.7655 31.4113 38.7312 31.4459 38.7169H31.4516L31.4487 38.7141Z" fill="#ED9087"/>
<path d="M9.11897 37.8214C9.11897 37.8214 9.09308 37.7957 9.04991 37.7614C9.00963 37.7242 8.94057 37.6757 8.86 37.6186C8.82259 37.5871 8.77367 37.5643 8.72475 37.5329C8.67583 37.5043 8.62691 37.47 8.57224 37.4415C8.46002 37.3872 8.34779 37.3215 8.22406 37.2786C8.16363 37.2558 8.1032 37.2329 8.04277 37.2101C7.98234 37.1872 7.91904 37.1758 7.86149 37.1587C7.74351 37.1301 7.63704 37.093 7.5392 37.0873C7.34928 37.0644 7.22267 37.0473 7.22267 37.0473H7.19677C7.07879 37.0301 6.99534 36.9216 7.00973 36.8045C7.02412 36.6873 7.13347 36.6045 7.25144 36.6188C7.26008 36.6188 7.26871 36.6216 7.27734 36.6245C7.27734 36.6245 7.41834 36.6588 7.6284 36.7131C7.73487 36.733 7.84997 36.7873 7.97659 36.8359C8.03702 36.8616 8.10608 36.8816 8.16651 36.9159C8.22981 36.9501 8.29024 36.9816 8.35355 37.0158C8.48304 37.0758 8.59526 37.1644 8.70748 37.2358C8.76216 37.2701 8.81108 37.3158 8.86 37.3529C8.90604 37.3929 8.95208 37.4243 8.99236 37.4614C9.07006 37.5329 9.13336 37.5928 9.17653 37.6414C9.21969 37.6871 9.23983 37.7128 9.23983 37.7128V37.7185C9.27148 37.7528 9.26285 37.8042 9.22832 37.8328C9.19667 37.8585 9.15063 37.8528 9.12185 37.8242L9.11897 37.8214Z" fill="#ED9087"/>
<path d="M8.50031 38.3433C8.50031 38.3433 8.48017 38.329 8.4514 38.3119C8.42262 38.2919 8.3737 38.269 8.31615 38.2404C8.20105 38.1833 8.04566 38.1176 7.88164 38.0748C7.80107 38.0548 7.7205 38.0319 7.6428 38.0234C7.56511 38.0148 7.49605 37.9976 7.43562 38.0005C7.31476 37.9976 7.23419 37.9948 7.23419 37.9948H7.21117C7.09031 37.9919 6.99536 37.892 6.99823 37.772C7.00111 37.652 7.10182 37.5578 7.22268 37.5606C7.23707 37.5606 7.25146 37.5606 7.26297 37.5663C7.26297 37.5663 7.35793 37.5863 7.5018 37.6177C7.57374 37.6292 7.65144 37.6634 7.73489 37.692C7.82121 37.7177 7.90466 37.7606 7.99099 37.8006C8.16076 37.8805 8.31615 37.9834 8.4255 38.0691C8.48017 38.1119 8.52621 38.149 8.55786 38.1776C8.58664 38.2062 8.60391 38.2205 8.60391 38.2205C8.63844 38.2519 8.63844 38.3033 8.60966 38.3347C8.58089 38.3661 8.53484 38.369 8.50319 38.3461L8.50031 38.3433Z" fill="#ED9087"/>
<path d="M7.90177 38.8723C7.90177 38.8723 7.85573 38.8637 7.7953 38.8637C7.73487 38.8609 7.6543 38.8609 7.57373 38.8694C7.53344 38.8752 7.49315 38.8723 7.45862 38.8837C7.42409 38.8923 7.39532 38.9009 7.36942 38.9094C7.31762 38.9237 7.28597 38.9323 7.28597 38.9323L7.25144 38.9409C7.13346 38.9723 7.00973 38.9037 6.97807 38.7866C6.94642 38.6695 7.01548 38.5467 7.13346 38.5152C7.15936 38.5067 7.18813 38.5067 7.21691 38.5095C7.21691 38.5095 7.26871 38.5152 7.3464 38.5238C7.38381 38.5295 7.42697 38.5352 7.47589 38.5409C7.52193 38.5467 7.56797 38.5667 7.61401 38.5781C7.70609 38.6038 7.79242 38.6381 7.85573 38.6695C7.92191 38.6952 7.95644 38.718 7.95644 38.718L7.96507 38.7238C8.00248 38.7466 8.01399 38.798 7.98809 38.8352C7.97083 38.8637 7.9363 38.878 7.90464 38.8723H7.90177Z" fill="#ED9087"/>
<path d="M23.4261 34.582C25.8346 33.3851 28.8302 32.7595 30.9077 32.8138C32.9767 32.8681 33.4803 33.2594 33.6414 33.4194C33.8026 33.5793 34.3234 34.9562 34.0011 34.9904C33.6788 35.0247 28.787 34.7762 23.9671 35.7046C23.4664 35.8017 22.819 34.8676 23.429 34.5791L23.4261 34.582Z" fill="#693C3C"/>
<path d="M13.1446 34.582C11.7864 33.3851 10.1002 32.7595 8.93191 32.8138C7.7665 32.8681 7.4845 33.2594 7.39242 33.4194C7.30034 33.5793 7.18523 34.6562 7.3694 34.6934C7.55068 34.7276 10.129 34.7762 12.8425 35.7046C13.1245 35.8017 13.4871 34.8676 13.1446 34.5791V34.582Z" fill="#693C3C"/>
<path d="M24.2894 33.1695C24.2894 33.1695 25.9613 32.3754 26.672 32.1612C27.3828 31.947 27.2734 32.3297 26.8792 32.4926C26.485 32.6554 24.3988 33.2952 24.2894 33.3238C24.183 33.3495 24.1197 33.2524 24.2894 33.1724V33.1695Z" fill="#ED9087"/>
<path d="M13.1763 33.2711C13.1763 33.2711 12.2095 32.477 11.4987 32.2628C10.7879 32.0485 10.8973 32.4313 11.2915 32.5941C11.6857 32.7569 13.067 33.3968 13.1734 33.4254C13.2799 33.4511 13.3432 33.3539 13.1734 33.274L13.1763 33.2711Z" fill="#ED9087"/>
<path d="M23.3858 29.7908C22.9916 29.8051 23.8434 27.9369 24.416 27.7198C25.7454 27.2199 28.3726 27.7684 28.2057 27.9826C28.0388 28.1969 25.2793 29.7194 23.3858 29.7908Z" fill="#693C3C"/>
<path d="M13.7921 29.7908C14.1058 29.8051 13.4324 27.9369 12.9778 27.7198C11.9246 27.2199 9.84987 27.7684 9.98224 27.9826C10.1146 28.1969 12.2958 29.7194 13.795 29.7908H13.7921Z" fill="#693C3C"/>
<path d="M39.8656 35.075C39.0714 36.6946 38.1045 37.94 38.0125 37.94C37.8858 37.9201 36.3233 33.4297 35.4342 29.7991C35.4658 30.6475 35.3709 31.1531 35.3018 31.2216C35.086 31.4358 26.4303 28.1252 21.6334 22.8893C22.3298 26.697 21.4176 31.3387 21.2277 31.4816C21.0694 31.5987 14.759 28.965 12.7792 21.9552C11.3491 23.8662 9.14487 29.8876 8.92905 29.9105C8.81395 29.9248 8.16362 28.905 7.68019 27.2283C6.50615 28.8165 4.15519 30.9103 4.03721 30.6732C3.91636 30.4361 3.38977 28.508 3.34085 26.8655C2.04595 27.4596 0.702134 27.7881 0.751052 27.5168C0.799971 27.2454 1.80711 25.6743 1.83013 23.6262C1.85315 21.581 1.63734 16.3194 5.73785 14.0342C3.74946 13.9628 2.42866 11.1292 2.5006 10.7721C2.57254 10.415 4.54079 10.655 6.09754 10.0351C7.65717 9.41527 11.2541 6.6302 15.5215 7.53571C17.5617 4.82205 19.8637 2.34549 20.1256 2.48831C20.3903 2.63114 20.727 5.51332 20.4393 6.98726C21.878 6.08462 24.1801 5.29908 27.5842 5.46476C30.9883 5.63044 36.2169 5.20196 36.4816 5.29908C36.6399 5.35621 36.3204 6.54737 35.3076 7.58141C38.0671 8.08415 41.4454 9.84374 43.3388 10.2722C45.2322 10.7007 48.2795 10.415 48.4234 10.8207C48.5673 11.2263 46.7199 13.5572 45.7128 13.9856C47.4393 16.2965 49.8622 19.77 50.2219 21.4382C50.5816 23.1035 51.0823 25.9114 51.0823 25.9114C52.3887 26.9712 53.698 27.5396 53.698 27.8881C53.698 28.2852 51.019 29.6363 49.1112 29.7105C50.101 32.9412 49.6867 37.0631 49.5428 37.3031C49.3989 37.5401 48.1961 36.3861 47.7443 35.7149C47.7443 35.7149 47.1141 36.9403 46.5904 37.3031C45.92 34.6837 43.4654 35.2635 42.2655 35.652C41.4367 37.2259 40.4497 38.3857 40.3346 38.3857C40.1562 38.3857 39.8685 35.075 39.8685 35.075H39.8656Z" fill="#CF8E9D"/>
<path d="M18.6322 14.4255C18.1602 12.9973 18.5314 9.31529 20.5429 5.80182C20.5716 4.33645 20.327 2.59686 20.1227 2.48831C19.8609 2.34549 17.5588 4.82205 15.5186 7.53571C15.1935 7.46715 14.8683 7.42145 14.5518 7.39288C13.3288 9.43812 13.5216 11.1577 13.7087 11.5719C13.9043 12.0061 14.5575 13.46 17.2135 14.8454L18.6322 14.4284V14.4255Z" fill="#BA7081"/>
<path d="M47.868 28.5478C47.6177 28.5106 46.9702 29.5475 46.9328 30.5302C46.3746 29.5304 44.7027 28.5306 44.415 28.5478C44.1272 28.5649 43.4798 32.2955 43.2352 33.1781C42.9963 34.2407 41.8712 36.3374 41.8281 36.4145C41.9748 36.1746 42.1187 35.9175 42.2626 35.649C43.4625 35.2605 45.9171 34.6806 46.5875 37.3C47.1112 36.9373 47.7414 35.7118 47.7414 35.7118C48.1932 36.3831 49.396 37.5371 49.5399 37.3C49.6838 37.0601 50.0981 32.9382 49.1083 29.7075C48.6939 28.9762 48.1184 28.5821 47.868 28.5449V28.5478Z" fill="#BA7081"/>
<path d="M3.89912 15.5371C2.6071 17.0596 2.12367 19.0134 1.94238 20.7045C5.80406 22.3812 9.55063 21.8699 9.97363 21.2472C10.3506 20.693 6.92054 17.9794 3.89912 15.54V15.5371Z" fill="#E39CAC"/>
<path d="M50.1384 21.1431C49.6924 19.7062 48.1011 17.2868 46.6422 15.2559C43.0424 17.2611 34.8759 21.2945 35.4399 22.9341C35.9607 24.4537 44.8581 23.5196 50.1384 21.1431Z" fill="#E39CAC"/>
<path d="M36.1766 18.0299C34.1738 17.9442 31.5379 19.1011 32.3293 19.7095C33.1206 20.3179 37.0398 19.8866 37.365 19.3153C37.6901 18.744 37.0053 18.0642 36.1794 18.0299H36.1766Z" fill="#E39CAC"/>
<path d="M35.4342 29.7914C35.3651 28.0147 34.7407 24.7412 32.1854 20.8535" stroke="#693C3C" stroke-linecap="round" stroke-linejoin="round"/>
<path d="M12.2095 16.6738C12.1145 18.6562 12.3418 20.4101 12.7792 21.9526C14.759 28.9624 21.0694 31.5961 21.2277 31.4789C21.4176 31.3361 22.3298 26.6943 21.6334 22.8867C26.4303 28.1226 35.086 31.4332 35.3018 31.219C35.3709 31.1505 35.4658 30.6449 35.4342 29.7965" stroke="#693C3C" stroke-linecap="round" stroke-linejoin="round"/>
<path d="M35.4342 29.7902V29.7959C36.3234 33.4265 37.8859 37.9169 38.0125 37.9368C38.1046 37.9368 39.0714 36.6914 39.8656 35.0718C40.2483 34.292 40.5937 33.4208 40.7807 32.5638C41.313 30.2415 41.7044 28.0763 40.7951 26.0996" stroke="#693C3C" stroke-linecap="round" stroke-linejoin="round"/>
<path d="M39.8656 35.0743C39.8656 35.0743 40.1534 38.385 40.3318 38.385C40.4469 38.385 41.4339 37.2252 42.2626 35.6513C42.7345 34.7601 43.1518 33.7346 43.3359 32.7148" stroke="#693C3C" stroke-linecap="round" stroke-linejoin="round"/>
<path d="M42.2626 35.6498C43.4625 35.2613 45.9171 34.6814 46.5875 37.3008C47.1112 36.938 47.7414 35.7126 47.7414 35.7126C48.1932 36.3839 49.396 37.5379 49.5399 37.3008C49.6838 37.0609 50.0981 32.939 49.1083 29.7083C51.0161 29.634 53.6951 28.2829 53.6951 27.8859C53.6951 27.5374 52.3858 26.9689 51.0794 25.9092C50.6449 25.5607 50.2132 25.1579 49.8277 24.6895" stroke="#693C3C" stroke-linecap="round" stroke-linejoin="round"/>
<path d="M12.7763 21.956C11.3462 23.8669 9.142 29.8884 8.92619 29.9112C8.81108 29.9255 8.16076 28.9058 7.67733 27.229C7.25145 25.7551 6.95794 23.7727 7.27159 21.5332" stroke="#693C3C" stroke-linecap="round" stroke-linejoin="round"/>
<path d="M7.67732 27.2283C6.50328 28.8165 4.15233 30.9103 4.03435 30.6732C3.91349 30.4361 3.3869 28.508 3.33798 26.8655C2.04308 27.4596 0.699265 27.7881 0.748184 27.5168C0.797102 27.2454 1.80424 25.6743 1.82727 23.6262C1.85029 21.581 1.63447 16.3194 5.73498 14.0342C3.74659 13.9628 2.4258 11.1292 2.49773 10.7721C2.56967 10.415 4.53792 10.655 6.09467 10.0351C7.6543 9.41527 11.2512 6.6302 15.5186 7.53571C17.5588 4.82205 19.8609 2.34549 20.1227 2.48831C20.3875 2.63114 20.7241 5.51332 20.4364 6.98726C21.8752 6.08462 24.1772 5.29908 27.5813 5.46476C30.9855 5.63044 36.214 5.20196 36.4787 5.29908C36.637 5.35621 36.3176 6.54737 35.3047 7.58141C34.6544 8.24126 33.722 8.84112 32.4502 9.03536" stroke="#693C3C" stroke-linecap="round" stroke-linejoin="round"/>
<path d="M35.3018 7.58203C38.0614 8.08477 41.4396 9.84436 43.3331 10.2728C45.2265 10.7013 48.2738 10.4157 48.4177 10.8213C48.5616 11.2269 46.7142 13.5578 45.707 13.9863C47.4336 16.2971 49.8565 19.7706 50.2162 21.4388C50.5759 23.1041 51.0765 25.912 51.0765 25.912" stroke="#693C3C" stroke-linecap="round" stroke-linejoin="round"/>
<path d="M17.5819 0.285156C15.3518 0.964998 12.5461 4.55559 12.0426 7.5806C11.539 10.6056 12.431 12.568 12.7763 12.9622C13.1217 13.3564 14.2727 14.6761 17.2567 15.0331L18.6322 14.4276C17.438 12.748 15.9273 6.28661 17.5819 0.288013V0.285156Z" fill="#CF8E9D"/>
<path d="M18.6322 14.4247C17.438 12.7451 15.9273 6.28376 17.5819 0.285156C15.3518 0.964998 12.5461 4.55559 12.0426 7.5806C11.539 10.6056 12.431 12.568 12.7763 12.9622C13.1217 13.3564 14.2727 14.6761 17.2567 15.0331" stroke="#693C3C" stroke-linecap="round" stroke-linejoin="round"/>
<path d="M23.2995 54.379C22.8506 54.3619 22.4535 53.8249 22.8506 53.4135C23.2478 53.0022 24.8045 50.6056 27.8461 50.3228C28.7324 48.5404 33.1552 45.3268 34.1997 45.2897C35.2443 45.2526 39.3246 46.8265 39.7735 47.3778C40.2224 47.9291 40.1505 50.5742 39.2153 51.8225C38.5333 52.0196 36.0874 52.0367 36.0874 52.0367C36.0874 52.0367 30.692 53.2878 29.5956 53.4107C27.4749 54.3019 25.9814 54.6789 23.3024 54.3762L23.2995 54.379Z" fill="#FFC069"/>
<path d="M36.1536 52.3203C36.1536 52.3203 35.7478 52.4031 35.1378 52.526C34.5249 52.6459 33.7134 52.8145 32.8962 52.9659C32.0761 53.1144 31.2704 53.2887 30.6431 53.3743C30.0244 53.4715 29.61 53.5343 29.61 53.5343C29.5438 53.5457 29.4805 53.5 29.469 53.4343C29.4575 53.3686 29.5007 53.3086 29.564 53.2972H29.5812C29.5812 53.2972 29.9841 53.2115 30.5913 53.0858C31.1956 52.9716 32.0013 52.7545 32.807 52.5688C33.6127 52.3746 34.4155 52.1689 35.0198 52.0204C35.6241 51.8661 36.0241 51.7633 36.0241 51.7633C36.1795 51.7233 36.3349 51.8147 36.3751 51.969C36.4154 52.1232 36.3233 52.2775 36.168 52.3174C36.1651 52.3174 36.1564 52.3174 36.1536 52.3203Z" fill="#693C3C"/>
<path d="M23.2995 54.379C22.8506 54.3619 22.4535 53.8249 22.8506 53.4135C23.2478 53.0022 24.8045 50.6056 27.8461 50.3228C28.7324 48.5404 33.1552 45.3268 34.1997 45.2897C35.2443 45.2526 39.3246 46.8265 39.7735 47.3778C40.2224 47.9291 40.1505 50.5742 39.2153 51.8225C38.5333 52.0196 36.0874 52.0367 36.0874 52.0367" stroke="#693C3C" stroke-miterlimit="10" stroke-linecap="round"/>
<path d="M28.1108 58.9405C28.1942 59.3661 27.918 59.7803 27.4892 59.8631C27.0605 59.946 26.6432 59.6718 26.5598 59.2461L25.3944 53.3847C25.3109 52.959 25.5901 52.5449 26.0159 52.462C26.4447 52.3792 26.8619 52.6534 26.9454 53.079L28.1108 58.9405Z" fill="white" stroke="#693C3C" stroke-width="2" stroke-miterlimit="10" stroke-linecap="round"/>
<path d="M18.9918 58.4369C18.7818 58.8168 18.3012 58.9568 17.9185 58.7454C17.5358 58.5369 17.3948 58.0599 17.6077 57.68L20.5112 52.4469C20.7212 52.067 21.2047 51.9299 21.5874 52.1384C21.9701 52.3469 22.1082 52.8268 21.8982 53.2039L18.9947 58.4369H18.9918Z" fill="white" stroke="#693C3C" stroke-width="2" stroke-miterlimit="10" stroke-linecap="round"/>
</g>
<defs>
<clipPath id="clip0_300_22281">
<rect width="56" height="98" fill="white"/>
</clipPath>
</defs>
</svg>
